<?xml version="1.0" encoding="UTF-8" standalone="no"?>
<!DOCTYPE svg PUBLIC "-//W3C//DTD SVG 1.1//EN"
 "http://www.w3.org/Graphics/SVG/1.1/DTD/svg11.dtd">
<!-- Generated by graphviz version 2.40.1 (20161225.0304)
 -->
<!-- Title: snakemake_dag Pages: 1 -->
<svg width="1018pt" height="980pt"
 viewBox="0.00 0.00 1017.92 980.00" xmlns="http://www.w3.org/2000/svg" xmlns:xlink="http://www.w3.org/1999/xlink">
<g id="graph0" class="graph" transform="scale(1 1) rotate(0) translate(4 976)">
<title>snakemake_dag</title>
<polygon fill="#ffffff" stroke="transparent" points="-4,4 -4,-976 1013.9163,-976 1013.9163,4 -4,4"/>
<!-- 0 -->
<g id="node1" class="node">
<title>0</title>
<path fill="none" stroke="#d8bc56" stroke-width="2" d="M298.1264,-36C298.1264,-36 268.1264,-36 268.1264,-36 262.1264,-36 256.1264,-30 256.1264,-24 256.1264,-24 256.1264,-12 256.1264,-12 256.1264,-6 262.1264,0 268.1264,0 268.1264,0 298.1264,0 298.1264,0 304.1264,0 310.1264,-6 310.1264,-12 310.1264,-12 310.1264,-24 310.1264,-24 310.1264,-30 304.1264,-36 298.1264,-36"/>
<text text-anchor="middle" x="283.1264" y="-15.5" font-family="sans" font-size="10.00" fill="#000000">all</text>
</g>
<!-- 1 -->
<g id="node2" class="node">
<title>1</title>
<path fill="none" stroke="#568ad8" stroke-width="2" d="M265.1264,-108C265.1264,-108 179.1264,-108 179.1264,-108 173.1264,-108 167.1264,-102 167.1264,-96 167.1264,-96 167.1264,-84 167.1264,-84 167.1264,-78 173.1264,-72 179.1264,-72 179.1264,-72 265.1264,-72 265.1264,-72 271.1264,-72 277.1264,-78 277.1264,-84 277.1264,-84 277.1264,-96 277.1264,-96 277.1264,-102 271.1264,-108 265.1264,-108"/>
<text text-anchor="middle" x="222.1264" y="-87.5" font-family="sans" font-size="10.00" fill="#000000">make_word_clouds</text>
</g>
<!-- 1&#45;&gt;0 -->
<g id="edge1" class="edge">
<title>1&#45;&gt;0</title>
<path fill="none" stroke="#c0c0c0" stroke-width="2" d="M237.5192,-71.8314C244.6167,-63.454 253.1744,-53.3531 260.9504,-44.1749"/>
<polygon fill="#c0c0c0" stroke="#c0c0c0" stroke-width="2" points="263.7325,-46.3056 267.5262,-36.4133 258.3916,-41.7807 263.7325,-46.3056"/>
</g>
<!-- 2 -->
<g id="node3" class="node">
<title>2</title>
<path fill="none" stroke="#56d863" stroke-width="2" d="M383.1264,-108C383.1264,-108 309.1264,-108 309.1264,-108 303.1264,-108 297.1264,-102 297.1264,-96 297.1264,-96 297.1264,-84 297.1264,-84 297.1264,-78 303.1264,-72 309.1264,-72 309.1264,-72 383.1264,-72 383.1264,-72 389.1264,-72 395.1264,-78 395.1264,-84 395.1264,-84 395.1264,-96 395.1264,-96 395.1264,-102 389.1264,-108 383.1264,-108"/>
<text text-anchor="middle" x="346.1264" y="-87.5" font-family="sans" font-size="10.00" fill="#000000">make_SQLite_db</text>
</g>
<!-- 2&#45;&gt;0 -->
<g id="edge2" class="edge">
<title>2&#45;&gt;0</title>
<path fill="none" stroke="#c0c0c0" stroke-width="2" d="M330.2288,-71.8314C322.8986,-63.454 314.0604,-53.3531 306.0294,-44.1749"/>
<polygon fill="#c0c0c0" stroke="#c0c0c0" stroke-width="2" points="308.4571,-41.6343 299.238,-36.4133 303.189,-46.2438 308.4571,-41.6343"/>
</g>
<!-- 3 -->
<g id="node4" class="node">
<title>3</title>
<path fill="none" stroke="#56b9d8" stroke-width="2" d="M248.6264,-180C248.6264,-180 151.6264,-180 151.6264,-180 145.6264,-180 139.6264,-174 139.6264,-168 139.6264,-168 139.6264,-156 139.6264,-156 139.6264,-150 145.6264,-144 151.6264,-144 151.6264,-144 248.6264,-144 248.6264,-144 254.6264,-144 260.6264,-150 260.6264,-156 260.6264,-156 260.6264,-168 260.6264,-168 260.6264,-174 254.6264,-180 248.6264,-180"/>
<text text-anchor="middle" x="200.1264" y="-159.5" font-family="sans" font-size="10.00" fill="#000000">GO_term_enrichment</text>
</g>
<!-- 3&#45;&gt;1 -->
<g id="edge3" class="edge">
<title>3&#45;&gt;1</title>
<path fill="none" stroke="#c0c0c0" stroke-width="2" d="M205.6779,-143.8314C208.0567,-136.0463 210.8902,-126.7729 213.5296,-118.1347"/>
<polygon fill="#c0c0c0" stroke="#c0c0c0" stroke-width="2" points="216.9251,-118.9996 216.5001,-108.4133 210.2306,-116.954 216.9251,-118.9996"/>
</g>
<!-- 3&#45;&gt;2 -->
<g id="edge9" class="edge">
<title>3&#45;&gt;2</title>
<path fill="none" stroke="#c0c0c0" stroke-width="2" d="M236.9683,-143.8314C256.2346,-134.3302 279.9963,-122.6121 300.4255,-112.5374"/>
<polygon fill="#c0c0c0" stroke="#c0c0c0" stroke-width="2" points="302.1287,-115.6 309.5493,-108.038 299.0326,-109.3219 302.1287,-115.6"/>
</g>
<!-- 4 -->
<g id="node5" class="node">
<title>4</title>
<path fill="none" stroke="#d85656" stroke-width="2" d="M334.6264,-396C334.6264,-396 149.6264,-396 149.6264,-396 143.6264,-396 137.6264,-390 137.6264,-384 137.6264,-384 137.6264,-372 137.6264,-372 137.6264,-366 143.6264,-360 149.6264,-360 149.6264,-360 334.6264,-360 334.6264,-360 340.6264,-360 346.6264,-366 346.6264,-372 346.6264,-372 346.6264,-384 346.6264,-384 346.6264,-390 340.6264,-396 334.6264,-396"/>
<text text-anchor="middle" x="242.1264" y="-381" font-family="sans" font-size="10.00" fill="#000000">gene_quantification_and_normalization</text>
<text text-anchor="middle" x="242.1264" y="-370" font-family="sans" font-size="10.00" fill="#000000">level: gene</text>
</g>
<!-- 4&#45;&gt;2 -->
<g id="edge4" class="edge">
<title>4&#45;&gt;2</title>
<path fill="none" stroke="#c0c0c0" stroke-width="2" d="M166.5265,-359.9818C83.7175,-336.2169 -32.2121,-288.7014 9.1264,-216 74.4404,-101.133 158.4003,-141.8586 286.1264,-108 286.4614,-107.9112 286.7975,-107.8218 287.1344,-107.7318"/>
<polygon fill="#c0c0c0" stroke="#c0c0c0" stroke-width="2" points="288.3706,-111.0218 297.0837,-104.9943 286.5135,-104.2726 288.3706,-111.0218"/>
</g>
<!-- 6 -->
<g id="node7" class="node">
<title>6</title>
<path fill="none" stroke="#56d892" stroke-width="2" d="M412.6264,-324C412.6264,-324 337.6264,-324 337.6264,-324 331.6264,-324 325.6264,-318 325.6264,-312 325.6264,-312 325.6264,-300 325.6264,-300 325.6264,-294 331.6264,-288 337.6264,-288 337.6264,-288 412.6264,-288 412.6264,-288 418.6264,-288 424.6264,-294 424.6264,-300 424.6264,-300 424.6264,-312 424.6264,-312 424.6264,-318 418.6264,-324 412.6264,-324"/>
<text text-anchor="middle" x="375.1264" y="-303.5" font-family="sans" font-size="10.00" fill="#000000">make_meta_info</text>
</g>
<!-- 4&#45;&gt;6 -->
<g id="edge24" class="edge">
<title>4&#45;&gt;6</title>
<path fill="none" stroke="#c0c0c0" stroke-width="2" d="M275.6879,-359.8314C293.0144,-350.4516 314.3321,-338.9112 332.78,-328.9244"/>
<polygon fill="#c0c0c0" stroke="#c0c0c0" stroke-width="2" points="334.4478,-332.0015 341.5756,-324.1628 331.1152,-325.8457 334.4478,-332.0015"/>
</g>
<!-- 7 -->
<g id="node8" class="node">
<title>7</title>
<path fill="none" stroke="#97d856" stroke-width="2" d="M134.1264,-252C134.1264,-252 30.1264,-252 30.1264,-252 24.1264,-252 18.1264,-246 18.1264,-240 18.1264,-240 18.1264,-228 18.1264,-228 18.1264,-222 24.1264,-216 30.1264,-216 30.1264,-216 134.1264,-216 134.1264,-216 140.1264,-216 146.1264,-222 146.1264,-228 146.1264,-228 146.1264,-240 146.1264,-240 146.1264,-246 140.1264,-252 134.1264,-252"/>
<text text-anchor="middle" x="82.1264" y="-231.5" font-family="sans" font-size="10.00" fill="#000000">differential_expression</text>
</g>
<!-- 4&#45;&gt;7 -->
<g id="edge27" class="edge">
<title>4&#45;&gt;7</title>
<path fill="none" stroke="#c0c0c0" stroke-width="2" d="M221.8623,-359.7623C193.49,-334.2272 141.8282,-287.7316 109.8937,-258.9906"/>
<polygon fill="#c0c0c0" stroke="#c0c0c0" stroke-width="2" points="112.0003,-256.1778 102.2259,-252.0896 107.3175,-261.3808 112.0003,-256.1778"/>
</g>
<!-- 9 -->
<g id="node10" class="node">
<title>9</title>
<path fill="none" stroke="#d8a456" stroke-width="2" d="M307.6264,-252C307.6264,-252 176.6264,-252 176.6264,-252 170.6264,-252 164.6264,-246 164.6264,-240 164.6264,-240 164.6264,-228 164.6264,-228 164.6264,-222 170.6264,-216 176.6264,-216 176.6264,-216 307.6264,-216 307.6264,-216 313.6264,-216 319.6264,-222 319.6264,-228 319.6264,-228 319.6264,-240 319.6264,-240 319.6264,-246 313.6264,-252 307.6264,-252"/>
<text text-anchor="middle" x="242.1264" y="-231.5" font-family="sans" font-size="10.00" fill="#000000">calculate_mean_rank_decile</text>
</g>
<!-- 4&#45;&gt;9 -->
<g id="edge31" class="edge">
<title>4&#45;&gt;9</title>
<path fill="none" stroke="#c0c0c0" stroke-width="2" d="M242.1264,-359.7623C242.1264,-335.201 242.1264,-291.2474 242.1264,-262.3541"/>
<polygon fill="#c0c0c0" stroke="#c0c0c0" stroke-width="2" points="245.6265,-262.0896 242.1264,-252.0896 238.6265,-262.0897 245.6265,-262.0896"/>
</g>
<!-- 11 -->
<g id="node12" class="node">
<title>11</title>
<path fill="none" stroke="#78d856" stroke-width="2" d="M380.1264,-252C380.1264,-252 350.1264,-252 350.1264,-252 344.1264,-252 338.1264,-246 338.1264,-240 338.1264,-240 338.1264,-228 338.1264,-228 338.1264,-222 344.1264,-216 350.1264,-216 350.1264,-216 380.1264,-216 380.1264,-216 386.1264,-216 392.1264,-222 392.1264,-228 392.1264,-228 392.1264,-240 392.1264,-240 392.1264,-246 386.1264,-252 380.1264,-252"/>
<text text-anchor="middle" x="365.1264" y="-231.5" font-family="sans" font-size="10.00" fill="#000000">tSNE</text>
</g>
<!-- 4&#45;&gt;11 -->
<g id="edge36" class="edge">
<title>4&#45;&gt;11</title>
<path fill="none" stroke="#c0c0c0" stroke-width="2" d="M256.9007,-359.9288C271.9074,-341.6546 295.8969,-312.6645 317.1264,-288 325.1007,-278.7354 333.9596,-268.699 341.8741,-259.8211"/>
<polygon fill="#c0c0c0" stroke="#c0c0c0" stroke-width="2" points="344.4837,-262.1535 348.5401,-252.366 339.2654,-257.4876 344.4837,-262.1535"/>
</g>
<!-- 5 -->
<g id="node6" class="node">
<title>5</title>
<path fill="none" stroke="#d85656" stroke-width="2" d="M648.6264,-396C648.6264,-396 463.6264,-396 463.6264,-396 457.6264,-396 451.6264,-390 451.6264,-384 451.6264,-384 451.6264,-372 451.6264,-372 451.6264,-366 457.6264,-360 463.6264,-360 463.6264,-360 648.6264,-360 648.6264,-360 654.6264,-360 660.6264,-366 660.6264,-372 660.6264,-372 660.6264,-384 660.6264,-384 660.6264,-390 654.6264,-396 648.6264,-396"/>
<text text-anchor="middle" x="556.1264" y="-381" font-family="sans" font-size="10.00" fill="#000000">gene_quantification_and_normalization</text>
<text text-anchor="middle" x="556.1264" y="-370" font-family="sans" font-size="10.00" fill="#000000">level: transcript</text>
</g>
<!-- 5&#45;&gt;2 -->
<g id="edge5" class="edge">
<title>5&#45;&gt;2</title>
<path fill="none" stroke="#c0c0c0" stroke-width="2" d="M614.7217,-359.9567C690.2475,-333.6016 806.5442,-280.615 759.1264,-216 716.9018,-158.4617 509.01,-116.8103 405.2526,-99.2441"/>
<polygon fill="#c0c0c0" stroke="#c0c0c0" stroke-width="2" points="405.6842,-95.7677 395.2437,-97.5697 404.5291,-102.6718 405.6842,-95.7677"/>
</g>
<!-- 5&#45;&gt;6 -->
<g id="edge25" class="edge">
<title>5&#45;&gt;6</title>
<path fill="none" stroke="#c0c0c0" stroke-width="2" d="M510.4524,-359.8314C486.0296,-350.1162 455.7797,-338.0831 430.078,-327.8592"/>
<polygon fill="#c0c0c0" stroke="#c0c0c0" stroke-width="2" points="431.0574,-324.4821 420.4719,-324.038 428.47,-330.9864 431.0574,-324.4821"/>
</g>
<!-- 8 -->
<g id="node9" class="node">
<title>8</title>
<path fill="none" stroke="#97d856" stroke-width="2" d="M738.1264,-252C738.1264,-252 634.1264,-252 634.1264,-252 628.1264,-252 622.1264,-246 622.1264,-240 622.1264,-240 622.1264,-228 622.1264,-228 622.1264,-222 628.1264,-216 634.1264,-216 634.1264,-216 738.1264,-216 738.1264,-216 744.1264,-216 750.1264,-222 750.1264,-228 750.1264,-228 750.1264,-240 750.1264,-240 750.1264,-246 744.1264,-252 738.1264,-252"/>
<text text-anchor="middle" x="686.1264" y="-231.5" font-family="sans" font-size="10.00" fill="#000000">differential_expression</text>
</g>
<!-- 5&#45;&gt;8 -->
<g id="edge29" class="edge">
<title>5&#45;&gt;8</title>
<path fill="none" stroke="#c0c0c0" stroke-width="2" d="M572.591,-359.7623C595.4481,-334.4436 636.9086,-288.5182 662.9023,-259.7251"/>
<polygon fill="#c0c0c0" stroke="#c0c0c0" stroke-width="2" points="665.6923,-261.8577 669.7955,-252.0896 660.4965,-257.167 665.6923,-261.8577"/>
</g>
<!-- 10 -->
<g id="node11" class="node">
<title>10</title>
<path fill="none" stroke="#d8a456" stroke-width="2" d="M591.6264,-252C591.6264,-252 460.6264,-252 460.6264,-252 454.6264,-252 448.6264,-246 448.6264,-240 448.6264,-240 448.6264,-228 448.6264,-228 448.6264,-222 454.6264,-216 460.6264,-216 460.6264,-216 591.6264,-216 591.6264,-216 597.6264,-216 603.6264,-222 603.6264,-228 603.6264,-228 603.6264,-240 603.6264,-240 603.6264,-246 597.6264,-252 591.6264,-252"/>
<text text-anchor="middle" x="526.1264" y="-231.5" font-family="sans" font-size="10.00" fill="#000000">calculate_mean_rank_decile</text>
</g>
<!-- 5&#45;&gt;10 -->
<g id="edge33" class="edge">
<title>5&#45;&gt;10</title>
<path fill="none" stroke="#c0c0c0" stroke-width="2" d="M552.3268,-359.7623C547.1874,-335.0928 537.9722,-290.8598 531.9541,-261.9731"/>
<polygon fill="#c0c0c0" stroke="#c0c0c0" stroke-width="2" points="535.3611,-261.1656 529.895,-252.0896 528.5082,-262.5933 535.3611,-261.1656"/>
</g>
<!-- 6&#45;&gt;2 -->
<g id="edge6" class="edge">
<title>6&#45;&gt;2</title>
<path fill="none" stroke="#c0c0c0" stroke-width="2" d="M386.446,-287.7678C392.066,-277.6415 398.2558,-264.5789 401.1264,-252 404.6861,-236.401 404.3958,-231.6624 401.1264,-216 393.6446,-180.1582 375.3803,-142.0278 361.9424,-117.2216"/>
<polygon fill="#c0c0c0" stroke="#c0c0c0" stroke-width="2" points="364.9649,-115.4547 357.0611,-108.3993 358.8399,-118.8437 364.9649,-115.4547"/>
</g>
<!-- 6&#45;&gt;7 -->
<g id="edge28" class="edge">
<title>6&#45;&gt;7</title>
<path fill="none" stroke="#c0c0c0" stroke-width="2" d="M325.3191,-293.7905C282.904,-283.3894 220.0621,-267.9709 156.0795,-252.2334"/>
<polygon fill="#c0c0c0" stroke="#c0c0c0" stroke-width="2" points="156.7661,-248.798 146.2195,-249.8078 155.0939,-255.5954 156.7661,-248.798"/>
</g>
<!-- 6&#45;&gt;8 -->
<g id="edge30" class="edge">
<title>6&#45;&gt;8</title>
<path fill="none" stroke="#c0c0c0" stroke-width="2" d="M424.875,-294.9957C470.9037,-284.7504 541.4939,-268.8771 612.0898,-252.2258"/>
<polygon fill="#c0c0c0" stroke="#c0c0c0" stroke-width="2" points="613.1221,-255.5784 622.0486,-249.8716 611.5116,-248.7661 613.1221,-255.5784"/>
</g>
<!-- 6&#45;&gt;9 -->
<g id="edge32" class="edge">
<title>6&#45;&gt;9</title>
<path fill="none" stroke="#c0c0c0" stroke-width="2" d="M341.5649,-287.8314C324.2383,-278.4516 302.9206,-266.9112 284.4728,-256.9244"/>
<polygon fill="#c0c0c0" stroke="#c0c0c0" stroke-width="2" points="286.1375,-253.8457 275.6771,-252.1628 282.805,-260.0015 286.1375,-253.8457"/>
</g>
<!-- 6&#45;&gt;10 -->
<g id="edge34" class="edge">
<title>6&#45;&gt;10</title>
<path fill="none" stroke="#c0c0c0" stroke-width="2" d="M413.23,-287.8314C433.2459,-278.2874 457.9531,-266.5065 479.1458,-256.4013"/>
<polygon fill="#c0c0c0" stroke="#c0c0c0" stroke-width="2" points="480.7767,-259.5013 488.2967,-252.038 477.7639,-253.1828 480.7767,-259.5013"/>
</g>
<!-- 6&#45;&gt;11 -->
<g id="edge35" class="edge">
<title>6&#45;&gt;11</title>
<path fill="none" stroke="#c0c0c0" stroke-width="2" d="M372.6029,-287.8314C371.5334,-280.131 370.2617,-270.9743 369.0731,-262.4166"/>
<polygon fill="#c0c0c0" stroke="#c0c0c0" stroke-width="2" points="372.5263,-261.8367 367.6838,-252.4133 365.5928,-262.7997 372.5263,-261.8367"/>
</g>
<!-- 7&#45;&gt;2 -->
<g id="edge7" class="edge">
<title>7&#45;&gt;2</title>
<path fill="none" stroke="#c0c0c0" stroke-width="2" d="M146.2784,-217.4211C196.1021,-204.2209 258.4723,-186.8606 269.1264,-180 276.0773,-175.524 304.6824,-141.154 324.992,-116.2155"/>
<polygon fill="#c0c0c0" stroke="#c0c0c0" stroke-width="2" points="327.9328,-118.1462 331.5183,-108.1765 322.4982,-113.7342 327.9328,-118.1462"/>
</g>
<!-- 7&#45;&gt;3 -->
<g id="edge13" class="edge">
<title>7&#45;&gt;3</title>
<path fill="none" stroke="#c0c0c0" stroke-width="2" d="M111.9027,-215.8314C126.9957,-206.6221 145.502,-195.3301 161.6606,-185.4706"/>
<polygon fill="#c0c0c0" stroke="#c0c0c0" stroke-width="2" points="163.6461,-188.3593 170.3595,-180.1628 160.0001,-182.3838 163.6461,-188.3593"/>
</g>
<!-- 8&#45;&gt;2 -->
<g id="edge8" class="edge">
<title>8&#45;&gt;2</title>
<path fill="none" stroke="#c0c0c0" stroke-width="2" d="M643.4094,-215.9081C581.1069,-189.5212 465.4367,-140.5315 398.2218,-112.064"/>
<polygon fill="#c0c0c0" stroke="#c0c0c0" stroke-width="2" points="399.2418,-108.695 388.6686,-108.0179 396.5118,-115.1407 399.2418,-108.695"/>
</g>
<!-- 9&#45;&gt;2 -->
<g id="edge10" class="edge">
<title>9&#45;&gt;2</title>
<path fill="none" stroke="#c0c0c0" stroke-width="2" d="M266.8317,-215.9471C278.8678,-206.2653 292.9096,-193.553 303.1264,-180 317.529,-160.8943 328.9106,-136.1953 336.3368,-117.5061"/>
<polygon fill="#c0c0c0" stroke="#c0c0c0" stroke-width="2" points="339.6392,-118.6694 339.9521,-108.0791 333.1033,-116.1628 339.6392,-118.6694"/>
</g>
<!-- 10&#45;&gt;2 -->
<g id="edge11" class="edge">
<title>10&#45;&gt;2</title>
<path fill="none" stroke="#c0c0c0" stroke-width="2" d="M509.8935,-215.8653C492.2899,-196.7613 462.8448,-166.399 434.1264,-144 419.9635,-132.9536 403.4056,-122.2815 388.4973,-113.3831"/>
<polygon fill="#c0c0c0" stroke="#c0c0c0" stroke-width="2" points="389.8606,-110.1251 379.4641,-108.0843 386.3188,-116.1629 389.8606,-110.1251"/>
</g>
<!-- 11&#45;&gt;2 -->
<g id="edge12" class="edge">
<title>11&#45;&gt;2</title>
<path fill="none" stroke="#c0c0c0" stroke-width="2" d="M362.72,-215.7623C359.4793,-191.201 353.6798,-147.2474 349.8675,-118.3541"/>
<polygon fill="#c0c0c0" stroke="#c0c0c0" stroke-width="2" points="353.2913,-117.5458 348.5132,-108.0896 346.3515,-118.4616 353.2913,-117.5458"/>
</g>
<!-- 12 -->
<g id="node13" class="node">
<title>12</title>
<path fill="none" stroke="#56d8c9" stroke-width="2" d="M609.1264,-540C609.1264,-540 503.1264,-540 503.1264,-540 497.1264,-540 491.1264,-534 491.1264,-528 491.1264,-528 491.1264,-516 491.1264,-516 491.1264,-510 497.1264,-504 503.1264,-504 503.1264,-504 609.1264,-504 609.1264,-504 615.1264,-504 621.1264,-510 621.1264,-516 621.1264,-516 621.1264,-528 621.1264,-528 621.1264,-534 615.1264,-540 609.1264,-540"/>
<text text-anchor="middle" x="556.1264" y="-525" font-family="sans" font-size="10.00" fill="#000000">re_run_Salmon</text>
<text text-anchor="middle" x="556.1264" y="-514" font-family="sans" font-size="10.00" fill="#000000">sampleID: SRS1305249</text>
</g>
<!-- 12&#45;&gt;4 -->
<g id="edge14" class="edge">
<title>12&#45;&gt;4</title>
<path fill="none" stroke="#c0c0c0" stroke-width="2" d="M491.0765,-512.5481C414.7201,-500.9487 296.3743,-481.1996 280.1264,-468 261.2934,-452.7004 251.6422,-426.3938 246.792,-406.1605"/>
<polygon fill="#c0c0c0" stroke="#c0c0c0" stroke-width="2" points="250.1814,-405.2725 244.6702,-396.2239 243.3357,-406.7344 250.1814,-405.2725"/>
</g>
<!-- 12&#45;&gt;5 -->
<g id="edge19" class="edge">
<title>12&#45;&gt;5</title>
<path fill="none" stroke="#c0c0c0" stroke-width="2" d="M610.3859,-503.9128C626.7115,-495.642 642.7621,-484.0115 652.1264,-468 660.2039,-454.1886 660.2039,-445.8114 652.1264,-432 644.5179,-418.9907 632.4954,-408.8734 619.4978,-401.1006"/>
<polygon fill="#c0c0c0" stroke="#c0c0c0" stroke-width="2" points="620.8345,-397.8413 610.3859,-396.0872 617.4601,-403.9743 620.8345,-397.8413"/>
</g>
<!-- 15 -->
<g id="node16" class="node">
<title>15</title>
<path fill="none" stroke="#d86e56" stroke-width="2" d="M630.6264,-468C630.6264,-468 481.6264,-468 481.6264,-468 475.6264,-468 469.6264,-462 469.6264,-456 469.6264,-456 469.6264,-444 469.6264,-444 469.6264,-438 475.6264,-432 481.6264,-432 481.6264,-432 630.6264,-432 630.6264,-432 636.6264,-432 642.6264,-438 642.6264,-444 642.6264,-444 642.6264,-456 642.6264,-456 642.6264,-462 636.6264,-468 630.6264,-468"/>
<text text-anchor="middle" x="556.1264" y="-447.5" font-family="sans" font-size="10.00" fill="#000000">process_poor_mapped_samples</text>
</g>
<!-- 12&#45;&gt;15 -->
<g id="edge43" class="edge">
<title>12&#45;&gt;15</title>
<path fill="none" stroke="#c0c0c0" stroke-width="2" d="M556.1264,-503.8314C556.1264,-496.131 556.1264,-486.9743 556.1264,-478.4166"/>
<polygon fill="#c0c0c0" stroke="#c0c0c0" stroke-width="2" points="559.6265,-478.4132 556.1264,-468.4133 552.6265,-478.4133 559.6265,-478.4132"/>
</g>
<!-- 16 -->
<g id="node17" class="node">
<title>16</title>
<path fill="none" stroke="#56d0d8" stroke-width="2" d="M401.1264,-468C401.1264,-468 301.1264,-468 301.1264,-468 295.1264,-468 289.1264,-462 289.1264,-456 289.1264,-456 289.1264,-444 289.1264,-444 289.1264,-438 295.1264,-432 301.1264,-432 301.1264,-432 401.1264,-432 401.1264,-432 407.1264,-432 413.1264,-438 413.1264,-444 413.1264,-444 413.1264,-456 413.1264,-456 413.1264,-462 407.1264,-468 401.1264,-468"/>
<text text-anchor="middle" x="351.1264" y="-447.5" font-family="sans" font-size="10.00" fill="#000000">extract_mapping_rate</text>
</g>
<!-- 12&#45;&gt;16 -->
<g id="edge45" class="edge">
<title>12&#45;&gt;16</title>
<path fill="none" stroke="#c0c0c0" stroke-width="2" d="M504.6608,-503.9243C476.6361,-494.0815 441.7779,-481.8386 412.3624,-471.5073"/>
<polygon fill="#c0c0c0" stroke="#c0c0c0" stroke-width="2" points="413.2079,-468.0947 402.6131,-468.0831 410.8882,-474.6992 413.2079,-468.0947"/>
</g>
<!-- 13 -->
<g id="node14" class="node">
<title>13</title>
<path fill="none" stroke="#56d8c9" stroke-width="2" d="M401.1264,-540C401.1264,-540 301.1264,-540 301.1264,-540 295.1264,-540 289.1264,-534 289.1264,-528 289.1264,-528 289.1264,-516 289.1264,-516 289.1264,-510 295.1264,-504 301.1264,-504 301.1264,-504 401.1264,-504 401.1264,-504 407.1264,-504 413.1264,-510 413.1264,-516 413.1264,-516 413.1264,-528 413.1264,-528 413.1264,-534 407.1264,-540 401.1264,-540"/>
<text text-anchor="middle" x="351.1264" y="-525" font-family="sans" font-size="10.00" fill="#000000">re_run_Salmon</text>
<text text-anchor="middle" x="351.1264" y="-514" font-family="sans" font-size="10.00" fill="#000000">sampleID: SRS638559</text>
</g>
<!-- 13&#45;&gt;4 -->
<g id="edge15" class="edge">
<title>13&#45;&gt;4</title>
<path fill="none" stroke="#c0c0c0" stroke-width="2" d="M291.6365,-503.9217C274.4631,-495.7319 257.5607,-484.1475 247.1264,-468 235.4281,-449.8966 234.8704,-425.221 236.8518,-406.2856"/>
<polygon fill="#c0c0c0" stroke="#c0c0c0" stroke-width="2" points="240.3488,-406.5396 238.2027,-396.1644 233.4104,-405.6134 240.3488,-406.5396"/>
</g>
<!-- 13&#45;&gt;5 -->
<g id="edge20" class="edge">
<title>13&#45;&gt;5</title>
<path fill="none" stroke="#c0c0c0" stroke-width="2" d="M376.2219,-503.8223C390.018,-493.6047 407.2934,-480.4386 422.1264,-468 440.2013,-452.8428 442.0817,-445.9192 461.1264,-432 476.4908,-420.7706 494.4008,-410.0502 510.5024,-401.1642"/>
<polygon fill="#c0c0c0" stroke="#c0c0c0" stroke-width="2" points="512.6187,-403.9981 519.7409,-396.1542 509.2817,-397.8446 512.6187,-403.9981"/>
</g>
<!-- 13&#45;&gt;15 -->
<g id="edge44" class="edge">
<title>13&#45;&gt;15</title>
<path fill="none" stroke="#c0c0c0" stroke-width="2" d="M402.5919,-503.9243C430.6166,-494.0815 465.4748,-481.8386 494.8903,-471.5073"/>
<polygon fill="#c0c0c0" stroke="#c0c0c0" stroke-width="2" points="496.3645,-474.6992 504.6396,-468.0831 494.0448,-468.0947 496.3645,-474.6992"/>
</g>
<!-- 13&#45;&gt;16 -->
<g id="edge46" class="edge">
<title>13&#45;&gt;16</title>
<path fill="none" stroke="#c0c0c0" stroke-width="2" d="M351.1264,-503.8314C351.1264,-496.131 351.1264,-486.9743 351.1264,-478.4166"/>
<polygon fill="#c0c0c0" stroke="#c0c0c0" stroke-width="2" points="354.6265,-478.4132 351.1264,-468.4133 347.6265,-478.4133 354.6265,-478.4132"/>
</g>
<!-- 14 -->
<g id="node15" class="node">
<title>14</title>
<path fill="none" stroke="#61d856" stroke-width="2" d="M606.6264,-972C606.6264,-972 523.6264,-972 523.6264,-972 517.6264,-972 511.6264,-966 511.6264,-960 511.6264,-960 511.6264,-948 511.6264,-948 511.6264,-942 517.6264,-936 523.6264,-936 523.6264,-936 606.6264,-936 606.6264,-936 612.6264,-936 618.6264,-942 618.6264,-948 618.6264,-948 618.6264,-960 618.6264,-960 618.6264,-966 612.6264,-972 606.6264,-972"/>
<text text-anchor="middle" x="565.1264" y="-951.5" font-family="sans" font-size="10.00" fill="#000000">downloadGencode</text>
</g>
<!-- 14&#45;&gt;4 -->
<g id="edge16" class="edge">
<title>14&#45;&gt;4</title>
<path fill="none" stroke="#c0c0c0" stroke-width="2" d="M511.4066,-945.6397C490.7079,-942.4978 466.8332,-938.9702 445.1264,-936 380.5683,-927.1664 202.1165,-944.0763 154.1264,-900 124.017,-872.3462 135.1264,-850.8816 135.1264,-810 135.1264,-810 135.1264,-810 135.1264,-522 135.1264,-472.2513 176.7805,-428.5243 208.1101,-402.6715"/>
<polygon fill="#c0c0c0" stroke="#c0c0c0" stroke-width="2" points="210.604,-405.1584 216.2247,-396.1774 206.2301,-399.6931 210.604,-405.1584"/>
</g>
<!-- 14&#45;&gt;5 -->
<g id="edge21" class="edge">
<title>14&#45;&gt;5</title>
<path fill="none" stroke="#c0c0c0" stroke-width="2" d="M618.6658,-945.8574C640.2286,-942.6583 665.343,-939.0336 688.1264,-936 754.6839,-927.138 938.5911,-945.3288 988.1264,-900 1018.2863,-872.4013 1007.1264,-850.8816 1007.1264,-810 1007.1264,-810 1007.1264,-810 1007.1264,-522 1007.1264,-451.5067 804.6459,-410.8306 671.0266,-391.6625"/>
<polygon fill="#c0c0c0" stroke="#c0c0c0" stroke-width="2" points="671.1196,-388.141 660.7284,-390.2081 670.1407,-395.0722 671.1196,-388.141"/>
</g>
<!-- 24 -->
<g id="node25" class="node">
<title>24</title>
<path fill="none" stroke="#5673d8" stroke-width="2" d="M569.1264,-684C569.1264,-684 467.1264,-684 467.1264,-684 461.1264,-684 455.1264,-678 455.1264,-672 455.1264,-672 455.1264,-660 455.1264,-660 455.1264,-654 461.1264,-648 467.1264,-648 467.1264,-648 569.1264,-648 569.1264,-648 575.1264,-648 581.1264,-654 581.1264,-660 581.1264,-660 581.1264,-672 581.1264,-672 581.1264,-678 575.1264,-684 569.1264,-684"/>
<text text-anchor="middle" x="518.1264" y="-663.5" font-family="sans" font-size="10.00" fill="#000000">remove_tx_low_usage</text>
</g>
<!-- 14&#45;&gt;24 -->
<g id="edge53" class="edge">
<title>14&#45;&gt;24</title>
<path fill="none" stroke="#c0c0c0" stroke-width="2" d="M532.3638,-935.9454C519.5065,-926.9749 506.1636,-914.8504 499.1264,-900 466.6726,-831.5148 491.3856,-739.0697 507.3434,-693.5984"/>
<polygon fill="#c0c0c0" stroke="#c0c0c0" stroke-width="2" points="510.6625,-694.7122 510.7854,-684.1181 504.0827,-692.3233 510.6625,-694.7122"/>
</g>
<!-- 27 -->
<g id="node28" class="node">
<title>27</title>
<path fill="none" stroke="#afd856" stroke-width="2" d="M647.6264,-756C647.6264,-756 564.6264,-756 564.6264,-756 558.6264,-756 552.6264,-750 552.6264,-744 552.6264,-744 552.6264,-732 552.6264,-732 552.6264,-726 558.6264,-720 564.6264,-720 564.6264,-720 647.6264,-720 647.6264,-720 653.6264,-720 659.6264,-726 659.6264,-732 659.6264,-732 659.6264,-744 659.6264,-744 659.6264,-750 653.6264,-756 647.6264,-756"/>
<text text-anchor="middle" x="606.1264" y="-735.5" font-family="sans" font-size="10.00" fill="#000000">find_tx_low_usage</text>
</g>
<!-- 14&#45;&gt;27 -->
<g id="edge56" class="edge">
<title>14&#45;&gt;27</title>
<path fill="none" stroke="#c0c0c0" stroke-width="2" d="M597.8889,-935.9454C610.7462,-926.9749 624.0891,-914.8504 631.1264,-900 651.9232,-856.1136 633.8835,-798.7486 619.5438,-765.3774"/>
<polygon fill="#c0c0c0" stroke="#c0c0c0" stroke-width="2" points="622.7293,-763.9271 615.4463,-756.2324 616.3412,-766.7894 622.7293,-763.9271"/>
</g>
<!-- 30 -->
<g id="node31" class="node">
<title>30</title>
<path fill="none" stroke="#56d87b" stroke-width="2" d="M610.1264,-900C610.1264,-900 520.1264,-900 520.1264,-900 514.1264,-900 508.1264,-894 508.1264,-888 508.1264,-888 508.1264,-876 508.1264,-876 508.1264,-870 514.1264,-864 520.1264,-864 520.1264,-864 610.1264,-864 610.1264,-864 616.1264,-864 622.1264,-870 622.1264,-876 622.1264,-876 622.1264,-888 622.1264,-888 622.1264,-894 616.1264,-900 610.1264,-900"/>
<text text-anchor="middle" x="565.1264" y="-879.5" font-family="sans" font-size="10.00" fill="#000000">build_salmon_index</text>
</g>
<!-- 14&#45;&gt;30 -->
<g id="edge63" class="edge">
<title>14&#45;&gt;30</title>
<path fill="none" stroke="#c0c0c0" stroke-width="2" d="M565.1264,-935.8314C565.1264,-928.131 565.1264,-918.9743 565.1264,-910.4166"/>
<polygon fill="#c0c0c0" stroke="#c0c0c0" stroke-width="2" points="568.6265,-910.4132 565.1264,-900.4133 561.6265,-910.4133 568.6265,-910.4132"/>
</g>
<!-- 15&#45;&gt;4 -->
<g id="edge17" class="edge">
<title>15&#45;&gt;4</title>
<path fill="none" stroke="#c0c0c0" stroke-width="2" d="M477.2962,-431.9243C432.6996,-421.6983 376.8052,-408.8818 330.6993,-398.3097"/>
<polygon fill="#c0c0c0" stroke="#c0c0c0" stroke-width="2" points="331.2459,-394.8443 320.7166,-396.0207 329.6813,-401.6672 331.2459,-394.8443"/>
</g>
<!-- 15&#45;&gt;5 -->
<g id="edge22" class="edge">
<title>15&#45;&gt;5</title>
<path fill="none" stroke="#c0c0c0" stroke-width="2" d="M556.1264,-431.8314C556.1264,-424.131 556.1264,-414.9743 556.1264,-406.4166"/>
<polygon fill="#c0c0c0" stroke="#c0c0c0" stroke-width="2" points="559.6265,-406.4132 556.1264,-396.4133 552.6265,-406.4133 559.6265,-406.4132"/>
</g>
<!-- 16&#45;&gt;4 -->
<g id="edge18" class="edge">
<title>16&#45;&gt;4</title>
<path fill="none" stroke="#c0c0c0" stroke-width="2" d="M323.6211,-431.8314C309.8084,-422.7074 292.9007,-411.539 278.0734,-401.7449"/>
<polygon fill="#c0c0c0" stroke="#c0c0c0" stroke-width="2" points="279.896,-398.7541 269.6229,-396.1628 276.0378,-404.5949 279.896,-398.7541"/>
</g>
<!-- 16&#45;&gt;5 -->
<g id="edge23" class="edge">
<title>16&#45;&gt;5</title>
<path fill="none" stroke="#c0c0c0" stroke-width="2" d="M402.5919,-431.9243C430.6166,-422.0815 465.4748,-409.8386 494.8903,-399.5073"/>
<polygon fill="#c0c0c0" stroke="#c0c0c0" stroke-width="2" points="496.3645,-402.6992 504.6396,-396.0831 494.0448,-396.0947 496.3645,-402.6992"/>
</g>
<!-- 16&#45;&gt;6 -->
<g id="edge26" class="edge">
<title>16&#45;&gt;6</title>
<path fill="none" stroke="#c0c0c0" stroke-width="2" d="M354.166,-431.7623C358.2776,-407.0928 365.6497,-362.8598 370.4642,-333.9731"/>
<polygon fill="#c0c0c0" stroke="#c0c0c0" stroke-width="2" points="373.9197,-334.529 372.1114,-324.0896 367.015,-333.3781 373.9197,-334.529"/>
</g>
<!-- 17 -->
<g id="node18" class="node">
<title>17</title>
<path fill="none" stroke="#d88556" stroke-width="2" d="M966.6264,-900C966.6264,-900 849.6264,-900 849.6264,-900 843.6264,-900 837.6264,-894 837.6264,-888 837.6264,-888 837.6264,-876 837.6264,-876 837.6264,-870 843.6264,-864 849.6264,-864 849.6264,-864 966.6264,-864 966.6264,-864 972.6264,-864 978.6264,-870 978.6264,-876 978.6264,-876 978.6264,-888 978.6264,-888 978.6264,-894 972.6264,-900 966.6264,-900"/>
<text text-anchor="middle" x="908.1264" y="-885" font-family="sans" font-size="10.00" fill="#000000">aggregate_fastqs</text>
<text text-anchor="middle" x="908.1264" y="-874" font-family="sans" font-size="10.00" fill="#000000">sampleID: SRS1305249_1</text>
</g>
<!-- 17&#45;&gt;12 -->
<g id="edge37" class="edge">
<title>17&#45;&gt;12</title>
<path fill="none" stroke="#c0c0c0" stroke-width="2" d="M904.604,-863.8955C899.6246,-836.6824 891.1264,-783.5642 891.1264,-738 891.1264,-738 891.1264,-738 891.1264,-666 891.1264,-613.0682 858.7453,-602.8457 813.1264,-576 782.8217,-558.1664 695.7337,-542.219 631.2918,-532.3592"/>
<polygon fill="#c0c0c0" stroke="#c0c0c0" stroke-width="2" points="631.5662,-528.8611 621.1559,-530.8297 630.5217,-535.7827 631.5662,-528.8611"/>
</g>
<!-- 28 -->
<g id="node29" class="node">
<title>28</title>
<path fill="none" stroke="#56d8a9" stroke-width="2" d="M796.1264,-828C796.1264,-828 690.1264,-828 690.1264,-828 684.1264,-828 678.1264,-822 678.1264,-816 678.1264,-816 678.1264,-804 678.1264,-804 678.1264,-798 684.1264,-792 690.1264,-792 690.1264,-792 796.1264,-792 796.1264,-792 802.1264,-792 808.1264,-798 808.1264,-804 808.1264,-804 808.1264,-816 808.1264,-816 808.1264,-822 802.1264,-828 796.1264,-828"/>
<text text-anchor="middle" x="743.1264" y="-813" font-family="sans" font-size="10.00" fill="#000000">run_salmon</text>
<text text-anchor="middle" x="743.1264" y="-802" font-family="sans" font-size="10.00" fill="#000000">sampleID: SRS1305249</text>
</g>
<!-- 17&#45;&gt;28 -->
<g id="edge57" class="edge">
<title>17&#45;&gt;28</title>
<path fill="none" stroke="#c0c0c0" stroke-width="2" d="M866.4899,-863.8314C844.4221,-854.2018 817.1357,-842.295 793.8406,-832.1299"/>
<polygon fill="#c0c0c0" stroke="#c0c0c0" stroke-width="2" points="795.0287,-828.8296 784.4634,-828.038 792.229,-835.2454 795.0287,-828.8296"/>
</g>
<!-- 18 -->
<g id="node19" class="node">
<title>18</title>
<path fill="none" stroke="#d88556" stroke-width="2" d="M807.6264,-900C807.6264,-900 690.6264,-900 690.6264,-900 684.6264,-900 678.6264,-894 678.6264,-888 678.6264,-888 678.6264,-876 678.6264,-876 678.6264,-870 684.6264,-864 690.6264,-864 690.6264,-864 807.6264,-864 807.6264,-864 813.6264,-864 819.6264,-870 819.6264,-876 819.6264,-876 819.6264,-888 819.6264,-888 819.6264,-894 813.6264,-900 807.6264,-900"/>
<text text-anchor="middle" x="749.1264" y="-885" font-family="sans" font-size="10.00" fill="#000000">aggregate_fastqs</text>
<text text-anchor="middle" x="749.1264" y="-874" font-family="sans" font-size="10.00" fill="#000000">sampleID: SRS1305249_2</text>
</g>
<!-- 18&#45;&gt;12 -->
<g id="edge38" class="edge">
<title>18&#45;&gt;12</title>
<path fill="none" stroke="#c0c0c0" stroke-width="2" d="M780.6884,-863.8379C793.8674,-854.7075 808.1665,-842.4883 817.1264,-828 838.6289,-793.23 836.1264,-778.8816 836.1264,-738 836.1264,-738 836.1264,-738 836.1264,-666 836.1264,-573.6826 714.267,-540.4993 631.3309,-528.6056"/>
<polygon fill="#c0c0c0" stroke="#c0c0c0" stroke-width="2" points="631.8009,-525.1374 621.4206,-527.2581 630.8578,-532.0736 631.8009,-525.1374"/>
</g>
<!-- 18&#45;&gt;28 -->
<g id="edge58" class="edge">
<title>18&#45;&gt;28</title>
<path fill="none" stroke="#c0c0c0" stroke-width="2" d="M747.6123,-863.8314C746.9706,-856.131 746.2076,-846.9743 745.4944,-838.4166"/>
<polygon fill="#c0c0c0" stroke="#c0c0c0" stroke-width="2" points="748.9793,-838.088 744.6608,-828.4133 742.0034,-838.6694 748.9793,-838.088"/>
</g>
<!-- 19 -->
<g id="node20" class="node">
<title>19</title>
<path fill="none" stroke="#c6d856" stroke-width="2" d="M568.1264,-612C568.1264,-612 468.1264,-612 468.1264,-612 462.1264,-612 456.1264,-606 456.1264,-600 456.1264,-600 456.1264,-588 456.1264,-588 456.1264,-582 462.1264,-576 468.1264,-576 468.1264,-576 568.1264,-576 568.1264,-576 574.1264,-576 580.1264,-582 580.1264,-588 580.1264,-588 580.1264,-600 580.1264,-600 580.1264,-606 574.1264,-612 568.1264,-612"/>
<text text-anchor="middle" x="518.1264" y="-591.5" font-family="sans" font-size="10.00" fill="#000000">rebuild_salmon_index</text>
</g>
<!-- 19&#45;&gt;12 -->
<g id="edge39" class="edge">
<title>19&#45;&gt;12</title>
<path fill="none" stroke="#c0c0c0" stroke-width="2" d="M527.7154,-575.8314C531.9581,-567.7925 537.0385,-558.1666 541.7224,-549.2918"/>
<polygon fill="#c0c0c0" stroke="#c0c0c0" stroke-width="2" points="544.836,-550.8908 546.4083,-540.4133 538.6453,-547.6235 544.836,-550.8908"/>
</g>
<!-- 19&#45;&gt;13 -->
<g id="edge42" class="edge">
<title>19&#45;&gt;13</title>
<path fill="none" stroke="#c0c0c0" stroke-width="2" d="M475.9852,-575.8314C453.65,-566.2018 426.0328,-554.295 402.4554,-544.1299"/>
<polygon fill="#c0c0c0" stroke="#c0c0c0" stroke-width="2" points="403.5331,-540.7831 392.9645,-540.038 400.7617,-547.2112 403.5331,-540.7831"/>
</g>
<!-- 20 -->
<g id="node21" class="node">
<title>20</title>
<path fill="none" stroke="#d88556" stroke-width="2" d="M286.6264,-900C286.6264,-900 175.6264,-900 175.6264,-900 169.6264,-900 163.6264,-894 163.6264,-888 163.6264,-888 163.6264,-876 163.6264,-876 163.6264,-870 169.6264,-864 175.6264,-864 175.6264,-864 286.6264,-864 286.6264,-864 292.6264,-864 298.6264,-870 298.6264,-876 298.6264,-876 298.6264,-888 298.6264,-888 298.6264,-894 292.6264,-900 286.6264,-900"/>
<text text-anchor="middle" x="231.1264" y="-885" font-family="sans" font-size="10.00" fill="#000000">aggregate_fastqs</text>
<text text-anchor="middle" x="231.1264" y="-874" font-family="sans" font-size="10.00" fill="#000000">sampleID: SRS638559_1</text>
</g>
<!-- 20&#45;&gt;13 -->
<g id="edge40" class="edge">
<title>20&#45;&gt;13</title>
<path fill="none" stroke="#c0c0c0" stroke-width="2" d="M234.2344,-863.8777C238.628,-836.6417 246.1264,-783.4948 246.1264,-738 246.1264,-738 246.1264,-738 246.1264,-666 246.1264,-616.4381 287.2372,-572.5199 318.0107,-546.5876"/>
<polygon fill="#c0c0c0" stroke="#c0c0c0" stroke-width="2" points="320.4497,-549.1145 325.9763,-540.0752 316.019,-543.6951 320.4497,-549.1145"/>
</g>
<!-- 29 -->
<g id="node30" class="node">
<title>29</title>
<path fill="none" stroke="#56d8a9" stroke-width="2" d="M440.1264,-828C440.1264,-828 340.1264,-828 340.1264,-828 334.1264,-828 328.1264,-822 328.1264,-816 328.1264,-816 328.1264,-804 328.1264,-804 328.1264,-798 334.1264,-792 340.1264,-792 340.1264,-792 440.1264,-792 440.1264,-792 446.1264,-792 452.1264,-798 452.1264,-804 452.1264,-804 452.1264,-816 452.1264,-816 452.1264,-822 446.1264,-828 440.1264,-828"/>
<text text-anchor="middle" x="390.1264" y="-813" font-family="sans" font-size="10.00" fill="#000000">run_salmon</text>
<text text-anchor="middle" x="390.1264" y="-802" font-family="sans" font-size="10.00" fill="#000000">sampleID: SRS638559</text>
</g>
<!-- 20&#45;&gt;29 -->
<g id="edge60" class="edge">
<title>20&#45;&gt;29</title>
<path fill="none" stroke="#c0c0c0" stroke-width="2" d="M271.2488,-863.8314C292.4196,-854.2446 318.5747,-842.4008 340.9567,-832.2655"/>
<polygon fill="#c0c0c0" stroke="#c0c0c0" stroke-width="2" points="342.6267,-835.3515 350.2925,-828.038 339.7391,-828.9748 342.6267,-835.3515"/>
</g>
<!-- 21 -->
<g id="node22" class="node">
<title>21</title>
<path fill="none" stroke="#d88556" stroke-width="2" d="M439.6264,-900C439.6264,-900 328.6264,-900 328.6264,-900 322.6264,-900 316.6264,-894 316.6264,-888 316.6264,-888 316.6264,-876 316.6264,-876 316.6264,-870 322.6264,-864 328.6264,-864 328.6264,-864 439.6264,-864 439.6264,-864 445.6264,-864 451.6264,-870 451.6264,-876 451.6264,-876 451.6264,-888 451.6264,-888 451.6264,-894 445.6264,-900 439.6264,-900"/>
<text text-anchor="middle" x="384.1264" y="-885" font-family="sans" font-size="10.00" fill="#000000">aggregate_fastqs</text>
<text text-anchor="middle" x="384.1264" y="-874" font-family="sans" font-size="10.00" fill="#000000">sampleID: SRS638559_2</text>
</g>
<!-- 21&#45;&gt;13 -->
<g id="edge41" class="edge">
<title>21&#45;&gt;13</title>
<path fill="none" stroke="#c0c0c0" stroke-width="2" d="M354.2899,-863.8066C341.6002,-854.5955 327.7655,-842.3208 319.1264,-828 298.009,-792.9948 300.1264,-778.8816 300.1264,-738 300.1264,-738 300.1264,-738 300.1264,-666 300.1264,-623.3478 320.253,-577.456 335.2191,-549.2271"/>
<polygon fill="#c0c0c0" stroke="#c0c0c0" stroke-width="2" points="338.3396,-550.8153 340.0601,-540.3611 332.1958,-547.4606 338.3396,-550.8153"/>
</g>
<!-- 21&#45;&gt;29 -->
<g id="edge61" class="edge">
<title>21&#45;&gt;29</title>
<path fill="none" stroke="#c0c0c0" stroke-width="2" d="M385.6404,-863.8314C386.2821,-856.131 387.0452,-846.9743 387.7583,-838.4166"/>
<polygon fill="#c0c0c0" stroke="#c0c0c0" stroke-width="2" points="391.2493,-838.6694 388.5919,-828.4133 384.2735,-838.088 391.2493,-838.6694"/>
</g>
<!-- 22 -->
<g id="node23" class="node">
<title>22</title>
<path fill="none" stroke="#d8d356" stroke-width="2" d="M948.1264,-972C948.1264,-972 868.1264,-972 868.1264,-972 862.1264,-972 856.1264,-966 856.1264,-960 856.1264,-960 856.1264,-948 856.1264,-948 856.1264,-942 862.1264,-936 868.1264,-936 868.1264,-936 948.1264,-936 948.1264,-936 954.1264,-936 960.1264,-942 960.1264,-948 960.1264,-948 960.1264,-960 960.1264,-960 960.1264,-966 954.1264,-972 948.1264,-972"/>
<text text-anchor="middle" x="908.1264" y="-957" font-family="sans" font-size="10.00" fill="#000000">download_fastq</text>
<text text-anchor="middle" x="908.1264" y="-946" font-family="sans" font-size="10.00" fill="#000000">id: SRR3170191_1</text>
</g>
<!-- 22&#45;&gt;17 -->
<g id="edge47" class="edge">
<title>22&#45;&gt;17</title>
<path fill="none" stroke="#c0c0c0" stroke-width="2" d="M908.1264,-935.8314C908.1264,-928.131 908.1264,-918.9743 908.1264,-910.4166"/>
<polygon fill="#c0c0c0" stroke="#c0c0c0" stroke-width="2" points="911.6265,-910.4132 908.1264,-900.4133 904.6265,-910.4133 911.6265,-910.4132"/>
</g>
<!-- 23 -->
<g id="node24" class="node">
<title>23</title>
<path fill="none" stroke="#d8d356" stroke-width="2" d="M789.1264,-972C789.1264,-972 709.1264,-972 709.1264,-972 703.1264,-972 697.1264,-966 697.1264,-960 697.1264,-960 697.1264,-948 697.1264,-948 697.1264,-942 703.1264,-936 709.1264,-936 709.1264,-936 789.1264,-936 789.1264,-936 795.1264,-936 801.1264,-942 801.1264,-948 801.1264,-948 801.1264,-960 801.1264,-960 801.1264,-966 795.1264,-972 789.1264,-972"/>
<text text-anchor="middle" x="749.1264" y="-957" font-family="sans" font-size="10.00" fill="#000000">download_fastq</text>
<text text-anchor="middle" x="749.1264" y="-946" font-family="sans" font-size="10.00" fill="#000000">id: SRR3170191_2</text>
</g>
<!-- 23&#45;&gt;18 -->
<g id="edge48" class="edge">
<title>23&#45;&gt;18</title>
<path fill="none" stroke="#c0c0c0" stroke-width="2" d="M749.1264,-935.8314C749.1264,-928.131 749.1264,-918.9743 749.1264,-910.4166"/>
<polygon fill="#c0c0c0" stroke="#c0c0c0" stroke-width="2" points="752.6265,-910.4132 749.1264,-900.4133 745.6265,-910.4133 752.6265,-910.4132"/>
</g>
<!-- 24&#45;&gt;19 -->
<g id="edge49" class="edge">
<title>24&#45;&gt;19</title>
<path fill="none" stroke="#c0c0c0" stroke-width="2" d="M518.1264,-647.8314C518.1264,-640.131 518.1264,-630.9743 518.1264,-622.4166"/>
<polygon fill="#c0c0c0" stroke="#c0c0c0" stroke-width="2" points="521.6265,-622.4132 518.1264,-612.4133 514.6265,-622.4133 521.6265,-622.4132"/>
</g>
<!-- 25 -->
<g id="node26" class="node">
<title>25</title>
<path fill="none" stroke="#d8d356" stroke-width="2" d="M271.1264,-972C271.1264,-972 191.1264,-972 191.1264,-972 185.1264,-972 179.1264,-966 179.1264,-960 179.1264,-960 179.1264,-948 179.1264,-948 179.1264,-942 185.1264,-936 191.1264,-936 191.1264,-936 271.1264,-936 271.1264,-936 277.1264,-936 283.1264,-942 283.1264,-948 283.1264,-948 283.1264,-960 283.1264,-960 283.1264,-966 277.1264,-972 271.1264,-972"/>
<text text-anchor="middle" x="231.1264" y="-957" font-family="sans" font-size="10.00" fill="#000000">download_fastq</text>
<text text-anchor="middle" x="231.1264" y="-946" font-family="sans" font-size="10.00" fill="#000000">id: SRR1410783_1</text>
</g>
<!-- 25&#45;&gt;20 -->
<g id="edge50" class="edge">
<title>25&#45;&gt;20</title>
<path fill="none" stroke="#c0c0c0" stroke-width="2" d="M231.1264,-935.8314C231.1264,-928.131 231.1264,-918.9743 231.1264,-910.4166"/>
<polygon fill="#c0c0c0" stroke="#c0c0c0" stroke-width="2" points="234.6265,-910.4132 231.1264,-900.4133 227.6265,-910.4133 234.6265,-910.4132"/>
</g>
<!-- 26 -->
<g id="node27" class="node">
<title>26</title>
<path fill="none" stroke="#d8d356" stroke-width="2" d="M424.1264,-972C424.1264,-972 344.1264,-972 344.1264,-972 338.1264,-972 332.1264,-966 332.1264,-960 332.1264,-960 332.1264,-948 332.1264,-948 332.1264,-942 338.1264,-936 344.1264,-936 344.1264,-936 424.1264,-936 424.1264,-936 430.1264,-936 436.1264,-942 436.1264,-948 436.1264,-948 436.1264,-960 436.1264,-960 436.1264,-966 430.1264,-972 424.1264,-972"/>
<text text-anchor="middle" x="384.1264" y="-957" font-family="sans" font-size="10.00" fill="#000000">download_fastq</text>
<text text-anchor="middle" x="384.1264" y="-946" font-family="sans" font-size="10.00" fill="#000000">id: SRR1410783_2</text>
</g>
<!-- 26&#45;&gt;21 -->
<g id="edge51" class="edge">
<title>26&#45;&gt;21</title>
<path fill="none" stroke="#c0c0c0" stroke-width="2" d="M384.1264,-935.8314C384.1264,-928.131 384.1264,-918.9743 384.1264,-910.4166"/>
<polygon fill="#c0c0c0" stroke="#c0c0c0" stroke-width="2" points="387.6265,-910.4132 384.1264,-900.4133 380.6265,-910.4133 387.6265,-910.4132"/>
</g>
<!-- 27&#45;&gt;24 -->
<g id="edge52" class="edge">
<title>27&#45;&gt;24</title>
<path fill="none" stroke="#c0c0c0" stroke-width="2" d="M583.9203,-719.8314C573.0814,-710.9632 559.882,-700.1637 548.1586,-690.5718"/>
<polygon fill="#c0c0c0" stroke="#c0c0c0" stroke-width="2" points="550.2813,-687.7864 540.3254,-684.1628 545.8486,-693.2041 550.2813,-687.7864"/>
</g>
<!-- 28&#45;&gt;27 -->
<g id="edge54" class="edge">
<title>28&#45;&gt;27</title>
<path fill="none" stroke="#c0c0c0" stroke-width="2" d="M708.5555,-791.8314C690.7078,-782.4516 668.749,-770.9112 649.7463,-760.9244"/>
<polygon fill="#c0c0c0" stroke="#c0c0c0" stroke-width="2" points="651.1665,-757.7168 640.6862,-756.1628 647.9099,-763.9132 651.1665,-757.7168"/>
</g>
<!-- 29&#45;&gt;27 -->
<g id="edge55" class="edge">
<title>29&#45;&gt;27</title>
<path fill="none" stroke="#c0c0c0" stroke-width="2" d="M444.3535,-791.9243C474.3652,-781.9204 511.8147,-769.4372 543.1216,-759.0016"/>
<polygon fill="#c0c0c0" stroke="#c0c0c0" stroke-width="2" points="544.2453,-762.3164 552.6253,-755.8337 542.0316,-755.6756 544.2453,-762.3164"/>
</g>
<!-- 30&#45;&gt;28 -->
<g id="edge59" class="edge">
<title>30&#45;&gt;28</title>
<path fill="none" stroke="#c0c0c0" stroke-width="2" d="M610.0433,-863.8314C634.0613,-854.1162 663.8098,-842.0831 689.0855,-831.8592"/>
<polygon fill="#c0c0c0" stroke="#c0c0c0" stroke-width="2" points="690.5746,-835.0325 698.5324,-828.038 687.9497,-828.5432 690.5746,-835.0325"/>
</g>
<!-- 30&#45;&gt;29 -->
<g id="edge62" class="edge">
<title>30&#45;&gt;29</title>
<path fill="none" stroke="#c0c0c0" stroke-width="2" d="M520.9665,-863.8314C497.3532,-854.1162 468.1062,-842.0831 443.2564,-831.8592"/>
<polygon fill="#c0c0c0" stroke="#c0c0c0" stroke-width="2" points="444.5483,-828.6061 433.9687,-828.038 441.8849,-835.0797 444.5483,-828.6061"/>
</g>
</g>
</svg>
