<?xml version="1.0" encoding="UTF-8" standalone="no"?>
<!DOCTYPE svg PUBLIC "-//W3C//DTD SVG 1.1//EN"
 "http://www.w3.org/Graphics/SVG/1.1/DTD/svg11.dtd">
<!-- Generated by graphviz version 2.40.1 (20161225.0304)
 -->
<!-- Title: snakemake_dag Pages: 1 -->
<svg width="1804pt" height="836pt"
 viewBox="0.00 0.00 1804.05 836.00" xmlns="http://www.w3.org/2000/svg" xmlns:xlink="http://www.w3.org/1999/xlink">
<g id="graph0" class="graph" transform="scale(1 1) rotate(0) translate(4 832)">
<title>snakemake_dag</title>
<polygon fill="#ffffff" stroke="transparent" points="-4,4 -4,-832 1800.0523,-832 1800.0523,4 -4,4"/>
<!-- 0 -->
<g id="node1" class="node">
<title>0</title>
<path fill="none" stroke="#56d8a9" stroke-width="2" stroke-dasharray="5,2" d="M289.0585,-828C289.0585,-828 215.0585,-828 215.0585,-828 209.0585,-828 203.0585,-822 203.0585,-816 203.0585,-816 203.0585,-804 203.0585,-804 203.0585,-798 209.0585,-792 215.0585,-792 215.0585,-792 289.0585,-792 289.0585,-792 295.0585,-792 301.0585,-798 301.0585,-804 301.0585,-804 301.0585,-816 301.0585,-816 301.0585,-822 295.0585,-828 289.0585,-828"/>
<text text-anchor="middle" x="252.0585" y="-813" font-family="sans" font-size="10.00" fill="#000000">download_fastq</text>
<text text-anchor="middle" x="252.0585" y="-802" font-family="sans" font-size="10.00" fill="#000000">id: SRR660638_2</text>
</g>
<!-- 13 -->
<g id="node14" class="node">
<title>13</title>
<path fill="none" stroke="#d8cb56" stroke-width="2" stroke-dasharray="5,2" d="M307.5585,-756C307.5585,-756 196.5585,-756 196.5585,-756 190.5585,-756 184.5585,-750 184.5585,-744 184.5585,-744 184.5585,-732 184.5585,-732 184.5585,-726 190.5585,-720 196.5585,-720 196.5585,-720 307.5585,-720 307.5585,-720 313.5585,-720 319.5585,-726 319.5585,-732 319.5585,-732 319.5585,-744 319.5585,-744 319.5585,-750 313.5585,-756 307.5585,-756"/>
<text text-anchor="middle" x="252.0585" y="-741" font-family="sans" font-size="10.00" fill="#000000">aggregate_fastqs</text>
<text text-anchor="middle" x="252.0585" y="-730" font-family="sans" font-size="10.00" fill="#000000">sampleID: SRS389760_2</text>
</g>
<!-- 0&#45;&gt;13 -->
<g id="edge35" class="edge">
<title>0&#45;&gt;13</title>
<path fill="none" stroke="#c0c0c0" stroke-width="2" d="M252.0585,-791.8314C252.0585,-784.131 252.0585,-774.9743 252.0585,-766.4166"/>
<polygon fill="#c0c0c0" stroke="#c0c0c0" stroke-width="2" points="255.5586,-766.4132 252.0585,-756.4133 248.5586,-766.4133 255.5586,-766.4132"/>
</g>
<!-- 1 -->
<g id="node2" class="node">
<title>1</title>
<path fill="none" stroke="#56d8a9" stroke-width="2" stroke-dasharray="5,2" d="M1263.0585,-828C1263.0585,-828 1189.0585,-828 1189.0585,-828 1183.0585,-828 1177.0585,-822 1177.0585,-816 1177.0585,-816 1177.0585,-804 1177.0585,-804 1177.0585,-798 1183.0585,-792 1189.0585,-792 1189.0585,-792 1263.0585,-792 1263.0585,-792 1269.0585,-792 1275.0585,-798 1275.0585,-804 1275.0585,-804 1275.0585,-816 1275.0585,-816 1275.0585,-822 1269.0585,-828 1263.0585,-828"/>
<text text-anchor="middle" x="1226.0585" y="-813" font-family="sans" font-size="10.00" fill="#000000">download_fastq</text>
<text text-anchor="middle" x="1226.0585" y="-802" font-family="sans" font-size="10.00" fill="#000000">id: SRR603566_1</text>
</g>
<!-- 33 -->
<g id="node34" class="node">
<title>33</title>
<path fill="none" stroke="#d8cb56" stroke-width="2" stroke-dasharray="5,2" d="M1281.5585,-756C1281.5585,-756 1170.5585,-756 1170.5585,-756 1164.5585,-756 1158.5585,-750 1158.5585,-744 1158.5585,-744 1158.5585,-732 1158.5585,-732 1158.5585,-726 1164.5585,-720 1170.5585,-720 1170.5585,-720 1281.5585,-720 1281.5585,-720 1287.5585,-720 1293.5585,-726 1293.5585,-732 1293.5585,-732 1293.5585,-744 1293.5585,-744 1293.5585,-750 1287.5585,-756 1281.5585,-756"/>
<text text-anchor="middle" x="1226.0585" y="-741" font-family="sans" font-size="10.00" fill="#000000">aggregate_fastqs</text>
<text text-anchor="middle" x="1226.0585" y="-730" font-family="sans" font-size="10.00" fill="#000000">sampleID: SRS333370_1</text>
</g>
<!-- 1&#45;&gt;33 -->
<g id="edge68" class="edge">
<title>1&#45;&gt;33</title>
<path fill="none" stroke="#c0c0c0" stroke-width="2" d="M1226.0585,-791.8314C1226.0585,-784.131 1226.0585,-774.9743 1226.0585,-766.4166"/>
<polygon fill="#c0c0c0" stroke="#c0c0c0" stroke-width="2" points="1229.5586,-766.4132 1226.0585,-756.4133 1222.5586,-766.4133 1229.5586,-766.4132"/>
</g>
<!-- 2 -->
<g id="node3" class="node">
<title>2</title>
<path fill="none" stroke="#d8ac56" stroke-width="2" stroke-dasharray="5,2" d="M1456.0585,-684C1456.0585,-684 1350.0585,-684 1350.0585,-684 1344.0585,-684 1338.0585,-678 1338.0585,-672 1338.0585,-672 1338.0585,-660 1338.0585,-660 1338.0585,-654 1344.0585,-648 1350.0585,-648 1350.0585,-648 1456.0585,-648 1456.0585,-648 1462.0585,-648 1468.0585,-654 1468.0585,-660 1468.0585,-660 1468.0585,-672 1468.0585,-672 1468.0585,-678 1462.0585,-684 1456.0585,-684"/>
<text text-anchor="middle" x="1403.0585" y="-669" font-family="sans" font-size="10.00" fill="#000000">run_salmon</text>
<text text-anchor="middle" x="1403.0585" y="-658" font-family="sans" font-size="10.00" fill="#000000">sampleID: SRS1305249</text>
</g>
<!-- 8 -->
<g id="node9" class="node">
<title>8</title>
<path fill="none" stroke="#d87556" stroke-width="2" stroke-dasharray="5,2" d="M1066.5585,-612C1066.5585,-612 983.5585,-612 983.5585,-612 977.5585,-612 971.5585,-606 971.5585,-600 971.5585,-600 971.5585,-588 971.5585,-588 971.5585,-582 977.5585,-576 983.5585,-576 983.5585,-576 1066.5585,-576 1066.5585,-576 1072.5585,-576 1078.5585,-582 1078.5585,-588 1078.5585,-588 1078.5585,-600 1078.5585,-600 1078.5585,-606 1072.5585,-612 1066.5585,-612"/>
<text text-anchor="middle" x="1025.0585" y="-591.5" font-family="sans" font-size="10.00" fill="#000000">find_tx_low_usage</text>
</g>
<!-- 2&#45;&gt;8 -->
<g id="edge16" class="edge">
<title>2&#45;&gt;8</title>
<path fill="none" stroke="#c0c0c0" stroke-width="2" d="M1337.6474,-653.5408C1267.7614,-640.2291 1157.7288,-619.2705 1088.5777,-606.0989"/>
<polygon fill="#c0c0c0" stroke="#c0c0c0" stroke-width="2" points="1089.1597,-602.6469 1078.6814,-604.2139 1087.8499,-609.5233 1089.1597,-602.6469"/>
</g>
<!-- 3 -->
<g id="node4" class="node">
<title>3</title>
<path fill="none" stroke="#d8cb56" stroke-width="2" stroke-dasharray="5,2" d="M460.5585,-756C460.5585,-756 349.5585,-756 349.5585,-756 343.5585,-756 337.5585,-750 337.5585,-744 337.5585,-744 337.5585,-732 337.5585,-732 337.5585,-726 343.5585,-720 349.5585,-720 349.5585,-720 460.5585,-720 460.5585,-720 466.5585,-720 472.5585,-726 472.5585,-732 472.5585,-732 472.5585,-744 472.5585,-744 472.5585,-750 466.5585,-756 460.5585,-756"/>
<text text-anchor="middle" x="405.0585" y="-741" font-family="sans" font-size="10.00" fill="#000000">aggregate_fastqs</text>
<text text-anchor="middle" x="405.0585" y="-730" font-family="sans" font-size="10.00" fill="#000000">sampleID: SRS374785_1</text>
</g>
<!-- 4 -->
<g id="node5" class="node">
<title>4</title>
<path fill="none" stroke="#afd856" stroke-width="2" stroke-dasharray="5,2" d="M820.0585,-396C820.0585,-396 720.0585,-396 720.0585,-396 714.0585,-396 708.0585,-390 708.0585,-384 708.0585,-384 708.0585,-372 708.0585,-372 708.0585,-366 714.0585,-360 720.0585,-360 720.0585,-360 820.0585,-360 820.0585,-360 826.0585,-360 832.0585,-366 832.0585,-372 832.0585,-372 832.0585,-384 832.0585,-384 832.0585,-390 826.0585,-396 820.0585,-396"/>
<text text-anchor="middle" x="770.0585" y="-381" font-family="sans" font-size="10.00" fill="#000000">re_run_Salmon</text>
<text text-anchor="middle" x="770.0585" y="-370" font-family="sans" font-size="10.00" fill="#000000">sampleID: SRS374785</text>
</g>
<!-- 3&#45;&gt;4 -->
<g id="edge7" class="edge">
<title>3&#45;&gt;4</title>
<path fill="none" stroke="#c0c0c0" stroke-width="2" d="M416.9927,-719.7554C433.1686,-693.2192 460.0585,-641.903 460.0585,-594 460.0585,-594 460.0585,-594 460.0585,-522 460.0585,-449.5188 530.5664,-463.0535 596.0585,-432 614.5672,-423.224 658.8885,-409.5052 698.1646,-398.0917"/>
<polygon fill="#c0c0c0" stroke="#c0c0c0" stroke-width="2" points="699.3868,-401.3819 708.0226,-395.2441 697.4441,-394.6568 699.3868,-401.3819"/>
</g>
<!-- 16 -->
<g id="node17" class="node">
<title>16</title>
<path fill="none" stroke="#d8ac56" stroke-width="2" stroke-dasharray="5,2" d="M834.0585,-684C834.0585,-684 734.0585,-684 734.0585,-684 728.0585,-684 722.0585,-678 722.0585,-672 722.0585,-672 722.0585,-660 722.0585,-660 722.0585,-654 728.0585,-648 734.0585,-648 734.0585,-648 834.0585,-648 834.0585,-648 840.0585,-648 846.0585,-654 846.0585,-660 846.0585,-660 846.0585,-672 846.0585,-672 846.0585,-678 840.0585,-684 834.0585,-684"/>
<text text-anchor="middle" x="784.0585" y="-669" font-family="sans" font-size="10.00" fill="#000000">run_salmon</text>
<text text-anchor="middle" x="784.0585" y="-658" font-family="sans" font-size="10.00" fill="#000000">sampleID: SRS374785</text>
</g>
<!-- 3&#45;&gt;16 -->
<g id="edge42" class="edge">
<title>3&#45;&gt;16</title>
<path fill="none" stroke="#c0c0c0" stroke-width="2" d="M472.9539,-721.6403C475.6876,-721.0701 478.3971,-720.5208 481.0585,-720 580.3611,-700.5672 609.0915,-704.5716 711.943,-684.126"/>
<polygon fill="#c0c0c0" stroke="#c0c0c0" stroke-width="2" points="712.6864,-687.5467 721.7968,-682.1382 711.3021,-680.6849 712.6864,-687.5467"/>
</g>
<!-- 7 -->
<g id="node8" class="node">
<title>7</title>
<path fill="none" stroke="#56d873" stroke-width="2" stroke-dasharray="5,2" d="M1141.5585,-324C1141.5585,-324 956.5585,-324 956.5585,-324 950.5585,-324 944.5585,-318 944.5585,-312 944.5585,-312 944.5585,-300 944.5585,-300 944.5585,-294 950.5585,-288 956.5585,-288 956.5585,-288 1141.5585,-288 1141.5585,-288 1147.5585,-288 1153.5585,-294 1153.5585,-300 1153.5585,-300 1153.5585,-312 1153.5585,-312 1153.5585,-318 1147.5585,-324 1141.5585,-324"/>
<text text-anchor="middle" x="1049.0585" y="-309" font-family="sans" font-size="10.00" fill="#000000">gene_quantification_and_normalization</text>
<text text-anchor="middle" x="1049.0585" y="-298" font-family="sans" font-size="10.00" fill="#000000">level: transcript</text>
</g>
<!-- 4&#45;&gt;7 -->
<g id="edge13" class="edge">
<title>4&#45;&gt;7</title>
<path fill="none" stroke="#c0c0c0" stroke-width="2" d="M832.3243,-361.9314C872.7869,-351.4894 925.9085,-337.7806 969.4329,-326.5485"/>
<polygon fill="#c0c0c0" stroke="#c0c0c0" stroke-width="2" points="970.3257,-329.9329 979.1339,-324.0451 968.5765,-323.1549 970.3257,-329.9329"/>
</g>
<!-- 9 -->
<g id="node10" class="node">
<title>9</title>
<path fill="none" stroke="#56d873" stroke-width="2" stroke-dasharray="5,2" d="M882.5585,-324C882.5585,-324 697.5585,-324 697.5585,-324 691.5585,-324 685.5585,-318 685.5585,-312 685.5585,-312 685.5585,-300 685.5585,-300 685.5585,-294 691.5585,-288 697.5585,-288 697.5585,-288 882.5585,-288 882.5585,-288 888.5585,-288 894.5585,-294 894.5585,-300 894.5585,-300 894.5585,-312 894.5585,-312 894.5585,-318 888.5585,-324 882.5585,-324"/>
<text text-anchor="middle" x="790.0585" y="-309" font-family="sans" font-size="10.00" fill="#000000">gene_quantification_and_normalization</text>
<text text-anchor="middle" x="790.0585" y="-298" font-family="sans" font-size="10.00" fill="#000000">level: gene</text>
</g>
<!-- 4&#45;&gt;9 -->
<g id="edge25" class="edge">
<title>4&#45;&gt;9</title>
<path fill="none" stroke="#c0c0c0" stroke-width="2" d="M775.1053,-359.8314C777.2678,-352.0463 779.8438,-342.7729 782.2433,-334.1347"/>
<polygon fill="#c0c0c0" stroke="#c0c0c0" stroke-width="2" points="785.6395,-334.9852 784.9437,-324.4133 778.8949,-333.1117 785.6395,-334.9852"/>
</g>
<!-- 5 -->
<g id="node6" class="node">
<title>5</title>
<path fill="none" stroke="#56d8a9" stroke-width="2" stroke-dasharray="5,2" d="M1416.0585,-828C1416.0585,-828 1342.0585,-828 1342.0585,-828 1336.0585,-828 1330.0585,-822 1330.0585,-816 1330.0585,-816 1330.0585,-804 1330.0585,-804 1330.0585,-798 1336.0585,-792 1342.0585,-792 1342.0585,-792 1416.0585,-792 1416.0585,-792 1422.0585,-792 1428.0585,-798 1428.0585,-804 1428.0585,-804 1428.0585,-816 1428.0585,-816 1428.0585,-822 1422.0585,-828 1416.0585,-828"/>
<text text-anchor="middle" x="1379.0585" y="-813" font-family="sans" font-size="10.00" fill="#000000">download_fastq</text>
<text text-anchor="middle" x="1379.0585" y="-802" font-family="sans" font-size="10.00" fill="#000000">id: SRR603566_2</text>
</g>
<!-- 24 -->
<g id="node25" class="node">
<title>24</title>
<path fill="none" stroke="#d8cb56" stroke-width="2" stroke-dasharray="5,2" d="M1434.5585,-756C1434.5585,-756 1323.5585,-756 1323.5585,-756 1317.5585,-756 1311.5585,-750 1311.5585,-744 1311.5585,-744 1311.5585,-732 1311.5585,-732 1311.5585,-726 1317.5585,-720 1323.5585,-720 1323.5585,-720 1434.5585,-720 1434.5585,-720 1440.5585,-720 1446.5585,-726 1446.5585,-732 1446.5585,-732 1446.5585,-744 1446.5585,-744 1446.5585,-750 1440.5585,-756 1434.5585,-756"/>
<text text-anchor="middle" x="1379.0585" y="-741" font-family="sans" font-size="10.00" fill="#000000">aggregate_fastqs</text>
<text text-anchor="middle" x="1379.0585" y="-730" font-family="sans" font-size="10.00" fill="#000000">sampleID: SRS333370_2</text>
</g>
<!-- 5&#45;&gt;24 -->
<g id="edge57" class="edge">
<title>5&#45;&gt;24</title>
<path fill="none" stroke="#c0c0c0" stroke-width="2" d="M1379.0585,-791.8314C1379.0585,-784.131 1379.0585,-774.9743 1379.0585,-766.4166"/>
<polygon fill="#c0c0c0" stroke="#c0c0c0" stroke-width="2" points="1382.5586,-766.4132 1379.0585,-756.4133 1375.5586,-766.4133 1382.5586,-766.4132"/>
</g>
<!-- 6 -->
<g id="node7" class="node">
<title>6</title>
<path fill="none" stroke="#5692d8" stroke-width="2" stroke-dasharray="5,2" d="M682.5585,-180C682.5585,-180 585.5585,-180 585.5585,-180 579.5585,-180 573.5585,-174 573.5585,-168 573.5585,-168 573.5585,-156 573.5585,-156 573.5585,-150 579.5585,-144 585.5585,-144 585.5585,-144 682.5585,-144 682.5585,-144 688.5585,-144 694.5585,-150 694.5585,-156 694.5585,-156 694.5585,-168 694.5585,-168 694.5585,-174 688.5585,-180 682.5585,-180"/>
<text text-anchor="middle" x="634.0585" y="-159.5" font-family="sans" font-size="10.00" fill="#000000">GO_term_enrichment</text>
</g>
<!-- 21 -->
<g id="node22" class="node">
<title>21</title>
<path fill="none" stroke="#56a9d8" stroke-width="2" stroke-dasharray="5,2" d="M950.0585,-108C950.0585,-108 876.0585,-108 876.0585,-108 870.0585,-108 864.0585,-102 864.0585,-96 864.0585,-96 864.0585,-84 864.0585,-84 864.0585,-78 870.0585,-72 876.0585,-72 876.0585,-72 950.0585,-72 950.0585,-72 956.0585,-72 962.0585,-78 962.0585,-84 962.0585,-84 962.0585,-96 962.0585,-96 962.0585,-102 956.0585,-108 950.0585,-108"/>
<text text-anchor="middle" x="913.0585" y="-87.5" font-family="sans" font-size="10.00" fill="#000000">make_SQLite_db</text>
</g>
<!-- 6&#45;&gt;21 -->
<g id="edge53" class="edge">
<title>6&#45;&gt;21</title>
<path fill="none" stroke="#c0c0c0" stroke-width="2" d="M694.5973,-146.3771C741.8783,-134.1755 807.2035,-117.3174 854.0811,-105.22"/>
<polygon fill="#c0c0c0" stroke="#c0c0c0" stroke-width="2" points="854.9829,-108.602 863.7911,-102.7142 853.2337,-101.8241 854.9829,-108.602"/>
</g>
<!-- 14 -->
<g id="node15" class="node">
<title>14</title>
<path fill="none" stroke="#d85656" stroke-width="2" stroke-dasharray="5,2" d="M1139.5585,-180C1139.5585,-180 1008.5585,-180 1008.5585,-180 1002.5585,-180 996.5585,-174 996.5585,-168 996.5585,-168 996.5585,-156 996.5585,-156 996.5585,-150 1002.5585,-144 1008.5585,-144 1008.5585,-144 1139.5585,-144 1139.5585,-144 1145.5585,-144 1151.5585,-150 1151.5585,-156 1151.5585,-156 1151.5585,-168 1151.5585,-168 1151.5585,-174 1145.5585,-180 1139.5585,-180"/>
<text text-anchor="middle" x="1074.0585" y="-159.5" font-family="sans" font-size="10.00" fill="#000000">calculate_mean_rank_decile</text>
</g>
<!-- 7&#45;&gt;14 -->
<g id="edge36" class="edge">
<title>7&#45;&gt;14</title>
<path fill="none" stroke="#c0c0c0" stroke-width="2" d="M1051.6517,-287.6868C1054.2911,-269.4717 1058.6157,-240.7469 1063.0585,-216 1064.5563,-207.6571 1066.3348,-198.6214 1068.0203,-190.3716"/>
<polygon fill="#c0c0c0" stroke="#c0c0c0" stroke-width="2" points="1071.4736,-190.9559 1070.0775,-180.4534 1064.6195,-189.5342 1071.4736,-190.9559"/>
</g>
<!-- 7&#45;&gt;21 -->
<g id="edge46" class="edge">
<title>7&#45;&gt;21</title>
<path fill="none" stroke="#c0c0c0" stroke-width="2" d="M1130.0599,-287.9711C1164.4831,-278.5153 1199.0137,-265.9915 1209.0585,-252 1231.6335,-220.5548 1179.555,-145.2167 1178.0585,-144 1147.1312,-118.8557 1040.6642,-103.3114 972.4599,-95.6932"/>
<polygon fill="#c0c0c0" stroke="#c0c0c0" stroke-width="2" points="972.5946,-92.1872 962.2741,-94.5824 971.8357,-99.1459 972.5946,-92.1872"/>
</g>
<!-- 25 -->
<g id="node26" class="node">
<title>25</title>
<path fill="none" stroke="#56d8c9" stroke-width="2" stroke-dasharray="5,2" d="M1188.0585,-252C1188.0585,-252 1084.0585,-252 1084.0585,-252 1078.0585,-252 1072.0585,-246 1072.0585,-240 1072.0585,-240 1072.0585,-228 1072.0585,-228 1072.0585,-222 1078.0585,-216 1084.0585,-216 1084.0585,-216 1188.0585,-216 1188.0585,-216 1194.0585,-216 1200.0585,-222 1200.0585,-228 1200.0585,-228 1200.0585,-240 1200.0585,-240 1200.0585,-246 1194.0585,-252 1188.0585,-252"/>
<text text-anchor="middle" x="1136.0585" y="-231.5" font-family="sans" font-size="10.00" fill="#000000">differential_expression</text>
</g>
<!-- 7&#45;&gt;25 -->
<g id="edge58" class="edge">
<title>7&#45;&gt;25</title>
<path fill="none" stroke="#c0c0c0" stroke-width="2" d="M1071.0123,-287.8314C1081.7279,-278.9632 1094.7774,-268.1637 1106.3675,-258.5718"/>
<polygon fill="#c0c0c0" stroke="#c0c0c0" stroke-width="2" points="1108.6393,-261.2349 1114.1117,-252.1628 1104.1763,-255.8422 1108.6393,-261.2349"/>
</g>
<!-- 27 -->
<g id="node28" class="node">
<title>27</title>
<path fill="none" stroke="#c6d856" stroke-width="2" stroke-dasharray="5,2" d="M991.5585,-252C991.5585,-252 916.5585,-252 916.5585,-252 910.5585,-252 904.5585,-246 904.5585,-240 904.5585,-240 904.5585,-228 904.5585,-228 904.5585,-222 910.5585,-216 916.5585,-216 916.5585,-216 991.5585,-216 991.5585,-216 997.5585,-216 1003.5585,-222 1003.5585,-228 1003.5585,-228 1003.5585,-240 1003.5585,-240 1003.5585,-246 997.5585,-252 991.5585,-252"/>
<text text-anchor="middle" x="954.0585" y="-231.5" font-family="sans" font-size="10.00" fill="#000000">make_meta_info</text>
</g>
<!-- 7&#45;&gt;27 -->
<g id="edge60" class="edge">
<title>7&#45;&gt;27</title>
<path fill="none" stroke="#c0c0c0" stroke-width="2" d="M1025.086,-287.8314C1013.2724,-278.8779 998.8613,-267.9558 986.115,-258.2955"/>
<polygon fill="#c0c0c0" stroke="#c0c0c0" stroke-width="2" points="988.1071,-255.4137 978.0233,-252.1628 983.879,-260.9925 988.1071,-255.4137"/>
</g>
<!-- 15 -->
<g id="node16" class="node">
<title>15</title>
<path fill="none" stroke="#59d856" stroke-width="2" stroke-dasharray="5,2" d="M1076.0585,-540C1076.0585,-540 974.0585,-540 974.0585,-540 968.0585,-540 962.0585,-534 962.0585,-528 962.0585,-528 962.0585,-516 962.0585,-516 962.0585,-510 968.0585,-504 974.0585,-504 974.0585,-504 1076.0585,-504 1076.0585,-504 1082.0585,-504 1088.0585,-510 1088.0585,-516 1088.0585,-516 1088.0585,-528 1088.0585,-528 1088.0585,-534 1082.0585,-540 1076.0585,-540"/>
<text text-anchor="middle" x="1025.0585" y="-519.5" font-family="sans" font-size="10.00" fill="#000000">remove_tx_low_usage</text>
</g>
<!-- 8&#45;&gt;15 -->
<g id="edge38" class="edge">
<title>8&#45;&gt;15</title>
<path fill="none" stroke="#c0c0c0" stroke-width="2" d="M1025.0585,-575.8314C1025.0585,-568.131 1025.0585,-558.9743 1025.0585,-550.4166"/>
<polygon fill="#c0c0c0" stroke="#c0c0c0" stroke-width="2" points="1028.5586,-550.4132 1025.0585,-540.4133 1021.5586,-550.4133 1028.5586,-550.4132"/>
</g>
<!-- 11 -->
<g id="node12" class="node">
<title>11</title>
<path fill="none" stroke="#d85656" stroke-width="2" stroke-dasharray="5,2" d="M855.5585,-180C855.5585,-180 724.5585,-180 724.5585,-180 718.5585,-180 712.5585,-174 712.5585,-168 712.5585,-168 712.5585,-156 712.5585,-156 712.5585,-150 718.5585,-144 724.5585,-144 724.5585,-144 855.5585,-144 855.5585,-144 861.5585,-144 867.5585,-150 867.5585,-156 867.5585,-156 867.5585,-168 867.5585,-168 867.5585,-174 861.5585,-180 855.5585,-180"/>
<text text-anchor="middle" x="790.0585" y="-159.5" font-family="sans" font-size="10.00" fill="#000000">calculate_mean_rank_decile</text>
</g>
<!-- 9&#45;&gt;11 -->
<g id="edge31" class="edge">
<title>9&#45;&gt;11</title>
<path fill="none" stroke="#c0c0c0" stroke-width="2" d="M790.0585,-287.7623C790.0585,-263.201 790.0585,-219.2474 790.0585,-190.3541"/>
<polygon fill="#c0c0c0" stroke="#c0c0c0" stroke-width="2" points="793.5586,-190.0896 790.0585,-180.0896 786.5586,-190.0897 793.5586,-190.0896"/>
</g>
<!-- 9&#45;&gt;21 -->
<g id="edge47" class="edge">
<title>9&#45;&gt;21</title>
<path fill="none" stroke="#c0c0c0" stroke-width="2" d="M685.3512,-293.2571C633.2873,-284.6575 577.9224,-271.3027 561.0585,-252 529.4115,-215.7764 522.6775,-180.4543 554.0585,-144 573.325,-121.6187 756.8011,-103.0653 853.7203,-94.731"/>
<polygon fill="#c0c0c0" stroke="#c0c0c0" stroke-width="2" points="854.2901,-98.1952 863.9578,-93.8609 853.6973,-91.2204 854.2901,-98.1952"/>
</g>
<!-- 23 -->
<g id="node24" class="node">
<title>23</title>
<path fill="none" stroke="#56d892" stroke-width="2" stroke-dasharray="5,2" d="M928.0585,-180C928.0585,-180 898.0585,-180 898.0585,-180 892.0585,-180 886.0585,-174 886.0585,-168 886.0585,-168 886.0585,-156 886.0585,-156 886.0585,-150 892.0585,-144 898.0585,-144 898.0585,-144 928.0585,-144 928.0585,-144 934.0585,-144 940.0585,-150 940.0585,-156 940.0585,-156 940.0585,-168 940.0585,-168 940.0585,-174 934.0585,-180 928.0585,-180"/>
<text text-anchor="middle" x="913.0585" y="-159.5" font-family="sans" font-size="10.00" fill="#000000">tSNE</text>
</g>
<!-- 9&#45;&gt;23 -->
<g id="edge56" class="edge">
<title>9&#45;&gt;23</title>
<path fill="none" stroke="#c0c0c0" stroke-width="2" d="M805.6365,-287.7623C827.2629,-262.4436 866.4909,-216.5182 891.085,-187.7251"/>
<polygon fill="#c0c0c0" stroke="#c0c0c0" stroke-width="2" points="893.7734,-189.9666 897.6069,-180.0896 888.4507,-185.4202 893.7734,-189.9666"/>
</g>
<!-- 9&#45;&gt;27 -->
<g id="edge61" class="edge">
<title>9&#45;&gt;27</title>
<path fill="none" stroke="#c0c0c0" stroke-width="2" d="M831.4426,-287.8314C853.3766,-278.2018 880.4977,-266.295 903.6516,-256.1299"/>
<polygon fill="#c0c0c0" stroke="#c0c0c0" stroke-width="2" points="905.2225,-259.2627 912.9719,-252.038 902.4085,-252.8532 905.2225,-259.2627"/>
</g>
<!-- 39 -->
<g id="node40" class="node">
<title>39</title>
<path fill="none" stroke="#56d8c9" stroke-width="2" stroke-dasharray="5,2" d="M686.0585,-252C686.0585,-252 582.0585,-252 582.0585,-252 576.0585,-252 570.0585,-246 570.0585,-240 570.0585,-240 570.0585,-228 570.0585,-228 570.0585,-222 576.0585,-216 582.0585,-216 582.0585,-216 686.0585,-216 686.0585,-216 692.0585,-216 698.0585,-222 698.0585,-228 698.0585,-228 698.0585,-240 698.0585,-240 698.0585,-246 692.0585,-252 686.0585,-252"/>
<text text-anchor="middle" x="634.0585" y="-231.5" font-family="sans" font-size="10.00" fill="#000000">differential_expression</text>
</g>
<!-- 9&#45;&gt;39 -->
<g id="edge75" class="edge">
<title>9&#45;&gt;39</title>
<path fill="none" stroke="#c0c0c0" stroke-width="2" d="M750.6931,-287.8314C729.9217,-278.2446 704.2601,-266.4008 682.3004,-256.2655"/>
<polygon fill="#c0c0c0" stroke="#c0c0c0" stroke-width="2" points="683.6871,-253.0508 673.1408,-252.038 680.7537,-259.4065 683.6871,-253.0508"/>
</g>
<!-- 10 -->
<g id="node11" class="node">
<title>10</title>
<path fill="none" stroke="#d8ac56" stroke-width="2" stroke-dasharray="5,2" d="M1052.0585,-684C1052.0585,-684 952.0585,-684 952.0585,-684 946.0585,-684 940.0585,-678 940.0585,-672 940.0585,-672 940.0585,-660 940.0585,-660 940.0585,-654 946.0585,-648 952.0585,-648 952.0585,-648 1052.0585,-648 1052.0585,-648 1058.0585,-648 1064.0585,-654 1064.0585,-660 1064.0585,-660 1064.0585,-672 1064.0585,-672 1064.0585,-678 1058.0585,-684 1052.0585,-684"/>
<text text-anchor="middle" x="1002.0585" y="-669" font-family="sans" font-size="10.00" fill="#000000">run_salmon</text>
<text text-anchor="middle" x="1002.0585" y="-658" font-family="sans" font-size="10.00" fill="#000000">sampleID: SRS638559</text>
</g>
<!-- 10&#45;&gt;8 -->
<g id="edge18" class="edge">
<title>10&#45;&gt;8</title>
<path fill="none" stroke="#c0c0c0" stroke-width="2" d="M1007.8624,-647.8314C1010.3492,-640.0463 1013.3116,-630.7729 1016.071,-622.1347"/>
<polygon fill="#c0c0c0" stroke="#c0c0c0" stroke-width="2" points="1019.4675,-623.0041 1019.1765,-612.4133 1012.7994,-620.874 1019.4675,-623.0041"/>
</g>
<!-- 11&#45;&gt;21 -->
<g id="edge48" class="edge">
<title>11&#45;&gt;21</title>
<path fill="none" stroke="#c0c0c0" stroke-width="2" d="M821.0966,-143.8314C836.829,-134.6221 856.1196,-123.3301 872.9628,-113.4706"/>
<polygon fill="#c0c0c0" stroke="#c0c0c0" stroke-width="2" points="875.1683,-116.2352 882.0303,-108.1628 871.632,-110.1941 875.1683,-116.2352"/>
</g>
<!-- 12 -->
<g id="node13" class="node">
<title>12</title>
<path fill="none" stroke="#d8ac56" stroke-width="2" stroke-dasharray="5,2" d="M692.0585,-684C692.0585,-684 592.0585,-684 592.0585,-684 586.0585,-684 580.0585,-678 580.0585,-672 580.0585,-672 580.0585,-660 580.0585,-660 580.0585,-654 586.0585,-648 592.0585,-648 592.0585,-648 692.0585,-648 692.0585,-648 698.0585,-648 704.0585,-654 704.0585,-660 704.0585,-660 704.0585,-672 704.0585,-672 704.0585,-678 698.0585,-684 692.0585,-684"/>
<text text-anchor="middle" x="642.0585" y="-669" font-family="sans" font-size="10.00" fill="#000000">run_salmon</text>
<text text-anchor="middle" x="642.0585" y="-658" font-family="sans" font-size="10.00" fill="#000000">sampleID: SRS389760</text>
</g>
<!-- 12&#45;&gt;8 -->
<g id="edge19" class="edge">
<title>12&#45;&gt;8</title>
<path fill="none" stroke="#c0c0c0" stroke-width="2" d="M704.3331,-649.9238C707.2782,-649.2543 710.1979,-648.6092 713.0585,-648 798.495,-629.8046 898.0783,-613.3919 961.3281,-603.5594"/>
<polygon fill="#c0c0c0" stroke="#c0c0c0" stroke-width="2" points="962.1975,-606.9666 971.545,-601.9792 961.1275,-600.0489 962.1975,-606.9666"/>
</g>
<!-- 13&#45;&gt;12 -->
<g id="edge33" class="edge">
<title>13&#45;&gt;12</title>
<path fill="none" stroke="#c0c0c0" stroke-width="2" d="M319.965,-721.6958C322.6957,-721.1102 325.4014,-720.5426 328.0585,-720 410.6255,-703.1396 506.1257,-687.2222 569.9235,-677.0967"/>
<polygon fill="#c0c0c0" stroke="#c0c0c0" stroke-width="2" points="570.5529,-680.5408 579.8836,-675.5221 569.4597,-673.6267 570.5529,-680.5408"/>
</g>
<!-- 42 -->
<g id="node43" class="node">
<title>42</title>
<path fill="none" stroke="#afd856" stroke-width="2" stroke-dasharray="5,2" d="M678.0585,-396C678.0585,-396 578.0585,-396 578.0585,-396 572.0585,-396 566.0585,-390 566.0585,-384 566.0585,-384 566.0585,-372 566.0585,-372 566.0585,-366 572.0585,-360 578.0585,-360 578.0585,-360 678.0585,-360 678.0585,-360 684.0585,-360 690.0585,-366 690.0585,-372 690.0585,-372 690.0585,-384 690.0585,-384 690.0585,-390 684.0585,-396 678.0585,-396"/>
<text text-anchor="middle" x="628.0585" y="-381" font-family="sans" font-size="10.00" fill="#000000">re_run_Salmon</text>
<text text-anchor="middle" x="628.0585" y="-370" font-family="sans" font-size="10.00" fill="#000000">sampleID: SRS389760</text>
</g>
<!-- 13&#45;&gt;42 -->
<g id="edge82" class="edge">
<title>13&#45;&gt;42</title>
<path fill="none" stroke="#c0c0c0" stroke-width="2" d="M279.4568,-719.8942C312.6142,-695.5597 364.0585,-648.9501 364.0585,-594 364.0585,-594 364.0585,-594 364.0585,-522 364.0585,-434.4366 477.3748,-399.7995 555.5278,-386.3236"/>
<polygon fill="#c0c0c0" stroke="#c0c0c0" stroke-width="2" points="556.5271,-389.7065 565.8285,-384.6336 555.3937,-382.7989 556.5271,-389.7065"/>
</g>
<!-- 14&#45;&gt;21 -->
<g id="edge52" class="edge">
<title>14&#45;&gt;21</title>
<path fill="none" stroke="#c0c0c0" stroke-width="2" d="M1033.4314,-143.8314C1011.8986,-134.2018 985.2736,-122.295 962.5433,-112.1299"/>
<polygon fill="#c0c0c0" stroke="#c0c0c0" stroke-width="2" points="963.951,-108.9254 953.3934,-108.038 961.0933,-115.3155 963.951,-108.9254"/>
</g>
<!-- 40 -->
<g id="node41" class="node">
<title>40</title>
<path fill="none" stroke="#8fd856" stroke-width="2" stroke-dasharray="5,2" d="M1075.0585,-468C1075.0585,-468 975.0585,-468 975.0585,-468 969.0585,-468 963.0585,-462 963.0585,-456 963.0585,-456 963.0585,-444 963.0585,-444 963.0585,-438 969.0585,-432 975.0585,-432 975.0585,-432 1075.0585,-432 1075.0585,-432 1081.0585,-432 1087.0585,-438 1087.0585,-444 1087.0585,-444 1087.0585,-456 1087.0585,-456 1087.0585,-462 1081.0585,-468 1075.0585,-468"/>
<text text-anchor="middle" x="1025.0585" y="-447.5" font-family="sans" font-size="10.00" fill="#000000">rebuild_salmon_index</text>
</g>
<!-- 15&#45;&gt;40 -->
<g id="edge76" class="edge">
<title>15&#45;&gt;40</title>
<path fill="none" stroke="#c0c0c0" stroke-width="2" d="M1025.0585,-503.8314C1025.0585,-496.131 1025.0585,-486.9743 1025.0585,-478.4166"/>
<polygon fill="#c0c0c0" stroke="#c0c0c0" stroke-width="2" points="1028.5586,-478.4132 1025.0585,-468.4133 1021.5586,-478.4133 1028.5586,-478.4132"/>
</g>
<!-- 16&#45;&gt;8 -->
<g id="edge20" class="edge">
<title>16&#45;&gt;8</title>
<path fill="none" stroke="#c0c0c0" stroke-width="2" d="M844.5619,-647.9243C880.2476,-637.263 925.3584,-623.7859 961.5545,-612.9721"/>
<polygon fill="#c0c0c0" stroke="#c0c0c0" stroke-width="2" points="962.9324,-616.2134 971.512,-609.9973 960.9285,-609.5064 962.9324,-616.2134"/>
</g>
<!-- 17 -->
<g id="node18" class="node">
<title>17</title>
<path fill="none" stroke="#56d8a9" stroke-width="2" stroke-dasharray="5,2" d="M595.0585,-828C595.0585,-828 521.0585,-828 521.0585,-828 515.0585,-828 509.0585,-822 509.0585,-816 509.0585,-816 509.0585,-804 509.0585,-804 509.0585,-798 515.0585,-792 521.0585,-792 521.0585,-792 595.0585,-792 595.0585,-792 601.0585,-792 607.0585,-798 607.0585,-804 607.0585,-804 607.0585,-816 607.0585,-816 607.0585,-822 601.0585,-828 595.0585,-828"/>
<text text-anchor="middle" x="558.0585" y="-813" font-family="sans" font-size="10.00" fill="#000000">download_fastq</text>
<text text-anchor="middle" x="558.0585" y="-802" font-family="sans" font-size="10.00" fill="#000000">id: SRR612935_2</text>
</g>
<!-- 26 -->
<g id="node27" class="node">
<title>26</title>
<path fill="none" stroke="#d8cb56" stroke-width="2" stroke-dasharray="5,2" d="M613.5585,-756C613.5585,-756 502.5585,-756 502.5585,-756 496.5585,-756 490.5585,-750 490.5585,-744 490.5585,-744 490.5585,-732 490.5585,-732 490.5585,-726 496.5585,-720 502.5585,-720 502.5585,-720 613.5585,-720 613.5585,-720 619.5585,-720 625.5585,-726 625.5585,-732 625.5585,-732 625.5585,-744 625.5585,-744 625.5585,-750 619.5585,-756 613.5585,-756"/>
<text text-anchor="middle" x="558.0585" y="-741" font-family="sans" font-size="10.00" fill="#000000">aggregate_fastqs</text>
<text text-anchor="middle" x="558.0585" y="-730" font-family="sans" font-size="10.00" fill="#000000">sampleID: SRS374785_2</text>
</g>
<!-- 17&#45;&gt;26 -->
<g id="edge59" class="edge">
<title>17&#45;&gt;26</title>
<path fill="none" stroke="#c0c0c0" stroke-width="2" d="M558.0585,-791.8314C558.0585,-784.131 558.0585,-774.9743 558.0585,-766.4166"/>
<polygon fill="#c0c0c0" stroke="#c0c0c0" stroke-width="2" points="561.5586,-766.4132 558.0585,-756.4133 554.5586,-766.4133 561.5586,-766.4132"/>
</g>
<!-- 18 -->
<g id="node19" class="node">
<title>18</title>
<path fill="none" stroke="#d8ac56" stroke-width="2" stroke-dasharray="5,2" d="M1270.0585,-684C1270.0585,-684 1170.0585,-684 1170.0585,-684 1164.0585,-684 1158.0585,-678 1158.0585,-672 1158.0585,-672 1158.0585,-660 1158.0585,-660 1158.0585,-654 1164.0585,-648 1170.0585,-648 1170.0585,-648 1270.0585,-648 1270.0585,-648 1276.0585,-648 1282.0585,-654 1282.0585,-660 1282.0585,-660 1282.0585,-672 1282.0585,-672 1282.0585,-678 1276.0585,-684 1270.0585,-684"/>
<text text-anchor="middle" x="1220.0585" y="-669" font-family="sans" font-size="10.00" fill="#000000">run_salmon</text>
<text text-anchor="middle" x="1220.0585" y="-658" font-family="sans" font-size="10.00" fill="#000000">sampleID: SRS333370</text>
</g>
<!-- 18&#45;&gt;8 -->
<g id="edge15" class="edge">
<title>18&#45;&gt;8</title>
<path fill="none" stroke="#c0c0c0" stroke-width="2" d="M1171.1034,-647.9243C1144.5617,-638.1243 1111.5762,-625.945 1083.6727,-615.6422"/>
<polygon fill="#c0c0c0" stroke="#c0c0c0" stroke-width="2" points="1084.627,-612.2636 1074.0337,-612.0831 1082.2023,-618.8303 1084.627,-612.2636"/>
</g>
<!-- 19 -->
<g id="node20" class="node">
<title>19</title>
<path fill="none" stroke="#56c9d8" stroke-width="2" stroke-dasharray="5,2" d="M1133.5585,-828C1133.5585,-828 1050.5585,-828 1050.5585,-828 1044.5585,-828 1038.5585,-822 1038.5585,-816 1038.5585,-816 1038.5585,-804 1038.5585,-804 1038.5585,-798 1044.5585,-792 1050.5585,-792 1050.5585,-792 1133.5585,-792 1133.5585,-792 1139.5585,-792 1145.5585,-798 1145.5585,-804 1145.5585,-804 1145.5585,-816 1145.5585,-816 1145.5585,-822 1139.5585,-828 1133.5585,-828"/>
<text text-anchor="middle" x="1092.0585" y="-807.5" font-family="sans" font-size="10.00" fill="#000000">downloadGencode</text>
</g>
<!-- 19&#45;&gt;7 -->
<g id="edge11" class="edge">
<title>19&#45;&gt;7</title>
<path fill="none" stroke="#c0c0c0" stroke-width="2" d="M1145.809,-796.0538C1153.2445,-794.4814 1160.8142,-793.0648 1168.0585,-792 1234.7934,-782.1905 1722.9511,-800.0206 1774.0585,-756 1805.0339,-729.3198 1793.0585,-706.8816 1793.0585,-666 1793.0585,-666 1793.0585,-666 1793.0585,-450 1793.0585,-386.6939 1372.4947,-337.1813 1163.7663,-316.5064"/>
<polygon fill="#c0c0c0" stroke="#c0c0c0" stroke-width="2" points="1163.9792,-313.0105 1153.6844,-315.5138 1163.2934,-319.9768 1163.9792,-313.0105"/>
</g>
<!-- 19&#45;&gt;8 -->
<g id="edge17" class="edge">
<title>19&#45;&gt;8</title>
<path fill="none" stroke="#c0c0c0" stroke-width="2" d="M1093.3734,-791.8161C1094.8812,-760.8289 1094.7911,-696.4444 1073.0585,-648 1068.4675,-637.7661 1061.2271,-628.093 1053.7485,-619.8375"/>
<polygon fill="#c0c0c0" stroke="#c0c0c0" stroke-width="2" points="1056.0375,-617.1683 1046.5839,-612.3849 1050.9911,-622.0196 1056.0375,-617.1683"/>
</g>
<!-- 19&#45;&gt;9 -->
<g id="edge23" class="edge">
<title>19&#45;&gt;9</title>
<path fill="none" stroke="#c0c0c0" stroke-width="2" d="M1038.3675,-803.2814C1005.6661,-799.4215 963.0105,-794.7986 925.0585,-792 874.9879,-788.3077 60.4167,-788.3936 22.0585,-756 -9.1754,-729.6229 3.0585,-706.8816 3.0585,-666 3.0585,-666 3.0585,-666 3.0585,-450 3.0585,-382.4896 456.948,-334.4684 675.3325,-315.2705"/>
<polygon fill="#c0c0c0" stroke="#c0c0c0" stroke-width="2" points="675.8934,-318.7349 685.551,-314.3782 675.2844,-311.7615 675.8934,-318.7349"/>
</g>
<!-- 19&#45;&gt;15 -->
<g id="edge39" class="edge">
<title>19&#45;&gt;15</title>
<path fill="none" stroke="#c0c0c0" stroke-width="2" d="M1098.0283,-791.7319C1101.0992,-781.3756 1104.5148,-768.105 1106.0585,-756 1113.5746,-697.0603 1092.3722,-584.0243 1088.0585,-576 1081.9227,-564.5865 1072.3205,-554.5267 1062.4454,-546.2784"/>
<polygon fill="#c0c0c0" stroke="#c0c0c0" stroke-width="2" points="1064.5547,-543.4846 1054.5283,-540.0606 1060.2311,-548.9898 1064.5547,-543.4846"/>
</g>
<!-- 34 -->
<g id="node35" class="node">
<title>34</title>
<path fill="none" stroke="#d88d56" stroke-width="2" stroke-dasharray="5,2" d="M1052.0585,-756C1052.0585,-756 962.0585,-756 962.0585,-756 956.0585,-756 950.0585,-750 950.0585,-744 950.0585,-744 950.0585,-732 950.0585,-732 950.0585,-726 956.0585,-720 962.0585,-720 962.0585,-720 1052.0585,-720 1052.0585,-720 1058.0585,-720 1064.0585,-726 1064.0585,-732 1064.0585,-732 1064.0585,-744 1064.0585,-744 1064.0585,-750 1058.0585,-756 1052.0585,-756"/>
<text text-anchor="middle" x="1007.0585" y="-735.5" font-family="sans" font-size="10.00" fill="#000000">build_salmon_index</text>
</g>
<!-- 19&#45;&gt;34 -->
<g id="edge69" class="edge">
<title>19&#45;&gt;34</title>
<path fill="none" stroke="#c0c0c0" stroke-width="2" d="M1070.6094,-791.8314C1060.2407,-783.0485 1047.6356,-772.3712 1036.3939,-762.8489"/>
<polygon fill="#c0c0c0" stroke="#c0c0c0" stroke-width="2" points="1038.3934,-759.9556 1028.5007,-756.1628 1033.869,-765.297 1038.3934,-759.9556"/>
</g>
<!-- 20 -->
<g id="node21" class="node">
<title>20</title>
<path fill="none" stroke="#56d8a9" stroke-width="2" stroke-dasharray="5,2" d="M136.0585,-828C136.0585,-828 62.0585,-828 62.0585,-828 56.0585,-828 50.0585,-822 50.0585,-816 50.0585,-816 50.0585,-804 50.0585,-804 50.0585,-798 56.0585,-792 62.0585,-792 62.0585,-792 136.0585,-792 136.0585,-792 142.0585,-792 148.0585,-798 148.0585,-804 148.0585,-804 148.0585,-816 148.0585,-816 148.0585,-822 142.0585,-828 136.0585,-828"/>
<text text-anchor="middle" x="99.0585" y="-813" font-family="sans" font-size="10.00" fill="#000000">download_fastq</text>
<text text-anchor="middle" x="99.0585" y="-802" font-family="sans" font-size="10.00" fill="#000000">id: SRR660638_1</text>
</g>
<!-- 32 -->
<g id="node33" class="node">
<title>32</title>
<path fill="none" stroke="#d8cb56" stroke-width="2" stroke-dasharray="5,2" d="M154.5585,-756C154.5585,-756 43.5585,-756 43.5585,-756 37.5585,-756 31.5585,-750 31.5585,-744 31.5585,-744 31.5585,-732 31.5585,-732 31.5585,-726 37.5585,-720 43.5585,-720 43.5585,-720 154.5585,-720 154.5585,-720 160.5585,-720 166.5585,-726 166.5585,-732 166.5585,-732 166.5585,-744 166.5585,-744 166.5585,-750 160.5585,-756 154.5585,-756"/>
<text text-anchor="middle" x="99.0585" y="-741" font-family="sans" font-size="10.00" fill="#000000">aggregate_fastqs</text>
<text text-anchor="middle" x="99.0585" y="-730" font-family="sans" font-size="10.00" fill="#000000">sampleID: SRS389760_1</text>
</g>
<!-- 20&#45;&gt;32 -->
<g id="edge67" class="edge">
<title>20&#45;&gt;32</title>
<path fill="none" stroke="#c0c0c0" stroke-width="2" d="M99.0585,-791.8314C99.0585,-784.131 99.0585,-774.9743 99.0585,-766.4166"/>
<polygon fill="#c0c0c0" stroke="#c0c0c0" stroke-width="2" points="102.5586,-766.4132 99.0585,-756.4133 95.5586,-766.4133 102.5586,-766.4132"/>
</g>
<!-- 45 -->
<g id="node46" class="node">
<title>45</title>
<path fill="none" stroke="#5673d8" stroke-width="2" stroke-dasharray="5,2" d="M928.0585,-36C928.0585,-36 898.0585,-36 898.0585,-36 892.0585,-36 886.0585,-30 886.0585,-24 886.0585,-24 886.0585,-12 886.0585,-12 886.0585,-6 892.0585,0 898.0585,0 898.0585,0 928.0585,0 928.0585,0 934.0585,0 940.0585,-6 940.0585,-12 940.0585,-12 940.0585,-24 940.0585,-24 940.0585,-30 934.0585,-36 928.0585,-36"/>
<text text-anchor="middle" x="913.0585" y="-15.5" font-family="sans" font-size="10.00" fill="#000000">all</text>
</g>
<!-- 21&#45;&gt;45 -->
<g id="edge83" class="edge">
<title>21&#45;&gt;45</title>
<path fill="none" stroke="#c0c0c0" stroke-width="2" d="M913.0585,-71.8314C913.0585,-64.131 913.0585,-54.9743 913.0585,-46.4166"/>
<polygon fill="#c0c0c0" stroke="#c0c0c0" stroke-width="2" points="916.5586,-46.4132 913.0585,-36.4133 909.5586,-46.4133 916.5586,-46.4132"/>
</g>
<!-- 22 -->
<g id="node23" class="node">
<title>22</title>
<path fill="none" stroke="#56d8a9" stroke-width="2" stroke-dasharray="5,2" d="M1734.0585,-828C1734.0585,-828 1654.0585,-828 1654.0585,-828 1648.0585,-828 1642.0585,-822 1642.0585,-816 1642.0585,-816 1642.0585,-804 1642.0585,-804 1642.0585,-798 1648.0585,-792 1654.0585,-792 1654.0585,-792 1734.0585,-792 1734.0585,-792 1740.0585,-792 1746.0585,-798 1746.0585,-804 1746.0585,-804 1746.0585,-816 1746.0585,-816 1746.0585,-822 1740.0585,-828 1734.0585,-828"/>
<text text-anchor="middle" x="1694.0585" y="-813" font-family="sans" font-size="10.00" fill="#000000">download_fastq</text>
<text text-anchor="middle" x="1694.0585" y="-802" font-family="sans" font-size="10.00" fill="#000000">id: SRR3170191_1</text>
</g>
<!-- 30 -->
<g id="node31" class="node">
<title>30</title>
<path fill="none" stroke="#d8cb56" stroke-width="2" stroke-dasharray="5,2" d="M1752.5585,-756C1752.5585,-756 1635.5585,-756 1635.5585,-756 1629.5585,-756 1623.5585,-750 1623.5585,-744 1623.5585,-744 1623.5585,-732 1623.5585,-732 1623.5585,-726 1629.5585,-720 1635.5585,-720 1635.5585,-720 1752.5585,-720 1752.5585,-720 1758.5585,-720 1764.5585,-726 1764.5585,-732 1764.5585,-732 1764.5585,-744 1764.5585,-744 1764.5585,-750 1758.5585,-756 1752.5585,-756"/>
<text text-anchor="middle" x="1694.0585" y="-741" font-family="sans" font-size="10.00" fill="#000000">aggregate_fastqs</text>
<text text-anchor="middle" x="1694.0585" y="-730" font-family="sans" font-size="10.00" fill="#000000">sampleID: SRS1305249_1</text>
</g>
<!-- 22&#45;&gt;30 -->
<g id="edge63" class="edge">
<title>22&#45;&gt;30</title>
<path fill="none" stroke="#c0c0c0" stroke-width="2" d="M1694.0585,-791.8314C1694.0585,-784.131 1694.0585,-774.9743 1694.0585,-766.4166"/>
<polygon fill="#c0c0c0" stroke="#c0c0c0" stroke-width="2" points="1697.5586,-766.4132 1694.0585,-756.4133 1690.5586,-766.4133 1697.5586,-766.4132"/>
</g>
<!-- 23&#45;&gt;21 -->
<g id="edge51" class="edge">
<title>23&#45;&gt;21</title>
<path fill="none" stroke="#c0c0c0" stroke-width="2" d="M913.0585,-143.8314C913.0585,-136.131 913.0585,-126.9743 913.0585,-118.4166"/>
<polygon fill="#c0c0c0" stroke="#c0c0c0" stroke-width="2" points="916.5586,-118.4132 913.0585,-108.4133 909.5586,-118.4133 916.5586,-118.4132"/>
</g>
<!-- 24&#45;&gt;18 -->
<g id="edge44" class="edge">
<title>24&#45;&gt;18</title>
<path fill="none" stroke="#c0c0c0" stroke-width="2" d="M1338.9361,-719.8314C1317.7653,-710.2446 1291.6102,-698.4008 1269.2281,-688.2655"/>
<polygon fill="#c0c0c0" stroke="#c0c0c0" stroke-width="2" points="1270.4457,-684.9748 1259.8924,-684.038 1267.5581,-691.3515 1270.4457,-684.9748"/>
</g>
<!-- 37 -->
<g id="node38" class="node">
<title>37</title>
<path fill="none" stroke="#afd856" stroke-width="2" stroke-dasharray="5,2" d="M1104.0585,-396C1104.0585,-396 1004.0585,-396 1004.0585,-396 998.0585,-396 992.0585,-390 992.0585,-384 992.0585,-384 992.0585,-372 992.0585,-372 992.0585,-366 998.0585,-360 1004.0585,-360 1004.0585,-360 1104.0585,-360 1104.0585,-360 1110.0585,-360 1116.0585,-366 1116.0585,-372 1116.0585,-372 1116.0585,-384 1116.0585,-384 1116.0585,-390 1110.0585,-396 1104.0585,-396"/>
<text text-anchor="middle" x="1054.0585" y="-381" font-family="sans" font-size="10.00" fill="#000000">re_run_Salmon</text>
<text text-anchor="middle" x="1054.0585" y="-370" font-family="sans" font-size="10.00" fill="#000000">sampleID: SRS333370</text>
</g>
<!-- 24&#45;&gt;37 -->
<g id="edge73" class="edge">
<title>24&#45;&gt;37</title>
<path fill="none" stroke="#c0c0c0" stroke-width="2" d="M1430.4877,-719.9219C1447.6612,-711.4959 1465.379,-699.7651 1477.0585,-684 1501.3945,-651.1508 1496.0585,-634.8816 1496.0585,-594 1496.0585,-594 1496.0585,-594 1496.0585,-522 1496.0585,-502.7975 1251.7006,-432.5407 1126.3627,-397.7671"/>
<polygon fill="#c0c0c0" stroke="#c0c0c0" stroke-width="2" points="1127.0202,-394.3175 1116.4488,-395.0217 1125.152,-401.0636 1127.0202,-394.3175"/>
</g>
<!-- 25&#45;&gt;21 -->
<g id="edge49" class="edge">
<title>25&#45;&gt;21</title>
<path fill="none" stroke="#c0c0c0" stroke-width="2" d="M1149.6532,-215.8667C1162.6078,-196.201 1177.8459,-164.8361 1161.0585,-144 1137.8017,-115.1343 1037.9931,-100.8861 972.3015,-94.5098"/>
<polygon fill="#c0c0c0" stroke="#c0c0c0" stroke-width="2" points="972.3507,-90.9993 962.0683,-93.5531 971.699,-97.9689 972.3507,-90.9993"/>
</g>
<!-- 26&#45;&gt;4 -->
<g id="edge5" class="edge">
<title>26&#45;&gt;4</title>
<path fill="none" stroke="#c0c0c0" stroke-width="2" d="M556.8153,-719.8247C555.0578,-692.5213 552.0585,-639.2893 552.0585,-594 552.0585,-594 552.0585,-594 552.0585,-522 552.0585,-482.3342 653.8118,-429.6543 718.2832,-400.2571"/>
<polygon fill="#c0c0c0" stroke="#c0c0c0" stroke-width="2" points="719.8338,-403.3973 727.5084,-396.093 716.9539,-397.0171 719.8338,-403.3973"/>
</g>
<!-- 26&#45;&gt;16 -->
<g id="edge40" class="edge">
<title>26&#45;&gt;16</title>
<path fill="none" stroke="#c0c0c0" stroke-width="2" d="M614.7961,-719.9243C645.9603,-709.9959 684.7896,-697.6255 717.3941,-687.2382"/>
<polygon fill="#c0c0c0" stroke="#c0c0c0" stroke-width="2" points="718.8318,-690.4536 727.2975,-684.0831 716.7069,-683.7839 718.8318,-690.4536"/>
</g>
<!-- 27&#45;&gt;11 -->
<g id="edge30" class="edge">
<title>27&#45;&gt;11</title>
<path fill="none" stroke="#c0c0c0" stroke-width="2" d="M912.6744,-215.8314C890.7403,-206.2018 863.6192,-194.295 840.4654,-184.1299"/>
<polygon fill="#c0c0c0" stroke="#c0c0c0" stroke-width="2" points="841.7084,-180.8532 831.145,-180.038 838.8945,-187.2627 841.7084,-180.8532"/>
</g>
<!-- 27&#45;&gt;14 -->
<g id="edge37" class="edge">
<title>27&#45;&gt;14</title>
<path fill="none" stroke="#c0c0c0" stroke-width="2" d="M984.3395,-215.8314C999.6883,-206.6221 1018.5083,-195.3301 1034.9408,-185.4706"/>
<polygon fill="#c0c0c0" stroke="#c0c0c0" stroke-width="2" points="1037.0129,-188.3091 1043.7871,-180.1628 1033.4114,-182.3066 1037.0129,-188.3091"/>
</g>
<!-- 27&#45;&gt;21 -->
<g id="edge50" class="edge">
<title>27&#45;&gt;21</title>
<path fill="none" stroke="#c0c0c0" stroke-width="2" d="M955.7954,-215.8915C956.9494,-197.3369 957.0259,-167.9021 949.0585,-144 945.8323,-134.3213 940.3845,-124.7338 934.6904,-116.3837"/>
<polygon fill="#c0c0c0" stroke="#c0c0c0" stroke-width="2" points="937.4493,-114.2259 928.7502,-108.1781 931.7791,-118.3307 937.4493,-114.2259"/>
</g>
<!-- 27&#45;&gt;23 -->
<g id="edge55" class="edge">
<title>27&#45;&gt;23</title>
<path fill="none" stroke="#c0c0c0" stroke-width="2" d="M943.7124,-215.8314C939.1348,-207.7925 933.6533,-198.1666 928.5996,-189.2918"/>
<polygon fill="#c0c0c0" stroke="#c0c0c0" stroke-width="2" points="931.5337,-187.3712 923.5438,-180.4133 925.4508,-190.8351 931.5337,-187.3712"/>
</g>
<!-- 28 -->
<g id="node29" class="node">
<title>28</title>
<path fill="none" stroke="#56d8a9" stroke-width="2" stroke-dasharray="5,2" d="M904.0585,-828C904.0585,-828 824.0585,-828 824.0585,-828 818.0585,-828 812.0585,-822 812.0585,-816 812.0585,-816 812.0585,-804 812.0585,-804 812.0585,-798 818.0585,-792 824.0585,-792 824.0585,-792 904.0585,-792 904.0585,-792 910.0585,-792 916.0585,-798 916.0585,-804 916.0585,-804 916.0585,-816 916.0585,-816 916.0585,-822 910.0585,-828 904.0585,-828"/>
<text text-anchor="middle" x="864.0585" y="-813" font-family="sans" font-size="10.00" fill="#000000">download_fastq</text>
<text text-anchor="middle" x="864.0585" y="-802" font-family="sans" font-size="10.00" fill="#000000">id: SRR1410783_1</text>
</g>
<!-- 38 -->
<g id="node39" class="node">
<title>38</title>
<path fill="none" stroke="#d8cb56" stroke-width="2" stroke-dasharray="5,2" d="M919.5585,-756C919.5585,-756 808.5585,-756 808.5585,-756 802.5585,-756 796.5585,-750 796.5585,-744 796.5585,-744 796.5585,-732 796.5585,-732 796.5585,-726 802.5585,-720 808.5585,-720 808.5585,-720 919.5585,-720 919.5585,-720 925.5585,-720 931.5585,-726 931.5585,-732 931.5585,-732 931.5585,-744 931.5585,-744 931.5585,-750 925.5585,-756 919.5585,-756"/>
<text text-anchor="middle" x="864.0585" y="-741" font-family="sans" font-size="10.00" fill="#000000">aggregate_fastqs</text>
<text text-anchor="middle" x="864.0585" y="-730" font-family="sans" font-size="10.00" fill="#000000">sampleID: SRS638559_1</text>
</g>
<!-- 28&#45;&gt;38 -->
<g id="edge74" class="edge">
<title>28&#45;&gt;38</title>
<path fill="none" stroke="#c0c0c0" stroke-width="2" d="M864.0585,-791.8314C864.0585,-784.131 864.0585,-774.9743 864.0585,-766.4166"/>
<polygon fill="#c0c0c0" stroke="#c0c0c0" stroke-width="2" points="867.5586,-766.4132 864.0585,-756.4133 860.5586,-766.4133 867.5586,-766.4132"/>
</g>
<!-- 29 -->
<g id="node30" class="node">
<title>29</title>
<path fill="none" stroke="#d8cb56" stroke-width="2" stroke-dasharray="5,2" d="M766.5585,-756C766.5585,-756 655.5585,-756 655.5585,-756 649.5585,-756 643.5585,-750 643.5585,-744 643.5585,-744 643.5585,-732 643.5585,-732 643.5585,-726 649.5585,-720 655.5585,-720 655.5585,-720 766.5585,-720 766.5585,-720 772.5585,-720 778.5585,-726 778.5585,-732 778.5585,-732 778.5585,-744 778.5585,-744 778.5585,-750 772.5585,-756 766.5585,-756"/>
<text text-anchor="middle" x="711.0585" y="-741" font-family="sans" font-size="10.00" fill="#000000">aggregate_fastqs</text>
<text text-anchor="middle" x="711.0585" y="-730" font-family="sans" font-size="10.00" fill="#000000">sampleID: SRS638559_2</text>
</g>
<!-- 29&#45;&gt;10 -->
<g id="edge29" class="edge">
<title>29&#45;&gt;10</title>
<path fill="none" stroke="#c0c0c0" stroke-width="2" d="M778.9178,-721.2101C824.2926,-709.9833 883.9144,-695.2315 930.1124,-683.8011"/>
<polygon fill="#c0c0c0" stroke="#c0c0c0" stroke-width="2" points="931.1874,-687.1407 940.0541,-681.3413 929.5061,-680.3456 931.1874,-687.1407"/>
</g>
<!-- 41 -->
<g id="node42" class="node">
<title>41</title>
<path fill="none" stroke="#afd856" stroke-width="2" stroke-dasharray="5,2" d="M962.0585,-396C962.0585,-396 862.0585,-396 862.0585,-396 856.0585,-396 850.0585,-390 850.0585,-384 850.0585,-384 850.0585,-372 850.0585,-372 850.0585,-366 856.0585,-360 862.0585,-360 862.0585,-360 962.0585,-360 962.0585,-360 968.0585,-360 974.0585,-366 974.0585,-372 974.0585,-372 974.0585,-384 974.0585,-384 974.0585,-390 968.0585,-396 962.0585,-396"/>
<text text-anchor="middle" x="912.0585" y="-381" font-family="sans" font-size="10.00" fill="#000000">re_run_Salmon</text>
<text text-anchor="middle" x="912.0585" y="-370" font-family="sans" font-size="10.00" fill="#000000">sampleID: SRS638559</text>
</g>
<!-- 29&#45;&gt;41 -->
<g id="edge79" class="edge">
<title>29&#45;&gt;41</title>
<path fill="none" stroke="#c0c0c0" stroke-width="2" d="M777.0439,-719.9921C809.5933,-709.8259 844.1805,-696.6547 855.0585,-684 881.7078,-652.998 874.0585,-634.8816 874.0585,-594 874.0585,-594 874.0585,-594 874.0585,-522 874.0585,-480.3681 889.0913,-434.14 900.2466,-405.567"/>
<polygon fill="#c0c0c0" stroke="#c0c0c0" stroke-width="2" points="903.5163,-406.817 903.9997,-396.2332 897.0216,-404.2055 903.5163,-406.817"/>
</g>
<!-- 30&#45;&gt;2 -->
<g id="edge1" class="edge">
<title>30&#45;&gt;2</title>
<path fill="none" stroke="#c0c0c0" stroke-width="2" d="M1623.244,-720.4789C1579.2937,-709.6046 1522.8698,-695.644 1478.1435,-684.5777"/>
<polygon fill="#c0c0c0" stroke="#c0c0c0" stroke-width="2" points="1478.7547,-681.1235 1468.2067,-682.1192 1477.0734,-687.9186 1478.7547,-681.1235"/>
</g>
<!-- 31 -->
<g id="node32" class="node">
<title>31</title>
<path fill="none" stroke="#afd856" stroke-width="2" stroke-dasharray="5,2" d="M1252.0585,-396C1252.0585,-396 1146.0585,-396 1146.0585,-396 1140.0585,-396 1134.0585,-390 1134.0585,-384 1134.0585,-384 1134.0585,-372 1134.0585,-372 1134.0585,-366 1140.0585,-360 1146.0585,-360 1146.0585,-360 1252.0585,-360 1252.0585,-360 1258.0585,-360 1264.0585,-366 1264.0585,-372 1264.0585,-372 1264.0585,-384 1264.0585,-384 1264.0585,-390 1258.0585,-396 1252.0585,-396"/>
<text text-anchor="middle" x="1199.0585" y="-381" font-family="sans" font-size="10.00" fill="#000000">re_run_Salmon</text>
<text text-anchor="middle" x="1199.0585" y="-370" font-family="sans" font-size="10.00" fill="#000000">sampleID: SRS1305249</text>
</g>
<!-- 30&#45;&gt;31 -->
<g id="edge64" class="edge">
<title>30&#45;&gt;31</title>
<path fill="none" stroke="#c0c0c0" stroke-width="2" d="M1680.8224,-719.9445C1662.8818,-693.6382 1633.0585,-642.5995 1633.0585,-594 1633.0585,-594 1633.0585,-594 1633.0585,-522 1633.0585,-447.3903 1399.0845,-404.7118 1274.7233,-387.2969"/>
<polygon fill="#c0c0c0" stroke="#c0c0c0" stroke-width="2" points="1274.8869,-383.7864 1264.5026,-385.8879 1273.9309,-390.7208 1274.8869,-383.7864"/>
</g>
<!-- 31&#45;&gt;7 -->
<g id="edge9" class="edge">
<title>31&#45;&gt;7</title>
<path fill="none" stroke="#c0c0c0" stroke-width="2" d="M1161.2071,-359.8314C1141.3239,-350.2874 1116.7803,-338.5065 1095.728,-328.4013"/>
<polygon fill="#c0c0c0" stroke="#c0c0c0" stroke-width="2" points="1097.1674,-325.21 1086.6376,-324.038 1094.1383,-331.5207 1097.1674,-325.21"/>
</g>
<!-- 31&#45;&gt;9 -->
<g id="edge21" class="edge">
<title>31&#45;&gt;9</title>
<path fill="none" stroke="#c0c0c0" stroke-width="2" d="M1133.7509,-361.8188C1130.8175,-361.1853 1127.9098,-360.5756 1125.0585,-360 1052.1572,-345.2818 969.6877,-331.9476 904.8164,-322.2117"/>
<polygon fill="#c0c0c0" stroke="#c0c0c0" stroke-width="2" points="904.9674,-318.6955 894.5602,-320.6804 903.9337,-325.6188 904.9674,-318.6955"/>
</g>
<!-- 32&#45;&gt;12 -->
<g id="edge32" class="edge">
<title>32&#45;&gt;12</title>
<path fill="none" stroke="#c0c0c0" stroke-width="2" d="M166.9294,-721.5083C169.6699,-720.9747 172.3875,-720.4691 175.0585,-720 313.7511,-695.644 477.6168,-679.5901 569.7284,-671.7107"/>
<polygon fill="#c0c0c0" stroke="#c0c0c0" stroke-width="2" points="570.1111,-675.1909 579.7798,-670.859 569.52,-668.2159 570.1111,-675.1909"/>
</g>
<!-- 32&#45;&gt;42 -->
<g id="edge81" class="edge">
<title>32&#45;&gt;42</title>
<path fill="none" stroke="#c0c0c0" stroke-width="2" d="M149.3065,-719.87C199.1231,-698.2825 268.0585,-657.0239 268.0585,-594 268.0585,-594 268.0585,-594 268.0585,-522 268.0585,-458.488 321.7984,-459.4784 379.0585,-432 435.0459,-405.1323 504.5114,-391.493 555.8343,-384.6534"/>
<polygon fill="#c0c0c0" stroke="#c0c0c0" stroke-width="2" points="556.3717,-388.1133 565.8476,-383.3743 555.4847,-381.1697 556.3717,-388.1133"/>
</g>
<!-- 33&#45;&gt;18 -->
<g id="edge45" class="edge">
<title>33&#45;&gt;18</title>
<path fill="none" stroke="#c0c0c0" stroke-width="2" d="M1224.5444,-719.8314C1223.9027,-712.131 1223.1397,-702.9743 1222.4265,-694.4166"/>
<polygon fill="#c0c0c0" stroke="#c0c0c0" stroke-width="2" points="1225.9114,-694.088 1221.5929,-684.4133 1218.9356,-694.6694 1225.9114,-694.088"/>
</g>
<!-- 33&#45;&gt;37 -->
<g id="edge71" class="edge">
<title>33&#45;&gt;37</title>
<path fill="none" stroke="#c0c0c0" stroke-width="2" d="M1255.895,-719.8066C1268.5847,-710.5955 1282.4193,-698.3208 1291.0585,-684 1312.1758,-648.9948 1310.0585,-634.8816 1310.0585,-594 1310.0585,-594 1310.0585,-594 1310.0585,-522 1310.0585,-477.8051 1192.6932,-427.4405 1116.8976,-399.5227"/>
<polygon fill="#c0c0c0" stroke="#c0c0c0" stroke-width="2" points="1118.0068,-396.2019 1107.4129,-396.066 1115.6099,-402.7787 1118.0068,-396.2019"/>
</g>
<!-- 34&#45;&gt;2 -->
<g id="edge3" class="edge">
<title>34&#45;&gt;2</title>
<path fill="none" stroke="#c0c0c0" stroke-width="2" d="M1064.2174,-727.6075C1133.7073,-714.9729 1251.1843,-693.6135 1327.9315,-679.6595"/>
<polygon fill="#c0c0c0" stroke="#c0c0c0" stroke-width="2" points="1328.802,-683.0587 1338.0145,-677.8262 1327.5497,-676.1716 1328.802,-683.0587"/>
</g>
<!-- 34&#45;&gt;10 -->
<g id="edge28" class="edge">
<title>34&#45;&gt;10</title>
<path fill="none" stroke="#c0c0c0" stroke-width="2" d="M1005.7968,-719.8314C1005.262,-712.131 1004.6261,-702.9743 1004.0319,-694.4166"/>
<polygon fill="#c0c0c0" stroke="#c0c0c0" stroke-width="2" points="1007.5216,-694.1467 1003.3372,-684.4133 1000.5385,-694.6317 1007.5216,-694.1467"/>
</g>
<!-- 34&#45;&gt;12 -->
<g id="edge34" class="edge">
<title>34&#45;&gt;12</title>
<path fill="none" stroke="#c0c0c0" stroke-width="2" d="M949.9151,-722.0035C946.9271,-721.2962 943.9616,-720.6231 941.0585,-720 843.8887,-699.144 815.3236,-704.2694 714.3268,-684.1558"/>
<polygon fill="#c0c0c0" stroke="#c0c0c0" stroke-width="2" points="714.818,-680.6842 704.3221,-682.1288 713.428,-687.5449 714.818,-680.6842"/>
</g>
<!-- 34&#45;&gt;16 -->
<g id="edge41" class="edge">
<title>34&#45;&gt;16</title>
<path fill="none" stroke="#c0c0c0" stroke-width="2" d="M951.074,-719.9243C920.3235,-709.9959 882.0097,-697.6255 849.838,-687.2382"/>
<polygon fill="#c0c0c0" stroke="#c0c0c0" stroke-width="2" points="850.6577,-683.825 840.066,-684.0831 848.5069,-690.4864 850.6577,-683.825"/>
</g>
<!-- 34&#45;&gt;18 -->
<g id="edge43" class="edge">
<title>34&#45;&gt;18</title>
<path fill="none" stroke="#c0c0c0" stroke-width="2" d="M1060.5324,-719.9243C1089.7774,-710.0387 1126.1844,-697.7321 1156.8311,-687.3726"/>
<polygon fill="#c0c0c0" stroke="#c0c0c0" stroke-width="2" points="1158.2099,-690.6012 1166.5625,-684.0831 1155.9683,-683.9698 1158.2099,-690.6012"/>
</g>
<!-- 35 -->
<g id="node36" class="node">
<title>35</title>
<path fill="none" stroke="#56d8a9" stroke-width="2" stroke-dasharray="5,2" d="M442.0585,-828C442.0585,-828 368.0585,-828 368.0585,-828 362.0585,-828 356.0585,-822 356.0585,-816 356.0585,-816 356.0585,-804 356.0585,-804 356.0585,-798 362.0585,-792 368.0585,-792 368.0585,-792 442.0585,-792 442.0585,-792 448.0585,-792 454.0585,-798 454.0585,-804 454.0585,-804 454.0585,-816 454.0585,-816 454.0585,-822 448.0585,-828 442.0585,-828"/>
<text text-anchor="middle" x="405.0585" y="-813" font-family="sans" font-size="10.00" fill="#000000">download_fastq</text>
<text text-anchor="middle" x="405.0585" y="-802" font-family="sans" font-size="10.00" fill="#000000">id: SRR612935_1</text>
</g>
<!-- 35&#45;&gt;3 -->
<g id="edge4" class="edge">
<title>35&#45;&gt;3</title>
<path fill="none" stroke="#c0c0c0" stroke-width="2" d="M405.0585,-791.8314C405.0585,-784.131 405.0585,-774.9743 405.0585,-766.4166"/>
<polygon fill="#c0c0c0" stroke="#c0c0c0" stroke-width="2" points="408.5586,-766.4132 405.0585,-756.4133 401.5586,-766.4133 408.5586,-766.4132"/>
</g>
<!-- 36 -->
<g id="node37" class="node">
<title>36</title>
<path fill="none" stroke="#d8cb56" stroke-width="2" stroke-dasharray="5,2" d="M1593.5585,-756C1593.5585,-756 1476.5585,-756 1476.5585,-756 1470.5585,-756 1464.5585,-750 1464.5585,-744 1464.5585,-744 1464.5585,-732 1464.5585,-732 1464.5585,-726 1470.5585,-720 1476.5585,-720 1476.5585,-720 1593.5585,-720 1593.5585,-720 1599.5585,-720 1605.5585,-726 1605.5585,-732 1605.5585,-732 1605.5585,-744 1605.5585,-744 1605.5585,-750 1599.5585,-756 1593.5585,-756"/>
<text text-anchor="middle" x="1535.0585" y="-741" font-family="sans" font-size="10.00" fill="#000000">aggregate_fastqs</text>
<text text-anchor="middle" x="1535.0585" y="-730" font-family="sans" font-size="10.00" fill="#000000">sampleID: SRS1305249_2</text>
</g>
<!-- 36&#45;&gt;2 -->
<g id="edge2" class="edge">
<title>36&#45;&gt;2</title>
<path fill="none" stroke="#c0c0c0" stroke-width="2" d="M1501.7493,-719.8314C1484.6312,-710.4942 1463.5879,-699.016 1445.3363,-689.0606"/>
<polygon fill="#c0c0c0" stroke="#c0c0c0" stroke-width="2" points="1446.812,-685.8788 1436.357,-684.1628 1443.46,-692.024 1446.812,-685.8788"/>
</g>
<!-- 36&#45;&gt;31 -->
<g id="edge65" class="edge">
<title>36&#45;&gt;31</title>
<path fill="none" stroke="#c0c0c0" stroke-width="2" d="M1534.8513,-719.8149C1534.5584,-692.4989 1534.0585,-639.2511 1534.0585,-594 1534.0585,-594 1534.0585,-594 1534.0585,-522 1534.0585,-465.846 1373.1765,-418.3658 1274.3939,-394.5053"/>
<polygon fill="#c0c0c0" stroke="#c0c0c0" stroke-width="2" points="1274.9844,-391.048 1264.4451,-392.1311 1273.3595,-397.8568 1274.9844,-391.048"/>
</g>
<!-- 37&#45;&gt;7 -->
<g id="edge12" class="edge">
<title>37&#45;&gt;7</title>
<path fill="none" stroke="#c0c0c0" stroke-width="2" d="M1052.7968,-359.8314C1052.262,-352.131 1051.6261,-342.9743 1051.0319,-334.4166"/>
<polygon fill="#c0c0c0" stroke="#c0c0c0" stroke-width="2" points="1054.5216,-334.1467 1050.3372,-324.4133 1047.5385,-334.6317 1054.5216,-334.1467"/>
</g>
<!-- 37&#45;&gt;9 -->
<g id="edge24" class="edge">
<title>37&#45;&gt;9</title>
<path fill="none" stroke="#c0c0c0" stroke-width="2" d="M991.8285,-361.0282C954.227,-350.7732 906.0257,-337.6274 866.1649,-326.7563"/>
<polygon fill="#c0c0c0" stroke="#c0c0c0" stroke-width="2" points="867.0543,-323.3711 856.4858,-324.1165 865.2125,-330.1245 867.0543,-323.3711"/>
</g>
<!-- 38&#45;&gt;10 -->
<g id="edge27" class="edge">
<title>38&#45;&gt;10</title>
<path fill="none" stroke="#c0c0c0" stroke-width="2" d="M898.8817,-719.8314C916.8596,-710.4516 938.9788,-698.9112 958.1201,-688.9244"/>
<polygon fill="#c0c0c0" stroke="#c0c0c0" stroke-width="2" points="959.9995,-691.8916 967.2464,-684.1628 956.7615,-685.6855 959.9995,-691.8916"/>
</g>
<!-- 38&#45;&gt;41 -->
<g id="edge77" class="edge">
<title>38&#45;&gt;41</title>
<path fill="none" stroke="#c0c0c0" stroke-width="2" d="M874.4738,-719.5566C888.591,-692.7787 912.0585,-641.1706 912.0585,-594 912.0585,-594 912.0585,-594 912.0585,-522 912.0585,-481.876 912.0585,-435.4631 912.0585,-406.4177"/>
<polygon fill="#c0c0c0" stroke="#c0c0c0" stroke-width="2" points="915.5586,-406.1853 912.0585,-396.1854 908.5586,-406.1854 915.5586,-406.1853"/>
</g>
<!-- 39&#45;&gt;6 -->
<g id="edge8" class="edge">
<title>39&#45;&gt;6</title>
<path fill="none" stroke="#c0c0c0" stroke-width="2" d="M634.0585,-215.8314C634.0585,-208.131 634.0585,-198.9743 634.0585,-190.4166"/>
<polygon fill="#c0c0c0" stroke="#c0c0c0" stroke-width="2" points="637.5586,-190.4132 634.0585,-180.4133 630.5586,-190.4133 637.5586,-190.4132"/>
</g>
<!-- 39&#45;&gt;21 -->
<g id="edge54" class="edge">
<title>39&#45;&gt;21</title>
<path fill="none" stroke="#c0c0c0" stroke-width="2" d="M598.6231,-215.8842C585.2244,-207.0325 571.4386,-195.0142 564.0585,-180 557.0004,-165.6409 553.6456,-156.1479 564.0585,-144 582.6582,-122.301 759.3032,-103.5645 853.9039,-94.986"/>
<polygon fill="#c0c0c0" stroke="#c0c0c0" stroke-width="2" points="854.2591,-98.4683 863.9065,-94.0891 853.6338,-91.4963 854.2591,-98.4683"/>
</g>
<!-- 40&#45;&gt;4 -->
<g id="edge6" class="edge">
<title>40&#45;&gt;4</title>
<path fill="none" stroke="#c0c0c0" stroke-width="2" d="M963.0045,-432.4789C926.6008,-422.2002 880.4312,-409.1641 842.3834,-398.4212"/>
<polygon fill="#c0c0c0" stroke="#c0c0c0" stroke-width="2" points="842.9655,-394.9487 832.3907,-395.5997 841.0634,-401.6854 842.9655,-394.9487"/>
</g>
<!-- 40&#45;&gt;31 -->
<g id="edge66" class="edge">
<title>40&#45;&gt;31</title>
<path fill="none" stroke="#c0c0c0" stroke-width="2" d="M1068.966,-431.8314C1092.3409,-422.159 1121.2682,-410.1891 1145.9053,-399.9944"/>
<polygon fill="#c0c0c0" stroke="#c0c0c0" stroke-width="2" points="1147.5647,-403.0956 1155.4667,-396.038 1144.8882,-396.6275 1147.5647,-403.0956"/>
</g>
<!-- 40&#45;&gt;37 -->
<g id="edge72" class="edge">
<title>40&#45;&gt;37</title>
<path fill="none" stroke="#c0c0c0" stroke-width="2" d="M1032.3764,-431.8314C1035.5461,-423.9617 1039.3284,-414.5712 1042.8398,-405.8533"/>
<polygon fill="#c0c0c0" stroke="#c0c0c0" stroke-width="2" points="1046.1524,-406.9968 1046.642,-396.4133 1039.6593,-404.3815 1046.1524,-406.9968"/>
</g>
<!-- 40&#45;&gt;41 -->
<g id="edge78" class="edge">
<title>40&#45;&gt;41</title>
<path fill="none" stroke="#c0c0c0" stroke-width="2" d="M996.5438,-431.8314C982.2242,-422.7074 964.6961,-411.539 949.3247,-401.7449"/>
<polygon fill="#c0c0c0" stroke="#c0c0c0" stroke-width="2" points="950.8784,-398.5847 940.564,-396.1628 947.1168,-404.4882 950.8784,-398.5847"/>
</g>
<!-- 40&#45;&gt;42 -->
<g id="edge80" class="edge">
<title>40&#45;&gt;42</title>
<path fill="none" stroke="#c0c0c0" stroke-width="2" d="M962.8796,-441.2908C899.2521,-432.0202 797.3513,-416.1842 700.3072,-396.1778"/>
<polygon fill="#c0c0c0" stroke="#c0c0c0" stroke-width="2" points="700.8309,-392.7119 690.3277,-394.1019 699.4053,-399.5652 700.8309,-392.7119"/>
</g>
<!-- 41&#45;&gt;7 -->
<g id="edge10" class="edge">
<title>41&#45;&gt;7</title>
<path fill="none" stroke="#c0c0c0" stroke-width="2" d="M946.6294,-359.8314C964.477,-350.4516 986.4359,-338.9112 1005.4385,-328.9244"/>
<polygon fill="#c0c0c0" stroke="#c0c0c0" stroke-width="2" points="1007.2749,-331.9132 1014.4987,-324.1628 1004.0184,-325.7168 1007.2749,-331.9132"/>
</g>
<!-- 41&#45;&gt;9 -->
<g id="edge22" class="edge">
<title>41&#45;&gt;9</title>
<path fill="none" stroke="#c0c0c0" stroke-width="2" d="M881.2727,-359.8314C865.6682,-350.6221 846.5345,-339.3301 829.8281,-329.4706"/>
<polygon fill="#c0c0c0" stroke="#c0c0c0" stroke-width="2" points="831.2254,-326.2312 820.8344,-324.1628 827.6676,-332.2596 831.2254,-326.2312"/>
</g>
<!-- 42&#45;&gt;7 -->
<g id="edge14" class="edge">
<title>42&#45;&gt;7</title>
<path fill="none" stroke="#c0c0c0" stroke-width="2" d="M690.3195,-361.8587C693.2682,-361.2066 696.1924,-360.583 699.0585,-360 777.1561,-344.1132 865.9004,-330.4699 934.4863,-320.8714"/>
<polygon fill="#c0c0c0" stroke="#c0c0c0" stroke-width="2" points="935.0331,-324.3291 944.4556,-319.4847 934.0687,-317.3958 935.0331,-324.3291"/>
</g>
<!-- 42&#45;&gt;9 -->
<g id="edge26" class="edge">
<title>42&#45;&gt;9</title>
<path fill="none" stroke="#c0c0c0" stroke-width="2" d="M668.9379,-359.8314C690.6045,-350.2018 717.3948,-338.295 740.2663,-328.1299"/>
<polygon fill="#c0c0c0" stroke="#c0c0c0" stroke-width="2" points="741.7564,-331.2978 749.473,-324.038 738.9134,-324.9011 741.7564,-331.2978"/>
</g>
<!-- 43 -->
<g id="node44" class="node">
<title>43</title>
<path fill="none" stroke="#56d8a9" stroke-width="2" stroke-dasharray="5,2" d="M1575.0585,-828C1575.0585,-828 1495.0585,-828 1495.0585,-828 1489.0585,-828 1483.0585,-822 1483.0585,-816 1483.0585,-816 1483.0585,-804 1483.0585,-804 1483.0585,-798 1489.0585,-792 1495.0585,-792 1495.0585,-792 1575.0585,-792 1575.0585,-792 1581.0585,-792 1587.0585,-798 1587.0585,-804 1587.0585,-804 1587.0585,-816 1587.0585,-816 1587.0585,-822 1581.0585,-828 1575.0585,-828"/>
<text text-anchor="middle" x="1535.0585" y="-813" font-family="sans" font-size="10.00" fill="#000000">download_fastq</text>
<text text-anchor="middle" x="1535.0585" y="-802" font-family="sans" font-size="10.00" fill="#000000">id: SRR3170191_2</text>
</g>
<!-- 43&#45;&gt;36 -->
<g id="edge70" class="edge">
<title>43&#45;&gt;36</title>
<path fill="none" stroke="#c0c0c0" stroke-width="2" d="M1535.0585,-791.8314C1535.0585,-784.131 1535.0585,-774.9743 1535.0585,-766.4166"/>
<polygon fill="#c0c0c0" stroke="#c0c0c0" stroke-width="2" points="1538.5586,-766.4132 1535.0585,-756.4133 1531.5586,-766.4133 1538.5586,-766.4132"/>
</g>
<!-- 44 -->
<g id="node45" class="node">
<title>44</title>
<path fill="none" stroke="#56d8a9" stroke-width="2" stroke-dasharray="5,2" d="M751.0585,-828C751.0585,-828 671.0585,-828 671.0585,-828 665.0585,-828 659.0585,-822 659.0585,-816 659.0585,-816 659.0585,-804 659.0585,-804 659.0585,-798 665.0585,-792 671.0585,-792 671.0585,-792 751.0585,-792 751.0585,-792 757.0585,-792 763.0585,-798 763.0585,-804 763.0585,-804 763.0585,-816 763.0585,-816 763.0585,-822 757.0585,-828 751.0585,-828"/>
<text text-anchor="middle" x="711.0585" y="-813" font-family="sans" font-size="10.00" fill="#000000">download_fastq</text>
<text text-anchor="middle" x="711.0585" y="-802" font-family="sans" font-size="10.00" fill="#000000">id: SRR1410783_2</text>
</g>
<!-- 44&#45;&gt;29 -->
<g id="edge62" class="edge">
<title>44&#45;&gt;29</title>
<path fill="none" stroke="#c0c0c0" stroke-width="2" d="M711.0585,-791.8314C711.0585,-784.131 711.0585,-774.9743 711.0585,-766.4166"/>
<polygon fill="#c0c0c0" stroke="#c0c0c0" stroke-width="2" points="714.5586,-766.4132 711.0585,-756.4133 707.5586,-766.4133 714.5586,-766.4132"/>
</g>
</g>
</svg>
