<?xml version="1.0" encoding="UTF-8" standalone="no"?>
<!DOCTYPE svg PUBLIC "-//W3C//DTD SVG 1.1//EN"
 "http://www.w3.org/Graphics/SVG/1.1/DTD/svg11.dtd">
<!-- Generated by graphviz version 2.40.1 (20161225.0304)
 -->
<!-- Title: snakemake_dag Pages: 1 -->
<svg width="848pt" height="476pt"
 viewBox="0.00 0.00 847.50 476.00" xmlns="http://www.w3.org/2000/svg" xmlns:xlink="http://www.w3.org/1999/xlink">
<g id="graph0" class="graph" transform="scale(1 1) rotate(0) translate(4 472)">
<title>snakemake_dag</title>
<polygon fill="#ffffff" stroke="transparent" points="-4,4 -4,-472 843.5,-472 843.5,4 -4,4"/>
<!-- 0 -->
<g id="node1" class="node">
<title>0</title>
<path fill="none" stroke="#d8a456" stroke-width="2" stroke-dasharray="5,2" d="M147.5,-252C147.5,-252 43.5,-252 43.5,-252 37.5,-252 31.5,-246 31.5,-240 31.5,-240 31.5,-228 31.5,-228 31.5,-222 37.5,-216 43.5,-216 43.5,-216 147.5,-216 147.5,-216 153.5,-216 159.5,-222 159.5,-228 159.5,-228 159.5,-240 159.5,-240 159.5,-246 153.5,-252 147.5,-252"/>
<text text-anchor="middle" x="95.5" y="-231.5" font-family="sans" font-size="10.00" fill="#000000">differential_expression</text>
</g>
<!-- 3 -->
<g id="node4" class="node">
<title>3</title>
<path fill="none" stroke="#d85656" stroke-width="2" stroke-dasharray="5,2" d="M109,-180C109,-180 12,-180 12,-180 6,-180 0,-174 0,-168 0,-168 0,-156 0,-156 0,-150 6,-144 12,-144 12,-144 109,-144 109,-144 115,-144 121,-150 121,-156 121,-156 121,-168 121,-168 121,-174 115,-180 109,-180"/>
<text text-anchor="middle" x="60.5" y="-159.5" font-family="sans" font-size="10.00" fill="#000000">GO_term_enrichment</text>
</g>
<!-- 0&#45;&gt;3 -->
<g id="edge8" class="edge">
<title>0&#45;&gt;3</title>
<path fill="none" stroke="#c0c0c0" stroke-width="2" d="M86.668,-215.8314C82.8014,-207.8771 78.1794,-198.369 73.9032,-189.5723"/>
<polygon fill="#c0c0c0" stroke="#c0c0c0" stroke-width="2" points="76.9707,-187.8768 69.4509,-180.4133 70.6751,-190.9371 76.9707,-187.8768"/>
</g>
<!-- 4 -->
<g id="node5" class="node">
<title>4</title>
<path fill="none" stroke="#9fd856" stroke-width="2" stroke-dasharray="5,2" d="M391.5,-108C391.5,-108 317.5,-108 317.5,-108 311.5,-108 305.5,-102 305.5,-96 305.5,-96 305.5,-84 305.5,-84 305.5,-78 311.5,-72 317.5,-72 317.5,-72 391.5,-72 391.5,-72 397.5,-72 403.5,-78 403.5,-84 403.5,-84 403.5,-96 403.5,-96 403.5,-102 397.5,-108 391.5,-108"/>
<text text-anchor="middle" x="354.5" y="-87.5" font-family="sans" font-size="10.00" fill="#000000">make_SQLite_db</text>
</g>
<!-- 0&#45;&gt;4 -->
<g id="edge9" class="edge">
<title>0&#45;&gt;4</title>
<path fill="none" stroke="#c0c0c0" stroke-width="2" d="M106.709,-215.7213C120.1369,-195.3228 144.4914,-162.7298 173.5,-144 210.2649,-120.2622 257.8863,-106.5988 295.0541,-98.9569"/>
<polygon fill="#c0c0c0" stroke="#c0c0c0" stroke-width="2" points="296.1035,-102.3179 305.2424,-96.9579 294.7556,-95.4488 296.1035,-102.3179"/>
</g>
<!-- 1 -->
<g id="node2" class="node">
<title>1</title>
<path fill="none" stroke="#d87d56" stroke-width="2" stroke-dasharray="5,2" d="M391,-324C391,-324 206,-324 206,-324 200,-324 194,-318 194,-312 194,-312 194,-300 194,-300 194,-294 200,-288 206,-288 206,-288 391,-288 391,-288 397,-288 403,-294 403,-300 403,-300 403,-312 403,-312 403,-318 397,-324 391,-324"/>
<text text-anchor="middle" x="298.5" y="-309" font-family="sans" font-size="10.00" fill="#000000">gene_quantification_and_normalization</text>
<text text-anchor="middle" x="298.5" y="-298" font-family="sans" font-size="10.00" fill="#000000">level: gene</text>
</g>
<!-- 1&#45;&gt;0 -->
<g id="edge1" class="edge">
<title>1&#45;&gt;0</title>
<path fill="none" stroke="#c0c0c0" stroke-width="2" d="M247.5366,-287.9243C219.7853,-278.0815 185.2672,-265.8386 156.1386,-255.5073"/>
<polygon fill="#c0c0c0" stroke="#c0c0c0" stroke-width="2" points="157.0792,-252.1273 146.4844,-252.0831 154.7392,-258.7246 157.0792,-252.1273"/>
</g>
<!-- 1&#45;&gt;4 -->
<g id="edge10" class="edge">
<title>1&#45;&gt;4</title>
<path fill="none" stroke="#c0c0c0" stroke-width="2" d="M274.4958,-287.8385C236.8994,-257.1559 171.8279,-193.5585 206.5,-144 217.2488,-128.6361 258.9376,-114.2397 295.3412,-104.1815"/>
<polygon fill="#c0c0c0" stroke="#c0c0c0" stroke-width="2" points="296.6927,-107.4423 305.4386,-101.4624 294.8725,-100.6831 296.6927,-107.4423"/>
</g>
<!-- 10 -->
<g id="node11" class="node">
<title>10</title>
<path fill="none" stroke="#56a2d8" stroke-width="2" stroke-dasharray="5,2" d="M359,-180C359,-180 228,-180 228,-180 222,-180 216,-174 216,-168 216,-168 216,-156 216,-156 216,-150 222,-144 228,-144 228,-144 359,-144 359,-144 365,-144 371,-150 371,-156 371,-156 371,-168 371,-168 371,-174 365,-180 359,-180"/>
<text text-anchor="middle" x="293.5" y="-159.5" font-family="sans" font-size="10.00" fill="#000000">calculate_mean_rank_decile</text>
</g>
<!-- 1&#45;&gt;10 -->
<g id="edge26" class="edge">
<title>1&#45;&gt;10</title>
<path fill="none" stroke="#c0c0c0" stroke-width="2" d="M297.8667,-287.7623C297.0139,-263.201 295.4878,-219.2474 294.4845,-190.3541"/>
<polygon fill="#c0c0c0" stroke="#c0c0c0" stroke-width="2" points="297.9731,-189.9621 294.1281,-180.0896 290.9773,-190.2051 297.9731,-189.9621"/>
</g>
<!-- 12 -->
<g id="node13" class="node">
<title>12</title>
<path fill="none" stroke="#c6d856" stroke-width="2" stroke-dasharray="5,2" d="M495,-252C495,-252 420,-252 420,-252 414,-252 408,-246 408,-240 408,-240 408,-228 408,-228 408,-222 414,-216 420,-216 420,-216 495,-216 495,-216 501,-216 507,-222 507,-228 507,-228 507,-240 507,-240 507,-246 501,-252 495,-252"/>
<text text-anchor="middle" x="457.5" y="-231.5" font-family="sans" font-size="10.00" fill="#000000">make_meta_info</text>
</g>
<!-- 1&#45;&gt;12 -->
<g id="edge28" class="edge">
<title>1&#45;&gt;12</title>
<path fill="none" stroke="#c0c0c0" stroke-width="2" d="M338.6224,-287.8314C359.7932,-278.2446 385.9483,-266.4008 408.3303,-256.2655"/>
<polygon fill="#c0c0c0" stroke="#c0c0c0" stroke-width="2" points="410.0003,-259.3515 417.6661,-252.038 407.1128,-252.9748 410.0003,-259.3515"/>
</g>
<!-- 15 -->
<g id="node16" class="node">
<title>15</title>
<path fill="none" stroke="#567bd8" stroke-width="2" stroke-dasharray="5,2" d="M431.5,-180C431.5,-180 401.5,-180 401.5,-180 395.5,-180 389.5,-174 389.5,-168 389.5,-168 389.5,-156 389.5,-156 389.5,-150 395.5,-144 401.5,-144 401.5,-144 431.5,-144 431.5,-144 437.5,-144 443.5,-150 443.5,-156 443.5,-156 443.5,-168 443.5,-168 443.5,-174 437.5,-180 431.5,-180"/>
<text text-anchor="middle" x="416.5" y="-159.5" font-family="sans" font-size="10.00" fill="#000000">tSNE</text>
</g>
<!-- 1&#45;&gt;15 -->
<g id="edge32" class="edge">
<title>1&#45;&gt;15</title>
<path fill="none" stroke="#c0c0c0" stroke-width="2" d="M313.4448,-287.7623C334.1033,-262.5518 371.504,-216.9103 395.1165,-188.0952"/>
<polygon fill="#c0c0c0" stroke="#c0c0c0" stroke-width="2" points="398.0455,-190.0428 401.6766,-180.0896 392.6311,-185.606 398.0455,-190.0428"/>
</g>
<!-- 2 -->
<g id="node3" class="node">
<title>2</title>
<path fill="none" stroke="#56d87b" stroke-width="2" stroke-dasharray="5,2" d="M373,-396C373,-396 224,-396 224,-396 218,-396 212,-390 212,-384 212,-384 212,-372 212,-372 212,-366 218,-360 224,-360 224,-360 373,-360 373,-360 379,-360 385,-366 385,-372 385,-372 385,-384 385,-384 385,-390 379,-396 373,-396"/>
<text text-anchor="middle" x="298.5" y="-375.5" font-family="sans" font-size="10.00" fill="#000000">process_poor_mapped_samples</text>
</g>
<!-- 2&#45;&gt;1 -->
<g id="edge5" class="edge">
<title>2&#45;&gt;1</title>
<path fill="none" stroke="#c0c0c0" stroke-width="2" d="M298.5,-359.8314C298.5,-352.131 298.5,-342.9743 298.5,-334.4166"/>
<polygon fill="#c0c0c0" stroke="#c0c0c0" stroke-width="2" points="302.0001,-334.4132 298.5,-324.4133 295.0001,-334.4133 302.0001,-334.4132"/>
</g>
<!-- 5 -->
<g id="node6" class="node">
<title>5</title>
<path fill="none" stroke="#d87d56" stroke-width="2" stroke-dasharray="5,2" d="M670,-324C670,-324 485,-324 485,-324 479,-324 473,-318 473,-312 473,-312 473,-300 473,-300 473,-294 479,-288 485,-288 485,-288 670,-288 670,-288 676,-288 682,-294 682,-300 682,-300 682,-312 682,-312 682,-318 676,-324 670,-324"/>
<text text-anchor="middle" x="577.5" y="-309" font-family="sans" font-size="10.00" fill="#000000">gene_quantification_and_normalization</text>
<text text-anchor="middle" x="577.5" y="-298" font-family="sans" font-size="10.00" fill="#000000">level: transcript</text>
</g>
<!-- 2&#45;&gt;5 -->
<g id="edge21" class="edge">
<title>2&#45;&gt;5</title>
<path fill="none" stroke="#c0c0c0" stroke-width="2" d="M368.5434,-359.9243C407.7622,-349.8033 456.8143,-337.1447 497.5353,-326.6361"/>
<polygon fill="#c0c0c0" stroke="#c0c0c0" stroke-width="2" points="498.6196,-329.971 507.4278,-324.0831 496.8705,-323.193 498.6196,-329.971"/>
</g>
<!-- 3&#45;&gt;4 -->
<g id="edge12" class="edge">
<title>3&#45;&gt;4</title>
<path fill="none" stroke="#c0c0c0" stroke-width="2" d="M121.0605,-147.1689C172.1194,-134.6646 244.7569,-116.8759 295.3989,-104.4737"/>
<polygon fill="#c0c0c0" stroke="#c0c0c0" stroke-width="2" points="296.3407,-107.8466 305.2211,-102.0683 294.6756,-101.0475 296.3407,-107.8466"/>
</g>
<!-- 8 -->
<g id="node9" class="node">
<title>8</title>
<path fill="none" stroke="#59d856" stroke-width="2" stroke-dasharray="5,2" d="M220.5,-108C220.5,-108 134.5,-108 134.5,-108 128.5,-108 122.5,-102 122.5,-96 122.5,-96 122.5,-84 122.5,-84 122.5,-78 128.5,-72 134.5,-72 134.5,-72 220.5,-72 220.5,-72 226.5,-72 232.5,-78 232.5,-84 232.5,-84 232.5,-96 232.5,-96 232.5,-102 226.5,-108 220.5,-108"/>
<text text-anchor="middle" x="177.5" y="-87.5" font-family="sans" font-size="10.00" fill="#000000">make_word_clouds</text>
</g>
<!-- 3&#45;&gt;8 -->
<g id="edge25" class="edge">
<title>3&#45;&gt;8</title>
<path fill="none" stroke="#c0c0c0" stroke-width="2" d="M90.024,-143.8314C104.9891,-134.6221 123.3386,-123.3301 139.3603,-113.4706"/>
<polygon fill="#c0c0c0" stroke="#c0c0c0" stroke-width="2" points="141.3032,-116.3847 147.9854,-108.1628 137.6345,-110.423 141.3032,-116.3847"/>
</g>
<!-- 7 -->
<g id="node8" class="node">
<title>7</title>
<path fill="none" stroke="#78d856" stroke-width="2" stroke-dasharray="5,2" d="M253.5,-36C253.5,-36 223.5,-36 223.5,-36 217.5,-36 211.5,-30 211.5,-24 211.5,-24 211.5,-12 211.5,-12 211.5,-6 217.5,0 223.5,0 223.5,0 253.5,0 253.5,0 259.5,0 265.5,-6 265.5,-12 265.5,-12 265.5,-24 265.5,-24 265.5,-30 259.5,-36 253.5,-36"/>
<text text-anchor="middle" x="238.5" y="-15.5" font-family="sans" font-size="10.00" fill="#000000">all</text>
</g>
<!-- 4&#45;&gt;7 -->
<g id="edge24" class="edge">
<title>4&#45;&gt;7</title>
<path fill="none" stroke="#c0c0c0" stroke-width="2" d="M325.2283,-71.8314C309.8249,-62.2706 290.8049,-50.4651 274.5053,-40.3481"/>
<polygon fill="#c0c0c0" stroke="#c0c0c0" stroke-width="2" points="276.1123,-37.2262 265.7701,-34.9263 272.4208,-43.1737 276.1123,-37.2262"/>
</g>
<!-- 5&#45;&gt;4 -->
<g id="edge16" class="edge">
<title>5&#45;&gt;4</title>
<path fill="none" stroke="#c0c0c0" stroke-width="2" d="M600.5334,-287.7575C637.7538,-256.1215 703.2287,-190.0582 664.5,-144 633.1014,-106.6591 494.6135,-95.1373 413.7527,-91.5836"/>
<polygon fill="#c0c0c0" stroke="#c0c0c0" stroke-width="2" points="413.8422,-88.0844 403.7066,-91.17 413.5541,-95.0785 413.8422,-88.0844"/>
</g>
<!-- 6 -->
<g id="node7" class="node">
<title>6</title>
<path fill="none" stroke="#d8a456" stroke-width="2" stroke-dasharray="5,2" d="M827.5,-252C827.5,-252 723.5,-252 723.5,-252 717.5,-252 711.5,-246 711.5,-240 711.5,-240 711.5,-228 711.5,-228 711.5,-222 717.5,-216 723.5,-216 723.5,-216 827.5,-216 827.5,-216 833.5,-216 839.5,-222 839.5,-228 839.5,-228 839.5,-240 839.5,-240 839.5,-246 833.5,-252 827.5,-252"/>
<text text-anchor="middle" x="775.5" y="-231.5" font-family="sans" font-size="10.00" fill="#000000">differential_expression</text>
</g>
<!-- 5&#45;&gt;6 -->
<g id="edge22" class="edge">
<title>5&#45;&gt;6</title>
<path fill="none" stroke="#c0c0c0" stroke-width="2" d="M627.2082,-287.9243C654.2759,-278.0815 687.9439,-265.8386 716.3549,-255.5073"/>
<polygon fill="#c0c0c0" stroke="#c0c0c0" stroke-width="2" points="717.5695,-258.7899 725.7714,-252.0831 715.1773,-252.2114 717.5695,-258.7899"/>
</g>
<!-- 5&#45;&gt;12 -->
<g id="edge29" class="edge">
<title>5&#45;&gt;12</title>
<path fill="none" stroke="#c0c0c0" stroke-width="2" d="M547.2189,-287.8314C531.8702,-278.6221 513.0502,-267.3301 496.6177,-257.4706"/>
<polygon fill="#c0c0c0" stroke="#c0c0c0" stroke-width="2" points="498.1471,-254.3066 487.7714,-252.1628 494.5456,-260.3091 498.1471,-254.3066"/>
</g>
<!-- 13 -->
<g id="node14" class="node">
<title>13</title>
<path fill="none" stroke="#56a2d8" stroke-width="2" stroke-dasharray="5,2" d="M643,-180C643,-180 512,-180 512,-180 506,-180 500,-174 500,-168 500,-168 500,-156 500,-156 500,-150 506,-144 512,-144 512,-144 643,-144 643,-144 649,-144 655,-150 655,-156 655,-156 655,-168 655,-168 655,-174 649,-180 643,-180"/>
<text text-anchor="middle" x="577.5" y="-159.5" font-family="sans" font-size="10.00" fill="#000000">calculate_mean_rank_decile</text>
</g>
<!-- 5&#45;&gt;13 -->
<g id="edge30" class="edge">
<title>5&#45;&gt;13</title>
<path fill="none" stroke="#c0c0c0" stroke-width="2" d="M577.5,-287.7623C577.5,-263.201 577.5,-219.2474 577.5,-190.3541"/>
<polygon fill="#c0c0c0" stroke="#c0c0c0" stroke-width="2" points="581.0001,-190.0896 577.5,-180.0896 574.0001,-190.0897 581.0001,-190.0896"/>
</g>
<!-- 6&#45;&gt;4 -->
<g id="edge15" class="edge">
<title>6&#45;&gt;4</title>
<path fill="none" stroke="#c0c0c0" stroke-width="2" d="M765.185,-215.7543C752.2623,-194.7429 728.0573,-160.9495 697.5,-144 649.883,-117.5878 498.6588,-101.5614 413.7693,-94.4157"/>
<polygon fill="#c0c0c0" stroke="#c0c0c0" stroke-width="2" points="414.0116,-90.9238 403.7572,-93.5882 413.4349,-97.9 414.0116,-90.9238"/>
</g>
<!-- 8&#45;&gt;7 -->
<g id="edge23" class="edge">
<title>8&#45;&gt;7</title>
<path fill="none" stroke="#c0c0c0" stroke-width="2" d="M192.8929,-71.8314C199.9904,-63.454 208.548,-53.3531 216.324,-44.1749"/>
<polygon fill="#c0c0c0" stroke="#c0c0c0" stroke-width="2" points="219.1061,-46.3056 222.8999,-36.4133 213.7652,-41.7807 219.1061,-46.3056"/>
</g>
<!-- 9 -->
<g id="node10" class="node">
<title>9</title>
<path fill="none" stroke="#56c9d8" stroke-width="2" stroke-dasharray="5,2" d="M333.5,-468C333.5,-468 233.5,-468 233.5,-468 227.5,-468 221.5,-462 221.5,-456 221.5,-456 221.5,-444 221.5,-444 221.5,-438 227.5,-432 233.5,-432 233.5,-432 333.5,-432 333.5,-432 339.5,-432 345.5,-438 345.5,-444 345.5,-444 345.5,-456 345.5,-456 345.5,-462 339.5,-468 333.5,-468"/>
<text text-anchor="middle" x="283.5" y="-453" font-family="sans" font-size="10.00" fill="#000000">re_run_Salmon</text>
<text text-anchor="middle" x="283.5" y="-442" font-family="sans" font-size="10.00" fill="#000000">sampleID: SRS638559</text>
</g>
<!-- 9&#45;&gt;1 -->
<g id="edge3" class="edge">
<title>9&#45;&gt;1</title>
<path fill="none" stroke="#c0c0c0" stroke-width="2" d="M240.5146,-431.8854C225.7171,-423.3151 210.7939,-411.4972 202.5,-396 194.9503,-381.8932 194.4225,-373.8114 202.5,-360 210.1085,-346.9907 222.131,-336.8734 235.1286,-329.1006"/>
<polygon fill="#c0c0c0" stroke="#c0c0c0" stroke-width="2" points="237.1663,-331.9743 244.2405,-324.0872 233.7918,-325.8413 237.1663,-331.9743"/>
</g>
<!-- 9&#45;&gt;2 -->
<g id="edge7" class="edge">
<title>9&#45;&gt;2</title>
<path fill="none" stroke="#c0c0c0" stroke-width="2" d="M287.2851,-431.8314C288.8894,-424.131 290.797,-414.9743 292.5799,-406.4166"/>
<polygon fill="#c0c0c0" stroke="#c0c0c0" stroke-width="2" points="296.0507,-406.9169 294.6639,-396.4133 289.1979,-405.4892 296.0507,-406.9169"/>
</g>
<!-- 9&#45;&gt;5 -->
<g id="edge19" class="edge">
<title>9&#45;&gt;5</title>
<path fill="none" stroke="#c0c0c0" stroke-width="2" d="M345.7771,-433.9355C348.7215,-433.2628 351.6404,-432.6139 354.5,-432 444.5164,-412.6743 492.3208,-460.0059 558.5,-396 574.7495,-380.2841 578.8378,-354.4297 579.2458,-334.4546"/>
<polygon fill="#c0c0c0" stroke="#c0c0c0" stroke-width="2" points="582.7448,-334.3167 579.1583,-324.3474 575.7451,-334.3773 582.7448,-334.3167"/>
</g>
<!-- 10&#45;&gt;4 -->
<g id="edge11" class="edge">
<title>10&#45;&gt;4</title>
<path fill="none" stroke="#c0c0c0" stroke-width="2" d="M308.8929,-143.8314C315.9904,-135.454 324.548,-125.3531 332.324,-116.1749"/>
<polygon fill="#c0c0c0" stroke="#c0c0c0" stroke-width="2" points="335.1061,-118.3056 338.8999,-108.4133 329.7652,-113.7807 335.1061,-118.3056"/>
</g>
<!-- 11 -->
<g id="node12" class="node">
<title>11</title>
<path fill="none" stroke="#56d8a2" stroke-width="2" stroke-dasharray="5,2" d="M537,-396C537,-396 454,-396 454,-396 448,-396 442,-390 442,-384 442,-384 442,-372 442,-372 442,-366 448,-360 454,-360 454,-360 537,-360 537,-360 543,-360 549,-366 549,-372 549,-372 549,-384 549,-384 549,-390 543,-396 537,-396"/>
<text text-anchor="middle" x="495.5" y="-375.5" font-family="sans" font-size="10.00" fill="#000000">downloadGencode</text>
</g>
<!-- 11&#45;&gt;1 -->
<g id="edge4" class="edge">
<title>11&#45;&gt;1</title>
<path fill="none" stroke="#c0c0c0" stroke-width="2" d="M446.0429,-359.9243C419.2289,-350.1243 385.9051,-337.945 357.7153,-327.6422"/>
<polygon fill="#c0c0c0" stroke="#c0c0c0" stroke-width="2" points="358.5713,-324.2286 347.9775,-324.0831 356.1684,-330.8033 358.5713,-324.2286"/>
</g>
<!-- 11&#45;&gt;5 -->
<g id="edge20" class="edge">
<title>11&#45;&gt;5</title>
<path fill="none" stroke="#c0c0c0" stroke-width="2" d="M516.1921,-359.8314C526.1948,-351.0485 538.355,-340.3712 549.1999,-330.8489"/>
<polygon fill="#c0c0c0" stroke="#c0c0c0" stroke-width="2" points="551.6094,-333.3909 556.8146,-324.1628 546.9908,-328.1308 551.6094,-333.3909"/>
</g>
<!-- 12&#45;&gt;4 -->
<g id="edge13" class="edge">
<title>12&#45;&gt;4</title>
<path fill="none" stroke="#c0c0c0" stroke-width="2" d="M461.3201,-215.9016C464.3713,-196.5517 466.1616,-165.7262 452.5,-144 443.1643,-129.1534 428.225,-118.0624 412.7956,-109.9247"/>
<polygon fill="#c0c0c0" stroke="#c0c0c0" stroke-width="2" points="414.2134,-106.7219 403.693,-105.4685 411.1355,-113.009 414.2134,-106.7219"/>
</g>
<!-- 12&#45;&gt;10 -->
<g id="edge27" class="edge">
<title>12&#45;&gt;10</title>
<path fill="none" stroke="#c0c0c0" stroke-width="2" d="M416.1159,-215.8314C394.1818,-206.2018 367.0608,-194.295 343.9069,-184.1299"/>
<polygon fill="#c0c0c0" stroke="#c0c0c0" stroke-width="2" points="345.15,-180.8532 334.5865,-180.038 342.336,-187.2627 345.15,-180.8532"/>
</g>
<!-- 12&#45;&gt;13 -->
<g id="edge31" class="edge">
<title>12&#45;&gt;13</title>
<path fill="none" stroke="#c0c0c0" stroke-width="2" d="M487.7811,-215.8314C503.1298,-206.6221 521.9498,-195.3301 538.3823,-185.4706"/>
<polygon fill="#c0c0c0" stroke="#c0c0c0" stroke-width="2" points="540.4544,-188.3091 547.2286,-180.1628 536.8529,-182.3066 540.4544,-188.3091"/>
</g>
<!-- 12&#45;&gt;15 -->
<g id="edge33" class="edge">
<title>12&#45;&gt;15</title>
<path fill="none" stroke="#c0c0c0" stroke-width="2" d="M447.154,-215.8314C442.5763,-207.7925 437.0948,-198.1666 432.0412,-189.2918"/>
<polygon fill="#c0c0c0" stroke="#c0c0c0" stroke-width="2" points="434.9752,-187.3712 426.9853,-180.4133 428.8923,-190.8351 434.9752,-187.3712"/>
</g>
<!-- 13&#45;&gt;4 -->
<g id="edge14" class="edge">
<title>13&#45;&gt;4</title>
<path fill="none" stroke="#c0c0c0" stroke-width="2" d="M521.5155,-143.9243C488.5188,-133.2707 446.8135,-119.8052 413.333,-108.9954"/>
<polygon fill="#c0c0c0" stroke="#c0c0c0" stroke-width="2" points="414.2667,-105.619 403.675,-105.8771 412.1158,-112.2804 414.2667,-105.619"/>
</g>
<!-- 14 -->
<g id="node15" class="node">
<title>14</title>
<path fill="none" stroke="#56c9d8" stroke-width="2" stroke-dasharray="5,2" d="M481.5,-468C481.5,-468 375.5,-468 375.5,-468 369.5,-468 363.5,-462 363.5,-456 363.5,-456 363.5,-444 363.5,-444 363.5,-438 369.5,-432 375.5,-432 375.5,-432 481.5,-432 481.5,-432 487.5,-432 493.5,-438 493.5,-444 493.5,-444 493.5,-456 493.5,-456 493.5,-462 487.5,-468 481.5,-468"/>
<text text-anchor="middle" x="428.5" y="-453" font-family="sans" font-size="10.00" fill="#000000">re_run_Salmon</text>
<text text-anchor="middle" x="428.5" y="-442" font-family="sans" font-size="10.00" fill="#000000">sampleID: SRS1305249</text>
</g>
<!-- 14&#45;&gt;1 -->
<g id="edge2" class="edge">
<title>14&#45;&gt;1</title>
<path fill="none" stroke="#c0c0c0" stroke-width="2" d="M425.474,-431.8923C421.3929,-412.249 412.4602,-380.9037 394.5,-360 383.5608,-347.2681 368.8362,-336.9184 354.2084,-328.8142"/>
<polygon fill="#c0c0c0" stroke="#c0c0c0" stroke-width="2" points="355.6286,-325.6069 345.1477,-324.0572 352.3747,-331.8046 355.6286,-325.6069"/>
</g>
<!-- 14&#45;&gt;2 -->
<g id="edge6" class="edge">
<title>14&#45;&gt;2</title>
<path fill="none" stroke="#c0c0c0" stroke-width="2" d="M395.6955,-431.8314C378.9138,-422.5368 358.3015,-411.1208 340.3837,-401.1971"/>
<polygon fill="#c0c0c0" stroke="#c0c0c0" stroke-width="2" points="341.7377,-397.9461 331.294,-396.1628 338.3462,-404.0696 341.7377,-397.9461"/>
</g>
<!-- 14&#45;&gt;5 -->
<g id="edge18" class="edge">
<title>14&#45;&gt;5</title>
<path fill="none" stroke="#c0c0c0" stroke-width="2" d="M493.6685,-436.5746C533.7033,-426.8562 579.5446,-412.5551 591.5,-396 604.5079,-377.9875 599.0194,-352.6355 591.4197,-333.4269"/>
<polygon fill="#c0c0c0" stroke="#c0c0c0" stroke-width="2" points="594.5279,-331.7969 587.3399,-324.0134 588.1052,-334.5806 594.5279,-331.7969"/>
</g>
<!-- 15&#45;&gt;4 -->
<g id="edge17" class="edge">
<title>15&#45;&gt;4</title>
<path fill="none" stroke="#c0c0c0" stroke-width="2" d="M400.8548,-143.8314C393.6409,-135.454 384.943,-125.3531 377.0395,-116.1749"/>
<polygon fill="#c0c0c0" stroke="#c0c0c0" stroke-width="2" points="379.5333,-113.7071 370.3559,-108.4133 374.2289,-118.2748 379.5333,-113.7071"/>
</g>
</g>
</svg>
