<?xml version="1.0" encoding="UTF-8" standalone="no"?>
<!DOCTYPE svg PUBLIC "-//W3C//DTD SVG 1.1//EN"
 "http://www.w3.org/Graphics/SVG/1.1/DTD/svg11.dtd">
<!-- Generated by graphviz version 2.40.1 (20161225.0304)
 -->
<!-- Title: snakemake_dag Pages: 1 -->
<svg width="1804pt" height="836pt"
 viewBox="0.00 0.00 1804.05 836.00" xmlns="http://www.w3.org/2000/svg" xmlns:xlink="http://www.w3.org/1999/xlink">
<g id="graph0" class="graph" transform="scale(1 1) rotate(0) translate(4 832)">
<title>snakemake_dag</title>
<polygon fill="#ffffff" stroke="transparent" points="-4,4 -4,-832 1800.0519,-832 1800.0519,4 -4,4"/>
<!-- 0 -->
<g id="node1" class="node">
<title>0</title>
<path fill="none" stroke="#5692d8" stroke-width="2" stroke-dasharray="5,2" d="M1270.058,-684C1270.058,-684 1170.058,-684 1170.058,-684 1164.058,-684 1158.058,-678 1158.058,-672 1158.058,-672 1158.058,-660 1158.058,-660 1158.058,-654 1164.058,-648 1170.058,-648 1170.058,-648 1270.058,-648 1270.058,-648 1276.058,-648 1282.058,-654 1282.058,-660 1282.058,-660 1282.058,-672 1282.058,-672 1282.058,-678 1276.058,-684 1270.058,-684"/>
<text text-anchor="middle" x="1220.058" y="-669" font-family="sans" font-size="10.00" fill="#000000">run_salmon</text>
<text text-anchor="middle" x="1220.058" y="-658" font-family="sans" font-size="10.00" fill="#000000">sampleID: SRS333370</text>
</g>
<!-- 41 -->
<g id="node42" class="node">
<title>41</title>
<path fill="none" stroke="#59d856" stroke-width="2" stroke-dasharray="5,2" d="M1066.558,-612C1066.558,-612 983.558,-612 983.558,-612 977.558,-612 971.558,-606 971.558,-600 971.558,-600 971.558,-588 971.558,-588 971.558,-582 977.558,-576 983.558,-576 983.558,-576 1066.558,-576 1066.558,-576 1072.558,-576 1078.558,-582 1078.558,-588 1078.558,-588 1078.558,-600 1078.558,-600 1078.558,-606 1072.558,-612 1066.558,-612"/>
<text text-anchor="middle" x="1025.058" y="-591.5" font-family="sans" font-size="10.00" fill="#000000">find_tx_low_usage</text>
</g>
<!-- 0&#45;&gt;41 -->
<g id="edge62" class="edge">
<title>0&#45;&gt;41</title>
<path fill="none" stroke="#c0c0c0" stroke-width="2" d="M1171.103,-647.9243C1144.5613,-638.1243 1111.5758,-625.945 1083.6722,-615.6422"/>
<polygon fill="#c0c0c0" stroke="#c0c0c0" stroke-width="2" points="1084.6265,-612.2636 1074.0332,-612.0831 1082.2019,-618.8303 1084.6265,-612.2636"/>
</g>
<!-- 1 -->
<g id="node2" class="node">
<title>1</title>
<path fill="none" stroke="#d8cb56" stroke-width="2" stroke-dasharray="5,2" d="M1104.058,-396C1104.058,-396 1004.058,-396 1004.058,-396 998.058,-396 992.058,-390 992.058,-384 992.058,-384 992.058,-372 992.058,-372 992.058,-366 998.058,-360 1004.058,-360 1004.058,-360 1104.058,-360 1104.058,-360 1110.058,-360 1116.058,-366 1116.058,-372 1116.058,-372 1116.058,-384 1116.058,-384 1116.058,-390 1110.058,-396 1104.058,-396"/>
<text text-anchor="middle" x="1054.058" y="-381" font-family="sans" font-size="10.00" fill="#000000">reQuantify_Salmon</text>
<text text-anchor="middle" x="1054.058" y="-370" font-family="sans" font-size="10.00" fill="#000000">sampleID: SRS333370</text>
</g>
<!-- 4 -->
<g id="node5" class="node">
<title>4</title>
<path fill="none" stroke="#d8ac56" stroke-width="2" stroke-dasharray="5,2" d="M1146.558,-324C1146.558,-324 961.558,-324 961.558,-324 955.558,-324 949.558,-318 949.558,-312 949.558,-312 949.558,-300 949.558,-300 949.558,-294 955.558,-288 961.558,-288 961.558,-288 1146.558,-288 1146.558,-288 1152.558,-288 1158.558,-294 1158.558,-300 1158.558,-300 1158.558,-312 1158.558,-312 1158.558,-318 1152.558,-324 1146.558,-324"/>
<text text-anchor="middle" x="1054.058" y="-309" font-family="sans" font-size="10.00" fill="#000000">gene_quantification_and_normalization</text>
<text text-anchor="middle" x="1054.058" y="-298" font-family="sans" font-size="10.00" fill="#000000">level: transcript</text>
</g>
<!-- 1&#45;&gt;4 -->
<g id="edge10" class="edge">
<title>1&#45;&gt;4</title>
<path fill="none" stroke="#c0c0c0" stroke-width="2" d="M1054.058,-359.8314C1054.058,-352.131 1054.058,-342.9743 1054.058,-334.4166"/>
<polygon fill="#c0c0c0" stroke="#c0c0c0" stroke-width="2" points="1057.5581,-334.4132 1054.058,-324.4133 1050.5581,-334.4133 1057.5581,-334.4132"/>
</g>
<!-- 43 -->
<g id="node44" class="node">
<title>43</title>
<path fill="none" stroke="#d8ac56" stroke-width="2" stroke-dasharray="5,2" d="M862.558,-324C862.558,-324 677.558,-324 677.558,-324 671.558,-324 665.558,-318 665.558,-312 665.558,-312 665.558,-300 665.558,-300 665.558,-294 671.558,-288 677.558,-288 677.558,-288 862.558,-288 862.558,-288 868.558,-288 874.558,-294 874.558,-300 874.558,-300 874.558,-312 874.558,-312 874.558,-318 868.558,-324 862.558,-324"/>
<text text-anchor="middle" x="770.058" y="-309" font-family="sans" font-size="10.00" fill="#000000">gene_quantification_and_normalization</text>
<text text-anchor="middle" x="770.058" y="-298" font-family="sans" font-size="10.00" fill="#000000">level: gene</text>
</g>
<!-- 1&#45;&gt;43 -->
<g id="edge70" class="edge">
<title>1&#45;&gt;43</title>
<path fill="none" stroke="#c0c0c0" stroke-width="2" d="M991.733,-362.1993C950.4433,-351.7315 895.8652,-337.8948 851.197,-326.5704"/>
<polygon fill="#c0c0c0" stroke="#c0c0c0" stroke-width="2" points="851.7957,-323.1116 841.2422,-324.0467 850.0754,-329.8969 851.7957,-323.1116"/>
</g>
<!-- 2 -->
<g id="node3" class="node">
<title>2</title>
<path fill="none" stroke="#d87556" stroke-width="2" stroke-dasharray="5,2" d="M1075.058,-468C1075.058,-468 975.058,-468 975.058,-468 969.058,-468 963.058,-462 963.058,-456 963.058,-456 963.058,-444 963.058,-444 963.058,-438 969.058,-432 975.058,-432 975.058,-432 1075.058,-432 1075.058,-432 1081.058,-432 1087.058,-438 1087.058,-444 1087.058,-444 1087.058,-456 1087.058,-456 1087.058,-462 1081.058,-468 1075.058,-468"/>
<text text-anchor="middle" x="1025.058" y="-447.5" font-family="sans" font-size="10.00" fill="#000000">rebuild_salmon_index</text>
</g>
<!-- 2&#45;&gt;1 -->
<g id="edge4" class="edge">
<title>2&#45;&gt;1</title>
<path fill="none" stroke="#c0c0c0" stroke-width="2" d="M1032.376,-431.8314C1035.5457,-423.9617 1039.328,-414.5712 1042.8394,-405.8533"/>
<polygon fill="#c0c0c0" stroke="#c0c0c0" stroke-width="2" points="1046.152,-406.9968 1046.6416,-396.4133 1039.6589,-404.3815 1046.152,-406.9968"/>
</g>
<!-- 8 -->
<g id="node9" class="node">
<title>8</title>
<path fill="none" stroke="#d8cb56" stroke-width="2" stroke-dasharray="5,2" d="M1252.058,-396C1252.058,-396 1146.058,-396 1146.058,-396 1140.058,-396 1134.058,-390 1134.058,-384 1134.058,-384 1134.058,-372 1134.058,-372 1134.058,-366 1140.058,-360 1146.058,-360 1146.058,-360 1252.058,-360 1252.058,-360 1258.058,-360 1264.058,-366 1264.058,-372 1264.058,-372 1264.058,-384 1264.058,-384 1264.058,-390 1258.058,-396 1252.058,-396"/>
<text text-anchor="middle" x="1199.058" y="-381" font-family="sans" font-size="10.00" fill="#000000">reQuantify_Salmon</text>
<text text-anchor="middle" x="1199.058" y="-370" font-family="sans" font-size="10.00" fill="#000000">sampleID: SRS1305249</text>
</g>
<!-- 2&#45;&gt;8 -->
<g id="edge19" class="edge">
<title>2&#45;&gt;8</title>
<path fill="none" stroke="#c0c0c0" stroke-width="2" d="M1068.9656,-431.8314C1092.3405,-422.159 1121.2678,-410.1891 1145.9048,-399.9944"/>
<polygon fill="#c0c0c0" stroke="#c0c0c0" stroke-width="2" points="1147.5643,-403.0956 1155.4662,-396.038 1144.8878,-396.6275 1147.5643,-403.0956"/>
</g>
<!-- 20 -->
<g id="node21" class="node">
<title>20</title>
<path fill="none" stroke="#d8cb56" stroke-width="2" stroke-dasharray="5,2" d="M820.058,-396C820.058,-396 720.058,-396 720.058,-396 714.058,-396 708.058,-390 708.058,-384 708.058,-384 708.058,-372 708.058,-372 708.058,-366 714.058,-360 720.058,-360 720.058,-360 820.058,-360 820.058,-360 826.058,-360 832.058,-366 832.058,-372 832.058,-372 832.058,-384 832.058,-384 832.058,-390 826.058,-396 820.058,-396"/>
<text text-anchor="middle" x="770.058" y="-381" font-family="sans" font-size="10.00" fill="#000000">reQuantify_Salmon</text>
<text text-anchor="middle" x="770.058" y="-370" font-family="sans" font-size="10.00" fill="#000000">sampleID: SRS374785</text>
</g>
<!-- 2&#45;&gt;20 -->
<g id="edge31" class="edge">
<title>2&#45;&gt;20</title>
<path fill="none" stroke="#c0c0c0" stroke-width="2" d="M963.0041,-432.4789C926.6004,-422.2002 880.4307,-409.1641 842.383,-398.4212"/>
<polygon fill="#c0c0c0" stroke="#c0c0c0" stroke-width="2" points="842.9651,-394.9487 832.3903,-395.5997 841.0629,-401.6854 842.9651,-394.9487"/>
</g>
<!-- 22 -->
<g id="node23" class="node">
<title>22</title>
<path fill="none" stroke="#d8cb56" stroke-width="2" stroke-dasharray="5,2" d="M678.058,-396C678.058,-396 578.058,-396 578.058,-396 572.058,-396 566.058,-390 566.058,-384 566.058,-384 566.058,-372 566.058,-372 566.058,-366 572.058,-360 578.058,-360 578.058,-360 678.058,-360 678.058,-360 684.058,-360 690.058,-366 690.058,-372 690.058,-372 690.058,-384 690.058,-384 690.058,-390 684.058,-396 678.058,-396"/>
<text text-anchor="middle" x="628.058" y="-381" font-family="sans" font-size="10.00" fill="#000000">reQuantify_Salmon</text>
<text text-anchor="middle" x="628.058" y="-370" font-family="sans" font-size="10.00" fill="#000000">sampleID: SRS638559</text>
</g>
<!-- 2&#45;&gt;22 -->
<g id="edge34" class="edge">
<title>2&#45;&gt;22</title>
<path fill="none" stroke="#c0c0c0" stroke-width="2" d="M962.8792,-441.2908C899.2517,-432.0202 797.3509,-416.1842 700.3068,-396.1778"/>
<polygon fill="#c0c0c0" stroke="#c0c0c0" stroke-width="2" points="700.8305,-392.7119 690.3272,-394.1019 699.4048,-399.5652 700.8305,-392.7119"/>
</g>
<!-- 38 -->
<g id="node39" class="node">
<title>38</title>
<path fill="none" stroke="#d8cb56" stroke-width="2" stroke-dasharray="5,2" d="M962.058,-396C962.058,-396 862.058,-396 862.058,-396 856.058,-396 850.058,-390 850.058,-384 850.058,-384 850.058,-372 850.058,-372 850.058,-366 856.058,-360 862.058,-360 862.058,-360 962.058,-360 962.058,-360 968.058,-360 974.058,-366 974.058,-372 974.058,-372 974.058,-384 974.058,-384 974.058,-390 968.058,-396 962.058,-396"/>
<text text-anchor="middle" x="912.058" y="-381" font-family="sans" font-size="10.00" fill="#000000">reQuantify_Salmon</text>
<text text-anchor="middle" x="912.058" y="-370" font-family="sans" font-size="10.00" fill="#000000">sampleID: SRS389760</text>
</g>
<!-- 2&#45;&gt;38 -->
<g id="edge57" class="edge">
<title>2&#45;&gt;38</title>
<path fill="none" stroke="#c0c0c0" stroke-width="2" d="M996.5434,-431.8314C982.2238,-422.7074 964.6957,-411.539 949.3243,-401.7449"/>
<polygon fill="#c0c0c0" stroke="#c0c0c0" stroke-width="2" points="950.8779,-398.5847 940.5636,-396.1628 947.1164,-404.4882 950.8779,-398.5847"/>
</g>
<!-- 3 -->
<g id="node4" class="node">
<title>3</title>
<path fill="none" stroke="#56d873" stroke-width="2" stroke-dasharray="5,2" d="M1434.558,-756C1434.558,-756 1323.558,-756 1323.558,-756 1317.558,-756 1311.558,-750 1311.558,-744 1311.558,-744 1311.558,-732 1311.558,-732 1311.558,-726 1317.558,-720 1323.558,-720 1323.558,-720 1434.558,-720 1434.558,-720 1440.558,-720 1446.558,-726 1446.558,-732 1446.558,-732 1446.558,-744 1446.558,-744 1446.558,-750 1440.558,-756 1434.558,-756"/>
<text text-anchor="middle" x="1379.058" y="-741" font-family="sans" font-size="10.00" fill="#000000">aggFastqsPE</text>
<text text-anchor="middle" x="1379.058" y="-730" font-family="sans" font-size="10.00" fill="#000000">sampleID: SRS333370_1</text>
</g>
<!-- 3&#45;&gt;0 -->
<g id="edge2" class="edge">
<title>3&#45;&gt;0</title>
<path fill="none" stroke="#c0c0c0" stroke-width="2" d="M1338.9356,-719.8314C1317.7648,-710.2446 1291.6097,-698.4008 1269.2277,-688.2655"/>
<polygon fill="#c0c0c0" stroke="#c0c0c0" stroke-width="2" points="1270.4453,-684.9748 1259.8919,-684.038 1267.5577,-691.3515 1270.4453,-684.9748"/>
</g>
<!-- 3&#45;&gt;1 -->
<g id="edge5" class="edge">
<title>3&#45;&gt;1</title>
<path fill="none" stroke="#c0c0c0" stroke-width="2" d="M1430.4872,-719.9219C1447.6608,-711.4959 1465.3786,-699.7651 1477.058,-684 1501.394,-651.1508 1496.058,-634.8816 1496.058,-594 1496.058,-594 1496.058,-594 1496.058,-522 1496.058,-502.7975 1251.7002,-432.5407 1126.3622,-397.7671"/>
<polygon fill="#c0c0c0" stroke="#c0c0c0" stroke-width="2" points="1127.0198,-394.3175 1116.4484,-395.0217 1125.1516,-401.0636 1127.0198,-394.3175"/>
</g>
<!-- 5 -->
<g id="node6" class="node">
<title>5</title>
<path fill="none" stroke="#c6d856" stroke-width="2" stroke-dasharray="5,2" d="M1304.058,-252C1304.058,-252 1200.058,-252 1200.058,-252 1194.058,-252 1188.058,-246 1188.058,-240 1188.058,-240 1188.058,-228 1188.058,-228 1188.058,-222 1194.058,-216 1200.058,-216 1200.058,-216 1304.058,-216 1304.058,-216 1310.058,-216 1316.058,-222 1316.058,-228 1316.058,-228 1316.058,-240 1316.058,-240 1316.058,-246 1310.058,-252 1304.058,-252"/>
<text text-anchor="middle" x="1252.058" y="-231.5" font-family="sans" font-size="10.00" fill="#000000">differential_expression</text>
</g>
<!-- 4&#45;&gt;5 -->
<g id="edge15" class="edge">
<title>4&#45;&gt;5</title>
<path fill="none" stroke="#c0c0c0" stroke-width="2" d="M1103.7662,-287.9243C1130.834,-278.0815 1164.5019,-265.8386 1192.913,-255.5073"/>
<polygon fill="#c0c0c0" stroke="#c0c0c0" stroke-width="2" points="1194.1276,-258.7899 1202.3294,-252.0831 1191.7353,-252.2114 1194.1276,-258.7899"/>
</g>
<!-- 15 -->
<g id="node16" class="node">
<title>15</title>
<path fill="none" stroke="#d85656" stroke-width="2" stroke-dasharray="5,2" d="M970.558,-252C970.558,-252 895.558,-252 895.558,-252 889.558,-252 883.558,-246 883.558,-240 883.558,-240 883.558,-228 883.558,-228 883.558,-222 889.558,-216 895.558,-216 895.558,-216 970.558,-216 970.558,-216 976.558,-216 982.558,-222 982.558,-228 982.558,-228 982.558,-240 982.558,-240 982.558,-246 976.558,-252 970.558,-252"/>
<text text-anchor="middle" x="933.058" y="-231.5" font-family="sans" font-size="10.00" fill="#000000">make_meta_info</text>
</g>
<!-- 4&#45;&gt;15 -->
<g id="edge26" class="edge">
<title>4&#45;&gt;15</title>
<path fill="none" stroke="#c0c0c0" stroke-width="2" d="M1023.5246,-287.8314C1008.048,-278.6221 989.0711,-267.3301 972.5017,-257.4706"/>
<polygon fill="#c0c0c0" stroke="#c0c0c0" stroke-width="2" points="973.9651,-254.2687 963.5817,-252.1628 970.3856,-260.2843 973.9651,-254.2687"/>
</g>
<!-- 26 -->
<g id="node27" class="node">
<title>26</title>
<path fill="none" stroke="#8fd856" stroke-width="2" stroke-dasharray="5,2" d="M1119.558,-180C1119.558,-180 988.558,-180 988.558,-180 982.558,-180 976.558,-174 976.558,-168 976.558,-168 976.558,-156 976.558,-156 976.558,-150 982.558,-144 988.558,-144 988.558,-144 1119.558,-144 1119.558,-144 1125.558,-144 1131.558,-150 1131.558,-156 1131.558,-156 1131.558,-168 1131.558,-168 1131.558,-174 1125.558,-180 1119.558,-180"/>
<text text-anchor="middle" x="1054.058" y="-159.5" font-family="sans" font-size="10.00" fill="#000000">calculate_mean_rank_decile</text>
</g>
<!-- 4&#45;&gt;26 -->
<g id="edge43" class="edge">
<title>4&#45;&gt;26</title>
<path fill="none" stroke="#c0c0c0" stroke-width="2" d="M1054.058,-287.7623C1054.058,-263.201 1054.058,-219.2474 1054.058,-190.3541"/>
<polygon fill="#c0c0c0" stroke="#c0c0c0" stroke-width="2" points="1057.5581,-190.0896 1054.058,-180.0896 1050.5581,-190.0897 1057.5581,-190.0896"/>
</g>
<!-- 44 -->
<g id="node45" class="node">
<title>44</title>
<path fill="none" stroke="#56d8c9" stroke-width="2" stroke-dasharray="5,2" d="M930.058,-108C930.058,-108 856.058,-108 856.058,-108 850.058,-108 844.058,-102 844.058,-96 844.058,-96 844.058,-84 844.058,-84 844.058,-78 850.058,-72 856.058,-72 856.058,-72 930.058,-72 930.058,-72 936.058,-72 942.058,-78 942.058,-84 942.058,-84 942.058,-96 942.058,-96 942.058,-102 936.058,-108 930.058,-108"/>
<text text-anchor="middle" x="893.058" y="-87.5" font-family="sans" font-size="10.00" fill="#000000">make_SQLite_db</text>
</g>
<!-- 4&#45;&gt;44 -->
<g id="edge77" class="edge">
<title>4&#45;&gt;44</title>
<path fill="none" stroke="#c0c0c0" stroke-width="2" d="M1076.6921,-287.903C1113.2789,-256.4894 1177.6963,-190.7558 1140.058,-144 1116.9355,-115.2762 1017.7746,-100.9959 952.342,-94.5728"/>
<polygon fill="#c0c0c0" stroke="#c0c0c0" stroke-width="2" points="952.4321,-91.0657 942.1469,-93.6083 951.7728,-98.0346 952.4321,-91.0657"/>
</g>
<!-- 5&#45;&gt;44 -->
<g id="edge78" class="edge">
<title>5&#45;&gt;44</title>
<path fill="none" stroke="#c0c0c0" stroke-width="2" d="M1241.6425,-215.9319C1228.6232,-195.0913 1204.3254,-161.462 1174.058,-144 1137.0953,-122.6752 1023.1895,-105.6524 952.2601,-96.7615"/>
<polygon fill="#c0c0c0" stroke="#c0c0c0" stroke-width="2" points="952.4748,-93.2615 942.1212,-95.5092 951.6167,-100.2087 952.4748,-93.2615"/>
</g>
<!-- 6 -->
<g id="node7" class="node">
<title>6</title>
<path fill="none" stroke="#56a9d8" stroke-width="2" stroke-dasharray="5,2" d="M901.058,-828C901.058,-828 827.058,-828 827.058,-828 821.058,-828 815.058,-822 815.058,-816 815.058,-816 815.058,-804 815.058,-804 815.058,-798 821.058,-792 827.058,-792 827.058,-792 901.058,-792 901.058,-792 907.058,-792 913.058,-798 913.058,-804 913.058,-804 913.058,-816 913.058,-816 913.058,-822 907.058,-828 901.058,-828"/>
<text text-anchor="middle" x="864.058" y="-813" font-family="sans" font-size="10.00" fill="#000000">getFQP</text>
<text text-anchor="middle" x="864.058" y="-802" font-family="sans" font-size="10.00" fill="#000000">id: SRR660638_1</text>
</g>
<!-- 37 -->
<g id="node38" class="node">
<title>37</title>
<path fill="none" stroke="#56d873" stroke-width="2" stroke-dasharray="5,2" d="M919.558,-756C919.558,-756 808.558,-756 808.558,-756 802.558,-756 796.558,-750 796.558,-744 796.558,-744 796.558,-732 796.558,-732 796.558,-726 802.558,-720 808.558,-720 808.558,-720 919.558,-720 919.558,-720 925.558,-720 931.558,-726 931.558,-732 931.558,-732 931.558,-744 931.558,-744 931.558,-750 925.558,-756 919.558,-756"/>
<text text-anchor="middle" x="864.058" y="-741" font-family="sans" font-size="10.00" fill="#000000">aggFastqsPE</text>
<text text-anchor="middle" x="864.058" y="-730" font-family="sans" font-size="10.00" fill="#000000">sampleID: SRS389760_1</text>
</g>
<!-- 6&#45;&gt;37 -->
<g id="edge55" class="edge">
<title>6&#45;&gt;37</title>
<path fill="none" stroke="#c0c0c0" stroke-width="2" d="M864.058,-791.8314C864.058,-784.131 864.058,-774.9743 864.058,-766.4166"/>
<polygon fill="#c0c0c0" stroke="#c0c0c0" stroke-width="2" points="867.5581,-766.4132 864.058,-756.4133 860.5581,-766.4133 867.5581,-766.4132"/>
</g>
<!-- 7 -->
<g id="node8" class="node">
<title>7</title>
<path fill="none" stroke="#5692d8" stroke-width="2" stroke-dasharray="5,2" d="M1456.058,-684C1456.058,-684 1350.058,-684 1350.058,-684 1344.058,-684 1338.058,-678 1338.058,-672 1338.058,-672 1338.058,-660 1338.058,-660 1338.058,-654 1344.058,-648 1350.058,-648 1350.058,-648 1456.058,-648 1456.058,-648 1462.058,-648 1468.058,-654 1468.058,-660 1468.058,-660 1468.058,-672 1468.058,-672 1468.058,-678 1462.058,-684 1456.058,-684"/>
<text text-anchor="middle" x="1403.058" y="-669" font-family="sans" font-size="10.00" fill="#000000">run_salmon</text>
<text text-anchor="middle" x="1403.058" y="-658" font-family="sans" font-size="10.00" fill="#000000">sampleID: SRS1305249</text>
</g>
<!-- 7&#45;&gt;41 -->
<g id="edge65" class="edge">
<title>7&#45;&gt;41</title>
<path fill="none" stroke="#c0c0c0" stroke-width="2" d="M1337.647,-653.5408C1267.7609,-640.2291 1157.7284,-619.2705 1088.5773,-606.0989"/>
<polygon fill="#c0c0c0" stroke="#c0c0c0" stroke-width="2" points="1089.1593,-602.6469 1078.681,-604.2139 1087.8494,-609.5233 1089.1593,-602.6469"/>
</g>
<!-- 8&#45;&gt;4 -->
<g id="edge12" class="edge">
<title>8&#45;&gt;4</title>
<path fill="none" stroke="#c0c0c0" stroke-width="2" d="M1162.4684,-359.8314C1143.3341,-350.3302 1119.7351,-338.6121 1099.4458,-328.5374"/>
<polygon fill="#c0c0c0" stroke="#c0c0c0" stroke-width="2" points="1100.8978,-325.3506 1090.3846,-324.038 1097.7845,-331.6203 1100.8978,-325.3506"/>
</g>
<!-- 8&#45;&gt;43 -->
<g id="edge72" class="edge">
<title>8&#45;&gt;43</title>
<path fill="none" stroke="#c0c0c0" stroke-width="2" d="M1133.7568,-361.7872C1130.8216,-361.1622 1127.9118,-360.563 1125.058,-360 1045.3396,-344.2728 954.7725,-330.5623 885.0686,-320.8917"/>
<polygon fill="#c0c0c0" stroke="#c0c0c0" stroke-width="2" points="885.3241,-317.3938 874.9396,-319.4944 884.3674,-324.3282 885.3241,-317.3938"/>
</g>
<!-- 9 -->
<g id="node10" class="node">
<title>9</title>
<path fill="none" stroke="#56a9d8" stroke-width="2" stroke-dasharray="5,2" d="M1263.058,-828C1263.058,-828 1189.058,-828 1189.058,-828 1183.058,-828 1177.058,-822 1177.058,-816 1177.058,-816 1177.058,-804 1177.058,-804 1177.058,-798 1183.058,-792 1189.058,-792 1189.058,-792 1263.058,-792 1263.058,-792 1269.058,-792 1275.058,-798 1275.058,-804 1275.058,-804 1275.058,-816 1275.058,-816 1275.058,-822 1269.058,-828 1263.058,-828"/>
<text text-anchor="middle" x="1226.058" y="-813" font-family="sans" font-size="10.00" fill="#000000">getFQP</text>
<text text-anchor="middle" x="1226.058" y="-802" font-family="sans" font-size="10.00" fill="#000000">id: SRR603566_2</text>
</g>
<!-- 30 -->
<g id="node31" class="node">
<title>30</title>
<path fill="none" stroke="#56d873" stroke-width="2" stroke-dasharray="5,2" d="M1281.558,-756C1281.558,-756 1170.558,-756 1170.558,-756 1164.558,-756 1158.558,-750 1158.558,-744 1158.558,-744 1158.558,-732 1158.558,-732 1158.558,-726 1164.558,-720 1170.558,-720 1170.558,-720 1281.558,-720 1281.558,-720 1287.558,-720 1293.558,-726 1293.558,-732 1293.558,-732 1293.558,-744 1293.558,-744 1293.558,-750 1287.558,-756 1281.558,-756"/>
<text text-anchor="middle" x="1226.058" y="-741" font-family="sans" font-size="10.00" fill="#000000">aggFastqsPE</text>
<text text-anchor="middle" x="1226.058" y="-730" font-family="sans" font-size="10.00" fill="#000000">sampleID: SRS333370_2</text>
</g>
<!-- 9&#45;&gt;30 -->
<g id="edge46" class="edge">
<title>9&#45;&gt;30</title>
<path fill="none" stroke="#c0c0c0" stroke-width="2" d="M1226.058,-791.8314C1226.058,-784.131 1226.058,-774.9743 1226.058,-766.4166"/>
<polygon fill="#c0c0c0" stroke="#c0c0c0" stroke-width="2" points="1229.5581,-766.4132 1226.058,-756.4133 1222.5581,-766.4133 1229.5581,-766.4132"/>
</g>
<!-- 10 -->
<g id="node11" class="node">
<title>10</title>
<path fill="none" stroke="#56d873" stroke-width="2" stroke-dasharray="5,2" d="M154.558,-756C154.558,-756 43.558,-756 43.558,-756 37.558,-756 31.558,-750 31.558,-744 31.558,-744 31.558,-732 31.558,-732 31.558,-726 37.558,-720 43.558,-720 43.558,-720 154.558,-720 154.558,-720 160.558,-720 166.558,-726 166.558,-732 166.558,-732 166.558,-744 166.558,-744 166.558,-750 160.558,-756 154.558,-756"/>
<text text-anchor="middle" x="99.058" y="-741" font-family="sans" font-size="10.00" fill="#000000">aggFastqsPE</text>
<text text-anchor="middle" x="99.058" y="-730" font-family="sans" font-size="10.00" fill="#000000">sampleID: SRS638559_2</text>
</g>
<!-- 10&#45;&gt;22 -->
<g id="edge36" class="edge">
<title>10&#45;&gt;22</title>
<path fill="none" stroke="#c0c0c0" stroke-width="2" d="M111.6432,-719.8478C128.7014,-693.4241 157.058,-642.2435 157.058,-594 157.058,-594 157.058,-594 157.058,-522 157.058,-439.6015 424.0112,-399.6538 555.9675,-384.9407"/>
<polygon fill="#c0c0c0" stroke="#c0c0c0" stroke-width="2" points="556.4393,-388.41 565.9987,-383.8418 555.677,-381.4516 556.4393,-388.41"/>
</g>
<!-- 23 -->
<g id="node24" class="node">
<title>23</title>
<path fill="none" stroke="#5692d8" stroke-width="2" stroke-dasharray="5,2" d="M692.058,-684C692.058,-684 592.058,-684 592.058,-684 586.058,-684 580.058,-678 580.058,-672 580.058,-672 580.058,-660 580.058,-660 580.058,-654 586.058,-648 592.058,-648 592.058,-648 692.058,-648 692.058,-648 698.058,-648 704.058,-654 704.058,-660 704.058,-660 704.058,-672 704.058,-672 704.058,-678 698.058,-684 692.058,-684"/>
<text text-anchor="middle" x="642.058" y="-669" font-family="sans" font-size="10.00" fill="#000000">run_salmon</text>
<text text-anchor="middle" x="642.058" y="-658" font-family="sans" font-size="10.00" fill="#000000">sampleID: SRS638559</text>
</g>
<!-- 10&#45;&gt;23 -->
<g id="edge39" class="edge">
<title>10&#45;&gt;23</title>
<path fill="none" stroke="#c0c0c0" stroke-width="2" d="M166.929,-721.5083C169.6695,-720.9747 172.387,-720.4691 175.058,-720 313.7506,-695.644 477.6163,-679.5901 569.728,-671.7107"/>
<polygon fill="#c0c0c0" stroke="#c0c0c0" stroke-width="2" points="570.1106,-675.1909 579.7794,-670.859 569.5196,-668.2159 570.1106,-675.1909"/>
</g>
<!-- 11 -->
<g id="node12" class="node">
<title>11</title>
<path fill="none" stroke="#56d873" stroke-width="2" stroke-dasharray="5,2" d="M766.558,-756C766.558,-756 655.558,-756 655.558,-756 649.558,-756 643.558,-750 643.558,-744 643.558,-744 643.558,-732 643.558,-732 643.558,-726 649.558,-720 655.558,-720 655.558,-720 766.558,-720 766.558,-720 772.558,-720 778.558,-726 778.558,-732 778.558,-732 778.558,-744 778.558,-744 778.558,-750 772.558,-756 766.558,-756"/>
<text text-anchor="middle" x="711.058" y="-741" font-family="sans" font-size="10.00" fill="#000000">aggFastqsPE</text>
<text text-anchor="middle" x="711.058" y="-730" font-family="sans" font-size="10.00" fill="#000000">sampleID: SRS389760_2</text>
</g>
<!-- 11&#45;&gt;38 -->
<g id="edge56" class="edge">
<title>11&#45;&gt;38</title>
<path fill="none" stroke="#c0c0c0" stroke-width="2" d="M777.0434,-719.9921C809.5928,-709.8259 844.18,-696.6547 855.058,-684 881.7073,-652.998 874.058,-634.8816 874.058,-594 874.058,-594 874.058,-594 874.058,-522 874.058,-480.3681 889.0908,-434.14 900.2462,-405.567"/>
<polygon fill="#c0c0c0" stroke="#c0c0c0" stroke-width="2" points="903.5158,-406.817 903.9992,-396.2332 897.0212,-404.2055 903.5158,-406.817"/>
</g>
<!-- 39 -->
<g id="node40" class="node">
<title>39</title>
<path fill="none" stroke="#5692d8" stroke-width="2" stroke-dasharray="5,2" d="M1052.058,-684C1052.058,-684 952.058,-684 952.058,-684 946.058,-684 940.058,-678 940.058,-672 940.058,-672 940.058,-660 940.058,-660 940.058,-654 946.058,-648 952.058,-648 952.058,-648 1052.058,-648 1052.058,-648 1058.058,-648 1064.058,-654 1064.058,-660 1064.058,-660 1064.058,-672 1064.058,-672 1064.058,-678 1058.058,-684 1052.058,-684"/>
<text text-anchor="middle" x="1002.058" y="-669" font-family="sans" font-size="10.00" fill="#000000">run_salmon</text>
<text text-anchor="middle" x="1002.058" y="-658" font-family="sans" font-size="10.00" fill="#000000">sampleID: SRS389760</text>
</g>
<!-- 11&#45;&gt;39 -->
<g id="edge59" class="edge">
<title>11&#45;&gt;39</title>
<path fill="none" stroke="#c0c0c0" stroke-width="2" d="M778.9174,-721.2101C824.2922,-709.9833 883.914,-695.2315 930.112,-683.8011"/>
<polygon fill="#c0c0c0" stroke="#c0c0c0" stroke-width="2" points="931.187,-687.1407 940.0536,-681.3413 929.5057,-680.3456 931.187,-687.1407"/>
</g>
<!-- 12 -->
<g id="node13" class="node">
<title>12</title>
<path fill="none" stroke="#56a9d8" stroke-width="2" stroke-dasharray="5,2" d="M595.058,-828C595.058,-828 521.058,-828 521.058,-828 515.058,-828 509.058,-822 509.058,-816 509.058,-816 509.058,-804 509.058,-804 509.058,-798 515.058,-792 521.058,-792 521.058,-792 595.058,-792 595.058,-792 601.058,-792 607.058,-798 607.058,-804 607.058,-804 607.058,-816 607.058,-816 607.058,-822 601.058,-828 595.058,-828"/>
<text text-anchor="middle" x="558.058" y="-813" font-family="sans" font-size="10.00" fill="#000000">getFQP</text>
<text text-anchor="middle" x="558.058" y="-802" font-family="sans" font-size="10.00" fill="#000000">id: SRR612935_1</text>
</g>
<!-- 25 -->
<g id="node26" class="node">
<title>25</title>
<path fill="none" stroke="#56d873" stroke-width="2" stroke-dasharray="5,2" d="M613.558,-756C613.558,-756 502.558,-756 502.558,-756 496.558,-756 490.558,-750 490.558,-744 490.558,-744 490.558,-732 490.558,-732 490.558,-726 496.558,-720 502.558,-720 502.558,-720 613.558,-720 613.558,-720 619.558,-720 625.558,-726 625.558,-732 625.558,-732 625.558,-744 625.558,-744 625.558,-750 619.558,-756 613.558,-756"/>
<text text-anchor="middle" x="558.058" y="-741" font-family="sans" font-size="10.00" fill="#000000">aggFastqsPE</text>
<text text-anchor="middle" x="558.058" y="-730" font-family="sans" font-size="10.00" fill="#000000">sampleID: SRS374785_1</text>
</g>
<!-- 12&#45;&gt;25 -->
<g id="edge41" class="edge">
<title>12&#45;&gt;25</title>
<path fill="none" stroke="#c0c0c0" stroke-width="2" d="M558.058,-791.8314C558.058,-784.131 558.058,-774.9743 558.058,-766.4166"/>
<polygon fill="#c0c0c0" stroke="#c0c0c0" stroke-width="2" points="561.5581,-766.4132 558.058,-756.4133 554.5581,-766.4133 561.5581,-766.4132"/>
</g>
<!-- 13 -->
<g id="node14" class="node">
<title>13</title>
<path fill="none" stroke="#d88d56" stroke-width="2" stroke-dasharray="5,2" d="M1052.058,-756C1052.058,-756 962.058,-756 962.058,-756 956.058,-756 950.058,-750 950.058,-744 950.058,-744 950.058,-732 950.058,-732 950.058,-726 956.058,-720 962.058,-720 962.058,-720 1052.058,-720 1052.058,-720 1058.058,-720 1064.058,-726 1064.058,-732 1064.058,-732 1064.058,-744 1064.058,-744 1064.058,-750 1058.058,-756 1052.058,-756"/>
<text text-anchor="middle" x="1007.058" y="-735.5" font-family="sans" font-size="10.00" fill="#000000">build_salmon_index</text>
</g>
<!-- 13&#45;&gt;0 -->
<g id="edge1" class="edge">
<title>13&#45;&gt;0</title>
<path fill="none" stroke="#c0c0c0" stroke-width="2" d="M1060.532,-719.9243C1089.7769,-710.0387 1126.1839,-697.7321 1156.8306,-687.3726"/>
<polygon fill="#c0c0c0" stroke="#c0c0c0" stroke-width="2" points="1158.2095,-690.6012 1166.5621,-684.0831 1155.9679,-683.9698 1158.2095,-690.6012"/>
</g>
<!-- 13&#45;&gt;7 -->
<g id="edge17" class="edge">
<title>13&#45;&gt;7</title>
<path fill="none" stroke="#c0c0c0" stroke-width="2" d="M1064.2169,-727.6075C1133.7069,-714.9729 1251.1838,-693.6135 1327.931,-679.6595"/>
<polygon fill="#c0c0c0" stroke="#c0c0c0" stroke-width="2" points="1328.8015,-683.0587 1338.0141,-677.8262 1327.5493,-676.1716 1328.8015,-683.0587"/>
</g>
<!-- 19 -->
<g id="node20" class="node">
<title>19</title>
<path fill="none" stroke="#5692d8" stroke-width="2" stroke-dasharray="5,2" d="M834.058,-684C834.058,-684 734.058,-684 734.058,-684 728.058,-684 722.058,-678 722.058,-672 722.058,-672 722.058,-660 722.058,-660 722.058,-654 728.058,-648 734.058,-648 734.058,-648 834.058,-648 834.058,-648 840.058,-648 846.058,-654 846.058,-660 846.058,-660 846.058,-672 846.058,-672 846.058,-678 840.058,-684 834.058,-684"/>
<text text-anchor="middle" x="784.058" y="-669" font-family="sans" font-size="10.00" fill="#000000">run_salmon</text>
<text text-anchor="middle" x="784.058" y="-658" font-family="sans" font-size="10.00" fill="#000000">sampleID: SRS374785</text>
</g>
<!-- 13&#45;&gt;19 -->
<g id="edge28" class="edge">
<title>13&#45;&gt;19</title>
<path fill="none" stroke="#c0c0c0" stroke-width="2" d="M951.0736,-719.9243C920.3231,-709.9959 882.0092,-697.6255 849.8375,-687.2382"/>
<polygon fill="#c0c0c0" stroke="#c0c0c0" stroke-width="2" points="850.6572,-683.825 840.0656,-684.0831 848.5064,-690.4864 850.6572,-683.825"/>
</g>
<!-- 13&#45;&gt;23 -->
<g id="edge37" class="edge">
<title>13&#45;&gt;23</title>
<path fill="none" stroke="#c0c0c0" stroke-width="2" d="M949.772,-722.1848C946.4937,-721.4123 943.2387,-720.6775 940.058,-720 843.2718,-699.3839 814.8755,-704.2334 714.2867,-684.1495"/>
<polygon fill="#c0c0c0" stroke="#c0c0c0" stroke-width="2" points="714.8187,-680.6862 704.3222,-682.1264 713.4258,-687.5462 714.8187,-680.6862"/>
</g>
<!-- 13&#45;&gt;39 -->
<g id="edge60" class="edge">
<title>13&#45;&gt;39</title>
<path fill="none" stroke="#c0c0c0" stroke-width="2" d="M1005.7963,-719.8314C1005.2616,-712.131 1004.6257,-702.9743 1004.0314,-694.4166"/>
<polygon fill="#c0c0c0" stroke="#c0c0c0" stroke-width="2" points="1007.5212,-694.1467 1003.3367,-684.4133 1000.538,-694.6317 1007.5212,-694.1467"/>
</g>
<!-- 14 -->
<g id="node15" class="node">
<title>14</title>
<path fill="none" stroke="#56a9d8" stroke-width="2" stroke-dasharray="5,2" d="M1575.058,-828C1575.058,-828 1495.058,-828 1495.058,-828 1489.058,-828 1483.058,-822 1483.058,-816 1483.058,-816 1483.058,-804 1483.058,-804 1483.058,-798 1489.058,-792 1495.058,-792 1495.058,-792 1575.058,-792 1575.058,-792 1581.058,-792 1587.058,-798 1587.058,-804 1587.058,-804 1587.058,-816 1587.058,-816 1587.058,-822 1581.058,-828 1575.058,-828"/>
<text text-anchor="middle" x="1535.058" y="-813" font-family="sans" font-size="10.00" fill="#000000">getFQP</text>
<text text-anchor="middle" x="1535.058" y="-802" font-family="sans" font-size="10.00" fill="#000000">id: SRR3170191_2</text>
</g>
<!-- 27 -->
<g id="node28" class="node">
<title>27</title>
<path fill="none" stroke="#56d873" stroke-width="2" stroke-dasharray="5,2" d="M1593.558,-756C1593.558,-756 1476.558,-756 1476.558,-756 1470.558,-756 1464.558,-750 1464.558,-744 1464.558,-744 1464.558,-732 1464.558,-732 1464.558,-726 1470.558,-720 1476.558,-720 1476.558,-720 1593.558,-720 1593.558,-720 1599.558,-720 1605.558,-726 1605.558,-732 1605.558,-732 1605.558,-744 1605.558,-744 1605.558,-750 1599.558,-756 1593.558,-756"/>
<text text-anchor="middle" x="1535.058" y="-741" font-family="sans" font-size="10.00" fill="#000000">aggFastqsPE</text>
<text text-anchor="middle" x="1535.058" y="-730" font-family="sans" font-size="10.00" fill="#000000">sampleID: SRS1305249_2</text>
</g>
<!-- 14&#45;&gt;27 -->
<g id="edge44" class="edge">
<title>14&#45;&gt;27</title>
<path fill="none" stroke="#c0c0c0" stroke-width="2" d="M1535.058,-791.8314C1535.058,-784.131 1535.058,-774.9743 1535.058,-766.4166"/>
<polygon fill="#c0c0c0" stroke="#c0c0c0" stroke-width="2" points="1538.5581,-766.4132 1535.058,-756.4133 1531.5581,-766.4133 1538.5581,-766.4132"/>
</g>
<!-- 15&#45;&gt;26 -->
<g id="edge42" class="edge">
<title>15&#45;&gt;26</title>
<path fill="none" stroke="#c0c0c0" stroke-width="2" d="M963.5915,-215.8314C979.0681,-206.6221 998.045,-195.3301 1014.6144,-185.4706"/>
<polygon fill="#c0c0c0" stroke="#c0c0c0" stroke-width="2" points="1016.7305,-188.2843 1023.5344,-180.1628 1013.1509,-182.2687 1016.7305,-188.2843"/>
</g>
<!-- 35 -->
<g id="node36" class="node">
<title>35</title>
<path fill="none" stroke="#8fd856" stroke-width="2" stroke-dasharray="5,2" d="M835.558,-180C835.558,-180 704.558,-180 704.558,-180 698.558,-180 692.558,-174 692.558,-168 692.558,-168 692.558,-156 692.558,-156 692.558,-150 698.558,-144 704.558,-144 704.558,-144 835.558,-144 835.558,-144 841.558,-144 847.558,-150 847.558,-156 847.558,-156 847.558,-168 847.558,-168 847.558,-174 841.558,-180 835.558,-180"/>
<text text-anchor="middle" x="770.058" y="-159.5" font-family="sans" font-size="10.00" fill="#000000">calculate_mean_rank_decile</text>
</g>
<!-- 15&#45;&gt;35 -->
<g id="edge51" class="edge">
<title>15&#45;&gt;35</title>
<path fill="none" stroke="#c0c0c0" stroke-width="2" d="M891.9263,-215.8314C870.126,-206.2018 843.1703,-194.295 820.1576,-184.1299"/>
<polygon fill="#c0c0c0" stroke="#c0c0c0" stroke-width="2" points="821.4556,-180.877 810.894,-180.038 818.6272,-187.2802 821.4556,-180.877"/>
</g>
<!-- 36 -->
<g id="node37" class="node">
<title>36</title>
<path fill="none" stroke="#56d8a9" stroke-width="2" stroke-dasharray="5,2" d="M908.058,-180C908.058,-180 878.058,-180 878.058,-180 872.058,-180 866.058,-174 866.058,-168 866.058,-168 866.058,-156 866.058,-156 866.058,-150 872.058,-144 878.058,-144 878.058,-144 908.058,-144 908.058,-144 914.058,-144 920.058,-150 920.058,-156 920.058,-156 920.058,-168 920.058,-168 920.058,-174 914.058,-180 908.058,-180"/>
<text text-anchor="middle" x="893.058" y="-159.5" font-family="sans" font-size="10.00" fill="#000000">tSNE</text>
</g>
<!-- 15&#45;&gt;36 -->
<g id="edge53" class="edge">
<title>15&#45;&gt;36</title>
<path fill="none" stroke="#c0c0c0" stroke-width="2" d="M922.9644,-215.8314C918.4983,-207.7925 913.1506,-198.1666 908.2201,-189.2918"/>
<polygon fill="#c0c0c0" stroke="#c0c0c0" stroke-width="2" points="911.2037,-187.4551 903.2876,-180.4133 905.0846,-190.8546 911.2037,-187.4551"/>
</g>
<!-- 15&#45;&gt;44 -->
<g id="edge75" class="edge">
<title>15&#45;&gt;44</title>
<path fill="none" stroke="#c0c0c0" stroke-width="2" d="M935.0494,-215.9041C936.4518,-197.3596 936.8885,-167.9326 929.058,-144 925.8855,-134.3036 920.4535,-124.7108 914.7573,-116.3615"/>
<polygon fill="#c0c0c0" stroke="#c0c0c0" stroke-width="2" points="917.513,-114.1995 908.8092,-108.1584 911.846,-118.3087 917.513,-114.1995"/>
</g>
<!-- 16 -->
<g id="node17" class="node">
<title>16</title>
<path fill="none" stroke="#56d873" stroke-width="2" stroke-dasharray="5,2" d="M1752.558,-756C1752.558,-756 1635.558,-756 1635.558,-756 1629.558,-756 1623.558,-750 1623.558,-744 1623.558,-744 1623.558,-732 1623.558,-732 1623.558,-726 1629.558,-720 1635.558,-720 1635.558,-720 1752.558,-720 1752.558,-720 1758.558,-720 1764.558,-726 1764.558,-732 1764.558,-732 1764.558,-744 1764.558,-744 1764.558,-750 1758.558,-756 1752.558,-756"/>
<text text-anchor="middle" x="1694.058" y="-741" font-family="sans" font-size="10.00" fill="#000000">aggFastqsPE</text>
<text text-anchor="middle" x="1694.058" y="-730" font-family="sans" font-size="10.00" fill="#000000">sampleID: SRS1305249_1</text>
</g>
<!-- 16&#45;&gt;7 -->
<g id="edge16" class="edge">
<title>16&#45;&gt;7</title>
<path fill="none" stroke="#c0c0c0" stroke-width="2" d="M1623.2435,-720.4789C1579.2932,-709.6046 1522.8694,-695.644 1478.1431,-684.5777"/>
<polygon fill="#c0c0c0" stroke="#c0c0c0" stroke-width="2" points="1478.7542,-681.1235 1468.2063,-682.1192 1477.0729,-687.9186 1478.7542,-681.1235"/>
</g>
<!-- 16&#45;&gt;8 -->
<g id="edge21" class="edge">
<title>16&#45;&gt;8</title>
<path fill="none" stroke="#c0c0c0" stroke-width="2" d="M1680.822,-719.9445C1662.8814,-693.6382 1633.058,-642.5995 1633.058,-594 1633.058,-594 1633.058,-594 1633.058,-522 1633.058,-447.3903 1399.0841,-404.7118 1274.7229,-387.2969"/>
<polygon fill="#c0c0c0" stroke="#c0c0c0" stroke-width="2" points="1274.8864,-383.7864 1264.5021,-385.8879 1273.9304,-390.7208 1274.8864,-383.7864"/>
</g>
<!-- 17 -->
<g id="node18" class="node">
<title>17</title>
<path fill="none" stroke="#56a9d8" stroke-width="2" stroke-dasharray="5,2" d="M292.058,-828C292.058,-828 212.058,-828 212.058,-828 206.058,-828 200.058,-822 200.058,-816 200.058,-816 200.058,-804 200.058,-804 200.058,-798 206.058,-792 212.058,-792 212.058,-792 292.058,-792 292.058,-792 298.058,-792 304.058,-798 304.058,-804 304.058,-804 304.058,-816 304.058,-816 304.058,-822 298.058,-828 292.058,-828"/>
<text text-anchor="middle" x="252.058" y="-813" font-family="sans" font-size="10.00" fill="#000000">getFQP</text>
<text text-anchor="middle" x="252.058" y="-802" font-family="sans" font-size="10.00" fill="#000000">id: SRR1410783_1</text>
</g>
<!-- 24 -->
<g id="node25" class="node">
<title>24</title>
<path fill="none" stroke="#56d873" stroke-width="2" stroke-dasharray="5,2" d="M307.558,-756C307.558,-756 196.558,-756 196.558,-756 190.558,-756 184.558,-750 184.558,-744 184.558,-744 184.558,-732 184.558,-732 184.558,-726 190.558,-720 196.558,-720 196.558,-720 307.558,-720 307.558,-720 313.558,-720 319.558,-726 319.558,-732 319.558,-732 319.558,-744 319.558,-744 319.558,-750 313.558,-756 307.558,-756"/>
<text text-anchor="middle" x="252.058" y="-741" font-family="sans" font-size="10.00" fill="#000000">aggFastqsPE</text>
<text text-anchor="middle" x="252.058" y="-730" font-family="sans" font-size="10.00" fill="#000000">sampleID: SRS638559_1</text>
</g>
<!-- 17&#45;&gt;24 -->
<g id="edge40" class="edge">
<title>17&#45;&gt;24</title>
<path fill="none" stroke="#c0c0c0" stroke-width="2" d="M252.058,-791.8314C252.058,-784.131 252.058,-774.9743 252.058,-766.4166"/>
<polygon fill="#c0c0c0" stroke="#c0c0c0" stroke-width="2" points="255.5581,-766.4132 252.058,-756.4133 248.5581,-766.4133 255.5581,-766.4132"/>
</g>
<!-- 18 -->
<g id="node19" class="node">
<title>18</title>
<path fill="none" stroke="#56a9d8" stroke-width="2" stroke-dasharray="5,2" d="M748.058,-828C748.058,-828 674.058,-828 674.058,-828 668.058,-828 662.058,-822 662.058,-816 662.058,-816 662.058,-804 662.058,-804 662.058,-798 668.058,-792 674.058,-792 674.058,-792 748.058,-792 748.058,-792 754.058,-792 760.058,-798 760.058,-804 760.058,-804 760.058,-816 760.058,-816 760.058,-822 754.058,-828 748.058,-828"/>
<text text-anchor="middle" x="711.058" y="-813" font-family="sans" font-size="10.00" fill="#000000">getFQP</text>
<text text-anchor="middle" x="711.058" y="-802" font-family="sans" font-size="10.00" fill="#000000">id: SRR660638_2</text>
</g>
<!-- 18&#45;&gt;11 -->
<g id="edge23" class="edge">
<title>18&#45;&gt;11</title>
<path fill="none" stroke="#c0c0c0" stroke-width="2" d="M711.058,-791.8314C711.058,-784.131 711.058,-774.9743 711.058,-766.4166"/>
<polygon fill="#c0c0c0" stroke="#c0c0c0" stroke-width="2" points="714.5581,-766.4132 711.058,-756.4133 707.5581,-766.4133 714.5581,-766.4132"/>
</g>
<!-- 19&#45;&gt;41 -->
<g id="edge64" class="edge">
<title>19&#45;&gt;41</title>
<path fill="none" stroke="#c0c0c0" stroke-width="2" d="M844.5614,-647.9243C880.2472,-637.263 925.358,-623.7859 961.554,-612.9721"/>
<polygon fill="#c0c0c0" stroke="#c0c0c0" stroke-width="2" points="962.9319,-616.2134 971.5116,-609.9973 960.9281,-609.5064 962.9319,-616.2134"/>
</g>
<!-- 20&#45;&gt;4 -->
<g id="edge11" class="edge">
<title>20&#45;&gt;4</title>
<path fill="none" stroke="#c0c0c0" stroke-width="2" d="M832.383,-362.1993C873.6728,-351.7315 928.2509,-337.8948 972.9191,-326.5704"/>
<polygon fill="#c0c0c0" stroke="#c0c0c0" stroke-width="2" points="974.0407,-329.8969 982.8739,-324.0467 972.3204,-323.1116 974.0407,-329.8969"/>
</g>
<!-- 20&#45;&gt;43 -->
<g id="edge71" class="edge">
<title>20&#45;&gt;43</title>
<path fill="none" stroke="#c0c0c0" stroke-width="2" d="M770.058,-359.8314C770.058,-352.131 770.058,-342.9743 770.058,-334.4166"/>
<polygon fill="#c0c0c0" stroke="#c0c0c0" stroke-width="2" points="773.5581,-334.4132 770.058,-324.4133 766.5581,-334.4133 773.5581,-334.4132"/>
</g>
<!-- 21 -->
<g id="node22" class="node">
<title>21</title>
<path fill="none" stroke="#56a9d8" stroke-width="2" stroke-dasharray="5,2" d="M139.058,-828C139.058,-828 59.058,-828 59.058,-828 53.058,-828 47.058,-822 47.058,-816 47.058,-816 47.058,-804 47.058,-804 47.058,-798 53.058,-792 59.058,-792 59.058,-792 139.058,-792 139.058,-792 145.058,-792 151.058,-798 151.058,-804 151.058,-804 151.058,-816 151.058,-816 151.058,-822 145.058,-828 139.058,-828"/>
<text text-anchor="middle" x="99.058" y="-813" font-family="sans" font-size="10.00" fill="#000000">getFQP</text>
<text text-anchor="middle" x="99.058" y="-802" font-family="sans" font-size="10.00" fill="#000000">id: SRR1410783_2</text>
</g>
<!-- 21&#45;&gt;10 -->
<g id="edge22" class="edge">
<title>21&#45;&gt;10</title>
<path fill="none" stroke="#c0c0c0" stroke-width="2" d="M99.058,-791.8314C99.058,-784.131 99.058,-774.9743 99.058,-766.4166"/>
<polygon fill="#c0c0c0" stroke="#c0c0c0" stroke-width="2" points="102.5581,-766.4132 99.058,-756.4133 95.5581,-766.4133 102.5581,-766.4132"/>
</g>
<!-- 22&#45;&gt;4 -->
<g id="edge9" class="edge">
<title>22&#45;&gt;4</title>
<path fill="none" stroke="#c0c0c0" stroke-width="2" d="M690.3176,-361.8511C693.2667,-361.201 696.1914,-360.58 699.058,-360 778.8451,-343.8577 869.5992,-330.1335 939.374,-320.5604"/>
<polygon fill="#c0c0c0" stroke="#c0c0c0" stroke-width="2" points="940.077,-323.9971 949.5126,-319.1783 939.1315,-317.0612 940.077,-323.9971"/>
</g>
<!-- 22&#45;&gt;43 -->
<g id="edge69" class="edge">
<title>22&#45;&gt;43</title>
<path fill="none" stroke="#c0c0c0" stroke-width="2" d="M663.8906,-359.8314C682.4737,-350.4089 705.3569,-338.8062 725.1145,-328.7883"/>
<polygon fill="#c0c0c0" stroke="#c0c0c0" stroke-width="2" points="726.9007,-331.8069 734.2369,-324.1628 723.7351,-325.5635 726.9007,-331.8069"/>
</g>
<!-- 23&#45;&gt;41 -->
<g id="edge63" class="edge">
<title>23&#45;&gt;41</title>
<path fill="none" stroke="#c0c0c0" stroke-width="2" d="M704.3327,-649.9238C707.2777,-649.2543 710.1974,-648.6092 713.058,-648 798.4946,-629.8046 898.0779,-613.3919 961.3277,-603.5594"/>
<polygon fill="#c0c0c0" stroke="#c0c0c0" stroke-width="2" points="962.197,-606.9666 971.5446,-601.9792 961.1271,-600.0489 962.197,-606.9666"/>
</g>
<!-- 24&#45;&gt;22 -->
<g id="edge35" class="edge">
<title>24&#45;&gt;22</title>
<path fill="none" stroke="#c0c0c0" stroke-width="2" d="M279.4563,-719.8942C312.6138,-695.5597 364.058,-648.9501 364.058,-594 364.058,-594 364.058,-594 364.058,-522 364.058,-434.4366 477.3743,-399.7995 555.5274,-386.3236"/>
<polygon fill="#c0c0c0" stroke="#c0c0c0" stroke-width="2" points="556.5267,-389.7065 565.828,-384.6336 555.3933,-382.7989 556.5267,-389.7065"/>
</g>
<!-- 24&#45;&gt;23 -->
<g id="edge38" class="edge">
<title>24&#45;&gt;23</title>
<path fill="none" stroke="#c0c0c0" stroke-width="2" d="M319.9646,-721.6958C322.6952,-721.1102 325.401,-720.5426 328.058,-720 410.625,-703.1396 506.1253,-687.2222 569.9231,-677.0967"/>
<polygon fill="#c0c0c0" stroke="#c0c0c0" stroke-width="2" points="570.5524,-680.5408 579.8832,-675.5221 569.4593,-673.6267 570.5524,-680.5408"/>
</g>
<!-- 25&#45;&gt;19 -->
<g id="edge30" class="edge">
<title>25&#45;&gt;19</title>
<path fill="none" stroke="#c0c0c0" stroke-width="2" d="M614.7957,-719.9243C645.9598,-709.9959 684.7891,-697.6255 717.3936,-687.2382"/>
<polygon fill="#c0c0c0" stroke="#c0c0c0" stroke-width="2" points="718.8314,-690.4536 727.2971,-684.0831 716.7065,-683.7839 718.8314,-690.4536"/>
</g>
<!-- 25&#45;&gt;20 -->
<g id="edge33" class="edge">
<title>25&#45;&gt;20</title>
<path fill="none" stroke="#c0c0c0" stroke-width="2" d="M556.8148,-719.8247C555.0574,-692.5213 552.058,-639.2893 552.058,-594 552.058,-594 552.058,-594 552.058,-522 552.058,-482.3342 653.8113,-429.6543 718.2828,-400.2571"/>
<polygon fill="#c0c0c0" stroke="#c0c0c0" stroke-width="2" points="719.8334,-403.3973 727.5079,-396.093 716.9535,-397.0171 719.8334,-403.3973"/>
</g>
<!-- 26&#45;&gt;44 -->
<g id="edge79" class="edge">
<title>26&#45;&gt;44</title>
<path fill="none" stroke="#c0c0c0" stroke-width="2" d="M1013.4309,-143.8314C991.8981,-134.2018 965.2732,-122.295 942.5429,-112.1299"/>
<polygon fill="#c0c0c0" stroke="#c0c0c0" stroke-width="2" points="943.9506,-108.9254 933.393,-108.038 941.0929,-115.3155 943.9506,-108.9254"/>
</g>
<!-- 27&#45;&gt;7 -->
<g id="edge18" class="edge">
<title>27&#45;&gt;7</title>
<path fill="none" stroke="#c0c0c0" stroke-width="2" d="M1501.7489,-719.8314C1484.6308,-710.4942 1463.5874,-699.016 1445.3359,-689.0606"/>
<polygon fill="#c0c0c0" stroke="#c0c0c0" stroke-width="2" points="1446.8115,-685.8788 1436.3566,-684.1628 1443.4595,-692.024 1446.8115,-685.8788"/>
</g>
<!-- 27&#45;&gt;8 -->
<g id="edge20" class="edge">
<title>27&#45;&gt;8</title>
<path fill="none" stroke="#c0c0c0" stroke-width="2" d="M1534.8508,-719.8149C1534.5579,-692.4989 1534.058,-639.2511 1534.058,-594 1534.058,-594 1534.058,-594 1534.058,-522 1534.058,-465.846 1373.176,-418.3658 1274.3935,-394.5053"/>
<polygon fill="#c0c0c0" stroke="#c0c0c0" stroke-width="2" points="1274.984,-391.048 1264.4447,-392.1311 1273.3591,-397.8568 1274.984,-391.048"/>
</g>
<!-- 28 -->
<g id="node29" class="node">
<title>28</title>
<path fill="none" stroke="#56a9d8" stroke-width="2" stroke-dasharray="5,2" d="M1416.058,-828C1416.058,-828 1342.058,-828 1342.058,-828 1336.058,-828 1330.058,-822 1330.058,-816 1330.058,-816 1330.058,-804 1330.058,-804 1330.058,-798 1336.058,-792 1342.058,-792 1342.058,-792 1416.058,-792 1416.058,-792 1422.058,-792 1428.058,-798 1428.058,-804 1428.058,-804 1428.058,-816 1428.058,-816 1428.058,-822 1422.058,-828 1416.058,-828"/>
<text text-anchor="middle" x="1379.058" y="-813" font-family="sans" font-size="10.00" fill="#000000">getFQP</text>
<text text-anchor="middle" x="1379.058" y="-802" font-family="sans" font-size="10.00" fill="#000000">id: SRR603566_1</text>
</g>
<!-- 28&#45;&gt;3 -->
<g id="edge8" class="edge">
<title>28&#45;&gt;3</title>
<path fill="none" stroke="#c0c0c0" stroke-width="2" d="M1379.058,-791.8314C1379.058,-784.131 1379.058,-774.9743 1379.058,-766.4166"/>
<polygon fill="#c0c0c0" stroke="#c0c0c0" stroke-width="2" points="1382.5581,-766.4132 1379.058,-756.4133 1375.5581,-766.4133 1382.5581,-766.4132"/>
</g>
<!-- 29 -->
<g id="node30" class="node">
<title>29</title>
<path fill="none" stroke="#56d873" stroke-width="2" stroke-dasharray="5,2" d="M460.558,-756C460.558,-756 349.558,-756 349.558,-756 343.558,-756 337.558,-750 337.558,-744 337.558,-744 337.558,-732 337.558,-732 337.558,-726 343.558,-720 349.558,-720 349.558,-720 460.558,-720 460.558,-720 466.558,-720 472.558,-726 472.558,-732 472.558,-732 472.558,-744 472.558,-744 472.558,-750 466.558,-756 460.558,-756"/>
<text text-anchor="middle" x="405.058" y="-741" font-family="sans" font-size="10.00" fill="#000000">aggFastqsPE</text>
<text text-anchor="middle" x="405.058" y="-730" font-family="sans" font-size="10.00" fill="#000000">sampleID: SRS374785_2</text>
</g>
<!-- 29&#45;&gt;19 -->
<g id="edge29" class="edge">
<title>29&#45;&gt;19</title>
<path fill="none" stroke="#c0c0c0" stroke-width="2" d="M472.9535,-721.6403C475.6872,-721.0701 478.3966,-720.5208 481.058,-720 580.3607,-700.5672 609.0911,-704.5716 711.9426,-684.126"/>
<polygon fill="#c0c0c0" stroke="#c0c0c0" stroke-width="2" points="712.686,-687.5467 721.7964,-682.1382 711.3017,-680.6849 712.686,-687.5467"/>
</g>
<!-- 29&#45;&gt;20 -->
<g id="edge32" class="edge">
<title>29&#45;&gt;20</title>
<path fill="none" stroke="#c0c0c0" stroke-width="2" d="M416.9922,-719.7554C433.1682,-693.2192 460.058,-641.903 460.058,-594 460.058,-594 460.058,-594 460.058,-522 460.058,-449.5188 530.566,-463.0535 596.058,-432 614.5667,-423.224 658.8881,-409.5052 698.1642,-398.0917"/>
<polygon fill="#c0c0c0" stroke="#c0c0c0" stroke-width="2" points="699.3863,-401.3819 708.0222,-395.2441 697.4436,-394.6568 699.3863,-401.3819"/>
</g>
<!-- 30&#45;&gt;0 -->
<g id="edge3" class="edge">
<title>30&#45;&gt;0</title>
<path fill="none" stroke="#c0c0c0" stroke-width="2" d="M1224.544,-719.8314C1223.9023,-712.131 1223.1392,-702.9743 1222.4261,-694.4166"/>
<polygon fill="#c0c0c0" stroke="#c0c0c0" stroke-width="2" points="1225.9109,-694.088 1221.5925,-684.4133 1218.9351,-694.6694 1225.9109,-694.088"/>
</g>
<!-- 30&#45;&gt;1 -->
<g id="edge6" class="edge">
<title>30&#45;&gt;1</title>
<path fill="none" stroke="#c0c0c0" stroke-width="2" d="M1255.8945,-719.8066C1268.5842,-710.5955 1282.4189,-698.3208 1291.058,-684 1312.1754,-648.9948 1310.058,-634.8816 1310.058,-594 1310.058,-594 1310.058,-594 1310.058,-522 1310.058,-477.8051 1192.6927,-427.4405 1116.8972,-399.5227"/>
<polygon fill="#c0c0c0" stroke="#c0c0c0" stroke-width="2" points="1118.0064,-396.2019 1107.4124,-396.066 1115.6094,-402.7787 1118.0064,-396.2019"/>
</g>
<!-- 31 -->
<g id="node32" class="node">
<title>31</title>
<path fill="none" stroke="#70d856" stroke-width="2" stroke-dasharray="5,2" d="M1076.058,-540C1076.058,-540 974.058,-540 974.058,-540 968.058,-540 962.058,-534 962.058,-528 962.058,-528 962.058,-516 962.058,-516 962.058,-510 968.058,-504 974.058,-504 974.058,-504 1076.058,-504 1076.058,-504 1082.058,-504 1088.058,-510 1088.058,-516 1088.058,-516 1088.058,-528 1088.058,-528 1088.058,-534 1082.058,-540 1076.058,-540"/>
<text text-anchor="middle" x="1025.058" y="-519.5" font-family="sans" font-size="10.00" fill="#000000">remove_tx_low_usage</text>
</g>
<!-- 31&#45;&gt;2 -->
<g id="edge7" class="edge">
<title>31&#45;&gt;2</title>
<path fill="none" stroke="#c0c0c0" stroke-width="2" d="M1025.058,-503.8314C1025.058,-496.131 1025.058,-486.9743 1025.058,-478.4166"/>
<polygon fill="#c0c0c0" stroke="#c0c0c0" stroke-width="2" points="1028.5581,-478.4132 1025.058,-468.4133 1021.5581,-478.4133 1028.5581,-478.4132"/>
</g>
<!-- 32 -->
<g id="node33" class="node">
<title>32</title>
<path fill="none" stroke="#56a9d8" stroke-width="2" stroke-dasharray="5,2" d="M1734.058,-828C1734.058,-828 1654.058,-828 1654.058,-828 1648.058,-828 1642.058,-822 1642.058,-816 1642.058,-816 1642.058,-804 1642.058,-804 1642.058,-798 1648.058,-792 1654.058,-792 1654.058,-792 1734.058,-792 1734.058,-792 1740.058,-792 1746.058,-798 1746.058,-804 1746.058,-804 1746.058,-816 1746.058,-816 1746.058,-822 1740.058,-828 1734.058,-828"/>
<text text-anchor="middle" x="1694.058" y="-813" font-family="sans" font-size="10.00" fill="#000000">getFQP</text>
<text text-anchor="middle" x="1694.058" y="-802" font-family="sans" font-size="10.00" fill="#000000">id: SRR3170191_1</text>
</g>
<!-- 32&#45;&gt;16 -->
<g id="edge27" class="edge">
<title>32&#45;&gt;16</title>
<path fill="none" stroke="#c0c0c0" stroke-width="2" d="M1694.058,-791.8314C1694.058,-784.131 1694.058,-774.9743 1694.058,-766.4166"/>
<polygon fill="#c0c0c0" stroke="#c0c0c0" stroke-width="2" points="1697.5581,-766.4132 1694.058,-756.4133 1690.5581,-766.4133 1697.5581,-766.4132"/>
</g>
<!-- 33 -->
<g id="node34" class="node">
<title>33</title>
<path fill="none" stroke="#afd856" stroke-width="2" stroke-dasharray="5,2" d="M623.558,-180C623.558,-180 526.558,-180 526.558,-180 520.558,-180 514.558,-174 514.558,-168 514.558,-168 514.558,-156 514.558,-156 514.558,-150 520.558,-144 526.558,-144 526.558,-144 623.558,-144 623.558,-144 629.558,-144 635.558,-150 635.558,-156 635.558,-156 635.558,-168 635.558,-168 635.558,-174 629.558,-180 623.558,-180"/>
<text text-anchor="middle" x="575.058" y="-159.5" font-family="sans" font-size="10.00" fill="#000000">GO_term_enrichment</text>
</g>
<!-- 33&#45;&gt;44 -->
<g id="edge76" class="edge">
<title>33&#45;&gt;44</title>
<path fill="none" stroke="#c0c0c0" stroke-width="2" d="M635.6195,-147.3726C640.5022,-146.2215 645.3612,-145.0854 650.058,-144 712.6929,-129.5255 784.5831,-113.64 833.8253,-102.8703"/>
<polygon fill="#c0c0c0" stroke="#c0c0c0" stroke-width="2" points="834.6473,-106.2733 843.6697,-100.7194 833.1531,-99.4346 834.6473,-106.2733"/>
</g>
<!-- 34 -->
<g id="node35" class="node">
<title>34</title>
<path fill="none" stroke="#56d892" stroke-width="2" stroke-dasharray="5,2" d="M908.058,-36C908.058,-36 878.058,-36 878.058,-36 872.058,-36 866.058,-30 866.058,-24 866.058,-24 866.058,-12 866.058,-12 866.058,-6 872.058,0 878.058,0 878.058,0 908.058,0 908.058,0 914.058,0 920.058,-6 920.058,-12 920.058,-12 920.058,-24 920.058,-24 920.058,-30 914.058,-36 908.058,-36"/>
<text text-anchor="middle" x="893.058" y="-15.5" font-family="sans" font-size="10.00" fill="#000000">all</text>
</g>
<!-- 35&#45;&gt;44 -->
<g id="edge81" class="edge">
<title>35&#45;&gt;44</title>
<path fill="none" stroke="#c0c0c0" stroke-width="2" d="M801.0961,-143.8314C816.8286,-134.6221 836.1191,-123.3301 852.9624,-113.4706"/>
<polygon fill="#c0c0c0" stroke="#c0c0c0" stroke-width="2" points="855.1679,-116.2352 862.0299,-108.1628 851.6316,-110.1941 855.1679,-116.2352"/>
</g>
<!-- 36&#45;&gt;44 -->
<g id="edge80" class="edge">
<title>36&#45;&gt;44</title>
<path fill="none" stroke="#c0c0c0" stroke-width="2" d="M893.058,-143.8314C893.058,-136.131 893.058,-126.9743 893.058,-118.4166"/>
<polygon fill="#c0c0c0" stroke="#c0c0c0" stroke-width="2" points="896.5581,-118.4132 893.058,-108.4133 889.5581,-118.4133 896.5581,-118.4132"/>
</g>
<!-- 37&#45;&gt;38 -->
<g id="edge58" class="edge">
<title>37&#45;&gt;38</title>
<path fill="none" stroke="#c0c0c0" stroke-width="2" d="M874.4733,-719.5566C888.5905,-692.7787 912.058,-641.1706 912.058,-594 912.058,-594 912.058,-594 912.058,-522 912.058,-481.876 912.058,-435.4631 912.058,-406.4177"/>
<polygon fill="#c0c0c0" stroke="#c0c0c0" stroke-width="2" points="915.5581,-406.1853 912.058,-396.1854 908.5581,-406.1854 915.5581,-406.1853"/>
</g>
<!-- 37&#45;&gt;39 -->
<g id="edge61" class="edge">
<title>37&#45;&gt;39</title>
<path fill="none" stroke="#c0c0c0" stroke-width="2" d="M898.8813,-719.8314C916.8592,-710.4516 938.9783,-698.9112 958.1197,-688.9244"/>
<polygon fill="#c0c0c0" stroke="#c0c0c0" stroke-width="2" points="959.9991,-691.8916 967.246,-684.1628 956.7611,-685.6855 959.9991,-691.8916"/>
</g>
<!-- 38&#45;&gt;4 -->
<g id="edge13" class="edge">
<title>38&#45;&gt;4</title>
<path fill="none" stroke="#c0c0c0" stroke-width="2" d="M947.8906,-359.8314C966.4737,-350.4089 989.3569,-338.8062 1009.1145,-328.7883"/>
<polygon fill="#c0c0c0" stroke="#c0c0c0" stroke-width="2" points="1010.9007,-331.8069 1018.2369,-324.1628 1007.7351,-325.5635 1010.9007,-331.8069"/>
</g>
<!-- 38&#45;&gt;43 -->
<g id="edge73" class="edge">
<title>38&#45;&gt;43</title>
<path fill="none" stroke="#c0c0c0" stroke-width="2" d="M876.2254,-359.8314C857.6423,-350.4089 834.7592,-338.8062 815.0016,-328.7883"/>
<polygon fill="#c0c0c0" stroke="#c0c0c0" stroke-width="2" points="816.381,-325.5635 805.8792,-324.1628 813.2154,-331.8069 816.381,-325.5635"/>
</g>
<!-- 39&#45;&gt;41 -->
<g id="edge66" class="edge">
<title>39&#45;&gt;41</title>
<path fill="none" stroke="#c0c0c0" stroke-width="2" d="M1007.8619,-647.8314C1010.3488,-640.0463 1013.3111,-630.7729 1016.0706,-622.1347"/>
<polygon fill="#c0c0c0" stroke="#c0c0c0" stroke-width="2" points="1019.467,-623.0041 1019.176,-612.4133 1012.799,-620.874 1019.467,-623.0041"/>
</g>
<!-- 40 -->
<g id="node41" class="node">
<title>40</title>
<path fill="none" stroke="#5673d8" stroke-width="2" stroke-dasharray="5,2" d="M1133.558,-828C1133.558,-828 1050.558,-828 1050.558,-828 1044.558,-828 1038.558,-822 1038.558,-816 1038.558,-816 1038.558,-804 1038.558,-804 1038.558,-798 1044.558,-792 1050.558,-792 1050.558,-792 1133.558,-792 1133.558,-792 1139.558,-792 1145.558,-798 1145.558,-804 1145.558,-804 1145.558,-816 1145.558,-816 1145.558,-822 1139.558,-828 1133.558,-828"/>
<text text-anchor="middle" x="1092.058" y="-807.5" font-family="sans" font-size="10.00" fill="#000000">downloadGencode</text>
</g>
<!-- 40&#45;&gt;4 -->
<g id="edge14" class="edge">
<title>40&#45;&gt;4</title>
<path fill="none" stroke="#c0c0c0" stroke-width="2" d="M1145.8086,-796.0538C1153.2441,-794.4814 1160.8138,-793.0648 1168.058,-792 1234.793,-782.1905 1722.9507,-800.0206 1774.058,-756 1805.0334,-729.3198 1793.058,-706.8816 1793.058,-666 1793.058,-666 1793.058,-666 1793.058,-450 1793.058,-387.1843 1376.3876,-337.5119 1168.7909,-316.662"/>
<polygon fill="#c0c0c0" stroke="#c0c0c0" stroke-width="2" points="1169.0606,-313.1716 1158.7623,-315.6609 1168.3652,-320.137 1169.0606,-313.1716"/>
</g>
<!-- 40&#45;&gt;13 -->
<g id="edge24" class="edge">
<title>40&#45;&gt;13</title>
<path fill="none" stroke="#c0c0c0" stroke-width="2" d="M1070.609,-791.8314C1060.2403,-783.0485 1047.6351,-772.3712 1036.3935,-762.8489"/>
<polygon fill="#c0c0c0" stroke="#c0c0c0" stroke-width="2" points="1038.393,-759.9556 1028.5003,-756.1628 1033.8685,-765.297 1038.393,-759.9556"/>
</g>
<!-- 40&#45;&gt;31 -->
<g id="edge48" class="edge">
<title>40&#45;&gt;31</title>
<path fill="none" stroke="#c0c0c0" stroke-width="2" d="M1098.4529,-791.7647C1101.7426,-781.4187 1105.4022,-768.1474 1107.058,-756 1115.1541,-696.6045 1090.8855,-583.071 1087.058,-576 1081.0064,-564.8199 1071.6613,-554.883 1062.0468,-546.6775"/>
<polygon fill="#c0c0c0" stroke="#c0c0c0" stroke-width="2" points="1063.9646,-543.729 1053.9737,-540.2029 1059.585,-549.1897 1063.9646,-543.729"/>
</g>
<!-- 40&#45;&gt;41 -->
<g id="edge67" class="edge">
<title>40&#45;&gt;41</title>
<path fill="none" stroke="#c0c0c0" stroke-width="2" d="M1093.373,-791.8161C1094.8808,-760.8289 1094.7906,-696.4444 1073.058,-648 1068.467,-637.7661 1061.2267,-628.093 1053.748,-619.8375"/>
<polygon fill="#c0c0c0" stroke="#c0c0c0" stroke-width="2" points="1056.037,-617.1683 1046.5835,-612.3849 1050.9907,-622.0196 1056.037,-617.1683"/>
</g>
<!-- 40&#45;&gt;43 -->
<g id="edge74" class="edge">
<title>40&#45;&gt;43</title>
<path fill="none" stroke="#c0c0c0" stroke-width="2" d="M1038.5426,-803.4256C1005.1073,-799.5436 961.1306,-794.8469 922.058,-792 872.1504,-788.3636 60.2869,-788.2886 22.058,-756 -9.1741,-729.6208 3.058,-706.8816 3.058,-666 3.058,-666 3.058,-666 3.058,-450 3.058,-384.4407 441.502,-335.7002 655.4053,-315.8223"/>
<polygon fill="#c0c0c0" stroke="#c0c0c0" stroke-width="2" points="655.783,-319.3024 665.4188,-314.8976 655.1393,-312.332 655.783,-319.3024"/>
</g>
<!-- 41&#45;&gt;31 -->
<g id="edge47" class="edge">
<title>41&#45;&gt;31</title>
<path fill="none" stroke="#c0c0c0" stroke-width="2" d="M1025.058,-575.8314C1025.058,-568.131 1025.058,-558.9743 1025.058,-550.4166"/>
<polygon fill="#c0c0c0" stroke="#c0c0c0" stroke-width="2" points="1028.5581,-550.4132 1025.058,-540.4133 1021.5581,-550.4133 1028.5581,-550.4132"/>
</g>
<!-- 42 -->
<g id="node43" class="node">
<title>42</title>
<path fill="none" stroke="#c6d856" stroke-width="2" stroke-dasharray="5,2" d="M624.058,-252C624.058,-252 520.058,-252 520.058,-252 514.058,-252 508.058,-246 508.058,-240 508.058,-240 508.058,-228 508.058,-228 508.058,-222 514.058,-216 520.058,-216 520.058,-216 624.058,-216 624.058,-216 630.058,-216 636.058,-222 636.058,-228 636.058,-228 636.058,-240 636.058,-240 636.058,-246 630.058,-252 624.058,-252"/>
<text text-anchor="middle" x="572.058" y="-231.5" font-family="sans" font-size="10.00" fill="#000000">differential_expression</text>
</g>
<!-- 42&#45;&gt;33 -->
<g id="edge49" class="edge">
<title>42&#45;&gt;33</title>
<path fill="none" stroke="#c0c0c0" stroke-width="2" d="M572.8151,-215.8314C573.1359,-208.131 573.5174,-198.9743 573.874,-190.4166"/>
<polygon fill="#c0c0c0" stroke="#c0c0c0" stroke-width="2" points="577.3714,-190.5503 574.2908,-180.4133 570.3775,-190.2589 577.3714,-190.5503"/>
</g>
<!-- 42&#45;&gt;44 -->
<g id="edge82" class="edge">
<title>42&#45;&gt;44</title>
<path fill="none" stroke="#c0c0c0" stroke-width="2" d="M542.7193,-215.7895C516.2757,-197.1536 484.4671,-167.6552 505.058,-144 526.2926,-119.6055 730.187,-101.6494 833.5718,-94.0321"/>
<polygon fill="#c0c0c0" stroke="#c0c0c0" stroke-width="2" points="834.1367,-97.5004 843.8564,-93.284 833.6288,-90.5188 834.1367,-97.5004"/>
</g>
<!-- 43&#45;&gt;15 -->
<g id="edge25" class="edge">
<title>43&#45;&gt;15</title>
<path fill="none" stroke="#c0c0c0" stroke-width="2" d="M811.1898,-287.8314C832.9901,-278.2018 859.9458,-266.295 882.9585,-256.1299"/>
<polygon fill="#c0c0c0" stroke="#c0c0c0" stroke-width="2" points="884.4889,-259.2802 892.222,-252.038 881.6605,-252.877 884.4889,-259.2802"/>
</g>
<!-- 43&#45;&gt;35 -->
<g id="edge52" class="edge">
<title>43&#45;&gt;35</title>
<path fill="none" stroke="#c0c0c0" stroke-width="2" d="M770.058,-287.7623C770.058,-263.201 770.058,-219.2474 770.058,-190.3541"/>
<polygon fill="#c0c0c0" stroke="#c0c0c0" stroke-width="2" points="773.5581,-190.0896 770.058,-180.0896 766.5581,-190.0897 773.5581,-190.0896"/>
</g>
<!-- 43&#45;&gt;36 -->
<g id="edge54" class="edge">
<title>43&#45;&gt;36</title>
<path fill="none" stroke="#c0c0c0" stroke-width="2" d="M785.6361,-287.7623C807.2624,-262.4436 846.4904,-216.5182 871.0845,-187.7251"/>
<polygon fill="#c0c0c0" stroke="#c0c0c0" stroke-width="2" points="873.7729,-189.9666 877.6065,-180.0896 868.4503,-185.4202 873.7729,-189.9666"/>
</g>
<!-- 43&#45;&gt;42 -->
<g id="edge68" class="edge">
<title>43&#45;&gt;42</title>
<path fill="none" stroke="#c0c0c0" stroke-width="2" d="M720.3499,-287.9243C693.2821,-278.0815 659.6142,-265.8386 631.2031,-255.5073"/>
<polygon fill="#c0c0c0" stroke="#c0c0c0" stroke-width="2" points="632.3807,-252.2114 621.7867,-252.0831 629.9885,-258.7899 632.3807,-252.2114"/>
</g>
<!-- 43&#45;&gt;44 -->
<g id="edge83" class="edge">
<title>43&#45;&gt;44</title>
<path fill="none" stroke="#c0c0c0" stroke-width="2" d="M747.1193,-287.8212C710.4402,-256.5647 646.2815,-191.4297 683.058,-144 701.462,-120.2649 778.5123,-105.1386 833.9485,-97.1106"/>
<polygon fill="#c0c0c0" stroke="#c0c0c0" stroke-width="2" points="834.6136,-100.5516 844.0291,-95.6937 833.6393,-93.6198 834.6136,-100.5516"/>
</g>
<!-- 44&#45;&gt;34 -->
<g id="edge50" class="edge">
<title>44&#45;&gt;34</title>
<path fill="none" stroke="#c0c0c0" stroke-width="2" d="M893.058,-71.8314C893.058,-64.131 893.058,-54.9743 893.058,-46.4166"/>
<polygon fill="#c0c0c0" stroke="#c0c0c0" stroke-width="2" points="896.5581,-46.4132 893.058,-36.4133 889.5581,-46.4133 896.5581,-46.4132"/>
</g>
<!-- 45 -->
<g id="node46" class="node">
<title>45</title>
<path fill="none" stroke="#56a9d8" stroke-width="2" stroke-dasharray="5,2" d="M442.058,-828C442.058,-828 368.058,-828 368.058,-828 362.058,-828 356.058,-822 356.058,-816 356.058,-816 356.058,-804 356.058,-804 356.058,-798 362.058,-792 368.058,-792 368.058,-792 442.058,-792 442.058,-792 448.058,-792 454.058,-798 454.058,-804 454.058,-804 454.058,-816 454.058,-816 454.058,-822 448.058,-828 442.058,-828"/>
<text text-anchor="middle" x="405.058" y="-813" font-family="sans" font-size="10.00" fill="#000000">getFQP</text>
<text text-anchor="middle" x="405.058" y="-802" font-family="sans" font-size="10.00" fill="#000000">id: SRR612935_2</text>
</g>
<!-- 45&#45;&gt;29 -->
<g id="edge45" class="edge">
<title>45&#45;&gt;29</title>
<path fill="none" stroke="#c0c0c0" stroke-width="2" d="M405.058,-791.8314C405.058,-784.131 405.058,-774.9743 405.058,-766.4166"/>
<polygon fill="#c0c0c0" stroke="#c0c0c0" stroke-width="2" points="408.5581,-766.4132 405.058,-756.4133 401.5581,-766.4133 408.5581,-766.4132"/>
</g>
</g>
</svg>
