<?xml version="1.0" encoding="UTF-8" standalone="no"?>
<!DOCTYPE svg PUBLIC "-//W3C//DTD SVG 1.1//EN"
 "http://www.w3.org/Graphics/SVG/1.1/DTD/svg11.dtd">
<!-- Generated by graphviz version 2.40.1 (20161225.0304)
 -->
<!-- Title: snakemake_dag Pages: 1 -->
<svg width="773pt" height="476pt"
 viewBox="0.00 0.00 772.63 476.00" xmlns="http://www.w3.org/2000/svg" xmlns:xlink="http://www.w3.org/1999/xlink">
<g id="graph0" class="graph" transform="scale(1 1) rotate(0) translate(4 472)">
<title>snakemake_dag</title>
<polygon fill="#ffffff" stroke="transparent" points="-4,4 -4,-472 768.6271,-472 768.6271,4 -4,4"/>
<!-- 0 -->
<g id="node1" class="node">
<title>0</title>
<path fill="none" stroke="#d87d56" stroke-width="2" stroke-dasharray="5,2" d="M204,-252C204,-252 100,-252 100,-252 94,-252 88,-246 88,-240 88,-240 88,-228 88,-228 88,-222 94,-216 100,-216 100,-216 204,-216 204,-216 210,-216 216,-222 216,-228 216,-228 216,-240 216,-240 216,-246 210,-252 204,-252"/>
<text text-anchor="middle" x="152" y="-231.5" font-family="sans" font-size="10.00" fill="#000000">differential_expression</text>
</g>
<!-- 4 -->
<g id="node5" class="node">
<title>4</title>
<path fill="none" stroke="#d8a456" stroke-width="2" stroke-dasharray="5,2" d="M203.5,-180C203.5,-180 106.5,-180 106.5,-180 100.5,-180 94.5,-174 94.5,-168 94.5,-168 94.5,-156 94.5,-156 94.5,-150 100.5,-144 106.5,-144 106.5,-144 203.5,-144 203.5,-144 209.5,-144 215.5,-150 215.5,-156 215.5,-156 215.5,-168 215.5,-168 215.5,-174 209.5,-180 203.5,-180"/>
<text text-anchor="middle" x="155" y="-159.5" font-family="sans" font-size="10.00" fill="#000000">GO_term_enrichment</text>
</g>
<!-- 0&#45;&gt;4 -->
<g id="edge6" class="edge">
<title>0&#45;&gt;4</title>
<path fill="none" stroke="#c0c0c0" stroke-width="2" d="M152.757,-215.8314C153.0779,-208.131 153.4594,-198.9743 153.816,-190.4166"/>
<polygon fill="#c0c0c0" stroke="#c0c0c0" stroke-width="2" points="157.3133,-190.5503 154.2328,-180.4133 150.3194,-190.2589 157.3133,-190.5503"/>
</g>
<!-- 17 -->
<g id="node18" class="node">
<title>17</title>
<path fill="none" stroke="#567bd8" stroke-width="2" stroke-dasharray="5,2" d="M459,-108C459,-108 385,-108 385,-108 379,-108 373,-102 373,-96 373,-96 373,-84 373,-84 373,-78 379,-72 385,-72 385,-72 459,-72 459,-72 465,-72 471,-78 471,-84 471,-84 471,-96 471,-96 471,-102 465,-108 459,-108"/>
<text text-anchor="middle" x="422" y="-87.5" font-family="sans" font-size="10.00" fill="#000000">make_SQLite_db</text>
</g>
<!-- 0&#45;&gt;17 -->
<g id="edge36" class="edge">
<title>0&#45;&gt;17</title>
<path fill="none" stroke="#c0c0c0" stroke-width="2" d="M118.4003,-215.8076C105.4596,-206.8793 92.092,-194.8246 85,-180 78.0952,-165.5666 74.6198,-156.1759 85,-144 102.7851,-123.1382 270.9676,-104.2188 362.8086,-95.3356"/>
<polygon fill="#c0c0c0" stroke="#c0c0c0" stroke-width="2" points="363.1823,-98.8159 372.8035,-94.3793 362.5155,-91.8477 363.1823,-98.8159"/>
</g>
<!-- 1 -->
<g id="node2" class="node">
<title>1</title>
<path fill="none" stroke="#d8cb56" stroke-width="2" stroke-dasharray="5,2" d="M112,-468C112,-468 12,-468 12,-468 6,-468 0,-462 0,-456 0,-456 0,-444 0,-444 0,-438 6,-432 12,-432 12,-432 112,-432 112,-432 118,-432 124,-438 124,-444 124,-444 124,-456 124,-456 124,-462 118,-468 112,-468"/>
<text text-anchor="middle" x="62" y="-453" font-family="sans" font-size="10.00" fill="#000000">re_run_Salmon</text>
<text text-anchor="middle" x="62" y="-442" font-family="sans" font-size="10.00" fill="#000000">sampleID: SRS389760</text>
</g>
<!-- 6 -->
<g id="node7" class="node">
<title>6</title>
<path fill="none" stroke="#56d0d8" stroke-width="2" stroke-dasharray="5,2" d="M686.5,-324C686.5,-324 501.5,-324 501.5,-324 495.5,-324 489.5,-318 489.5,-312 489.5,-312 489.5,-300 489.5,-300 489.5,-294 495.5,-288 501.5,-288 501.5,-288 686.5,-288 686.5,-288 692.5,-288 698.5,-294 698.5,-300 698.5,-300 698.5,-312 698.5,-312 698.5,-318 692.5,-324 686.5,-324"/>
<text text-anchor="middle" x="594" y="-309" font-family="sans" font-size="10.00" fill="#000000">gene_quantification_and_normalization</text>
<text text-anchor="middle" x="594" y="-298" font-family="sans" font-size="10.00" fill="#000000">level: transcript</text>
</g>
<!-- 1&#45;&gt;6 -->
<g id="edge9" class="edge">
<title>1&#45;&gt;6</title>
<path fill="none" stroke="#c0c0c0" stroke-width="2" d="M87.3887,-431.9068C118.0029,-411.0421 171.7525,-377.3896 223,-360 235.222,-355.8528 374.7528,-336.1105 479.1232,-321.6928"/>
<polygon fill="#c0c0c0" stroke="#c0c0c0" stroke-width="2" points="479.6808,-325.1491 489.1084,-320.3149 478.7238,-318.2149 479.6808,-325.1491"/>
</g>
<!-- 10 -->
<g id="node11" class="node">
<title>10</title>
<path fill="none" stroke="#56d0d8" stroke-width="2" stroke-dasharray="5,2" d="M436.5,-324C436.5,-324 251.5,-324 251.5,-324 245.5,-324 239.5,-318 239.5,-312 239.5,-312 239.5,-300 239.5,-300 239.5,-294 245.5,-288 251.5,-288 251.5,-288 436.5,-288 436.5,-288 442.5,-288 448.5,-294 448.5,-300 448.5,-300 448.5,-312 448.5,-312 448.5,-318 442.5,-324 436.5,-324"/>
<text text-anchor="middle" x="344" y="-309" font-family="sans" font-size="10.00" fill="#000000">gene_quantification_and_normalization</text>
<text text-anchor="middle" x="344" y="-298" font-family="sans" font-size="10.00" fill="#000000">level: gene</text>
</g>
<!-- 1&#45;&gt;10 -->
<g id="edge19" class="edge">
<title>1&#45;&gt;10</title>
<path fill="none" stroke="#c0c0c0" stroke-width="2" d="M65.2644,-431.8518C69.946,-411.2585 80.6046,-378.18 103,-360 123.0155,-343.7519 177.4024,-330.8534 229.454,-321.7428"/>
<polygon fill="#c0c0c0" stroke="#c0c0c0" stroke-width="2" points="230.2121,-325.164 239.4791,-320.0286 229.0322,-318.2642 230.2121,-325.164"/>
</g>
<!-- 13 -->
<g id="node14" class="node">
<title>13</title>
<path fill="none" stroke="#56d892" stroke-width="2" stroke-dasharray="5,2" d="M426.5,-396C426.5,-396 277.5,-396 277.5,-396 271.5,-396 265.5,-390 265.5,-384 265.5,-384 265.5,-372 265.5,-372 265.5,-366 271.5,-360 277.5,-360 277.5,-360 426.5,-360 426.5,-360 432.5,-360 438.5,-366 438.5,-372 438.5,-372 438.5,-384 438.5,-384 438.5,-390 432.5,-396 426.5,-396"/>
<text text-anchor="middle" x="352" y="-375.5" font-family="sans" font-size="10.00" fill="#000000">process_poor_mapped_samples</text>
</g>
<!-- 1&#45;&gt;13 -->
<g id="edge29" class="edge">
<title>1&#45;&gt;13</title>
<path fill="none" stroke="#c0c0c0" stroke-width="2" d="M124.3323,-434.1729C127.2619,-433.4368 130.1626,-432.7095 133,-432 177.7477,-420.811 227.6802,-408.4865 268.5532,-398.4401"/>
<polygon fill="#c0c0c0" stroke="#c0c0c0" stroke-width="2" points="269.5946,-401.7884 278.4707,-396.0035 267.9244,-394.9906 269.5946,-401.7884"/>
</g>
<!-- 2 -->
<g id="node3" class="node">
<title>2</title>
<path fill="none" stroke="#d85656" stroke-width="2" stroke-dasharray="5,2" d="M314,-180C314,-180 284,-180 284,-180 278,-180 272,-174 272,-168 272,-168 272,-156 272,-156 272,-150 278,-144 284,-144 284,-144 314,-144 314,-144 320,-144 326,-150 326,-156 326,-156 326,-168 326,-168 326,-174 320,-180 314,-180"/>
<text text-anchor="middle" x="299" y="-159.5" font-family="sans" font-size="10.00" fill="#000000">tSNE</text>
</g>
<!-- 2&#45;&gt;17 -->
<g id="edge35" class="edge">
<title>2&#45;&gt;17</title>
<path fill="none" stroke="#c0c0c0" stroke-width="2" d="M326.2977,-146.0209C342.7197,-136.408 363.9124,-124.0025 382.179,-113.3099"/>
<polygon fill="#c0c0c0" stroke="#c0c0c0" stroke-width="2" points="384.0155,-116.2905 390.8775,-108.2181 380.4792,-110.2494 384.0155,-116.2905"/>
</g>
<!-- 3 -->
<g id="node4" class="node">
<title>3</title>
<path fill="none" stroke="#56d86b" stroke-width="2" stroke-dasharray="5,2" d="M524.5,-252C524.5,-252 449.5,-252 449.5,-252 443.5,-252 437.5,-246 437.5,-240 437.5,-240 437.5,-228 437.5,-228 437.5,-222 443.5,-216 449.5,-216 449.5,-216 524.5,-216 524.5,-216 530.5,-216 536.5,-222 536.5,-228 536.5,-228 536.5,-240 536.5,-240 536.5,-246 530.5,-252 524.5,-252"/>
<text text-anchor="middle" x="487" y="-231.5" font-family="sans" font-size="10.00" fill="#000000">make_meta_info</text>
</g>
<!-- 3&#45;&gt;2 -->
<g id="edge2" class="edge">
<title>3&#45;&gt;2</title>
<path fill="none" stroke="#c0c0c0" stroke-width="2" d="M437.4699,-218.1125C409.6944,-208.8142 374.3425,-196.3369 335.708,-180.0901"/>
<polygon fill="#c0c0c0" stroke="#c0c0c0" stroke-width="2" points="336.9271,-176.8052 326.3551,-176.1097 334.1859,-183.2462 336.9271,-176.8052"/>
</g>
<!-- 8 -->
<g id="node9" class="node">
<title>8</title>
<path fill="none" stroke="#56d8b9" stroke-width="2" stroke-dasharray="5,2" d="M699.5,-180C699.5,-180 568.5,-180 568.5,-180 562.5,-180 556.5,-174 556.5,-168 556.5,-168 556.5,-156 556.5,-156 556.5,-150 562.5,-144 568.5,-144 568.5,-144 699.5,-144 699.5,-144 705.5,-144 711.5,-150 711.5,-156 711.5,-156 711.5,-168 711.5,-168 711.5,-174 705.5,-180 699.5,-180"/>
<text text-anchor="middle" x="634" y="-159.5" font-family="sans" font-size="10.00" fill="#000000">calculate_mean_rank_decile</text>
</g>
<!-- 3&#45;&gt;8 -->
<g id="edge15" class="edge">
<title>3&#45;&gt;8</title>
<path fill="none" stroke="#c0c0c0" stroke-width="2" d="M524.0943,-215.8314C543.4926,-206.3302 567.417,-194.6121 587.9862,-184.5374"/>
<polygon fill="#c0c0c0" stroke="#c0c0c0" stroke-width="2" points="589.7314,-187.5799 597.1724,-180.038 586.6522,-181.2935 589.7314,-187.5799"/>
</g>
<!-- 11 -->
<g id="node12" class="node">
<title>11</title>
<path fill="none" stroke="#56d8b9" stroke-width="2" stroke-dasharray="5,2" d="M487.5,-180C487.5,-180 356.5,-180 356.5,-180 350.5,-180 344.5,-174 344.5,-168 344.5,-168 344.5,-156 344.5,-156 344.5,-150 350.5,-144 356.5,-144 356.5,-144 487.5,-144 487.5,-144 493.5,-144 499.5,-150 499.5,-156 499.5,-156 499.5,-168 499.5,-168 499.5,-174 493.5,-180 487.5,-180"/>
<text text-anchor="middle" x="422" y="-159.5" font-family="sans" font-size="10.00" fill="#000000">calculate_mean_rank_decile</text>
</g>
<!-- 3&#45;&gt;11 -->
<g id="edge25" class="edge">
<title>3&#45;&gt;11</title>
<path fill="none" stroke="#c0c0c0" stroke-width="2" d="M470.5978,-215.8314C462.9585,-207.3694 453.7317,-197.1489 445.3793,-187.8971"/>
<polygon fill="#c0c0c0" stroke="#c0c0c0" stroke-width="2" points="447.9221,-185.4906 438.6231,-180.4133 442.7262,-190.1813 447.9221,-185.4906"/>
</g>
<!-- 3&#45;&gt;17 -->
<g id="edge34" class="edge">
<title>3&#45;&gt;17</title>
<path fill="none" stroke="#c0c0c0" stroke-width="2" d="M498.5018,-215.7088C508.8264,-196.7456 520.5766,-166.7472 508,-144 500.9305,-131.2134 489.4253,-121.0464 477.0973,-113.1429"/>
<polygon fill="#c0c0c0" stroke="#c0c0c0" stroke-width="2" points="478.8617,-110.1201 468.4754,-108.0285 475.2904,-116.1406 478.8617,-110.1201"/>
</g>
<!-- 4&#45;&gt;17 -->
<g id="edge37" class="edge">
<title>4&#45;&gt;17</title>
<path fill="none" stroke="#c0c0c0" stroke-width="2" d="M215.5864,-145.6621C259.6934,-133.7681 319.1179,-117.7435 362.8801,-105.9424"/>
<polygon fill="#c0c0c0" stroke="#c0c0c0" stroke-width="2" points="364.0631,-109.2485 372.8069,-103.2655 362.2405,-102.49 364.0631,-109.2485"/>
</g>
<!-- 5 -->
<g id="node6" class="node">
<title>5</title>
<path fill="none" stroke="#d8cb56" stroke-width="2" stroke-dasharray="5,2" d="M686,-468C686,-468 586,-468 586,-468 580,-468 574,-462 574,-456 574,-456 574,-444 574,-444 574,-438 580,-432 586,-432 586,-432 686,-432 686,-432 692,-432 698,-438 698,-444 698,-444 698,-456 698,-456 698,-462 692,-468 686,-468"/>
<text text-anchor="middle" x="636" y="-453" font-family="sans" font-size="10.00" fill="#000000">re_run_Salmon</text>
<text text-anchor="middle" x="636" y="-442" font-family="sans" font-size="10.00" fill="#000000">sampleID: SRS638559</text>
</g>
<!-- 5&#45;&gt;6 -->
<g id="edge7" class="edge">
<title>5&#45;&gt;6</title>
<path fill="none" stroke="#c0c0c0" stroke-width="2" d="M681.9486,-431.8539C697.1745,-423.3763 712.4128,-411.629 721,-396 728.7047,-381.9772 729.8269,-373.3449 721,-360 711.9696,-346.3475 698.7139,-336.136 684.1313,-328.5013"/>
<polygon fill="#c0c0c0" stroke="#c0c0c0" stroke-width="2" points="685.4358,-325.2451 674.906,-324.0728 682.4065,-331.5557 685.4358,-325.2451"/>
</g>
<!-- 5&#45;&gt;10 -->
<g id="edge17" class="edge">
<title>5&#45;&gt;10</title>
<path fill="none" stroke="#c0c0c0" stroke-width="2" d="M594.1387,-431.9281C572.6969,-422.1478 546.448,-409.3537 524,-396 500.4662,-382.0004 497.9136,-373.3405 474,-360 452.0571,-347.7588 426.7713,-336.6403 404.3669,-327.7171"/>
<polygon fill="#c0c0c0" stroke="#c0c0c0" stroke-width="2" points="405.5472,-324.4205 394.9596,-324.0304 402.993,-330.9379 405.5472,-324.4205"/>
</g>
<!-- 5&#45;&gt;13 -->
<g id="edge27" class="edge">
<title>5&#45;&gt;13</title>
<path fill="none" stroke="#c0c0c0" stroke-width="2" d="M573.675,-434.1993C532.3852,-423.7315 477.8072,-409.8948 433.1389,-398.5704"/>
<polygon fill="#c0c0c0" stroke="#c0c0c0" stroke-width="2" points="433.7377,-395.1116 423.1842,-396.0467 432.0174,-401.8969 433.7377,-395.1116"/>
</g>
<!-- 6&#45;&gt;3 -->
<g id="edge5" class="edge">
<title>6&#45;&gt;3</title>
<path fill="none" stroke="#c0c0c0" stroke-width="2" d="M566.9994,-287.8314C553.5669,-278.7927 537.1527,-267.7476 522.6961,-258.0198"/>
<polygon fill="#c0c0c0" stroke="#c0c0c0" stroke-width="2" points="524.2425,-254.8418 513.992,-252.1628 520.3346,-260.6494 524.2425,-254.8418"/>
</g>
<!-- 6&#45;&gt;8 -->
<g id="edge16" class="edge">
<title>6&#45;&gt;8</title>
<path fill="none" stroke="#c0c0c0" stroke-width="2" d="M596.9348,-287.8543C600.108,-269.5222 605.7065,-240.488 613,-216 615.6003,-207.2694 618.9889,-197.9579 622.2827,-189.5693"/>
<polygon fill="#c0c0c0" stroke="#c0c0c0" stroke-width="2" points="625.5527,-190.8187 626.0528,-180.2356 619.0622,-188.1969 625.5527,-190.8187"/>
</g>
<!-- 16 -->
<g id="node17" class="node">
<title>16</title>
<path fill="none" stroke="#d87d56" stroke-width="2" stroke-dasharray="5,2" d="M738,-252C738,-252 634,-252 634,-252 628,-252 622,-246 622,-240 622,-240 622,-228 622,-228 622,-222 628,-216 634,-216 634,-216 738,-216 738,-216 744,-216 750,-222 750,-228 750,-228 750,-240 750,-240 750,-246 744,-252 738,-252"/>
<text text-anchor="middle" x="686" y="-231.5" font-family="sans" font-size="10.00" fill="#000000">differential_expression</text>
</g>
<!-- 6&#45;&gt;16 -->
<g id="edge31" class="edge">
<title>6&#45;&gt;16</title>
<path fill="none" stroke="#c0c0c0" stroke-width="2" d="M617.2155,-287.8314C628.547,-278.9632 642.3464,-268.1637 654.6027,-258.5718"/>
<polygon fill="#c0c0c0" stroke="#c0c0c0" stroke-width="2" points="657.074,-261.0822 662.7919,-252.1628 652.7598,-255.5697 657.074,-261.0822"/>
</g>
<!-- 6&#45;&gt;17 -->
<g id="edge38" class="edge">
<title>6&#45;&gt;17</title>
<path fill="none" stroke="#c0c0c0" stroke-width="2" d="M678.8617,-287.9134C713.8995,-278.5683 748.7395,-266.1539 759,-252 777.3971,-226.6218 743.8474,-149.2132 738,-144 700.9495,-110.9676 562.1189,-97.7509 481.3284,-92.7727"/>
<polygon fill="#c0c0c0" stroke="#c0c0c0" stroke-width="2" points="481.4827,-89.2758 471.2932,-92.1782 481.0688,-96.2635 481.4827,-89.2758"/>
</g>
<!-- 7 -->
<g id="node8" class="node">
<title>7</title>
<path fill="none" stroke="#b6d856" stroke-width="2" stroke-dasharray="5,2" d="M437,-36C437,-36 407,-36 407,-36 401,-36 395,-30 395,-24 395,-24 395,-12 395,-12 395,-6 401,0 407,0 407,0 437,0 437,0 443,0 449,-6 449,-12 449,-12 449,-24 449,-24 449,-30 443,-36 437,-36"/>
<text text-anchor="middle" x="422" y="-15.5" font-family="sans" font-size="10.00" fill="#000000">all</text>
</g>
<!-- 8&#45;&gt;17 -->
<g id="edge40" class="edge">
<title>8&#45;&gt;17</title>
<path fill="none" stroke="#c0c0c0" stroke-width="2" d="M580.7771,-143.9243C550.3207,-133.5806 512.0601,-120.5864 480.7287,-109.9456"/>
<polygon fill="#c0c0c0" stroke="#c0c0c0" stroke-width="2" points="481.8383,-106.6262 471.244,-106.7244 479.5872,-113.2543 481.8383,-106.6262"/>
</g>
<!-- 9 -->
<g id="node10" class="node">
<title>9</title>
<path fill="none" stroke="#d8cb56" stroke-width="2" stroke-dasharray="5,2" d="M402,-468C402,-468 302,-468 302,-468 296,-468 290,-462 290,-456 290,-456 290,-444 290,-444 290,-438 296,-432 302,-432 302,-432 402,-432 402,-432 408,-432 414,-438 414,-444 414,-444 414,-456 414,-456 414,-462 408,-468 402,-468"/>
<text text-anchor="middle" x="352" y="-453" font-family="sans" font-size="10.00" fill="#000000">re_run_Salmon</text>
<text text-anchor="middle" x="352" y="-442" font-family="sans" font-size="10.00" fill="#000000">sampleID: SRS374785</text>
</g>
<!-- 9&#45;&gt;6 -->
<g id="edge13" class="edge">
<title>9&#45;&gt;6</title>
<path fill="none" stroke="#c0c0c0" stroke-width="2" d="M414.2646,-433.8761C417.2124,-433.2193 420.1354,-432.59 423,-432 472.8098,-421.7408 615.9892,-434.6854 649,-396 666.2556,-375.7782 646.2539,-349.5491 625.7015,-330.6288"/>
<polygon fill="#c0c0c0" stroke="#c0c0c0" stroke-width="2" points="627.995,-327.9849 618.1726,-324.0135 623.3746,-333.2434 627.995,-327.9849"/>
</g>
<!-- 9&#45;&gt;10 -->
<g id="edge23" class="edge">
<title>9&#45;&gt;10</title>
<path fill="none" stroke="#c0c0c0" stroke-width="2" d="M297.7405,-431.9128C281.4149,-423.642 265.3643,-412.0115 256,-396 247.9225,-382.1886 248.1863,-373.9623 256,-360 263.1835,-347.1638 274.8042,-337.0081 287.2791,-329.1336"/>
<polygon fill="#c0c0c0" stroke="#c0c0c0" stroke-width="2" points="289.1339,-332.1036 296.008,-324.0415 285.6067,-326.0572 289.1339,-332.1036"/>
</g>
<!-- 9&#45;&gt;13 -->
<g id="edge30" class="edge">
<title>9&#45;&gt;13</title>
<path fill="none" stroke="#c0c0c0" stroke-width="2" d="M352,-431.8314C352,-424.131 352,-414.9743 352,-406.4166"/>
<polygon fill="#c0c0c0" stroke="#c0c0c0" stroke-width="2" points="355.5001,-406.4132 352,-396.4133 348.5001,-406.4133 355.5001,-406.4132"/>
</g>
<!-- 10&#45;&gt;0 -->
<g id="edge1" class="edge">
<title>10&#45;&gt;0</title>
<path fill="none" stroke="#c0c0c0" stroke-width="2" d="M295.5503,-287.8314C269.4149,-278.0306 236.9891,-265.8709 209.5717,-255.5894"/>
<polygon fill="#c0c0c0" stroke="#c0c0c0" stroke-width="2" points="210.6936,-252.2721 200.1013,-252.038 208.2357,-258.8264 210.6936,-252.2721"/>
</g>
<!-- 10&#45;&gt;2 -->
<g id="edge3" class="edge">
<title>10&#45;&gt;2</title>
<path fill="none" stroke="#c0c0c0" stroke-width="2" d="M338.3007,-287.7623C330.5915,-263.0928 316.7687,-218.8598 307.7416,-189.9731"/>
<polygon fill="#c0c0c0" stroke="#c0c0c0" stroke-width="2" points="310.9765,-188.5904 304.653,-180.0896 304.2951,-190.6784 310.9765,-188.5904"/>
</g>
<!-- 10&#45;&gt;3 -->
<g id="edge4" class="edge">
<title>10&#45;&gt;3</title>
<path fill="none" stroke="#c0c0c0" stroke-width="2" d="M380.0849,-287.8314C398.7989,-278.4089 421.8432,-266.8062 441.74,-256.7883"/>
<polygon fill="#c0c0c0" stroke="#c0c0c0" stroke-width="2" points="443.5689,-259.7861 450.9266,-252.1628 440.4208,-253.5339 443.5689,-259.7861"/>
</g>
<!-- 10&#45;&gt;11 -->
<g id="edge24" class="edge">
<title>10&#45;&gt;11</title>
<path fill="none" stroke="#c0c0c0" stroke-width="2" d="M353.8788,-287.7623C367.3586,-262.8764 391.6221,-218.0822 407.2577,-189.2165"/>
<polygon fill="#c0c0c0" stroke="#c0c0c0" stroke-width="2" points="410.5161,-190.5496 412.2015,-180.0896 404.361,-187.2155 410.5161,-190.5496"/>
</g>
<!-- 10&#45;&gt;17 -->
<g id="edge32" class="edge">
<title>10&#45;&gt;17</title>
<path fill="none" stroke="#c0c0c0" stroke-width="2" d="M322.603,-287.9535C288.3928,-256.8968 228.5698,-192.0549 263,-144 275.078,-127.1425 322.8382,-112.344 362.8904,-102.5224"/>
<polygon fill="#c0c0c0" stroke="#c0c0c0" stroke-width="2" points="363.7046,-105.9265 372.616,-100.1961 362.0761,-99.1185 363.7046,-105.9265"/>
</g>
<!-- 11&#45;&gt;17 -->
<g id="edge33" class="edge">
<title>11&#45;&gt;17</title>
<path fill="none" stroke="#c0c0c0" stroke-width="2" d="M422,-143.8314C422,-136.131 422,-126.9743 422,-118.4166"/>
<polygon fill="#c0c0c0" stroke="#c0c0c0" stroke-width="2" points="425.5001,-118.4132 422,-108.4133 418.5001,-118.4133 425.5001,-118.4132"/>
</g>
<!-- 12 -->
<g id="node13" class="node">
<title>12</title>
<path fill="none" stroke="#d8cb56" stroke-width="2" stroke-dasharray="5,2" d="M544,-468C544,-468 444,-468 444,-468 438,-468 432,-462 432,-456 432,-456 432,-444 432,-444 432,-438 438,-432 444,-432 444,-432 544,-432 544,-432 550,-432 556,-438 556,-444 556,-444 556,-456 556,-456 556,-462 550,-468 544,-468"/>
<text text-anchor="middle" x="494" y="-453" font-family="sans" font-size="10.00" fill="#000000">re_run_Salmon</text>
<text text-anchor="middle" x="494" y="-442" font-family="sans" font-size="10.00" fill="#000000">sampleID: SRS333370</text>
</g>
<!-- 12&#45;&gt;6 -->
<g id="edge8" class="edge">
<title>12&#45;&gt;6</title>
<path fill="none" stroke="#c0c0c0" stroke-width="2" d="M556.1524,-434.15C609.6864,-420.2027 678.9927,-401.3126 683,-396 692.6351,-383.2264 690.8488,-373.9426 683,-360 675.7966,-347.2038 664.2006,-337.0907 651.7258,-329.2465"/>
<polygon fill="#c0c0c0" stroke="#c0c0c0" stroke-width="2" points="653.3972,-326.1698 642.9922,-324.1733 649.8811,-332.2227 653.3972,-326.1698"/>
</g>
<!-- 12&#45;&gt;10 -->
<g id="edge18" class="edge">
<title>12&#45;&gt;10</title>
<path fill="none" stroke="#c0c0c0" stroke-width="2" d="M488.1955,-431.7707C481.1343,-412.0209 467.5497,-380.5828 447,-360 434.2403,-347.2198 417.8231,-336.7781 401.8617,-328.601"/>
<polygon fill="#c0c0c0" stroke="#c0c0c0" stroke-width="2" points="403.0688,-325.2953 392.5477,-324.0475 399.9944,-331.584 403.0688,-325.2953"/>
</g>
<!-- 12&#45;&gt;13 -->
<g id="edge28" class="edge">
<title>12&#45;&gt;13</title>
<path fill="none" stroke="#c0c0c0" stroke-width="2" d="M458.1674,-431.8314C439.5843,-422.4089 416.7011,-410.8062 396.9435,-400.7883"/>
<polygon fill="#c0c0c0" stroke="#c0c0c0" stroke-width="2" points="398.323,-397.5635 387.8211,-396.1628 395.1573,-403.8069 398.323,-397.5635"/>
</g>
<!-- 13&#45;&gt;6 -->
<g id="edge10" class="edge">
<title>13&#45;&gt;6</title>
<path fill="none" stroke="#c0c0c0" stroke-width="2" d="M412.7545,-359.9243C446.4126,-349.9103 488.4207,-337.412 523.5174,-326.97"/>
<polygon fill="#c0c0c0" stroke="#c0c0c0" stroke-width="2" points="524.6339,-330.2896 533.2206,-324.0831 522.6377,-323.5802 524.6339,-330.2896"/>
</g>
<!-- 13&#45;&gt;10 -->
<g id="edge20" class="edge">
<title>13&#45;&gt;10</title>
<path fill="none" stroke="#c0c0c0" stroke-width="2" d="M349.9813,-359.8314C349.1257,-352.131 348.1083,-342.9743 347.1574,-334.4166"/>
<polygon fill="#c0c0c0" stroke="#c0c0c0" stroke-width="2" points="350.6289,-333.9656 346.0459,-324.4133 343.6717,-334.7386 350.6289,-333.9656"/>
</g>
<!-- 14 -->
<g id="node15" class="node">
<title>14</title>
<path fill="none" stroke="#56a9d8" stroke-width="2" stroke-dasharray="5,2" d="M628.5,-396C628.5,-396 545.5,-396 545.5,-396 539.5,-396 533.5,-390 533.5,-384 533.5,-384 533.5,-372 533.5,-372 533.5,-366 539.5,-360 545.5,-360 545.5,-360 628.5,-360 628.5,-360 634.5,-360 640.5,-366 640.5,-372 640.5,-372 640.5,-384 640.5,-384 640.5,-390 634.5,-396 628.5,-396"/>
<text text-anchor="middle" x="587" y="-375.5" font-family="sans" font-size="10.00" fill="#000000">downloadGencode</text>
</g>
<!-- 14&#45;&gt;6 -->
<g id="edge11" class="edge">
<title>14&#45;&gt;6</title>
<path fill="none" stroke="#c0c0c0" stroke-width="2" d="M588.7664,-359.8314C589.515,-352.131 590.4053,-342.9743 591.2373,-334.4166"/>
<polygon fill="#c0c0c0" stroke="#c0c0c0" stroke-width="2" points="594.7256,-334.7051 592.2098,-324.4133 587.7585,-334.0276 594.7256,-334.7051"/>
</g>
<!-- 14&#45;&gt;10 -->
<g id="edge21" class="edge">
<title>14&#45;&gt;10</title>
<path fill="none" stroke="#c0c0c0" stroke-width="2" d="M533.3718,-362.1102C498.4736,-351.77 452.5761,-338.1707 414.707,-326.9502"/>
<polygon fill="#c0c0c0" stroke="#c0c0c0" stroke-width="2" points="415.3431,-323.4884 404.7608,-324.0032 413.3544,-330.1999 415.3431,-323.4884"/>
</g>
<!-- 15 -->
<g id="node16" class="node">
<title>15</title>
<path fill="none" stroke="#d8cb56" stroke-width="2" stroke-dasharray="5,2" d="M260,-468C260,-468 154,-468 154,-468 148,-468 142,-462 142,-456 142,-456 142,-444 142,-444 142,-438 148,-432 154,-432 154,-432 260,-432 260,-432 266,-432 272,-438 272,-444 272,-444 272,-456 272,-456 272,-462 266,-468 260,-468"/>
<text text-anchor="middle" x="207" y="-453" font-family="sans" font-size="10.00" fill="#000000">re_run_Salmon</text>
<text text-anchor="middle" x="207" y="-442" font-family="sans" font-size="10.00" fill="#000000">sampleID: SRS1305249</text>
</g>
<!-- 15&#45;&gt;6 -->
<g id="edge12" class="edge">
<title>15&#45;&gt;6</title>
<path fill="none" stroke="#c0c0c0" stroke-width="2" d="M211.6244,-431.8948C217.958,-411.0185 231.4483,-377.355 256,-360 265.3148,-353.4156 385.0796,-335.2995 479.4324,-321.8559"/>
<polygon fill="#c0c0c0" stroke="#c0c0c0" stroke-width="2" points="479.94,-325.319 489.3481,-320.4469 478.9551,-318.3886 479.94,-325.319"/>
</g>
<!-- 15&#45;&gt;10 -->
<g id="edge22" class="edge">
<title>15&#45;&gt;10</title>
<path fill="none" stroke="#c0c0c0" stroke-width="2" d="M194.5655,-431.7922C182.986,-412.3486 169.6362,-381.4436 185,-360 194.001,-347.4371 222.8196,-336.0177 253.4963,-326.9496"/>
<polygon fill="#c0c0c0" stroke="#c0c0c0" stroke-width="2" points="254.8464,-330.2039 263.4989,-324.0895 252.9219,-323.4736 254.8464,-330.2039"/>
</g>
<!-- 15&#45;&gt;13 -->
<g id="edge26" class="edge">
<title>15&#45;&gt;13</title>
<path fill="none" stroke="#c0c0c0" stroke-width="2" d="M243.5896,-431.8314C262.7239,-422.3302 286.3229,-410.6121 306.6122,-400.5374"/>
<polygon fill="#c0c0c0" stroke="#c0c0c0" stroke-width="2" points="308.2735,-403.6203 315.6735,-396.038 305.1603,-397.3506 308.2735,-403.6203"/>
</g>
<!-- 16&#45;&gt;17 -->
<g id="edge39" class="edge">
<title>16&#45;&gt;17</title>
<path fill="none" stroke="#c0c0c0" stroke-width="2" d="M703.1424,-215.6585C719.3072,-196.1006 738.6295,-165.0986 721,-144 691.0581,-108.1661 559.5153,-96.0689 481.2287,-92.0155"/>
<polygon fill="#c0c0c0" stroke="#c0c0c0" stroke-width="2" points="481.179,-88.509 471.02,-91.5168 480.8373,-95.5006 481.179,-88.509"/>
</g>
<!-- 17&#45;&gt;7 -->
<g id="edge14" class="edge">
<title>17&#45;&gt;7</title>
<path fill="none" stroke="#c0c0c0" stroke-width="2" d="M422,-71.8314C422,-64.131 422,-54.9743 422,-46.4166"/>
<polygon fill="#c0c0c0" stroke="#c0c0c0" stroke-width="2" points="425.5001,-46.4132 422,-36.4133 418.5001,-46.4133 425.5001,-46.4132"/>
</g>
</g>
</svg>
