<?xml version="1.0" encoding="UTF-8" standalone="no"?>
<!DOCTYPE svg PUBLIC "-//W3C//DTD SVG 1.1//EN"
 "http://www.w3.org/Graphics/SVG/1.1/DTD/svg11.dtd">
<!-- Generated by graphviz version 2.40.1 (20161225.0304)
 -->
<!-- Title: snakemake_dag Pages: 1 -->
<svg width="1804pt" height="908pt"
 viewBox="0.00 0.00 1804.05 908.00" xmlns="http://www.w3.org/2000/svg" xmlns:xlink="http://www.w3.org/1999/xlink">
<g id="graph0" class="graph" transform="scale(1 1) rotate(0) translate(4 904)">
<title>snakemake_dag</title>
<polygon fill="#ffffff" stroke="transparent" points="-4,4 -4,-904 1800.0501,-904 1800.0501,4 -4,4"/>
<!-- 0 -->
<g id="node1" class="node">
<title>0</title>
<path fill="none" stroke="#d85656" stroke-width="2" stroke-dasharray="5,2" d="M1064.0602,-828C1064.0602,-828 974.0602,-828 974.0602,-828 968.0602,-828 962.0602,-822 962.0602,-816 962.0602,-816 962.0602,-804 962.0602,-804 962.0602,-798 968.0602,-792 974.0602,-792 974.0602,-792 1064.0602,-792 1064.0602,-792 1070.0602,-792 1076.0602,-798 1076.0602,-804 1076.0602,-804 1076.0602,-816 1076.0602,-816 1076.0602,-822 1070.0602,-828 1064.0602,-828"/>
<text text-anchor="middle" x="1019.0602" y="-807.5" font-family="sans" font-size="10.00" fill="#000000">build_salmon_index</text>
</g>
<!-- 10 -->
<g id="node11" class="node">
<title>10</title>
<path fill="none" stroke="#d88d56" stroke-width="2" stroke-dasharray="5,2" d="M1501.0602,-756C1501.0602,-756 1401.0602,-756 1401.0602,-756 1395.0602,-756 1389.0602,-750 1389.0602,-744 1389.0602,-744 1389.0602,-732 1389.0602,-732 1389.0602,-726 1395.0602,-720 1401.0602,-720 1401.0602,-720 1501.0602,-720 1501.0602,-720 1507.0602,-720 1513.0602,-726 1513.0602,-732 1513.0602,-732 1513.0602,-744 1513.0602,-744 1513.0602,-750 1507.0602,-756 1501.0602,-756"/>
<text text-anchor="middle" x="1451.0602" y="-741" font-family="sans" font-size="10.00" fill="#000000">run_salmon</text>
<text text-anchor="middle" x="1451.0602" y="-730" font-family="sans" font-size="10.00" fill="#000000">sampleID: SRS389760</text>
</g>
<!-- 0&#45;&gt;10 -->
<g id="edge18" class="edge">
<title>0&#45;&gt;10</title>
<path fill="none" stroke="#c0c0c0" stroke-width="2" d="M1076.4265,-800.439C1154.3913,-787.4448 1293.8089,-764.2086 1378.8179,-750.0404"/>
<polygon fill="#c0c0c0" stroke="#c0c0c0" stroke-width="2" points="1379.6189,-753.4553 1388.9074,-748.3588 1378.468,-746.5505 1379.6189,-753.4553"/>
</g>
<!-- 16 -->
<g id="node17" class="node">
<title>16</title>
<path fill="none" stroke="#d88d56" stroke-width="2" stroke-dasharray="5,2" d="M869.0602,-756C869.0602,-756 763.0602,-756 763.0602,-756 757.0602,-756 751.0602,-750 751.0602,-744 751.0602,-744 751.0602,-732 751.0602,-732 751.0602,-726 757.0602,-720 763.0602,-720 763.0602,-720 869.0602,-720 869.0602,-720 875.0602,-720 881.0602,-726 881.0602,-732 881.0602,-732 881.0602,-744 881.0602,-744 881.0602,-750 875.0602,-756 869.0602,-756"/>
<text text-anchor="middle" x="816.0602" y="-741" font-family="sans" font-size="10.00" fill="#000000">run_salmon</text>
<text text-anchor="middle" x="816.0602" y="-730" font-family="sans" font-size="10.00" fill="#000000">sampleID: SRS1305249</text>
</g>
<!-- 0&#45;&gt;16 -->
<g id="edge31" class="edge">
<title>0&#45;&gt;16</title>
<path fill="none" stroke="#c0c0c0" stroke-width="2" d="M968.0968,-791.9243C940.3455,-782.0815 905.8274,-769.8386 876.6988,-759.5073"/>
<polygon fill="#c0c0c0" stroke="#c0c0c0" stroke-width="2" points="877.6394,-756.1273 867.0446,-756.0831 875.2994,-762.7246 877.6394,-756.1273"/>
</g>
<!-- 22 -->
<g id="node23" class="node">
<title>22</title>
<path fill="none" stroke="#d88d56" stroke-width="2" stroke-dasharray="5,2" d="M513.0602,-756C513.0602,-756 413.0602,-756 413.0602,-756 407.0602,-756 401.0602,-750 401.0602,-744 401.0602,-744 401.0602,-732 401.0602,-732 401.0602,-726 407.0602,-720 413.0602,-720 413.0602,-720 513.0602,-720 513.0602,-720 519.0602,-720 525.0602,-726 525.0602,-732 525.0602,-732 525.0602,-744 525.0602,-744 525.0602,-750 519.0602,-756 513.0602,-756"/>
<text text-anchor="middle" x="463.0602" y="-741" font-family="sans" font-size="10.00" fill="#000000">run_salmon</text>
<text text-anchor="middle" x="463.0602" y="-730" font-family="sans" font-size="10.00" fill="#000000">sampleID: SRS374785</text>
</g>
<!-- 0&#45;&gt;22 -->
<g id="edge44" class="edge">
<title>0&#45;&gt;22</title>
<path fill="none" stroke="#c0c0c0" stroke-width="2" d="M961.8105,-794.0038C958.5229,-793.2774 955.256,-792.6021 952.0602,-792 805.4785,-764.3833 631.3233,-749.3159 535.4281,-742.5279"/>
<polygon fill="#c0c0c0" stroke="#c0c0c0" stroke-width="2" points="535.4818,-739.0232 525.2624,-741.8187 534.9945,-746.0063 535.4818,-739.0232"/>
</g>
<!-- 28 -->
<g id="node29" class="node">
<title>28</title>
<path fill="none" stroke="#d88d56" stroke-width="2" stroke-dasharray="5,2" d="M1282.0602,-756C1282.0602,-756 1182.0602,-756 1182.0602,-756 1176.0602,-756 1170.0602,-750 1170.0602,-744 1170.0602,-744 1170.0602,-732 1170.0602,-732 1170.0602,-726 1176.0602,-720 1182.0602,-720 1182.0602,-720 1282.0602,-720 1282.0602,-720 1288.0602,-720 1294.0602,-726 1294.0602,-732 1294.0602,-732 1294.0602,-744 1294.0602,-744 1294.0602,-750 1288.0602,-756 1282.0602,-756"/>
<text text-anchor="middle" x="1232.0602" y="-741" font-family="sans" font-size="10.00" fill="#000000">run_salmon</text>
<text text-anchor="middle" x="1232.0602" y="-730" font-family="sans" font-size="10.00" fill="#000000">sampleID: SRS333370</text>
</g>
<!-- 0&#45;&gt;28 -->
<g id="edge52" class="edge">
<title>0&#45;&gt;28</title>
<path fill="none" stroke="#c0c0c0" stroke-width="2" d="M1072.5342,-791.9243C1101.7791,-782.0387 1138.1861,-769.7321 1168.8328,-759.3726"/>
<polygon fill="#c0c0c0" stroke="#c0c0c0" stroke-width="2" points="1170.2117,-762.6012 1178.5642,-756.0831 1167.97,-755.9698 1170.2117,-762.6012"/>
</g>
<!-- 38 -->
<g id="node39" class="node">
<title>38</title>
<path fill="none" stroke="#d88d56" stroke-width="2" stroke-dasharray="5,2" d="M1057.0602,-756C1057.0602,-756 957.0602,-756 957.0602,-756 951.0602,-756 945.0602,-750 945.0602,-744 945.0602,-744 945.0602,-732 945.0602,-732 945.0602,-726 951.0602,-720 957.0602,-720 957.0602,-720 1057.0602,-720 1057.0602,-720 1063.0602,-720 1069.0602,-726 1069.0602,-732 1069.0602,-732 1069.0602,-744 1069.0602,-744 1069.0602,-750 1063.0602,-756 1057.0602,-756"/>
<text text-anchor="middle" x="1007.0602" y="-741" font-family="sans" font-size="10.00" fill="#000000">run_salmon</text>
<text text-anchor="middle" x="1007.0602" y="-730" font-family="sans" font-size="10.00" fill="#000000">sampleID: SRS638559</text>
</g>
<!-- 0&#45;&gt;38 -->
<g id="edge77" class="edge">
<title>0&#45;&gt;38</title>
<path fill="none" stroke="#c0c0c0" stroke-width="2" d="M1016.0321,-791.8314C1014.7487,-784.131 1013.2226,-774.9743 1011.7963,-766.4166"/>
<polygon fill="#c0c0c0" stroke="#c0c0c0" stroke-width="2" points="1015.2255,-765.7018 1010.1291,-756.4133 1008.3208,-766.8526 1015.2255,-765.7018"/>
</g>
<!-- 1 -->
<g id="node2" class="node">
<title>1</title>
<path fill="none" stroke="#d8c356" stroke-width="2" stroke-dasharray="5,2" d="M1334.0602,-252C1334.0602,-252 1230.0602,-252 1230.0602,-252 1224.0602,-252 1218.0602,-246 1218.0602,-240 1218.0602,-240 1218.0602,-228 1218.0602,-228 1218.0602,-222 1224.0602,-216 1230.0602,-216 1230.0602,-216 1334.0602,-216 1334.0602,-216 1340.0602,-216 1346.0602,-222 1346.0602,-228 1346.0602,-228 1346.0602,-240 1346.0602,-240 1346.0602,-246 1340.0602,-252 1334.0602,-252"/>
<text text-anchor="middle" x="1282.0602" y="-231.5" font-family="sans" font-size="10.00" fill="#000000">differential_expression</text>
</g>
<!-- 2 -->
<g id="node3" class="node">
<title>2</title>
<path fill="none" stroke="#56d863" stroke-width="2" stroke-dasharray="5,2" d="M1365.5602,-180C1365.5602,-180 1268.5602,-180 1268.5602,-180 1262.5602,-180 1256.5602,-174 1256.5602,-168 1256.5602,-168 1256.5602,-156 1256.5602,-156 1256.5602,-150 1262.5602,-144 1268.5602,-144 1268.5602,-144 1365.5602,-144 1365.5602,-144 1371.5602,-144 1377.5602,-150 1377.5602,-156 1377.5602,-156 1377.5602,-168 1377.5602,-168 1377.5602,-174 1371.5602,-180 1365.5602,-180"/>
<text text-anchor="middle" x="1317.0602" y="-159.5" font-family="sans" font-size="10.00" fill="#000000">GO_term_enrichment</text>
</g>
<!-- 1&#45;&gt;2 -->
<g id="edge3" class="edge">
<title>1&#45;&gt;2</title>
<path fill="none" stroke="#c0c0c0" stroke-width="2" d="M1290.8922,-215.8314C1294.7588,-207.8771 1299.3808,-198.369 1303.657,-189.5723"/>
<polygon fill="#c0c0c0" stroke="#c0c0c0" stroke-width="2" points="1306.8851,-190.9371 1308.1093,-180.4133 1300.5895,-187.8768 1306.8851,-190.9371"/>
</g>
<!-- 5 -->
<g id="node6" class="node">
<title>5</title>
<path fill="none" stroke="#56d882" stroke-width="2" stroke-dasharray="5,2" d="M998.0602,-108C998.0602,-108 924.0602,-108 924.0602,-108 918.0602,-108 912.0602,-102 912.0602,-96 912.0602,-96 912.0602,-84 912.0602,-84 912.0602,-78 918.0602,-72 924.0602,-72 924.0602,-72 998.0602,-72 998.0602,-72 1004.0602,-72 1010.0602,-78 1010.0602,-84 1010.0602,-84 1010.0602,-96 1010.0602,-96 1010.0602,-102 1004.0602,-108 998.0602,-108"/>
<text text-anchor="middle" x="961.0602" y="-87.5" font-family="sans" font-size="10.00" fill="#000000">make_SQLite_db</text>
</g>
<!-- 1&#45;&gt;5 -->
<g id="edge7" class="edge">
<title>1&#45;&gt;5</title>
<path fill="none" stroke="#c0c0c0" stroke-width="2" d="M1271.3226,-215.7136C1258.1636,-194.9906 1233.8952,-161.7903 1204.0602,-144 1173.514,-125.7856 1081.8023,-108.6713 1020.2003,-98.7714"/>
<polygon fill="#c0c0c0" stroke="#c0c0c0" stroke-width="2" points="1020.6327,-95.2963 1010.2078,-97.1862 1019.5358,-102.2099 1020.6327,-95.2963"/>
</g>
<!-- 2&#45;&gt;5 -->
<g id="edge9" class="edge">
<title>2&#45;&gt;5</title>
<path fill="none" stroke="#c0c0c0" stroke-width="2" d="M1256.5323,-147.2224C1251.6421,-146.105 1246.7722,-145.0176 1242.0602,-144 1165.6762,-127.5035 1077.0648,-110.8912 1020.0937,-100.534"/>
<polygon fill="#c0c0c0" stroke="#c0c0c0" stroke-width="2" points="1020.6475,-97.0774 1010.1835,-98.7375 1019.3988,-103.9652 1020.6475,-97.0774"/>
</g>
<!-- 3 -->
<g id="node4" class="node">
<title>3</title>
<path fill="none" stroke="#d8c356" stroke-width="2" stroke-dasharray="5,2" d="M654.0602,-252C654.0602,-252 550.0602,-252 550.0602,-252 544.0602,-252 538.0602,-246 538.0602,-240 538.0602,-240 538.0602,-228 538.0602,-228 538.0602,-222 544.0602,-216 550.0602,-216 550.0602,-216 654.0602,-216 654.0602,-216 660.0602,-216 666.0602,-222 666.0602,-228 666.0602,-228 666.0602,-240 666.0602,-240 666.0602,-246 660.0602,-252 654.0602,-252"/>
<text text-anchor="middle" x="602.0602" y="-231.5" font-family="sans" font-size="10.00" fill="#000000">differential_expression</text>
</g>
<!-- 3&#45;&gt;5 -->
<g id="edge11" class="edge">
<title>3&#45;&gt;5</title>
<path fill="none" stroke="#c0c0c0" stroke-width="2" d="M612.4757,-215.9319C625.495,-195.0913 649.7929,-161.462 680.0602,-144 717.0229,-122.6752 830.9287,-105.6524 901.8582,-96.7615"/>
<polygon fill="#c0c0c0" stroke="#c0c0c0" stroke-width="2" points="902.5016,-100.2087 911.9971,-95.5092 901.6434,-93.2615 902.5016,-100.2087"/>
</g>
<!-- 4 -->
<g id="node5" class="node">
<title>4</title>
<path fill="none" stroke="#b6d856" stroke-width="2" stroke-dasharray="5,2" d="M448.0602,-900C448.0602,-900 368.0602,-900 368.0602,-900 362.0602,-900 356.0602,-894 356.0602,-888 356.0602,-888 356.0602,-876 356.0602,-876 356.0602,-870 362.0602,-864 368.0602,-864 368.0602,-864 448.0602,-864 448.0602,-864 454.0602,-864 460.0602,-870 460.0602,-876 460.0602,-876 460.0602,-888 460.0602,-888 460.0602,-894 454.0602,-900 448.0602,-900"/>
<text text-anchor="middle" x="408.0602" y="-885" font-family="sans" font-size="10.00" fill="#000000">download_fastq</text>
<text text-anchor="middle" x="408.0602" y="-874" font-family="sans" font-size="10.00" fill="#000000">id: SRR3170191_2</text>
</g>
<!-- 35 -->
<g id="node36" class="node">
<title>35</title>
<path fill="none" stroke="#97d856" stroke-width="2" stroke-dasharray="5,2" d="M466.5602,-828C466.5602,-828 349.5602,-828 349.5602,-828 343.5602,-828 337.5602,-822 337.5602,-816 337.5602,-816 337.5602,-804 337.5602,-804 337.5602,-798 343.5602,-792 349.5602,-792 349.5602,-792 466.5602,-792 466.5602,-792 472.5602,-792 478.5602,-798 478.5602,-804 478.5602,-804 478.5602,-816 478.5602,-816 478.5602,-822 472.5602,-828 466.5602,-828"/>
<text text-anchor="middle" x="408.0602" y="-813" font-family="sans" font-size="10.00" fill="#000000">aggregate_fastqs</text>
<text text-anchor="middle" x="408.0602" y="-802" font-family="sans" font-size="10.00" fill="#000000">sampleID: SRS1305249_2</text>
</g>
<!-- 4&#45;&gt;35 -->
<g id="edge72" class="edge">
<title>4&#45;&gt;35</title>
<path fill="none" stroke="#c0c0c0" stroke-width="2" d="M408.0602,-863.8314C408.0602,-856.131 408.0602,-846.9743 408.0602,-838.4166"/>
<polygon fill="#c0c0c0" stroke="#c0c0c0" stroke-width="2" points="411.5603,-838.4132 408.0602,-828.4133 404.5603,-838.4133 411.5603,-838.4132"/>
</g>
<!-- 37 -->
<g id="node38" class="node">
<title>37</title>
<path fill="none" stroke="#ced856" stroke-width="2" stroke-dasharray="5,2" d="M976.0602,-36C976.0602,-36 946.0602,-36 946.0602,-36 940.0602,-36 934.0602,-30 934.0602,-24 934.0602,-24 934.0602,-12 934.0602,-12 934.0602,-6 940.0602,0 946.0602,0 946.0602,0 976.0602,0 976.0602,0 982.0602,0 988.0602,-6 988.0602,-12 988.0602,-12 988.0602,-24 988.0602,-24 988.0602,-30 982.0602,-36 976.0602,-36"/>
<text text-anchor="middle" x="961.0602" y="-15.5" font-family="sans" font-size="10.00" fill="#000000">all</text>
</g>
<!-- 5&#45;&gt;37 -->
<g id="edge76" class="edge">
<title>5&#45;&gt;37</title>
<path fill="none" stroke="#c0c0c0" stroke-width="2" d="M961.0602,-71.8314C961.0602,-64.131 961.0602,-54.9743 961.0602,-46.4166"/>
<polygon fill="#c0c0c0" stroke="#c0c0c0" stroke-width="2" points="964.5603,-46.4132 961.0602,-36.4133 957.5603,-46.4133 964.5603,-46.4132"/>
</g>
<!-- 6 -->
<g id="node7" class="node">
<title>6</title>
<path fill="none" stroke="#b6d856" stroke-width="2" stroke-dasharray="5,2" d="M1581.0602,-900C1581.0602,-900 1507.0602,-900 1507.0602,-900 1501.0602,-900 1495.0602,-894 1495.0602,-888 1495.0602,-888 1495.0602,-876 1495.0602,-876 1495.0602,-870 1501.0602,-864 1507.0602,-864 1507.0602,-864 1581.0602,-864 1581.0602,-864 1587.0602,-864 1593.0602,-870 1593.0602,-876 1593.0602,-876 1593.0602,-888 1593.0602,-888 1593.0602,-894 1587.0602,-900 1581.0602,-900"/>
<text text-anchor="middle" x="1544.0602" y="-885" font-family="sans" font-size="10.00" fill="#000000">download_fastq</text>
<text text-anchor="middle" x="1544.0602" y="-874" font-family="sans" font-size="10.00" fill="#000000">id: SRR660638_2</text>
</g>
<!-- 9 -->
<g id="node10" class="node">
<title>9</title>
<path fill="none" stroke="#97d856" stroke-width="2" stroke-dasharray="5,2" d="M1599.5602,-828C1599.5602,-828 1488.5602,-828 1488.5602,-828 1482.5602,-828 1476.5602,-822 1476.5602,-816 1476.5602,-816 1476.5602,-804 1476.5602,-804 1476.5602,-798 1482.5602,-792 1488.5602,-792 1488.5602,-792 1599.5602,-792 1599.5602,-792 1605.5602,-792 1611.5602,-798 1611.5602,-804 1611.5602,-804 1611.5602,-816 1611.5602,-816 1611.5602,-822 1605.5602,-828 1599.5602,-828"/>
<text text-anchor="middle" x="1544.0602" y="-813" font-family="sans" font-size="10.00" fill="#000000">aggregate_fastqs</text>
<text text-anchor="middle" x="1544.0602" y="-802" font-family="sans" font-size="10.00" fill="#000000">sampleID: SRS389760_2</text>
</g>
<!-- 6&#45;&gt;9 -->
<g id="edge17" class="edge">
<title>6&#45;&gt;9</title>
<path fill="none" stroke="#c0c0c0" stroke-width="2" d="M1544.0602,-863.8314C1544.0602,-856.131 1544.0602,-846.9743 1544.0602,-838.4166"/>
<polygon fill="#c0c0c0" stroke="#c0c0c0" stroke-width="2" points="1547.5603,-838.4132 1544.0602,-828.4133 1540.5603,-838.4133 1547.5603,-838.4132"/>
</g>
<!-- 7 -->
<g id="node8" class="node">
<title>7</title>
<path fill="none" stroke="#56a9d8" stroke-width="2" stroke-dasharray="5,2" d="M1101.0602,-468C1101.0602,-468 1001.0602,-468 1001.0602,-468 995.0602,-468 989.0602,-462 989.0602,-456 989.0602,-456 989.0602,-444 989.0602,-444 989.0602,-438 995.0602,-432 1001.0602,-432 1001.0602,-432 1101.0602,-432 1101.0602,-432 1107.0602,-432 1113.0602,-438 1113.0602,-444 1113.0602,-444 1113.0602,-456 1113.0602,-456 1113.0602,-462 1107.0602,-468 1101.0602,-468"/>
<text text-anchor="middle" x="1051.0602" y="-453" font-family="sans" font-size="10.00" fill="#000000">re_run_Salmon</text>
<text text-anchor="middle" x="1051.0602" y="-442" font-family="sans" font-size="10.00" fill="#000000">sampleID: SRS333370</text>
</g>
<!-- 20 -->
<g id="node21" class="node">
<title>20</title>
<path fill="none" stroke="#5673d8" stroke-width="2" stroke-dasharray="5,2" d="M1166.5602,-324C1166.5602,-324 981.5602,-324 981.5602,-324 975.5602,-324 969.5602,-318 969.5602,-312 969.5602,-312 969.5602,-300 969.5602,-300 969.5602,-294 975.5602,-288 981.5602,-288 981.5602,-288 1166.5602,-288 1166.5602,-288 1172.5602,-288 1178.5602,-294 1178.5602,-300 1178.5602,-300 1178.5602,-312 1178.5602,-312 1178.5602,-318 1172.5602,-324 1166.5602,-324"/>
<text text-anchor="middle" x="1074.0602" y="-309" font-family="sans" font-size="10.00" fill="#000000">gene_quantification_and_normalization</text>
<text text-anchor="middle" x="1074.0602" y="-298" font-family="sans" font-size="10.00" fill="#000000">level: gene</text>
</g>
<!-- 7&#45;&gt;20 -->
<g id="edge43" class="edge">
<title>7&#45;&gt;20</title>
<path fill="none" stroke="#c0c0c0" stroke-width="2" d="M1065.7354,-431.7088C1072.7648,-421.772 1080.4297,-408.9031 1084.0602,-396 1089.7554,-375.7589 1086.7699,-352.1013 1082.6197,-334.1223"/>
<polygon fill="#c0c0c0" stroke="#c0c0c0" stroke-width="2" points="1085.9666,-333.0827 1080.0985,-324.2614 1079.1848,-334.8168 1085.9666,-333.0827"/>
</g>
<!-- 30 -->
<g id="node31" class="node">
<title>30</title>
<path fill="none" stroke="#5673d8" stroke-width="2" stroke-dasharray="5,2" d="M892.5602,-324C892.5602,-324 707.5602,-324 707.5602,-324 701.5602,-324 695.5602,-318 695.5602,-312 695.5602,-312 695.5602,-300 695.5602,-300 695.5602,-294 701.5602,-288 707.5602,-288 707.5602,-288 892.5602,-288 892.5602,-288 898.5602,-288 904.5602,-294 904.5602,-300 904.5602,-300 904.5602,-312 904.5602,-312 904.5602,-318 898.5602,-324 892.5602,-324"/>
<text text-anchor="middle" x="800.0602" y="-309" font-family="sans" font-size="10.00" fill="#000000">gene_quantification_and_normalization</text>
<text text-anchor="middle" x="800.0602" y="-298" font-family="sans" font-size="10.00" fill="#000000">level: transcript</text>
</g>
<!-- 7&#45;&gt;30 -->
<g id="edge63" class="edge">
<title>7&#45;&gt;30</title>
<path fill="none" stroke="#c0c0c0" stroke-width="2" d="M1048.1229,-431.9842C1043.8275,-411.5153 1033.8368,-378.5535 1012.0602,-360 996.4028,-346.6599 956.0421,-334.9413 914.6857,-325.8602"/>
<polygon fill="#c0c0c0" stroke="#c0c0c0" stroke-width="2" points="915.2437,-322.4003 904.7323,-323.7275 913.777,-329.245 915.2437,-322.4003"/>
</g>
<!-- 33 -->
<g id="node34" class="node">
<title>33</title>
<path fill="none" stroke="#56d8d0" stroke-width="2" stroke-dasharray="5,2" d="M991.5602,-396C991.5602,-396 842.5602,-396 842.5602,-396 836.5602,-396 830.5602,-390 830.5602,-384 830.5602,-384 830.5602,-372 830.5602,-372 830.5602,-366 836.5602,-360 842.5602,-360 842.5602,-360 991.5602,-360 991.5602,-360 997.5602,-360 1003.5602,-366 1003.5602,-372 1003.5602,-372 1003.5602,-384 1003.5602,-384 1003.5602,-390 997.5602,-396 991.5602,-396"/>
<text text-anchor="middle" x="917.0602" y="-375.5" font-family="sans" font-size="10.00" fill="#000000">process_poor_mapped_samples</text>
</g>
<!-- 7&#45;&gt;33 -->
<g id="edge70" class="edge">
<title>7&#45;&gt;33</title>
<path fill="none" stroke="#c0c0c0" stroke-width="2" d="M1017.2463,-431.8314C999.7895,-422.4516 978.3115,-410.9112 959.725,-400.9244"/>
<polygon fill="#c0c0c0" stroke="#c0c0c0" stroke-width="2" points="961.3288,-397.8129 950.8632,-396.1628 958.0156,-403.9792 961.3288,-397.8129"/>
</g>
<!-- 8 -->
<g id="node9" class="node">
<title>8</title>
<path fill="none" stroke="#b6d856" stroke-width="2" stroke-dasharray="5,2" d="M289.0602,-900C289.0602,-900 215.0602,-900 215.0602,-900 209.0602,-900 203.0602,-894 203.0602,-888 203.0602,-888 203.0602,-876 203.0602,-876 203.0602,-870 209.0602,-864 215.0602,-864 215.0602,-864 289.0602,-864 289.0602,-864 295.0602,-864 301.0602,-870 301.0602,-876 301.0602,-876 301.0602,-888 301.0602,-888 301.0602,-894 295.0602,-900 289.0602,-900"/>
<text text-anchor="middle" x="252.0602" y="-885" font-family="sans" font-size="10.00" fill="#000000">download_fastq</text>
<text text-anchor="middle" x="252.0602" y="-874" font-family="sans" font-size="10.00" fill="#000000">id: SRR612935_1</text>
</g>
<!-- 32 -->
<g id="node33" class="node">
<title>32</title>
<path fill="none" stroke="#97d856" stroke-width="2" stroke-dasharray="5,2" d="M307.5602,-828C307.5602,-828 196.5602,-828 196.5602,-828 190.5602,-828 184.5602,-822 184.5602,-816 184.5602,-816 184.5602,-804 184.5602,-804 184.5602,-798 190.5602,-792 196.5602,-792 196.5602,-792 307.5602,-792 307.5602,-792 313.5602,-792 319.5602,-798 319.5602,-804 319.5602,-804 319.5602,-816 319.5602,-816 319.5602,-822 313.5602,-828 307.5602,-828"/>
<text text-anchor="middle" x="252.0602" y="-813" font-family="sans" font-size="10.00" fill="#000000">aggregate_fastqs</text>
<text text-anchor="middle" x="252.0602" y="-802" font-family="sans" font-size="10.00" fill="#000000">sampleID: SRS374785_1</text>
</g>
<!-- 8&#45;&gt;32 -->
<g id="edge66" class="edge">
<title>8&#45;&gt;32</title>
<path fill="none" stroke="#c0c0c0" stroke-width="2" d="M252.0602,-863.8314C252.0602,-856.131 252.0602,-846.9743 252.0602,-838.4166"/>
<polygon fill="#c0c0c0" stroke="#c0c0c0" stroke-width="2" points="255.5603,-838.4132 252.0602,-828.4133 248.5603,-838.4133 255.5603,-838.4132"/>
</g>
<!-- 9&#45;&gt;10 -->
<g id="edge19" class="edge">
<title>9&#45;&gt;10</title>
<path fill="none" stroke="#c0c0c0" stroke-width="2" d="M1520.5924,-791.8314C1509.0275,-782.8779 1494.9198,-771.9558 1482.4419,-762.2955"/>
<polygon fill="#c0c0c0" stroke="#c0c0c0" stroke-width="2" points="1484.5704,-759.5171 1474.5205,-756.1628 1480.2852,-765.0521 1484.5704,-759.5171"/>
</g>
<!-- 44 -->
<g id="node45" class="node">
<title>44</title>
<path fill="none" stroke="#56a9d8" stroke-width="2" stroke-dasharray="5,2" d="M1243.0602,-468C1243.0602,-468 1143.0602,-468 1143.0602,-468 1137.0602,-468 1131.0602,-462 1131.0602,-456 1131.0602,-456 1131.0602,-444 1131.0602,-444 1131.0602,-438 1137.0602,-432 1143.0602,-432 1143.0602,-432 1243.0602,-432 1243.0602,-432 1249.0602,-432 1255.0602,-438 1255.0602,-444 1255.0602,-444 1255.0602,-456 1255.0602,-456 1255.0602,-462 1249.0602,-468 1243.0602,-468"/>
<text text-anchor="middle" x="1193.0602" y="-453" font-family="sans" font-size="10.00" fill="#000000">re_run_Salmon</text>
<text text-anchor="middle" x="1193.0602" y="-442" font-family="sans" font-size="10.00" fill="#000000">sampleID: SRS389760</text>
</g>
<!-- 9&#45;&gt;44 -->
<g id="edge86" class="edge">
<title>9&#45;&gt;44</title>
<path fill="none" stroke="#c0c0c0" stroke-width="2" d="M1543.6458,-791.8157C1543.06,-764.5008 1542.0602,-711.2544 1542.0602,-666 1542.0602,-666 1542.0602,-666 1542.0602,-594 1542.0602,-534.6902 1367.6483,-487.2723 1265.4179,-464.5728"/>
<polygon fill="#c0c0c0" stroke="#c0c0c0" stroke-width="2" points="1265.972,-461.1112 1255.4544,-462.3878 1264.4725,-467.9487 1265.972,-461.1112"/>
</g>
<!-- 14 -->
<g id="node15" class="node">
<title>14</title>
<path fill="none" stroke="#61d856" stroke-width="2" stroke-dasharray="5,2" d="M1048.5602,-684C1048.5602,-684 965.5602,-684 965.5602,-684 959.5602,-684 953.5602,-678 953.5602,-672 953.5602,-672 953.5602,-660 953.5602,-660 953.5602,-654 959.5602,-648 965.5602,-648 965.5602,-648 1048.5602,-648 1048.5602,-648 1054.5602,-648 1060.5602,-654 1060.5602,-660 1060.5602,-660 1060.5602,-672 1060.5602,-672 1060.5602,-678 1054.5602,-684 1048.5602,-684"/>
<text text-anchor="middle" x="1007.0602" y="-663.5" font-family="sans" font-size="10.00" fill="#000000">find_tx_low_usage</text>
</g>
<!-- 10&#45;&gt;14 -->
<g id="edge25" class="edge">
<title>10&#45;&gt;14</title>
<path fill="none" stroke="#c0c0c0" stroke-width="2" d="M1388.8564,-727.9129C1304.8035,-714.2827 1155.7369,-690.1097 1070.8667,-676.347"/>
<polygon fill="#c0c0c0" stroke="#c0c0c0" stroke-width="2" points="1071.275,-672.8676 1060.8436,-674.7216 1070.1544,-679.7773 1071.275,-672.8676"/>
</g>
<!-- 11 -->
<g id="node12" class="node">
<title>11</title>
<path fill="none" stroke="#d8ac56" stroke-width="2" stroke-dasharray="5,2" d="M958.5602,-252C958.5602,-252 883.5602,-252 883.5602,-252 877.5602,-252 871.5602,-246 871.5602,-240 871.5602,-240 871.5602,-228 871.5602,-228 871.5602,-222 877.5602,-216 883.5602,-216 883.5602,-216 958.5602,-216 958.5602,-216 964.5602,-216 970.5602,-222 970.5602,-228 970.5602,-228 970.5602,-240 970.5602,-240 970.5602,-246 964.5602,-252 958.5602,-252"/>
<text text-anchor="middle" x="921.0602" y="-231.5" font-family="sans" font-size="10.00" fill="#000000">make_meta_info</text>
</g>
<!-- 11&#45;&gt;5 -->
<g id="edge10" class="edge">
<title>11&#45;&gt;5</title>
<path fill="none" stroke="#c0c0c0" stroke-width="2" d="M919.0689,-215.9041C917.6664,-197.3596 917.2297,-167.9326 925.0602,-144 928.2327,-134.3036 933.6647,-124.7108 939.361,-116.3615"/>
<polygon fill="#c0c0c0" stroke="#c0c0c0" stroke-width="2" points="942.2723,-118.3087 945.309,-108.1584 936.6053,-114.1995 942.2723,-118.3087"/>
</g>
<!-- 27 -->
<g id="node28" class="node">
<title>27</title>
<path fill="none" stroke="#80d856" stroke-width="2" stroke-dasharray="5,2" d="M865.5602,-180C865.5602,-180 734.5602,-180 734.5602,-180 728.5602,-180 722.5602,-174 722.5602,-168 722.5602,-168 722.5602,-156 722.5602,-156 722.5602,-150 728.5602,-144 734.5602,-144 734.5602,-144 865.5602,-144 865.5602,-144 871.5602,-144 877.5602,-150 877.5602,-156 877.5602,-156 877.5602,-168 877.5602,-168 877.5602,-174 871.5602,-180 865.5602,-180"/>
<text text-anchor="middle" x="800.0602" y="-159.5" font-family="sans" font-size="10.00" fill="#000000">calculate_mean_rank_decile</text>
</g>
<!-- 11&#45;&gt;27 -->
<g id="edge51" class="edge">
<title>11&#45;&gt;27</title>
<path fill="none" stroke="#c0c0c0" stroke-width="2" d="M890.5268,-215.8314C875.0501,-206.6221 856.0733,-195.3301 839.5039,-185.4706"/>
<polygon fill="#c0c0c0" stroke="#c0c0c0" stroke-width="2" points="840.9673,-182.2687 830.5838,-180.1628 837.3878,-188.2843 840.9673,-182.2687"/>
</g>
<!-- 29 -->
<g id="node30" class="node">
<title>29</title>
<path fill="none" stroke="#80d856" stroke-width="2" stroke-dasharray="5,2" d="M1149.5602,-180C1149.5602,-180 1018.5602,-180 1018.5602,-180 1012.5602,-180 1006.5602,-174 1006.5602,-168 1006.5602,-168 1006.5602,-156 1006.5602,-156 1006.5602,-150 1012.5602,-144 1018.5602,-144 1018.5602,-144 1149.5602,-144 1149.5602,-144 1155.5602,-144 1161.5602,-150 1161.5602,-156 1161.5602,-156 1161.5602,-168 1161.5602,-168 1161.5602,-174 1155.5602,-180 1149.5602,-180"/>
<text text-anchor="middle" x="1084.0602" y="-159.5" font-family="sans" font-size="10.00" fill="#000000">calculate_mean_rank_decile</text>
</g>
<!-- 11&#45;&gt;29 -->
<g id="edge55" class="edge">
<title>11&#45;&gt;29</title>
<path fill="none" stroke="#c0c0c0" stroke-width="2" d="M962.192,-215.8314C983.9923,-206.2018 1010.948,-194.295 1033.9606,-184.1299"/>
<polygon fill="#c0c0c0" stroke="#c0c0c0" stroke-width="2" points="1035.491,-187.2802 1043.2242,-180.038 1032.6626,-180.877 1035.491,-187.2802"/>
</g>
<!-- 31 -->
<g id="node32" class="node">
<title>31</title>
<path fill="none" stroke="#56d89a" stroke-width="2" stroke-dasharray="5,2" d="M976.0602,-180C976.0602,-180 946.0602,-180 946.0602,-180 940.0602,-180 934.0602,-174 934.0602,-168 934.0602,-168 934.0602,-156 934.0602,-156 934.0602,-150 940.0602,-144 946.0602,-144 946.0602,-144 976.0602,-144 976.0602,-144 982.0602,-144 988.0602,-150 988.0602,-156 988.0602,-156 988.0602,-168 988.0602,-168 988.0602,-174 982.0602,-180 976.0602,-180"/>
<text text-anchor="middle" x="961.0602" y="-159.5" font-family="sans" font-size="10.00" fill="#000000">tSNE</text>
</g>
<!-- 11&#45;&gt;31 -->
<g id="edge64" class="edge">
<title>11&#45;&gt;31</title>
<path fill="none" stroke="#c0c0c0" stroke-width="2" d="M931.1539,-215.8314C935.6199,-207.7925 940.9677,-198.1666 945.8981,-189.2918"/>
<polygon fill="#c0c0c0" stroke="#c0c0c0" stroke-width="2" points="949.0337,-190.8546 950.8306,-180.4133 942.9146,-187.4551 949.0337,-190.8546"/>
</g>
<!-- 12 -->
<g id="node13" class="node">
<title>12</title>
<path fill="none" stroke="#97d856" stroke-width="2" stroke-dasharray="5,2" d="M931.5602,-828C931.5602,-828 820.5602,-828 820.5602,-828 814.5602,-828 808.5602,-822 808.5602,-816 808.5602,-816 808.5602,-804 808.5602,-804 808.5602,-798 814.5602,-792 820.5602,-792 820.5602,-792 931.5602,-792 931.5602,-792 937.5602,-792 943.5602,-798 943.5602,-804 943.5602,-804 943.5602,-816 943.5602,-816 943.5602,-822 937.5602,-828 931.5602,-828"/>
<text text-anchor="middle" x="876.0602" y="-813" font-family="sans" font-size="10.00" fill="#000000">aggregate_fastqs</text>
<text text-anchor="middle" x="876.0602" y="-802" font-family="sans" font-size="10.00" fill="#000000">sampleID: SRS638559_1</text>
</g>
<!-- 19 -->
<g id="node20" class="node">
<title>19</title>
<path fill="none" stroke="#56a9d8" stroke-width="2" stroke-dasharray="5,2" d="M959.0602,-468C959.0602,-468 859.0602,-468 859.0602,-468 853.0602,-468 847.0602,-462 847.0602,-456 847.0602,-456 847.0602,-444 847.0602,-444 847.0602,-438 853.0602,-432 859.0602,-432 859.0602,-432 959.0602,-432 959.0602,-432 965.0602,-432 971.0602,-438 971.0602,-444 971.0602,-444 971.0602,-456 971.0602,-456 971.0602,-462 965.0602,-468 959.0602,-468"/>
<text text-anchor="middle" x="909.0602" y="-453" font-family="sans" font-size="10.00" fill="#000000">re_run_Salmon</text>
<text text-anchor="middle" x="909.0602" y="-442" font-family="sans" font-size="10.00" fill="#000000">sampleID: SRS638559</text>
</g>
<!-- 12&#45;&gt;19 -->
<g id="edge35" class="edge">
<title>12&#45;&gt;19</title>
<path fill="none" stroke="#c0c0c0" stroke-width="2" d="M883.0587,-791.6679C892.7455,-764.6028 909.0602,-712.1665 909.0602,-666 909.0602,-666 909.0602,-666 909.0602,-594 909.0602,-553.876 909.0602,-507.4631 909.0602,-478.4177"/>
<polygon fill="#c0c0c0" stroke="#c0c0c0" stroke-width="2" points="912.5603,-478.1853 909.0602,-468.1854 905.5603,-478.1854 912.5603,-478.1853"/>
</g>
<!-- 12&#45;&gt;38 -->
<g id="edge79" class="edge">
<title>12&#45;&gt;38</title>
<path fill="none" stroke="#c0c0c0" stroke-width="2" d="M909.117,-791.8314C926.0279,-782.5368 946.7987,-771.1208 964.8543,-761.1971"/>
<polygon fill="#c0c0c0" stroke="#c0c0c0" stroke-width="2" points="966.9362,-764.0468 974.0139,-756.1628 963.5645,-757.9122 966.9362,-764.0468"/>
</g>
<!-- 13 -->
<g id="node14" class="node">
<title>13</title>
<path fill="none" stroke="#97d856" stroke-width="2" stroke-dasharray="5,2" d="M1293.5602,-828C1293.5602,-828 1182.5602,-828 1182.5602,-828 1176.5602,-828 1170.5602,-822 1170.5602,-816 1170.5602,-816 1170.5602,-804 1170.5602,-804 1170.5602,-798 1176.5602,-792 1182.5602,-792 1182.5602,-792 1293.5602,-792 1293.5602,-792 1299.5602,-792 1305.5602,-798 1305.5602,-804 1305.5602,-804 1305.5602,-816 1305.5602,-816 1305.5602,-822 1299.5602,-828 1293.5602,-828"/>
<text text-anchor="middle" x="1238.0602" y="-813" font-family="sans" font-size="10.00" fill="#000000">aggregate_fastqs</text>
<text text-anchor="middle" x="1238.0602" y="-802" font-family="sans" font-size="10.00" fill="#000000">sampleID: SRS333370_2</text>
</g>
<!-- 13&#45;&gt;7 -->
<g id="edge14" class="edge">
<title>13&#45;&gt;7</title>
<path fill="none" stroke="#c0c0c0" stroke-width="2" d="M1267.8967,-791.8066C1280.5864,-782.5955 1294.421,-770.3208 1303.0602,-756 1324.1775,-720.9948 1322.0602,-706.8816 1322.0602,-666 1322.0602,-666 1322.0602,-666 1322.0602,-594 1322.0602,-548.0506 1199.0309,-498.6475 1118.7622,-471.305"/>
<polygon fill="#c0c0c0" stroke="#c0c0c0" stroke-width="2" points="1119.7906,-467.9582 1109.1965,-468.0816 1117.5553,-474.5917 1119.7906,-467.9582"/>
</g>
<!-- 13&#45;&gt;28 -->
<g id="edge53" class="edge">
<title>13&#45;&gt;28</title>
<path fill="none" stroke="#c0c0c0" stroke-width="2" d="M1236.5461,-791.8314C1235.9044,-784.131 1235.1414,-774.9743 1234.4283,-766.4166"/>
<polygon fill="#c0c0c0" stroke="#c0c0c0" stroke-width="2" points="1237.9131,-766.088 1233.5946,-756.4133 1230.9373,-766.6694 1237.9131,-766.088"/>
</g>
<!-- 45 -->
<g id="node46" class="node">
<title>45</title>
<path fill="none" stroke="#568ad8" stroke-width="2" stroke-dasharray="5,2" d="M1058.0602,-612C1058.0602,-612 956.0602,-612 956.0602,-612 950.0602,-612 944.0602,-606 944.0602,-600 944.0602,-600 944.0602,-588 944.0602,-588 944.0602,-582 950.0602,-576 956.0602,-576 956.0602,-576 1058.0602,-576 1058.0602,-576 1064.0602,-576 1070.0602,-582 1070.0602,-588 1070.0602,-588 1070.0602,-600 1070.0602,-600 1070.0602,-606 1064.0602,-612 1058.0602,-612"/>
<text text-anchor="middle" x="1007.0602" y="-591.5" font-family="sans" font-size="10.00" fill="#000000">remove_tx_low_usage</text>
</g>
<!-- 14&#45;&gt;45 -->
<g id="edge90" class="edge">
<title>14&#45;&gt;45</title>
<path fill="none" stroke="#c0c0c0" stroke-width="2" d="M1007.0602,-647.8314C1007.0602,-640.131 1007.0602,-630.9743 1007.0602,-622.4166"/>
<polygon fill="#c0c0c0" stroke="#c0c0c0" stroke-width="2" points="1010.5603,-622.4132 1007.0602,-612.4133 1003.5603,-622.4133 1010.5603,-622.4132"/>
</g>
<!-- 15 -->
<g id="node16" class="node">
<title>15</title>
<path fill="none" stroke="#b6d856" stroke-width="2" stroke-dasharray="5,2" d="M916.0602,-900C916.0602,-900 836.0602,-900 836.0602,-900 830.0602,-900 824.0602,-894 824.0602,-888 824.0602,-888 824.0602,-876 824.0602,-876 824.0602,-870 830.0602,-864 836.0602,-864 836.0602,-864 916.0602,-864 916.0602,-864 922.0602,-864 928.0602,-870 928.0602,-876 928.0602,-876 928.0602,-888 928.0602,-888 928.0602,-894 922.0602,-900 916.0602,-900"/>
<text text-anchor="middle" x="876.0602" y="-885" font-family="sans" font-size="10.00" fill="#000000">download_fastq</text>
<text text-anchor="middle" x="876.0602" y="-874" font-family="sans" font-size="10.00" fill="#000000">id: SRR1410783_1</text>
</g>
<!-- 15&#45;&gt;12 -->
<g id="edge23" class="edge">
<title>15&#45;&gt;12</title>
<path fill="none" stroke="#c0c0c0" stroke-width="2" d="M876.0602,-863.8314C876.0602,-856.131 876.0602,-846.9743 876.0602,-838.4166"/>
<polygon fill="#c0c0c0" stroke="#c0c0c0" stroke-width="2" points="879.5603,-838.4132 876.0602,-828.4133 872.5603,-838.4133 879.5603,-838.4132"/>
</g>
<!-- 16&#45;&gt;14 -->
<g id="edge30" class="edge">
<title>16&#45;&gt;14</title>
<path fill="none" stroke="#c0c0c0" stroke-width="2" d="M864.2576,-719.8314C890.2568,-710.0306 922.5138,-697.8709 949.7883,-687.5894"/>
<polygon fill="#c0c0c0" stroke="#c0c0c0" stroke-width="2" points="951.0868,-690.8404 959.2094,-684.038 948.6176,-684.2904 951.0868,-690.8404"/>
</g>
<!-- 17 -->
<g id="node18" class="node">
<title>17</title>
<path fill="none" stroke="#b6d856" stroke-width="2" stroke-dasharray="5,2" d="M1275.0602,-900C1275.0602,-900 1201.0602,-900 1201.0602,-900 1195.0602,-900 1189.0602,-894 1189.0602,-888 1189.0602,-888 1189.0602,-876 1189.0602,-876 1189.0602,-870 1195.0602,-864 1201.0602,-864 1201.0602,-864 1275.0602,-864 1275.0602,-864 1281.0602,-864 1287.0602,-870 1287.0602,-876 1287.0602,-876 1287.0602,-888 1287.0602,-888 1287.0602,-894 1281.0602,-900 1275.0602,-900"/>
<text text-anchor="middle" x="1238.0602" y="-885" font-family="sans" font-size="10.00" fill="#000000">download_fastq</text>
<text text-anchor="middle" x="1238.0602" y="-874" font-family="sans" font-size="10.00" fill="#000000">id: SRR603566_2</text>
</g>
<!-- 17&#45;&gt;13 -->
<g id="edge24" class="edge">
<title>17&#45;&gt;13</title>
<path fill="none" stroke="#c0c0c0" stroke-width="2" d="M1238.0602,-863.8314C1238.0602,-856.131 1238.0602,-846.9743 1238.0602,-838.4166"/>
<polygon fill="#c0c0c0" stroke="#c0c0c0" stroke-width="2" points="1241.5603,-838.4132 1238.0602,-828.4133 1234.5603,-838.4133 1241.5603,-838.4132"/>
</g>
<!-- 18 -->
<g id="node19" class="node">
<title>18</title>
<path fill="none" stroke="#b6d856" stroke-width="2" stroke-dasharray="5,2" d="M763.0602,-900C763.0602,-900 683.0602,-900 683.0602,-900 677.0602,-900 671.0602,-894 671.0602,-888 671.0602,-888 671.0602,-876 671.0602,-876 671.0602,-870 677.0602,-864 683.0602,-864 683.0602,-864 763.0602,-864 763.0602,-864 769.0602,-864 775.0602,-870 775.0602,-876 775.0602,-876 775.0602,-888 775.0602,-888 775.0602,-894 769.0602,-900 763.0602,-900"/>
<text text-anchor="middle" x="723.0602" y="-885" font-family="sans" font-size="10.00" fill="#000000">download_fastq</text>
<text text-anchor="middle" x="723.0602" y="-874" font-family="sans" font-size="10.00" fill="#000000">id: SRR1410783_2</text>
</g>
<!-- 39 -->
<g id="node40" class="node">
<title>39</title>
<path fill="none" stroke="#97d856" stroke-width="2" stroke-dasharray="5,2" d="M778.5602,-828C778.5602,-828 667.5602,-828 667.5602,-828 661.5602,-828 655.5602,-822 655.5602,-816 655.5602,-816 655.5602,-804 655.5602,-804 655.5602,-798 661.5602,-792 667.5602,-792 667.5602,-792 778.5602,-792 778.5602,-792 784.5602,-792 790.5602,-798 790.5602,-804 790.5602,-804 790.5602,-816 790.5602,-816 790.5602,-822 784.5602,-828 778.5602,-828"/>
<text text-anchor="middle" x="723.0602" y="-813" font-family="sans" font-size="10.00" fill="#000000">aggregate_fastqs</text>
<text text-anchor="middle" x="723.0602" y="-802" font-family="sans" font-size="10.00" fill="#000000">sampleID: SRS638559_2</text>
</g>
<!-- 18&#45;&gt;39 -->
<g id="edge80" class="edge">
<title>18&#45;&gt;39</title>
<path fill="none" stroke="#c0c0c0" stroke-width="2" d="M723.0602,-863.8314C723.0602,-856.131 723.0602,-846.9743 723.0602,-838.4166"/>
<polygon fill="#c0c0c0" stroke="#c0c0c0" stroke-width="2" points="726.5603,-838.4132 723.0602,-828.4133 719.5603,-838.4133 726.5603,-838.4132"/>
</g>
<!-- 19&#45;&gt;20 -->
<g id="edge38" class="edge">
<title>19&#45;&gt;20</title>
<path fill="none" stroke="#c0c0c0" stroke-width="2" d="M954.6178,-431.96C973.6967,-422.992 995.2886,-410.8655 1012.0602,-396 1032.194,-378.1545 1049.0453,-352.4661 1060.0734,-333.0981"/>
<polygon fill="#c0c0c0" stroke="#c0c0c0" stroke-width="2" points="1063.2389,-334.606 1065.0083,-324.16 1057.1109,-331.2226 1063.2389,-334.606"/>
</g>
<!-- 19&#45;&gt;30 -->
<g id="edge58" class="edge">
<title>19&#45;&gt;30</title>
<path fill="none" stroke="#c0c0c0" stroke-width="2" d="M865.2755,-431.98C849.1722,-423.3175 832.1745,-411.4106 821.0602,-396 808.1333,-378.0761 803.0375,-353.3869 801.0881,-334.4006"/>
<polygon fill="#c0c0c0" stroke="#c0c0c0" stroke-width="2" points="804.5626,-333.9395 800.2836,-324.2472 797.5845,-334.4925 804.5626,-333.9395"/>
</g>
<!-- 19&#45;&gt;33 -->
<g id="edge68" class="edge">
<title>19&#45;&gt;33</title>
<path fill="none" stroke="#c0c0c0" stroke-width="2" d="M911.0789,-431.8314C911.9345,-424.131 912.9519,-414.9743 913.9028,-406.4166"/>
<polygon fill="#c0c0c0" stroke="#c0c0c0" stroke-width="2" points="917.3885,-406.7386 915.0143,-396.4133 910.4313,-405.9656 917.3885,-406.7386"/>
</g>
<!-- 20&#45;&gt;1 -->
<g id="edge2" class="edge">
<title>20&#45;&gt;1</title>
<path fill="none" stroke="#c0c0c0" stroke-width="2" d="M1126.2789,-287.9243C1154.8373,-278.0387 1190.3897,-265.7321 1220.317,-255.3726"/>
<polygon fill="#c0c0c0" stroke="#c0c0c0" stroke-width="2" points="1221.5151,-258.6618 1229.82,-252.0831 1219.2252,-252.0469 1221.5151,-258.6618"/>
</g>
<!-- 20&#45;&gt;5 -->
<g id="edge13" class="edge">
<title>20&#45;&gt;5</title>
<path fill="none" stroke="#c0c0c0" stroke-width="2" d="M1099.064,-287.8203C1138.648,-256.8392 1207.5936,-192.4636 1170.0602,-144 1151.8061,-120.4301 1075.5186,-105.2999 1020.3806,-97.2227"/>
<polygon fill="#c0c0c0" stroke="#c0c0c0" stroke-width="2" points="1020.7432,-93.7392 1010.35,-95.7962 1019.7575,-100.6694 1020.7432,-93.7392"/>
</g>
<!-- 20&#45;&gt;11 -->
<g id="edge22" class="edge">
<title>20&#45;&gt;11</title>
<path fill="none" stroke="#c0c0c0" stroke-width="2" d="M1035.4518,-287.8314C1015.1709,-278.2874 990.1364,-266.5065 968.6631,-256.4013"/>
<polygon fill="#c0c0c0" stroke="#c0c0c0" stroke-width="2" points="969.9294,-253.1291 959.3909,-252.038 966.9488,-259.4629 969.9294,-253.1291"/>
</g>
<!-- 20&#45;&gt;29 -->
<g id="edge56" class="edge">
<title>20&#45;&gt;29</title>
<path fill="none" stroke="#c0c0c0" stroke-width="2" d="M1075.3267,-287.7623C1077.0324,-263.201 1080.0847,-219.2474 1082.0912,-190.3541"/>
<polygon fill="#c0c0c0" stroke="#c0c0c0" stroke-width="2" points="1085.6027,-190.3081 1082.804,-180.0896 1078.6195,-189.8231 1085.6027,-190.3081"/>
</g>
<!-- 20&#45;&gt;31 -->
<g id="edge65" class="edge">
<title>20&#45;&gt;31</title>
<path fill="none" stroke="#c0c0c0" stroke-width="2" d="M1059.7487,-287.7623C1039.9655,-262.5518 1004.1495,-216.9103 981.5376,-188.0952"/>
<polygon fill="#c0c0c0" stroke="#c0c0c0" stroke-width="2" points="984.1824,-185.7959 975.2555,-180.0896 978.6755,-190.1173 984.1824,-185.7959"/>
</g>
<!-- 21 -->
<g id="node22" class="node">
<title>21</title>
<path fill="none" stroke="#b6d856" stroke-width="2" stroke-dasharray="5,2" d="M607.0602,-900C607.0602,-900 527.0602,-900 527.0602,-900 521.0602,-900 515.0602,-894 515.0602,-888 515.0602,-888 515.0602,-876 515.0602,-876 515.0602,-870 521.0602,-864 527.0602,-864 527.0602,-864 607.0602,-864 607.0602,-864 613.0602,-864 619.0602,-870 619.0602,-876 619.0602,-876 619.0602,-888 619.0602,-888 619.0602,-894 613.0602,-900 607.0602,-900"/>
<text text-anchor="middle" x="567.0602" y="-885" font-family="sans" font-size="10.00" fill="#000000">download_fastq</text>
<text text-anchor="middle" x="567.0602" y="-874" font-family="sans" font-size="10.00" fill="#000000">id: SRR3170191_1</text>
</g>
<!-- 40 -->
<g id="node41" class="node">
<title>40</title>
<path fill="none" stroke="#97d856" stroke-width="2" stroke-dasharray="5,2" d="M625.5602,-828C625.5602,-828 508.5602,-828 508.5602,-828 502.5602,-828 496.5602,-822 496.5602,-816 496.5602,-816 496.5602,-804 496.5602,-804 496.5602,-798 502.5602,-792 508.5602,-792 508.5602,-792 625.5602,-792 625.5602,-792 631.5602,-792 637.5602,-798 637.5602,-804 637.5602,-804 637.5602,-816 637.5602,-816 637.5602,-822 631.5602,-828 625.5602,-828"/>
<text text-anchor="middle" x="567.0602" y="-813" font-family="sans" font-size="10.00" fill="#000000">aggregate_fastqs</text>
<text text-anchor="middle" x="567.0602" y="-802" font-family="sans" font-size="10.00" fill="#000000">sampleID: SRS1305249_1</text>
</g>
<!-- 21&#45;&gt;40 -->
<g id="edge81" class="edge">
<title>21&#45;&gt;40</title>
<path fill="none" stroke="#c0c0c0" stroke-width="2" d="M567.0602,-863.8314C567.0602,-856.131 567.0602,-846.9743 567.0602,-838.4166"/>
<polygon fill="#c0c0c0" stroke="#c0c0c0" stroke-width="2" points="570.5603,-838.4132 567.0602,-828.4133 563.5603,-838.4133 570.5603,-838.4132"/>
</g>
<!-- 22&#45;&gt;14 -->
<g id="edge27" class="edge">
<title>22&#45;&gt;14</title>
<path fill="none" stroke="#c0c0c0" stroke-width="2" d="M525.1989,-729.7758C629.3412,-715.9922 838.0268,-688.3721 943.2657,-674.4434"/>
<polygon fill="#c0c0c0" stroke="#c0c0c0" stroke-width="2" points="943.9729,-677.8804 953.4272,-673.0985 943.0544,-670.9409 943.9729,-677.8804"/>
</g>
<!-- 23 -->
<g id="node24" class="node">
<title>23</title>
<path fill="none" stroke="#97d856" stroke-width="2" stroke-dasharray="5,2" d="M1752.5602,-828C1752.5602,-828 1641.5602,-828 1641.5602,-828 1635.5602,-828 1629.5602,-822 1629.5602,-816 1629.5602,-816 1629.5602,-804 1629.5602,-804 1629.5602,-798 1635.5602,-792 1641.5602,-792 1641.5602,-792 1752.5602,-792 1752.5602,-792 1758.5602,-792 1764.5602,-798 1764.5602,-804 1764.5602,-804 1764.5602,-816 1764.5602,-816 1764.5602,-822 1758.5602,-828 1752.5602,-828"/>
<text text-anchor="middle" x="1697.0602" y="-813" font-family="sans" font-size="10.00" fill="#000000">aggregate_fastqs</text>
<text text-anchor="middle" x="1697.0602" y="-802" font-family="sans" font-size="10.00" fill="#000000">sampleID: SRS389760_1</text>
</g>
<!-- 23&#45;&gt;10 -->
<g id="edge20" class="edge">
<title>23&#45;&gt;10</title>
<path fill="none" stroke="#c0c0c0" stroke-width="2" d="M1635.3015,-791.9243C1601.087,-781.9103 1558.3846,-769.412 1522.7078,-758.97"/>
<polygon fill="#c0c0c0" stroke="#c0c0c0" stroke-width="2" points="1523.4248,-755.5331 1512.8443,-756.0831 1521.4585,-762.2513 1523.4248,-755.5331"/>
</g>
<!-- 23&#45;&gt;44 -->
<g id="edge87" class="edge">
<title>23&#45;&gt;44</title>
<path fill="none" stroke="#c0c0c0" stroke-width="2" d="M1684.4751,-791.8478C1667.4168,-765.4241 1639.0602,-714.2435 1639.0602,-666 1639.0602,-666 1639.0602,-666 1639.0602,-594 1639.0602,-516.3634 1391.2281,-474.4558 1265.0507,-458.1506"/>
<polygon fill="#c0c0c0" stroke="#c0c0c0" stroke-width="2" points="1265.4362,-454.6715 1255.0746,-456.882 1264.5532,-461.6156 1265.4362,-454.6715"/>
</g>
<!-- 24 -->
<g id="node25" class="node">
<title>24</title>
<path fill="none" stroke="#56d8b9" stroke-width="2" stroke-dasharray="5,2" d="M1053.0602,-540C1053.0602,-540 953.0602,-540 953.0602,-540 947.0602,-540 941.0602,-534 941.0602,-528 941.0602,-528 941.0602,-516 941.0602,-516 941.0602,-510 947.0602,-504 953.0602,-504 953.0602,-504 1053.0602,-504 1053.0602,-504 1059.0602,-504 1065.0602,-510 1065.0602,-516 1065.0602,-516 1065.0602,-528 1065.0602,-528 1065.0602,-534 1059.0602,-540 1053.0602,-540"/>
<text text-anchor="middle" x="1003.0602" y="-519.5" font-family="sans" font-size="10.00" fill="#000000">rebuild_salmon_index</text>
</g>
<!-- 24&#45;&gt;7 -->
<g id="edge16" class="edge">
<title>24&#45;&gt;7</title>
<path fill="none" stroke="#c0c0c0" stroke-width="2" d="M1015.1726,-503.8314C1020.5883,-495.7079 1027.0844,-485.9637 1033.0523,-477.0118"/>
<polygon fill="#c0c0c0" stroke="#c0c0c0" stroke-width="2" points="1036.1498,-478.6753 1038.7847,-468.4133 1030.3255,-474.7923 1036.1498,-478.6753"/>
</g>
<!-- 24&#45;&gt;19 -->
<g id="edge36" class="edge">
<title>24&#45;&gt;19</title>
<path fill="none" stroke="#c0c0c0" stroke-width="2" d="M979.34,-503.8314C967.6508,-494.8779 953.3914,-483.9558 940.7793,-474.2955"/>
<polygon fill="#c0c0c0" stroke="#c0c0c0" stroke-width="2" points="942.8399,-471.4651 932.7728,-468.1628 938.5833,-477.0222 942.8399,-471.4651"/>
</g>
<!-- 36 -->
<g id="node37" class="node">
<title>36</title>
<path fill="none" stroke="#56a9d8" stroke-width="2" stroke-dasharray="5,2" d="M669.0602,-468C669.0602,-468 569.0602,-468 569.0602,-468 563.0602,-468 557.0602,-462 557.0602,-456 557.0602,-456 557.0602,-444 557.0602,-444 557.0602,-438 563.0602,-432 569.0602,-432 569.0602,-432 669.0602,-432 669.0602,-432 675.0602,-432 681.0602,-438 681.0602,-444 681.0602,-444 681.0602,-456 681.0602,-456 681.0602,-462 675.0602,-468 669.0602,-468"/>
<text text-anchor="middle" x="619.0602" y="-453" font-family="sans" font-size="10.00" fill="#000000">re_run_Salmon</text>
<text text-anchor="middle" x="619.0602" y="-442" font-family="sans" font-size="10.00" fill="#000000">sampleID: SRS374785</text>
</g>
<!-- 24&#45;&gt;36 -->
<g id="edge75" class="edge">
<title>24&#45;&gt;36</title>
<path fill="none" stroke="#c0c0c0" stroke-width="2" d="M941.0254,-512.7491C879.8444,-503.2974 783.4922,-487.5356 691.1242,-468.1498"/>
<polygon fill="#c0c0c0" stroke="#c0c0c0" stroke-width="2" points="691.8424,-464.7243 681.3344,-466.0781 690.3931,-471.5727 691.8424,-464.7243"/>
</g>
<!-- 41 -->
<g id="node42" class="node">
<title>41</title>
<path fill="none" stroke="#56a9d8" stroke-width="2" stroke-dasharray="5,2" d="M817.0602,-468C817.0602,-468 711.0602,-468 711.0602,-468 705.0602,-468 699.0602,-462 699.0602,-456 699.0602,-456 699.0602,-444 699.0602,-444 699.0602,-438 705.0602,-432 711.0602,-432 711.0602,-432 817.0602,-432 817.0602,-432 823.0602,-432 829.0602,-438 829.0602,-444 829.0602,-444 829.0602,-456 829.0602,-456 829.0602,-462 823.0602,-468 817.0602,-468"/>
<text text-anchor="middle" x="764.0602" y="-453" font-family="sans" font-size="10.00" fill="#000000">re_run_Salmon</text>
<text text-anchor="middle" x="764.0602" y="-442" font-family="sans" font-size="10.00" fill="#000000">sampleID: SRS1305249</text>
</g>
<!-- 24&#45;&gt;41 -->
<g id="edge84" class="edge">
<title>24&#45;&gt;41</title>
<path fill="none" stroke="#c0c0c0" stroke-width="2" d="M943.0589,-503.9243C909.818,-493.9103 868.3307,-481.412 833.669,-470.97"/>
<polygon fill="#c0c0c0" stroke="#c0c0c0" stroke-width="2" points="834.6707,-467.6165 824.0862,-468.0831 832.6515,-474.3189 834.6707,-467.6165"/>
</g>
<!-- 24&#45;&gt;44 -->
<g id="edge88" class="edge">
<title>24&#45;&gt;44</title>
<path fill="none" stroke="#c0c0c0" stroke-width="2" d="M1051.0052,-503.8314C1076.8684,-494.0306 1108.9564,-481.8709 1136.0882,-471.5894"/>
<polygon fill="#c0c0c0" stroke="#c0c0c0" stroke-width="2" points="1137.3491,-474.8545 1145.4599,-468.038 1134.8686,-468.3087 1137.3491,-474.8545"/>
</g>
<!-- 25 -->
<g id="node26" class="node">
<title>25</title>
<path fill="none" stroke="#97d856" stroke-width="2" stroke-dasharray="5,2" d="M1446.5602,-828C1446.5602,-828 1335.5602,-828 1335.5602,-828 1329.5602,-828 1323.5602,-822 1323.5602,-816 1323.5602,-816 1323.5602,-804 1323.5602,-804 1323.5602,-798 1329.5602,-792 1335.5602,-792 1335.5602,-792 1446.5602,-792 1446.5602,-792 1452.5602,-792 1458.5602,-798 1458.5602,-804 1458.5602,-804 1458.5602,-816 1458.5602,-816 1458.5602,-822 1452.5602,-828 1446.5602,-828"/>
<text text-anchor="middle" x="1391.0602" y="-813" font-family="sans" font-size="10.00" fill="#000000">aggregate_fastqs</text>
<text text-anchor="middle" x="1391.0602" y="-802" font-family="sans" font-size="10.00" fill="#000000">sampleID: SRS333370_1</text>
</g>
<!-- 25&#45;&gt;7 -->
<g id="edge15" class="edge">
<title>25&#45;&gt;7</title>
<path fill="none" stroke="#c0c0c0" stroke-width="2" d="M1384.4859,-791.6321C1375.3861,-764.5223 1360.0602,-712.0309 1360.0602,-666 1360.0602,-666 1360.0602,-666 1360.0602,-594 1360.0602,-532.5364 1309.4728,-532.5841 1255.0602,-504 1248.9505,-500.7904 1179.3395,-482.6464 1123.1081,-468.2633"/>
<polygon fill="#c0c0c0" stroke="#c0c0c0" stroke-width="2" points="1123.696,-464.8012 1113.1408,-465.7173 1121.9635,-471.5834 1123.696,-464.8012"/>
</g>
<!-- 25&#45;&gt;28 -->
<g id="edge54" class="edge">
<title>25&#45;&gt;28</title>
<path fill="none" stroke="#c0c0c0" stroke-width="2" d="M1350.9378,-791.8314C1329.767,-782.2446 1303.6119,-770.4008 1281.2299,-760.2655"/>
<polygon fill="#c0c0c0" stroke="#c0c0c0" stroke-width="2" points="1282.4474,-756.9748 1271.8941,-756.038 1279.5599,-763.3515 1282.4474,-756.9748"/>
</g>
<!-- 26 -->
<g id="node27" class="node">
<title>26</title>
<path fill="none" stroke="#d87556" stroke-width="2" stroke-dasharray="5,2" d="M1145.5602,-900C1145.5602,-900 1062.5602,-900 1062.5602,-900 1056.5602,-900 1050.5602,-894 1050.5602,-888 1050.5602,-888 1050.5602,-876 1050.5602,-876 1050.5602,-870 1056.5602,-864 1062.5602,-864 1062.5602,-864 1145.5602,-864 1145.5602,-864 1151.5602,-864 1157.5602,-870 1157.5602,-876 1157.5602,-876 1157.5602,-888 1157.5602,-888 1157.5602,-894 1151.5602,-900 1145.5602,-900"/>
<text text-anchor="middle" x="1104.0602" y="-879.5" font-family="sans" font-size="10.00" fill="#000000">downloadGencode</text>
</g>
<!-- 26&#45;&gt;0 -->
<g id="edge1" class="edge">
<title>26&#45;&gt;0</title>
<path fill="none" stroke="#c0c0c0" stroke-width="2" d="M1082.6111,-863.8314C1072.2424,-855.0485 1059.6373,-844.3712 1048.3956,-834.8489"/>
<polygon fill="#c0c0c0" stroke="#c0c0c0" stroke-width="2" points="1050.3951,-831.9556 1040.5024,-828.1628 1045.8707,-837.297 1050.3951,-831.9556"/>
</g>
<!-- 26&#45;&gt;14 -->
<g id="edge26" class="edge">
<title>26&#45;&gt;14</title>
<path fill="none" stroke="#c0c0c0" stroke-width="2" d="M1105.3578,-863.505C1106.7054,-831.7711 1105.5863,-765.9358 1078.0602,-720 1071.0192,-708.2498 1060.3675,-698.1728 1049.4409,-690.0154"/>
<polygon fill="#c0c0c0" stroke="#c0c0c0" stroke-width="2" points="1051.2836,-687.0328 1041.0869,-684.1557 1047.2639,-692.7636 1051.2836,-687.0328"/>
</g>
<!-- 26&#45;&gt;20 -->
<g id="edge41" class="edge">
<title>26&#45;&gt;20</title>
<path fill="none" stroke="#c0c0c0" stroke-width="2" d="M1157.812,-868.0619C1165.2473,-866.4882 1172.8166,-865.0692 1180.0602,-864 1245.4726,-854.345 1723.9871,-871.1819 1774.0602,-828 1805.0196,-801.3013 1793.0602,-778.8816 1793.0602,-738 1793.0602,-738 1793.0602,-738 1793.0602,-450 1793.0602,-389.1255 1391.6881,-338.83 1188.7161,-317.2876"/>
<polygon fill="#c0c0c0" stroke="#c0c0c0" stroke-width="2" points="1188.921,-313.7899 1178.609,-316.2212 1188.1865,-320.7512 1188.921,-313.7899"/>
</g>
<!-- 26&#45;&gt;30 -->
<g id="edge61" class="edge">
<title>26&#45;&gt;30</title>
<path fill="none" stroke="#c0c0c0" stroke-width="2" d="M1050.3697,-875.2743C1017.6685,-871.4118 975.013,-866.7887 937.0602,-864 886.3243,-860.272 60.9359,-860.8132 22.0602,-828 -9.1806,-801.6311 3.0602,-778.8816 3.0602,-738 3.0602,-738 3.0602,-738 3.0602,-450 3.0602,-381.4957 464.9221,-333.841 685.4618,-314.9907"/>
<polygon fill="#c0c0c0" stroke="#c0c0c0" stroke-width="2" points="685.7889,-318.4756 695.4569,-314.142 685.1966,-311.5007 685.7889,-318.4756"/>
</g>
<!-- 26&#45;&gt;45 -->
<g id="edge89" class="edge">
<title>26&#45;&gt;45</title>
<path fill="none" stroke="#c0c0c0" stroke-width="2" d="M1110.0301,-863.7319C1113.101,-853.3756 1116.5166,-840.105 1118.0602,-828 1124.2158,-779.7288 1115.6341,-766.1027 1100.0602,-720 1088.91,-686.9924 1089.5976,-676.1433 1069.0602,-648 1061.1593,-637.1731 1050.7132,-627.0237 1040.6519,-618.5114"/>
<polygon fill="#c0c0c0" stroke="#c0c0c0" stroke-width="2" points="1042.6859,-615.654 1032.7214,-612.054 1038.266,-621.0822 1042.6859,-615.654"/>
</g>
<!-- 27&#45;&gt;5 -->
<g id="edge8" class="edge">
<title>27&#45;&gt;5</title>
<path fill="none" stroke="#c0c0c0" stroke-width="2" d="M840.6873,-143.8314C862.2201,-134.2018 888.8451,-122.295 911.5754,-112.1299"/>
<polygon fill="#c0c0c0" stroke="#c0c0c0" stroke-width="2" points="913.0254,-115.3155 920.7253,-108.038 910.1676,-108.9254 913.0254,-115.3155"/>
</g>
<!-- 28&#45;&gt;14 -->
<g id="edge28" class="edge">
<title>28&#45;&gt;14</title>
<path fill="none" stroke="#c0c0c0" stroke-width="2" d="M1175.5736,-719.9243C1143.5843,-709.6877 1103.4826,-696.8552 1070.4252,-686.2768"/>
<polygon fill="#c0c0c0" stroke="#c0c0c0" stroke-width="2" points="1071.4471,-682.929 1060.8561,-683.2147 1069.3136,-689.596 1071.4471,-682.929"/>
</g>
<!-- 29&#45;&gt;5 -->
<g id="edge12" class="edge">
<title>29&#45;&gt;5</title>
<path fill="none" stroke="#c0c0c0" stroke-width="2" d="M1053.0221,-143.8314C1037.2897,-134.6221 1017.9991,-123.3301 1001.1558,-113.4706"/>
<polygon fill="#c0c0c0" stroke="#c0c0c0" stroke-width="2" points="1002.4867,-110.1941 992.0884,-108.1628 998.9504,-116.2352 1002.4867,-110.1941"/>
</g>
<!-- 30&#45;&gt;3 -->
<g id="edge4" class="edge">
<title>30&#45;&gt;3</title>
<path fill="none" stroke="#c0c0c0" stroke-width="2" d="M750.352,-287.9243C723.2843,-278.0815 689.6163,-265.8386 661.2053,-255.5073"/>
<polygon fill="#c0c0c0" stroke="#c0c0c0" stroke-width="2" points="662.3829,-252.2114 651.7888,-252.0831 659.9907,-258.7899 662.3829,-252.2114"/>
</g>
<!-- 30&#45;&gt;5 -->
<g id="edge5" class="edge">
<title>30&#45;&gt;5</title>
<path fill="none" stroke="#c0c0c0" stroke-width="2" d="M777.2299,-287.9247C740.3201,-256.5444 675.3056,-190.86 713.0602,-144 736.317,-115.1343 836.1256,-100.8861 901.8172,-94.5098"/>
<polygon fill="#c0c0c0" stroke="#c0c0c0" stroke-width="2" points="902.4197,-97.9689 912.0504,-93.5531 901.768,-90.9993 902.4197,-97.9689"/>
</g>
<!-- 30&#45;&gt;11 -->
<g id="edge21" class="edge">
<title>30&#45;&gt;11</title>
<path fill="none" stroke="#c0c0c0" stroke-width="2" d="M830.5936,-287.8314C846.0703,-278.6221 865.0471,-267.3301 881.6165,-257.4706"/>
<polygon fill="#c0c0c0" stroke="#c0c0c0" stroke-width="2" points="883.7326,-260.2843 890.5366,-252.1628 880.1531,-254.2687 883.7326,-260.2843"/>
</g>
<!-- 30&#45;&gt;27 -->
<g id="edge50" class="edge">
<title>30&#45;&gt;27</title>
<path fill="none" stroke="#c0c0c0" stroke-width="2" d="M800.0602,-287.7623C800.0602,-263.201 800.0602,-219.2474 800.0602,-190.3541"/>
<polygon fill="#c0c0c0" stroke="#c0c0c0" stroke-width="2" points="803.5603,-190.0896 800.0602,-180.0896 796.5603,-190.0897 803.5603,-190.0896"/>
</g>
<!-- 31&#45;&gt;5 -->
<g id="edge6" class="edge">
<title>31&#45;&gt;5</title>
<path fill="none" stroke="#c0c0c0" stroke-width="2" d="M961.0602,-143.8314C961.0602,-136.131 961.0602,-126.9743 961.0602,-118.4166"/>
<polygon fill="#c0c0c0" stroke="#c0c0c0" stroke-width="2" points="964.5603,-118.4132 961.0602,-108.4133 957.5603,-118.4133 964.5603,-118.4132"/>
</g>
<!-- 32&#45;&gt;22 -->
<g id="edge46" class="edge">
<title>32&#45;&gt;22</title>
<path fill="none" stroke="#c0c0c0" stroke-width="2" d="M305.0321,-791.9243C334.0024,-782.0387 370.0675,-769.7321 400.4265,-759.3726"/>
<polygon fill="#c0c0c0" stroke="#c0c0c0" stroke-width="2" points="401.7327,-762.6251 410.0665,-756.0831 399.472,-756.0002 401.7327,-762.6251"/>
</g>
<!-- 32&#45;&gt;36 -->
<g id="edge74" class="edge">
<title>32&#45;&gt;36</title>
<path fill="none" stroke="#c0c0c0" stroke-width="2" d="M277.9619,-791.8226C309.6289,-767.2426 359.0602,-720.1943 359.0602,-666 359.0602,-666 359.0602,-666 359.0602,-594 359.0602,-507.8277 469.7064,-472.8036 546.6384,-458.8663"/>
<polygon fill="#c0c0c0" stroke="#c0c0c0" stroke-width="2" points="547.5254,-462.265 556.7837,-457.1138 546.3339,-455.3671 547.5254,-462.265"/>
</g>
<!-- 33&#45;&gt;20 -->
<g id="edge39" class="edge">
<title>33&#45;&gt;20</title>
<path fill="none" stroke="#c0c0c0" stroke-width="2" d="M956.6779,-359.8314C977.5824,-350.2446 1003.4085,-338.4008 1025.509,-328.2655"/>
<polygon fill="#c0c0c0" stroke="#c0c0c0" stroke-width="2" points="1027.0966,-331.388 1034.7274,-324.038 1024.1786,-325.0252 1027.0966,-331.388"/>
</g>
<!-- 33&#45;&gt;30 -->
<g id="edge59" class="edge">
<title>33&#45;&gt;30</title>
<path fill="none" stroke="#c0c0c0" stroke-width="2" d="M887.5362,-359.8314C872.5711,-350.6221 854.2216,-339.3301 838.2,-329.4706"/>
<polygon fill="#c0c0c0" stroke="#c0c0c0" stroke-width="2" points="839.9258,-326.423 829.5748,-324.1628 836.257,-332.3847 839.9258,-326.423"/>
</g>
<!-- 34 -->
<g id="node35" class="node">
<title>34</title>
<path fill="none" stroke="#b6d856" stroke-width="2" stroke-dasharray="5,2" d="M136.0602,-900C136.0602,-900 62.0602,-900 62.0602,-900 56.0602,-900 50.0602,-894 50.0602,-888 50.0602,-888 50.0602,-876 50.0602,-876 50.0602,-870 56.0602,-864 62.0602,-864 62.0602,-864 136.0602,-864 136.0602,-864 142.0602,-864 148.0602,-870 148.0602,-876 148.0602,-876 148.0602,-888 148.0602,-888 148.0602,-894 142.0602,-900 136.0602,-900"/>
<text text-anchor="middle" x="99.0602" y="-885" font-family="sans" font-size="10.00" fill="#000000">download_fastq</text>
<text text-anchor="middle" x="99.0602" y="-874" font-family="sans" font-size="10.00" fill="#000000">id: SRR612935_2</text>
</g>
<!-- 43 -->
<g id="node44" class="node">
<title>43</title>
<path fill="none" stroke="#97d856" stroke-width="2" stroke-dasharray="5,2" d="M154.5602,-828C154.5602,-828 43.5602,-828 43.5602,-828 37.5602,-828 31.5602,-822 31.5602,-816 31.5602,-816 31.5602,-804 31.5602,-804 31.5602,-798 37.5602,-792 43.5602,-792 43.5602,-792 154.5602,-792 154.5602,-792 160.5602,-792 166.5602,-798 166.5602,-804 166.5602,-804 166.5602,-816 166.5602,-816 166.5602,-822 160.5602,-828 154.5602,-828"/>
<text text-anchor="middle" x="99.0602" y="-813" font-family="sans" font-size="10.00" fill="#000000">aggregate_fastqs</text>
<text text-anchor="middle" x="99.0602" y="-802" font-family="sans" font-size="10.00" fill="#000000">sampleID: SRS374785_2</text>
</g>
<!-- 34&#45;&gt;43 -->
<g id="edge85" class="edge">
<title>34&#45;&gt;43</title>
<path fill="none" stroke="#c0c0c0" stroke-width="2" d="M99.0602,-863.8314C99.0602,-856.131 99.0602,-846.9743 99.0602,-838.4166"/>
<polygon fill="#c0c0c0" stroke="#c0c0c0" stroke-width="2" points="102.5603,-838.4132 99.0602,-828.4133 95.5603,-838.4133 102.5603,-838.4132"/>
</g>
<!-- 35&#45;&gt;16 -->
<g id="edge33" class="edge">
<title>35&#45;&gt;16</title>
<path fill="none" stroke="#c0c0c0" stroke-width="2" d="M478.6498,-793.6907C481.4876,-793.1066 484.2993,-792.5406 487.0602,-792 573.7785,-775.0206 674.0691,-759.0886 740.9057,-748.9931"/>
<polygon fill="#c0c0c0" stroke="#c0c0c0" stroke-width="2" points="741.56,-752.4341 750.9279,-747.4851 740.5185,-745.512 741.56,-752.4341"/>
</g>
<!-- 35&#45;&gt;41 -->
<g id="edge83" class="edge">
<title>35&#45;&gt;41</title>
<path fill="none" stroke="#c0c0c0" stroke-width="2" d="M474.601,-791.9924C532.4517,-771.82 607.0602,-732.8462 607.0602,-666 607.0602,-666 607.0602,-666 607.0602,-594 607.0602,-536.5609 664.8388,-495.8176 710.294,-472.6518"/>
<polygon fill="#c0c0c0" stroke="#c0c0c0" stroke-width="2" points="712.071,-475.6779 719.4903,-468.1144 708.9737,-469.4004 712.071,-475.6779"/>
</g>
<!-- 36&#45;&gt;20 -->
<g id="edge40" class="edge">
<title>36&#45;&gt;20</title>
<path fill="none" stroke="#c0c0c0" stroke-width="2" d="M649.7875,-431.9562C690.0481,-408.577 758.7345,-369.6607 786.0602,-360 841.597,-340.3656 905.8153,-327.4453 959.4993,-319.1822"/>
<polygon fill="#c0c0c0" stroke="#c0c0c0" stroke-width="2" points="960.0284,-322.6421 969.3963,-317.693 958.9867,-315.7201 960.0284,-322.6421"/>
</g>
<!-- 36&#45;&gt;30 -->
<g id="edge60" class="edge">
<title>36&#45;&gt;30</title>
<path fill="none" stroke="#c0c0c0" stroke-width="2" d="M641.984,-431.7623C674.2161,-406.119 733.0183,-359.3372 769.1065,-330.6262"/>
<polygon fill="#c0c0c0" stroke="#c0c0c0" stroke-width="2" points="771.6761,-333.0544 777.3226,-324.0896 767.3179,-327.5765 771.6761,-333.0544"/>
</g>
<!-- 36&#45;&gt;33 -->
<g id="edge71" class="edge">
<title>36&#45;&gt;33</title>
<path fill="none" stroke="#c0c0c0" stroke-width="2" d="M681.3853,-434.144C684.3169,-433.4156 687.2199,-432.6978 690.0602,-432 736.2223,-420.6585 787.7592,-408.3686 830.0447,-398.3827"/>
<polygon fill="#c0c0c0" stroke="#c0c0c0" stroke-width="2" points="831.0997,-401.7299 840.0288,-396.0271 829.4923,-394.917 831.0997,-401.7299"/>
</g>
<!-- 38&#45;&gt;14 -->
<g id="edge29" class="edge">
<title>38&#45;&gt;14</title>
<path fill="none" stroke="#c0c0c0" stroke-width="2" d="M1007.0602,-719.8314C1007.0602,-712.131 1007.0602,-702.9743 1007.0602,-694.4166"/>
<polygon fill="#c0c0c0" stroke="#c0c0c0" stroke-width="2" points="1010.5603,-694.4132 1007.0602,-684.4133 1003.5603,-694.4133 1010.5603,-694.4132"/>
</g>
<!-- 39&#45;&gt;19 -->
<g id="edge34" class="edge">
<title>39&#45;&gt;19</title>
<path fill="none" stroke="#c0c0c0" stroke-width="2" d="M723.0602,-791.8146C723.0602,-764.4983 723.0602,-711.25 723.0602,-666 723.0602,-666 723.0602,-666 723.0602,-594 723.0602,-532.4563 787.5171,-493.4694 840.542,-471.8094"/>
<polygon fill="#c0c0c0" stroke="#c0c0c0" stroke-width="2" points="841.9368,-475.0217 849.9531,-468.0942 839.3664,-468.5107 841.9368,-475.0217"/>
</g>
<!-- 39&#45;&gt;38 -->
<g id="edge78" class="edge">
<title>39&#45;&gt;38</title>
<path fill="none" stroke="#c0c0c0" stroke-width="2" d="M790.7245,-792.8457C834.1953,-781.8249 890.6101,-767.5226 934.93,-756.2865"/>
<polygon fill="#c0c0c0" stroke="#c0c0c0" stroke-width="2" points="935.9342,-759.6427 944.7674,-753.7925 934.214,-752.8574 935.9342,-759.6427"/>
</g>
<!-- 40&#45;&gt;16 -->
<g id="edge32" class="edge">
<title>40&#45;&gt;16</title>
<path fill="none" stroke="#c0c0c0" stroke-width="2" d="M629.572,-791.9243C664.2038,-781.9103 707.4269,-769.412 743.5389,-758.97"/>
<polygon fill="#c0c0c0" stroke="#c0c0c0" stroke-width="2" points="744.8885,-762.2232 753.5227,-756.0831 742.944,-755.4987 744.8885,-762.2232"/>
</g>
<!-- 40&#45;&gt;41 -->
<g id="edge82" class="edge">
<title>40&#45;&gt;41</title>
<path fill="none" stroke="#c0c0c0" stroke-width="2" d="M592.2103,-791.9248C623.2736,-767.2843 672.0602,-719.9908 672.0602,-666 672.0602,-666 672.0602,-666 672.0602,-594 672.0602,-546.2737 708.3918,-501.6646 735.3922,-475.1025"/>
<polygon fill="#c0c0c0" stroke="#c0c0c0" stroke-width="2" points="737.9081,-477.5395 742.7223,-468.1016 733.0733,-472.4774 737.9081,-477.5395"/>
</g>
<!-- 41&#45;&gt;20 -->
<g id="edge37" class="edge">
<title>41&#45;&gt;20</title>
<path fill="none" stroke="#c0c0c0" stroke-width="2" d="M770.5965,-431.7013C778.9818,-410.9667 795.5613,-377.7555 821.0602,-360 843.8346,-344.1416 903.5783,-331.0103 959.2914,-321.6686"/>
<polygon fill="#c0c0c0" stroke="#c0c0c0" stroke-width="2" points="959.9746,-325.1033 969.2742,-320.0271 958.8388,-318.1961 959.9746,-325.1033"/>
</g>
<!-- 41&#45;&gt;30 -->
<g id="edge57" class="edge">
<title>41&#45;&gt;30</title>
<path fill="none" stroke="#c0c0c0" stroke-width="2" d="M755.8698,-431.8096C748.7035,-413.1897 740.7714,-383.7038 750.0602,-360 754.236,-349.3439 761.6115,-339.5335 769.4361,-331.2816"/>
<polygon fill="#c0c0c0" stroke="#c0c0c0" stroke-width="2" points="771.9977,-333.6713 776.6693,-324.162 767.0873,-328.6825 771.9977,-333.6713"/>
</g>
<!-- 41&#45;&gt;33 -->
<g id="edge67" class="edge">
<title>41&#45;&gt;33</title>
<path fill="none" stroke="#c0c0c0" stroke-width="2" d="M802.6686,-431.8314C822.9495,-422.2874 847.984,-410.5065 869.4573,-400.4013"/>
<polygon fill="#c0c0c0" stroke="#c0c0c0" stroke-width="2" points="871.1716,-403.4629 878.7295,-396.038 868.191,-397.1291 871.1716,-403.4629"/>
</g>
<!-- 42 -->
<g id="node43" class="node">
<title>42</title>
<path fill="none" stroke="#b6d856" stroke-width="2" stroke-dasharray="5,2" d="M1734.0602,-900C1734.0602,-900 1660.0602,-900 1660.0602,-900 1654.0602,-900 1648.0602,-894 1648.0602,-888 1648.0602,-888 1648.0602,-876 1648.0602,-876 1648.0602,-870 1654.0602,-864 1660.0602,-864 1660.0602,-864 1734.0602,-864 1734.0602,-864 1740.0602,-864 1746.0602,-870 1746.0602,-876 1746.0602,-876 1746.0602,-888 1746.0602,-888 1746.0602,-894 1740.0602,-900 1734.0602,-900"/>
<text text-anchor="middle" x="1697.0602" y="-885" font-family="sans" font-size="10.00" fill="#000000">download_fastq</text>
<text text-anchor="middle" x="1697.0602" y="-874" font-family="sans" font-size="10.00" fill="#000000">id: SRR660638_1</text>
</g>
<!-- 42&#45;&gt;23 -->
<g id="edge47" class="edge">
<title>42&#45;&gt;23</title>
<path fill="none" stroke="#c0c0c0" stroke-width="2" d="M1697.0602,-863.8314C1697.0602,-856.131 1697.0602,-846.9743 1697.0602,-838.4166"/>
<polygon fill="#c0c0c0" stroke="#c0c0c0" stroke-width="2" points="1700.5603,-838.4132 1697.0602,-828.4133 1693.5603,-838.4133 1700.5603,-838.4132"/>
</g>
<!-- 43&#45;&gt;22 -->
<g id="edge45" class="edge">
<title>43&#45;&gt;22</title>
<path fill="none" stroke="#c0c0c0" stroke-width="2" d="M166.568,-793.8367C169.4347,-793.2056 172.2747,-792.5907 175.0602,-792 248.3301,-776.4633 332.583,-760.9361 390.9502,-750.5466"/>
<polygon fill="#c0c0c0" stroke="#c0c0c0" stroke-width="2" points="391.5785,-753.9899 400.813,-748.796 390.3552,-747.0976 391.5785,-753.9899"/>
</g>
<!-- 43&#45;&gt;36 -->
<g id="edge73" class="edge">
<title>43&#45;&gt;36</title>
<path fill="none" stroke="#c0c0c0" stroke-width="2" d="M126.2139,-791.8367C159.0753,-767.4409 210.0602,-720.7657 210.0602,-666 210.0602,-666 210.0602,-666 210.0602,-594 210.0602,-523.4127 429.5449,-478.9678 546.9449,-460.2436"/>
<polygon fill="#c0c0c0" stroke="#c0c0c0" stroke-width="2" points="547.6068,-463.6826 556.9419,-458.672 546.5196,-456.7676 547.6068,-463.6826"/>
</g>
<!-- 44&#45;&gt;20 -->
<g id="edge42" class="edge">
<title>44&#45;&gt;20</title>
<path fill="none" stroke="#c0c0c0" stroke-width="2" d="M1190.7498,-431.6635C1187.4828,-412.1099 1179.9097,-381.1115 1163.0602,-360 1153.1647,-347.6014 1139.5923,-337.3569 1126.0277,-329.2468"/>
<polygon fill="#c0c0c0" stroke="#c0c0c0" stroke-width="2" points="1127.5804,-326.104 1117.1536,-324.2244 1124.1325,-332.1959 1127.5804,-326.104"/>
</g>
<!-- 44&#45;&gt;30 -->
<g id="edge62" class="edge">
<title>44&#45;&gt;30</title>
<path fill="none" stroke="#c0c0c0" stroke-width="2" d="M1167.8723,-431.9899C1138.352,-411.6833 1087.3151,-379.0249 1039.0602,-360 999.6669,-344.4689 954.7733,-332.8515 914.6128,-324.4523"/>
<polygon fill="#c0c0c0" stroke="#c0c0c0" stroke-width="2" points="915.2799,-321.0164 904.7811,-322.44 913.8762,-327.8742 915.2799,-321.0164"/>
</g>
<!-- 44&#45;&gt;33 -->
<g id="edge69" class="edge">
<title>44&#45;&gt;33</title>
<path fill="none" stroke="#c0c0c0" stroke-width="2" d="M1130.7763,-433.752C1090.9509,-423.3628 1038.9404,-409.7948 996.1997,-398.6451"/>
<polygon fill="#c0c0c0" stroke="#c0c0c0" stroke-width="2" points="996.9504,-395.2239 986.3907,-396.0862 995.1834,-401.9972 996.9504,-395.2239"/>
</g>
<!-- 45&#45;&gt;24 -->
<g id="edge48" class="edge">
<title>45&#45;&gt;24</title>
<path fill="none" stroke="#c0c0c0" stroke-width="2" d="M1006.0508,-575.8314C1005.623,-568.131 1005.1143,-558.9743 1004.6389,-550.4166"/>
<polygon fill="#c0c0c0" stroke="#c0c0c0" stroke-width="2" points="1008.1326,-550.2037 1004.0832,-540.4133 1001.1433,-550.592 1008.1326,-550.2037"/>
</g>
<!-- 46 -->
<g id="node47" class="node">
<title>46</title>
<path fill="none" stroke="#b6d856" stroke-width="2" stroke-dasharray="5,2" d="M1428.0602,-900C1428.0602,-900 1354.0602,-900 1354.0602,-900 1348.0602,-900 1342.0602,-894 1342.0602,-888 1342.0602,-888 1342.0602,-876 1342.0602,-876 1342.0602,-870 1348.0602,-864 1354.0602,-864 1354.0602,-864 1428.0602,-864 1428.0602,-864 1434.0602,-864 1440.0602,-870 1440.0602,-876 1440.0602,-876 1440.0602,-888 1440.0602,-888 1440.0602,-894 1434.0602,-900 1428.0602,-900"/>
<text text-anchor="middle" x="1391.0602" y="-885" font-family="sans" font-size="10.00" fill="#000000">download_fastq</text>
<text text-anchor="middle" x="1391.0602" y="-874" font-family="sans" font-size="10.00" fill="#000000">id: SRR603566_1</text>
</g>
<!-- 46&#45;&gt;25 -->
<g id="edge49" class="edge">
<title>46&#45;&gt;25</title>
<path fill="none" stroke="#c0c0c0" stroke-width="2" d="M1391.0602,-863.8314C1391.0602,-856.131 1391.0602,-846.9743 1391.0602,-838.4166"/>
<polygon fill="#c0c0c0" stroke="#c0c0c0" stroke-width="2" points="1394.5603,-838.4132 1391.0602,-828.4133 1387.5603,-838.4133 1394.5603,-838.4132"/>
</g>
</g>
</svg>
