<?xml version="1.0" encoding="UTF-8" standalone="no"?>
<!DOCTYPE svg PUBLIC "-//W3C//DTD SVG 1.1//EN"
 "http://www.w3.org/Graphics/SVG/1.1/DTD/svg11.dtd">
<!-- Generated by graphviz version 2.40.1 (20161225.0304)
 -->
<!-- Title: snakemake_dag Pages: 1 -->
<svg width="722pt" height="476pt"
 viewBox="0.00 0.00 722.41 476.00" xmlns="http://www.w3.org/2000/svg" xmlns:xlink="http://www.w3.org/1999/xlink">
<g id="graph0" class="graph" transform="scale(1 1) rotate(0) translate(4 472)">
<title>snakemake_dag</title>
<polygon fill="#ffffff" stroke="transparent" points="-4,4 -4,-472 718.413,-472 718.413,4 -4,4"/>
<!-- 0 -->
<g id="node1" class="node">
<title>0</title>
<path fill="none" stroke="#b6d856" stroke-width="2" stroke-dasharray="5,2" d="M136.4207,-252C136.4207,-252 32.4207,-252 32.4207,-252 26.4207,-252 20.4207,-246 20.4207,-240 20.4207,-240 20.4207,-228 20.4207,-228 20.4207,-222 26.4207,-216 32.4207,-216 32.4207,-216 136.4207,-216 136.4207,-216 142.4207,-216 148.4207,-222 148.4207,-228 148.4207,-228 148.4207,-240 148.4207,-240 148.4207,-246 142.4207,-252 136.4207,-252"/>
<text text-anchor="middle" x="84.4207" y="-231.5" font-family="sans" font-size="10.00" fill="#000000">differential_expression</text>
</g>
<!-- 1 -->
<g id="node2" class="node">
<title>1</title>
<path fill="none" stroke="#d8a456" stroke-width="2" stroke-dasharray="5,2" d="M348.4207,-108C348.4207,-108 274.4207,-108 274.4207,-108 268.4207,-108 262.4207,-102 262.4207,-96 262.4207,-96 262.4207,-84 262.4207,-84 262.4207,-78 268.4207,-72 274.4207,-72 274.4207,-72 348.4207,-72 348.4207,-72 354.4207,-72 360.4207,-78 360.4207,-84 360.4207,-84 360.4207,-96 360.4207,-96 360.4207,-102 354.4207,-108 348.4207,-108"/>
<text text-anchor="middle" x="311.4207" y="-87.5" font-family="sans" font-size="10.00" fill="#000000">make_SQLite_db</text>
</g>
<!-- 0&#45;&gt;1 -->
<g id="edge9" class="edge">
<title>0&#45;&gt;1</title>
<path fill="none" stroke="#c0c0c0" stroke-width="2" d="M72.0505,-215.783C60.3363,-196.044 46.8113,-164.6152 63.4207,-144 86.6775,-115.1343 186.4861,-100.8861 252.1777,-94.5098"/>
<polygon fill="#c0c0c0" stroke="#c0c0c0" stroke-width="2" points="252.7802,-97.9689 262.4109,-93.5531 252.1285,-90.9993 252.7802,-97.9689"/>
</g>
<!-- 12 -->
<g id="node13" class="node">
<title>12</title>
<path fill="none" stroke="#56a9d8" stroke-width="2" stroke-dasharray="5,2" d="M326.4207,-36C326.4207,-36 296.4207,-36 296.4207,-36 290.4207,-36 284.4207,-30 284.4207,-24 284.4207,-24 284.4207,-12 284.4207,-12 284.4207,-6 290.4207,0 296.4207,0 296.4207,0 326.4207,0 326.4207,0 332.4207,0 338.4207,-6 338.4207,-12 338.4207,-12 338.4207,-24 338.4207,-24 338.4207,-30 332.4207,-36 326.4207,-36"/>
<text text-anchor="middle" x="311.4207" y="-15.5" font-family="sans" font-size="10.00" fill="#000000">all</text>
</g>
<!-- 1&#45;&gt;12 -->
<g id="edge28" class="edge">
<title>1&#45;&gt;12</title>
<path fill="none" stroke="#c0c0c0" stroke-width="2" d="M311.4207,-71.8314C311.4207,-64.131 311.4207,-54.9743 311.4207,-46.4166"/>
<polygon fill="#c0c0c0" stroke="#c0c0c0" stroke-width="2" points="314.9208,-46.4132 311.4207,-36.4133 307.9208,-46.4133 314.9208,-46.4132"/>
</g>
<!-- 2 -->
<g id="node3" class="node">
<title>2</title>
<path fill="none" stroke="#d85656" stroke-width="2" stroke-dasharray="5,2" d="M215.4207,-468C215.4207,-468 109.4207,-468 109.4207,-468 103.4207,-468 97.4207,-462 97.4207,-456 97.4207,-456 97.4207,-444 97.4207,-444 97.4207,-438 103.4207,-432 109.4207,-432 109.4207,-432 215.4207,-432 215.4207,-432 221.4207,-432 227.4207,-438 227.4207,-444 227.4207,-444 227.4207,-456 227.4207,-456 227.4207,-462 221.4207,-468 215.4207,-468"/>
<text text-anchor="middle" x="162.4207" y="-453" font-family="sans" font-size="10.00" fill="#000000">re_run_Salmon</text>
<text text-anchor="middle" x="162.4207" y="-442" font-family="sans" font-size="10.00" fill="#000000">sampleID: SRS1305249</text>
</g>
<!-- 5 -->
<g id="node6" class="node">
<title>5</title>
<path fill="none" stroke="#d87d56" stroke-width="2" stroke-dasharray="5,2" d="M219.9207,-324C219.9207,-324 34.9207,-324 34.9207,-324 28.9207,-324 22.9207,-318 22.9207,-312 22.9207,-312 22.9207,-300 22.9207,-300 22.9207,-294 28.9207,-288 34.9207,-288 34.9207,-288 219.9207,-288 219.9207,-288 225.9207,-288 231.9207,-294 231.9207,-300 231.9207,-300 231.9207,-312 231.9207,-312 231.9207,-318 225.9207,-324 219.9207,-324"/>
<text text-anchor="middle" x="127.4207" y="-309" font-family="sans" font-size="10.00" fill="#000000">gene_quantification_and_normalization</text>
<text text-anchor="middle" x="127.4207" y="-298" font-family="sans" font-size="10.00" fill="#000000">level: transcript</text>
</g>
<!-- 2&#45;&gt;5 -->
<g id="edge15" class="edge">
<title>2&#45;&gt;5</title>
<path fill="none" stroke="#c0c0c0" stroke-width="2" d="M135.6976,-431.9104C124.4123,-422.6439 112.4947,-410.295 106.4207,-396 97.8577,-375.8471 104.3925,-351.6039 112.3616,-333.3586"/>
<polygon fill="#c0c0c0" stroke="#c0c0c0" stroke-width="2" points="115.6004,-334.6968 116.7179,-324.1611 109.2741,-331.7004 115.6004,-334.6968"/>
</g>
<!-- 8 -->
<g id="node9" class="node">
<title>8</title>
<path fill="none" stroke="#d87d56" stroke-width="2" stroke-dasharray="5,2" d="M526.9207,-324C526.9207,-324 341.9207,-324 341.9207,-324 335.9207,-324 329.9207,-318 329.9207,-312 329.9207,-312 329.9207,-300 329.9207,-300 329.9207,-294 335.9207,-288 341.9207,-288 341.9207,-288 526.9207,-288 526.9207,-288 532.9207,-288 538.9207,-294 538.9207,-300 538.9207,-300 538.9207,-312 538.9207,-312 538.9207,-318 532.9207,-324 526.9207,-324"/>
<text text-anchor="middle" x="434.4207" y="-309" font-family="sans" font-size="10.00" fill="#000000">gene_quantification_and_normalization</text>
<text text-anchor="middle" x="434.4207" y="-298" font-family="sans" font-size="10.00" fill="#000000">level: gene</text>
</g>
<!-- 2&#45;&gt;8 -->
<g id="edge19" class="edge">
<title>2&#45;&gt;8</title>
<path fill="none" stroke="#c0c0c0" stroke-width="2" d="M227.7301,-433.8273C230.663,-433.1915 233.5701,-432.579 236.4207,-432 284.9684,-422.1385 424.3442,-433.7521 456.4207,-396 471.346,-378.4339 462.6675,-352.332 452.1344,-332.7552"/>
<polygon fill="#c0c0c0" stroke="#c0c0c0" stroke-width="2" points="455.1112,-330.9112 447.0768,-324.0048 449.0507,-334.4142 455.1112,-330.9112"/>
</g>
<!-- 11 -->
<g id="node12" class="node">
<title>11</title>
<path fill="none" stroke="#56d8b9" stroke-width="2" stroke-dasharray="5,2" d="M309.9207,-396C309.9207,-396 160.9207,-396 160.9207,-396 154.9207,-396 148.9207,-390 148.9207,-384 148.9207,-384 148.9207,-372 148.9207,-372 148.9207,-366 154.9207,-360 160.9207,-360 160.9207,-360 309.9207,-360 309.9207,-360 315.9207,-360 321.9207,-366 321.9207,-372 321.9207,-372 321.9207,-384 321.9207,-384 321.9207,-390 315.9207,-396 309.9207,-396"/>
<text text-anchor="middle" x="235.4207" y="-375.5" font-family="sans" font-size="10.00" fill="#000000">process_poor_mapped_samples</text>
</g>
<!-- 2&#45;&gt;11 -->
<g id="edge26" class="edge">
<title>2&#45;&gt;11</title>
<path fill="none" stroke="#c0c0c0" stroke-width="2" d="M180.8417,-431.8314C189.5737,-423.219 200.1525,-412.7851 209.6631,-403.4048"/>
<polygon fill="#c0c0c0" stroke="#c0c0c0" stroke-width="2" points="212.3437,-405.6769 217.0056,-396.1628 207.4282,-400.6931 212.3437,-405.6769"/>
</g>
<!-- 3 -->
<g id="node4" class="node">
<title>3</title>
<path fill="none" stroke="#68d856" stroke-width="2" stroke-dasharray="5,2" d="M215.9207,-180C215.9207,-180 84.9207,-180 84.9207,-180 78.9207,-180 72.9207,-174 72.9207,-168 72.9207,-168 72.9207,-156 72.9207,-156 72.9207,-150 78.9207,-144 84.9207,-144 84.9207,-144 215.9207,-144 215.9207,-144 221.9207,-144 227.9207,-150 227.9207,-156 227.9207,-156 227.9207,-168 227.9207,-168 227.9207,-174 221.9207,-180 215.9207,-180"/>
<text text-anchor="middle" x="150.4207" y="-159.5" font-family="sans" font-size="10.00" fill="#000000">calculate_mean_rank_decile</text>
</g>
<!-- 3&#45;&gt;1 -->
<g id="edge5" class="edge">
<title>3&#45;&gt;1</title>
<path fill="none" stroke="#c0c0c0" stroke-width="2" d="M191.0478,-143.8314C212.5806,-134.2018 239.2056,-122.295 261.9359,-112.1299"/>
<polygon fill="#c0c0c0" stroke="#c0c0c0" stroke-width="2" points="263.3859,-115.3155 271.0858,-108.038 260.5282,-108.9254 263.3859,-115.3155"/>
</g>
<!-- 4 -->
<g id="node5" class="node">
<title>4</title>
<path fill="none" stroke="#8fd856" stroke-width="2" stroke-dasharray="5,2" d="M677.9207,-180C677.9207,-180 580.9207,-180 580.9207,-180 574.9207,-180 568.9207,-174 568.9207,-168 568.9207,-168 568.9207,-156 568.9207,-156 568.9207,-150 574.9207,-144 580.9207,-144 580.9207,-144 677.9207,-144 677.9207,-144 683.9207,-144 689.9207,-150 689.9207,-156 689.9207,-156 689.9207,-168 689.9207,-168 689.9207,-174 683.9207,-180 677.9207,-180"/>
<text text-anchor="middle" x="629.4207" y="-159.5" font-family="sans" font-size="10.00" fill="#000000">GO_term_enrichment</text>
</g>
<!-- 4&#45;&gt;1 -->
<g id="edge6" class="edge">
<title>4&#45;&gt;1</title>
<path fill="none" stroke="#c0c0c0" stroke-width="2" d="M568.8592,-147.3726C563.9766,-146.2215 559.1176,-145.0854 554.4207,-144 491.7859,-129.5255 419.8956,-113.64 370.6535,-102.8703"/>
<polygon fill="#c0c0c0" stroke="#c0c0c0" stroke-width="2" points="371.3257,-99.4346 360.809,-100.7194 369.8315,-106.2733 371.3257,-99.4346"/>
</g>
<!-- 5&#45;&gt;0 -->
<g id="edge1" class="edge">
<title>5&#45;&gt;0</title>
<path fill="none" stroke="#c0c0c0" stroke-width="2" d="M116.57,-287.8314C111.7185,-279.7079 105.8991,-269.9637 100.5528,-261.0118"/>
<polygon fill="#c0c0c0" stroke="#c0c0c0" stroke-width="2" points="103.5499,-259.2041 95.4175,-252.4133 97.5401,-262.7933 103.5499,-259.2041"/>
</g>
<!-- 5&#45;&gt;1 -->
<g id="edge7" class="edge">
<title>5&#45;&gt;1</title>
<path fill="none" stroke="#c0c0c0" stroke-width="2" d="M56.3925,-287.915C38.7276,-279.8843 21.8697,-268.3899 11.4207,-252 -16.1796,-208.7072 10.9149,-174.2211 52.4207,-144 83.6579,-121.2557 185.7084,-105.0827 251.9994,-96.6676"/>
<polygon fill="#c0c0c0" stroke="#c0c0c0" stroke-width="2" points="252.8241,-100.092 262.3153,-95.3838 251.9596,-93.1456 252.8241,-100.092"/>
</g>
<!-- 5&#45;&gt;3 -->
<g id="edge11" class="edge">
<title>5&#45;&gt;3</title>
<path fill="none" stroke="#c0c0c0" stroke-width="2" d="M140.777,-287.5137C147.1715,-277.5235 154.1387,-264.6657 157.4207,-252 162.6788,-231.7086 160.5318,-208.0533 157.2822,-190.0879"/>
<polygon fill="#c0c0c0" stroke="#c0c0c0" stroke-width="2" points="160.7026,-189.3435 155.2892,-180.2361 153.8416,-190.7315 160.7026,-189.3435"/>
</g>
<!-- 9 -->
<g id="node10" class="node">
<title>9</title>
<path fill="none" stroke="#56d86b" stroke-width="2" stroke-dasharray="5,2" d="M321.9207,-252C321.9207,-252 246.9207,-252 246.9207,-252 240.9207,-252 234.9207,-246 234.9207,-240 234.9207,-240 234.9207,-228 234.9207,-228 234.9207,-222 240.9207,-216 246.9207,-216 246.9207,-216 321.9207,-216 321.9207,-216 327.9207,-216 333.9207,-222 333.9207,-228 333.9207,-228 333.9207,-240 333.9207,-240 333.9207,-246 327.9207,-252 321.9207,-252"/>
<text text-anchor="middle" x="284.4207" y="-231.5" font-family="sans" font-size="10.00" fill="#000000">make_meta_info</text>
</g>
<!-- 5&#45;&gt;9 -->
<g id="edge22" class="edge">
<title>5&#45;&gt;9</title>
<path fill="none" stroke="#c0c0c0" stroke-width="2" d="M167.0385,-287.8314C187.943,-278.2446 213.7691,-266.4008 235.8696,-256.2655"/>
<polygon fill="#c0c0c0" stroke="#c0c0c0" stroke-width="2" points="237.4572,-259.388 245.0879,-252.038 234.5391,-253.0252 237.4572,-259.388"/>
</g>
<!-- 6 -->
<g id="node7" class="node">
<title>6</title>
<path fill="none" stroke="#d8cb56" stroke-width="2" stroke-dasharray="5,2" d="M434.9207,-396C434.9207,-396 351.9207,-396 351.9207,-396 345.9207,-396 339.9207,-390 339.9207,-384 339.9207,-384 339.9207,-372 339.9207,-372 339.9207,-366 345.9207,-360 351.9207,-360 351.9207,-360 434.9207,-360 434.9207,-360 440.9207,-360 446.9207,-366 446.9207,-372 446.9207,-372 446.9207,-384 446.9207,-384 446.9207,-390 440.9207,-396 434.9207,-396"/>
<text text-anchor="middle" x="393.4207" y="-375.5" font-family="sans" font-size="10.00" fill="#000000">downloadGencode</text>
</g>
<!-- 6&#45;&gt;5 -->
<g id="edge17" class="edge">
<title>6&#45;&gt;5</title>
<path fill="none" stroke="#c0c0c0" stroke-width="2" d="M339.6745,-362.3115C336.8848,-361.5237 334.1208,-360.7492 331.4207,-360 290.5882,-348.6701 245.0095,-336.5549 207.3087,-326.6769"/>
<polygon fill="#c0c0c0" stroke="#c0c0c0" stroke-width="2" points="207.9597,-323.2295 197.3995,-324.0845 206.188,-330.0016 207.9597,-323.2295"/>
</g>
<!-- 6&#45;&gt;8 -->
<g id="edge21" class="edge">
<title>6&#45;&gt;8</title>
<path fill="none" stroke="#c0c0c0" stroke-width="2" d="M403.7668,-359.8314C408.3445,-351.7925 413.8259,-342.1666 418.8796,-333.2918"/>
<polygon fill="#c0c0c0" stroke="#c0c0c0" stroke-width="2" points="422.0284,-334.8351 423.9354,-324.4133 415.9455,-331.3712 422.0284,-334.8351"/>
</g>
<!-- 7 -->
<g id="node8" class="node">
<title>7</title>
<path fill="none" stroke="#d85656" stroke-width="2" stroke-dasharray="5,2" d="M357.4207,-468C357.4207,-468 257.4207,-468 257.4207,-468 251.4207,-468 245.4207,-462 245.4207,-456 245.4207,-456 245.4207,-444 245.4207,-444 245.4207,-438 251.4207,-432 257.4207,-432 257.4207,-432 357.4207,-432 357.4207,-432 363.4207,-432 369.4207,-438 369.4207,-444 369.4207,-444 369.4207,-456 369.4207,-456 369.4207,-462 363.4207,-468 357.4207,-468"/>
<text text-anchor="middle" x="307.4207" y="-453" font-family="sans" font-size="10.00" fill="#000000">re_run_Salmon</text>
<text text-anchor="middle" x="307.4207" y="-442" font-family="sans" font-size="10.00" fill="#000000">sampleID: SRS638559</text>
</g>
<!-- 7&#45;&gt;5 -->
<g id="edge14" class="edge">
<title>7&#45;&gt;5</title>
<path fill="none" stroke="#c0c0c0" stroke-width="2" d="M244.9947,-433.4103C200.2264,-420.9374 146.5918,-404.5802 139.4207,-396 125.2621,-379.0592 123.0043,-353.7151 123.8633,-334.234"/>
<polygon fill="#c0c0c0" stroke="#c0c0c0" stroke-width="2" points="127.3652,-334.334 124.6053,-324.105 120.3839,-333.8225 127.3652,-334.334"/>
</g>
<!-- 7&#45;&gt;8 -->
<g id="edge18" class="edge">
<title>7&#45;&gt;8</title>
<path fill="none" stroke="#c0c0c0" stroke-width="2" d="M369.4769,-439.7126C416.2822,-430.5398 474.8323,-415.5454 489.4207,-396 505.0574,-375.0501 486.1498,-349.4772 466.3632,-330.9527"/>
<polygon fill="#c0c0c0" stroke="#c0c0c0" stroke-width="2" points="468.6023,-328.26 458.8069,-324.2224 463.9464,-333.4872 468.6023,-328.26"/>
</g>
<!-- 7&#45;&gt;11 -->
<g id="edge27" class="edge">
<title>7&#45;&gt;11</title>
<path fill="none" stroke="#c0c0c0" stroke-width="2" d="M289.2521,-431.8314C280.7055,-423.2848 270.3651,-412.9443 261.0406,-403.6198"/>
<polygon fill="#c0c0c0" stroke="#c0c0c0" stroke-width="2" points="263.38,-401.0095 253.834,-396.4133 258.4302,-405.9592 263.38,-401.0095"/>
</g>
<!-- 8&#45;&gt;1 -->
<g id="edge2" class="edge">
<title>8&#45;&gt;1</title>
<path fill="none" stroke="#c0c0c0" stroke-width="2" d="M520.0996,-287.9309C618.9385,-263.3234 760.4921,-214.1596 699.4207,-144 678.1862,-119.6055 474.2918,-101.6494 370.907,-94.0321"/>
<polygon fill="#c0c0c0" stroke="#c0c0c0" stroke-width="2" points="370.8499,-90.5188 360.6223,-93.284 370.3421,-97.5004 370.8499,-90.5188"/>
</g>
<!-- 8&#45;&gt;9 -->
<g id="edge23" class="edge">
<title>8&#45;&gt;9</title>
<path fill="none" stroke="#c0c0c0" stroke-width="2" d="M396.5694,-287.8314C376.6861,-278.2874 352.1425,-266.5065 331.0902,-256.4013"/>
<polygon fill="#c0c0c0" stroke="#c0c0c0" stroke-width="2" points="332.5297,-253.21 321.9999,-252.038 329.5005,-259.5207 332.5297,-253.21"/>
</g>
<!-- 10 -->
<g id="node11" class="node">
<title>10</title>
<path fill="none" stroke="#56d892" stroke-width="2" stroke-dasharray="5,2" d="M326.4207,-180C326.4207,-180 296.4207,-180 296.4207,-180 290.4207,-180 284.4207,-174 284.4207,-168 284.4207,-168 284.4207,-156 284.4207,-156 284.4207,-150 290.4207,-144 296.4207,-144 296.4207,-144 326.4207,-144 326.4207,-144 332.4207,-144 338.4207,-150 338.4207,-156 338.4207,-156 338.4207,-168 338.4207,-168 338.4207,-174 332.4207,-180 326.4207,-180"/>
<text text-anchor="middle" x="311.4207" y="-159.5" font-family="sans" font-size="10.00" fill="#000000">tSNE</text>
</g>
<!-- 8&#45;&gt;10 -->
<g id="edge24" class="edge">
<title>8&#45;&gt;10</title>
<path fill="none" stroke="#c0c0c0" stroke-width="2" d="M418.8427,-287.7623C397.2163,-262.4436 357.9883,-216.5182 333.3942,-187.7251"/>
<polygon fill="#c0c0c0" stroke="#c0c0c0" stroke-width="2" points="336.0285,-185.4202 326.8723,-180.0896 330.7059,-189.9666 336.0285,-185.4202"/>
</g>
<!-- 13 -->
<g id="node14" class="node">
<title>13</title>
<path fill="none" stroke="#b6d856" stroke-width="2" stroke-dasharray="5,2" d="M592.4207,-252C592.4207,-252 488.4207,-252 488.4207,-252 482.4207,-252 476.4207,-246 476.4207,-240 476.4207,-240 476.4207,-228 476.4207,-228 476.4207,-222 482.4207,-216 488.4207,-216 488.4207,-216 592.4207,-216 592.4207,-216 598.4207,-216 604.4207,-222 604.4207,-228 604.4207,-228 604.4207,-240 604.4207,-240 604.4207,-246 598.4207,-252 592.4207,-252"/>
<text text-anchor="middle" x="540.4207" y="-231.5" font-family="sans" font-size="10.00" fill="#000000">differential_expression</text>
</g>
<!-- 8&#45;&gt;13 -->
<g id="edge29" class="edge">
<title>8&#45;&gt;13</title>
<path fill="none" stroke="#c0c0c0" stroke-width="2" d="M461.169,-287.8314C474.476,-278.7927 490.7368,-267.7476 505.0582,-258.0198"/>
<polygon fill="#c0c0c0" stroke="#c0c0c0" stroke-width="2" points="507.3754,-260.677 513.681,-252.1628 503.4422,-254.8864 507.3754,-260.677"/>
</g>
<!-- 14 -->
<g id="node15" class="node">
<title>14</title>
<path fill="none" stroke="#68d856" stroke-width="2" stroke-dasharray="5,2" d="M499.9207,-180C499.9207,-180 368.9207,-180 368.9207,-180 362.9207,-180 356.9207,-174 356.9207,-168 356.9207,-168 356.9207,-156 356.9207,-156 356.9207,-150 362.9207,-144 368.9207,-144 368.9207,-144 499.9207,-144 499.9207,-144 505.9207,-144 511.9207,-150 511.9207,-156 511.9207,-156 511.9207,-168 511.9207,-168 511.9207,-174 505.9207,-180 499.9207,-180"/>
<text text-anchor="middle" x="434.4207" y="-159.5" font-family="sans" font-size="10.00" fill="#000000">calculate_mean_rank_decile</text>
</g>
<!-- 8&#45;&gt;14 -->
<g id="edge30" class="edge">
<title>8&#45;&gt;14</title>
<path fill="none" stroke="#c0c0c0" stroke-width="2" d="M434.4207,-287.7623C434.4207,-263.201 434.4207,-219.2474 434.4207,-190.3541"/>
<polygon fill="#c0c0c0" stroke="#c0c0c0" stroke-width="2" points="437.9208,-190.0896 434.4207,-180.0896 430.9208,-190.0897 437.9208,-190.0896"/>
</g>
<!-- 9&#45;&gt;1 -->
<g id="edge3" class="edge">
<title>9&#45;&gt;1</title>
<path fill="none" stroke="#c0c0c0" stroke-width="2" d="M278.5015,-215.6681C273.4758,-197.1912 268.14,-168.0466 275.4207,-144 278.3772,-134.2355 283.7459,-124.6229 289.4507,-116.2762"/>
<polygon fill="#c0c0c0" stroke="#c0c0c0" stroke-width="2" points="292.3622,-118.2239 295.4303,-108.0831 286.7079,-114.0973 292.3622,-118.2239"/>
</g>
<!-- 9&#45;&gt;3 -->
<g id="edge12" class="edge">
<title>9&#45;&gt;3</title>
<path fill="none" stroke="#c0c0c0" stroke-width="2" d="M250.6069,-215.8314C233.1501,-206.4516 211.6721,-194.9112 193.0855,-184.9244"/>
<polygon fill="#c0c0c0" stroke="#c0c0c0" stroke-width="2" points="194.6893,-181.8129 184.2238,-180.1628 191.3761,-187.9792 194.6893,-181.8129"/>
</g>
<!-- 9&#45;&gt;10 -->
<g id="edge25" class="edge">
<title>9&#45;&gt;10</title>
<path fill="none" stroke="#c0c0c0" stroke-width="2" d="M291.234,-215.8314C294.1851,-207.9617 297.7066,-198.5712 300.9758,-189.8533"/>
<polygon fill="#c0c0c0" stroke="#c0c0c0" stroke-width="2" points="304.2816,-191.0055 304.5158,-180.4133 297.7273,-188.5476 304.2816,-191.0055"/>
</g>
<!-- 9&#45;&gt;14 -->
<g id="edge31" class="edge">
<title>9&#45;&gt;14</title>
<path fill="none" stroke="#c0c0c0" stroke-width="2" d="M322.2721,-215.8314C342.1554,-206.2874 366.6989,-194.5065 387.7513,-184.4013"/>
<polygon fill="#c0c0c0" stroke="#c0c0c0" stroke-width="2" points="389.3409,-187.5207 396.8416,-180.038 386.3118,-181.21 389.3409,-187.5207"/>
</g>
<!-- 10&#45;&gt;1 -->
<g id="edge4" class="edge">
<title>10&#45;&gt;1</title>
<path fill="none" stroke="#c0c0c0" stroke-width="2" d="M311.4207,-143.8314C311.4207,-136.131 311.4207,-126.9743 311.4207,-118.4166"/>
<polygon fill="#c0c0c0" stroke="#c0c0c0" stroke-width="2" points="314.9208,-118.4132 311.4207,-108.4133 307.9208,-118.4133 314.9208,-118.4132"/>
</g>
<!-- 11&#45;&gt;5 -->
<g id="edge16" class="edge">
<title>11&#45;&gt;5</title>
<path fill="none" stroke="#c0c0c0" stroke-width="2" d="M208.1678,-359.8314C194.4818,-350.7074 177.7293,-339.539 163.038,-329.7449"/>
<polygon fill="#c0c0c0" stroke="#c0c0c0" stroke-width="2" points="164.927,-326.7977 154.665,-324.1628 161.044,-332.6221 164.927,-326.7977"/>
</g>
<!-- 11&#45;&gt;8 -->
<g id="edge20" class="edge">
<title>11&#45;&gt;8</title>
<path fill="none" stroke="#c0c0c0" stroke-width="2" d="M285.38,-359.9243C312.5844,-350.0815 346.4224,-337.8386 374.977,-327.5073"/>
<polygon fill="#c0c0c0" stroke="#c0c0c0" stroke-width="2" points="376.2283,-330.7767 384.4409,-324.0831 373.8467,-324.1943 376.2283,-330.7767"/>
</g>
<!-- 13&#45;&gt;1 -->
<g id="edge8" class="edge">
<title>13&#45;&gt;1</title>
<path fill="none" stroke="#c0c0c0" stroke-width="2" d="M541.8151,-215.9152C542.3291,-195.6947 539.8626,-163.2646 521.4207,-144 500.7742,-122.4323 425.085,-106.8596 370.4932,-98.1334"/>
<polygon fill="#c0c0c0" stroke="#c0c0c0" stroke-width="2" points="370.9834,-94.6676 360.5633,-96.5838 369.904,-101.5839 370.9834,-94.6676"/>
</g>
<!-- 13&#45;&gt;4 -->
<g id="edge13" class="edge">
<title>13&#45;&gt;4</title>
<path fill="none" stroke="#c0c0c0" stroke-width="2" d="M562.8792,-215.8314C573.8412,-206.9632 587.1906,-196.1637 599.0472,-186.5718"/>
<polygon fill="#c0c0c0" stroke="#c0c0c0" stroke-width="2" points="601.3963,-189.1734 606.9695,-180.1628 596.9936,-183.7313 601.3963,-189.1734"/>
</g>
<!-- 14&#45;&gt;1 -->
<g id="edge10" class="edge">
<title>14&#45;&gt;1</title>
<path fill="none" stroke="#c0c0c0" stroke-width="2" d="M403.3826,-143.8314C387.6502,-134.6221 368.3597,-123.3301 351.5164,-113.4706"/>
<polygon fill="#c0c0c0" stroke="#c0c0c0" stroke-width="2" points="352.8472,-110.1941 342.4489,-108.1628 349.3109,-116.2352 352.8472,-110.1941"/>
</g>
</g>
</svg>
