<?xml version="1.0" encoding="UTF-8" standalone="no"?>
<!DOCTYPE svg PUBLIC "-//W3C//DTD SVG 1.1//EN"
 "http://www.w3.org/Graphics/SVG/1.1/DTD/svg11.dtd">
<!-- Generated by graphviz version 2.40.1 (20161225.0304)
 -->
<!-- Title: snakemake_dag Pages: 1 -->
<svg width="357pt" height="404pt"
 viewBox="0.00 0.00 357.00 404.00" xmlns="http://www.w3.org/2000/svg" xmlns:xlink="http://www.w3.org/1999/xlink">
<g id="graph0" class="graph" transform="scale(1 1) rotate(0) translate(4 400)">
<title>snakemake_dag</title>
<polygon fill="#ffffff" stroke="transparent" points="-4,4 -4,-400 353,-400 353,4 -4,4"/>
<!-- 0 -->
<g id="node1" class="node">
<title>0</title>
<path fill="none" stroke="#5692d8" stroke-width="2" d="M200.5,-36C200.5,-36 170.5,-36 170.5,-36 164.5,-36 158.5,-30 158.5,-24 158.5,-24 158.5,-12 158.5,-12 158.5,-6 164.5,0 170.5,0 170.5,0 200.5,0 200.5,0 206.5,0 212.5,-6 212.5,-12 212.5,-12 212.5,-24 212.5,-24 212.5,-30 206.5,-36 200.5,-36"/>
<text text-anchor="middle" x="185.5" y="-15.5" font-family="sans" font-size="10.00" fill="#000000">all</text>
</g>
<!-- 1 -->
<g id="node2" class="node">
<title>1</title>
<path fill="none" stroke="#56d8a9" stroke-width="2" d="M174.5,-108C174.5,-108 98.5,-108 98.5,-108 92.5,-108 86.5,-102 86.5,-96 86.5,-96 86.5,-84 86.5,-84 86.5,-78 92.5,-72 98.5,-72 98.5,-72 174.5,-72 174.5,-72 180.5,-72 186.5,-78 186.5,-84 186.5,-84 186.5,-96 186.5,-96 186.5,-102 180.5,-108 174.5,-108"/>
<text text-anchor="middle" x="136.5" y="-87.5" font-family="sans" font-size="10.00" fill="#000000">reQuantify_Salmon</text>
</g>
<!-- 1&#45;&gt;0 -->
<g id="edge2" class="edge">
<title>1&#45;&gt;0</title>
<path fill="none" stroke="#c0c0c0" stroke-width="2" d="M148.8648,-71.8314C154.4509,-63.6232 161.163,-53.7606 167.3072,-44.7323"/>
<polygon fill="#c0c0c0" stroke="#c0c0c0" stroke-width="2" points="170.236,-46.6496 172.9687,-36.4133 164.449,-42.7112 170.236,-46.6496"/>
</g>
<!-- 2 -->
<g id="node3" class="node">
<title>2</title>
<path fill="none" stroke="#d88d56" stroke-width="2" d="M254,-108C254,-108 217,-108 217,-108 211,-108 205,-102 205,-96 205,-96 205,-84 205,-84 205,-78 211,-72 217,-72 217,-72 254,-72 254,-72 260,-72 266,-78 266,-84 266,-84 266,-96 266,-96 266,-102 260,-108 254,-108"/>
<text text-anchor="middle" x="235.5" y="-87.5" font-family="sans" font-size="10.00" fill="#000000">runrMATS</text>
</g>
<!-- 2&#45;&gt;0 -->
<g id="edge1" class="edge">
<title>2&#45;&gt;0</title>
<path fill="none" stroke="#c0c0c0" stroke-width="2" d="M222.8829,-71.8314C217.1828,-63.6232 210.3337,-53.7606 204.0641,-44.7323"/>
<polygon fill="#c0c0c0" stroke="#c0c0c0" stroke-width="2" points="206.8658,-42.6306 198.287,-36.4133 201.1162,-46.6234 206.8658,-42.6306"/>
</g>
<!-- 3 -->
<g id="node4" class="node">
<title>3</title>
<path fill="none" stroke="#8fd856" stroke-width="2" d="M103.5,-180C103.5,-180 25.5,-180 25.5,-180 19.5,-180 13.5,-174 13.5,-168 13.5,-168 13.5,-156 13.5,-156 13.5,-150 19.5,-144 25.5,-144 25.5,-144 103.5,-144 103.5,-144 109.5,-144 115.5,-150 115.5,-156 115.5,-156 115.5,-168 115.5,-168 115.5,-174 109.5,-180 103.5,-180"/>
<text text-anchor="middle" x="64.5" y="-159.5" font-family="sans" font-size="10.00" fill="#000000">build_salmon_index</text>
</g>
<!-- 3&#45;&gt;1 -->
<g id="edge4" class="edge">
<title>3&#45;&gt;1</title>
<path fill="none" stroke="#c0c0c0" stroke-width="2" d="M82.6686,-143.8314C91.2152,-135.2848 101.5557,-124.9443 110.8802,-115.6198"/>
<polygon fill="#c0c0c0" stroke="#c0c0c0" stroke-width="2" points="113.4905,-117.9592 118.0867,-108.4133 108.5408,-113.0095 113.4905,-117.9592"/>
</g>
<!-- 4 -->
<g id="node5" class="node">
<title>4</title>
<path fill="none" stroke="#56c9d8" stroke-width="2" d="M216.5,-324C216.5,-324 164.5,-324 164.5,-324 158.5,-324 152.5,-318 152.5,-312 152.5,-312 152.5,-300 152.5,-300 152.5,-294 158.5,-288 164.5,-288 164.5,-288 216.5,-288 216.5,-288 222.5,-288 228.5,-294 228.5,-300 228.5,-300 228.5,-312 228.5,-312 228.5,-318 222.5,-324 216.5,-324"/>
<text text-anchor="middle" x="190.5" y="-303.5" font-family="sans" font-size="10.00" fill="#000000">aggFastqsPE</text>
</g>
<!-- 4&#45;&gt;1 -->
<g id="edge3" class="edge">
<title>4&#45;&gt;1</title>
<path fill="none" stroke="#c0c0c0" stroke-width="2" d="M179.117,-287.6532C173.3012,-277.4933 166.6036,-264.4352 162.5,-252 147.5831,-206.7967 141.062,-151.5784 138.3318,-118.6817"/>
<polygon fill="#c0c0c0" stroke="#c0c0c0" stroke-width="2" points="141.7999,-118.1306 137.5446,-108.4278 134.8204,-118.6664 141.7999,-118.1306"/>
</g>
<!-- 10 -->
<g id="node11" class="node">
<title>10</title>
<path fill="none" stroke="#d87556" stroke-width="2" d="M269.5,-252C269.5,-252 183.5,-252 183.5,-252 177.5,-252 171.5,-246 171.5,-240 171.5,-240 171.5,-228 171.5,-228 171.5,-222 177.5,-216 183.5,-216 183.5,-216 269.5,-216 269.5,-216 275.5,-216 281.5,-222 281.5,-228 281.5,-228 281.5,-240 281.5,-240 281.5,-246 275.5,-252 269.5,-252"/>
<text text-anchor="middle" x="226.5" y="-231.5" font-family="sans" font-size="10.00" fill="#000000">run_STAR_alignment</text>
</g>
<!-- 4&#45;&gt;10 -->
<g id="edge12" class="edge">
<title>4&#45;&gt;10</title>
<path fill="none" stroke="#c0c0c0" stroke-width="2" d="M199.5843,-287.8314C203.5615,-279.8771 208.3155,-270.369 212.7139,-261.5723"/>
<polygon fill="#c0c0c0" stroke="#c0c0c0" stroke-width="2" points="215.9517,-262.9228 217.2934,-252.4133 209.6907,-259.7923 215.9517,-262.9228"/>
</g>
<!-- 5 -->
<g id="node6" class="node">
<title>5</title>
<path fill="none" stroke="#5673d8" stroke-width="2" d="M334.5,-324C334.5,-324 266.5,-324 266.5,-324 260.5,-324 254.5,-318 254.5,-312 254.5,-312 254.5,-300 254.5,-300 254.5,-294 260.5,-288 266.5,-288 266.5,-288 334.5,-288 334.5,-288 340.5,-288 346.5,-294 346.5,-300 346.5,-300 346.5,-312 346.5,-312 346.5,-318 340.5,-324 334.5,-324"/>
<text text-anchor="middle" x="300.5" y="-303.5" font-family="sans" font-size="10.00" fill="#000000">build_STARindex</text>
</g>
<!-- 5&#45;&gt;2 -->
<g id="edge6" class="edge">
<title>5&#45;&gt;2</title>
<path fill="none" stroke="#c0c0c0" stroke-width="2" d="M302.681,-287.7846C305.5998,-256.7504 308.1566,-192.2978 286.5,-144 281.7334,-133.3697 273.9795,-123.5171 265.9404,-115.2172"/>
<polygon fill="#c0c0c0" stroke="#c0c0c0" stroke-width="2" points="268.1698,-112.5037 258.5548,-108.0536 263.2961,-117.5284 268.1698,-112.5037"/>
</g>
<!-- 5&#45;&gt;10 -->
<g id="edge13" class="edge">
<title>5&#45;&gt;10</title>
<path fill="none" stroke="#c0c0c0" stroke-width="2" d="M281.8267,-287.8314C272.9751,-279.219 262.2514,-268.7851 252.6105,-259.4048"/>
<polygon fill="#c0c0c0" stroke="#c0c0c0" stroke-width="2" points="254.7754,-256.6279 245.1674,-252.1628 249.8939,-261.645 254.7754,-256.6279"/>
</g>
<!-- 6 -->
<g id="node7" class="node">
<title>6</title>
<path fill="none" stroke="#56a9d8" stroke-width="2" d="M266,-180C266,-180 193,-180 193,-180 187,-180 181,-174 181,-168 181,-168 181,-156 181,-156 181,-150 187,-144 193,-144 193,-144 266,-144 266,-144 272,-144 278,-150 278,-156 278,-156 278,-168 278,-168 278,-174 272,-180 266,-180"/>
<text text-anchor="middle" x="229.5" y="-159.5" font-family="sans" font-size="10.00" fill="#000000">preprMats_running</text>
</g>
<!-- 6&#45;&gt;2 -->
<g id="edge5" class="edge">
<title>6&#45;&gt;2</title>
<path fill="none" stroke="#c0c0c0" stroke-width="2" d="M231.0141,-143.8314C231.6558,-136.131 232.4188,-126.9743 233.1319,-118.4166"/>
<polygon fill="#c0c0c0" stroke="#c0c0c0" stroke-width="2" points="236.6229,-118.6694 233.9656,-108.4133 229.6471,-118.088 236.6229,-118.6694"/>
</g>
<!-- 7 -->
<g id="node8" class="node">
<title>7</title>
<path fill="none" stroke="#56d8c9" stroke-width="2" d="M86.5,-252C86.5,-252 42.5,-252 42.5,-252 36.5,-252 30.5,-246 30.5,-240 30.5,-240 30.5,-228 30.5,-228 30.5,-222 36.5,-216 42.5,-216 42.5,-216 86.5,-216 86.5,-216 92.5,-216 98.5,-222 98.5,-228 98.5,-228 98.5,-240 98.5,-240 98.5,-246 92.5,-252 86.5,-252"/>
<text text-anchor="middle" x="64.5" y="-231.5" font-family="sans" font-size="10.00" fill="#000000">gtf_to_fasta</text>
</g>
<!-- 7&#45;&gt;3 -->
<g id="edge7" class="edge">
<title>7&#45;&gt;3</title>
<path fill="none" stroke="#c0c0c0" stroke-width="2" d="M64.5,-215.8314C64.5,-208.131 64.5,-198.9743 64.5,-190.4166"/>
<polygon fill="#c0c0c0" stroke="#c0c0c0" stroke-width="2" points="68.0001,-190.4132 64.5,-180.4133 61.0001,-190.4133 68.0001,-190.4132"/>
</g>
<!-- 8 -->
<g id="node9" class="node">
<title>8</title>
<path fill="none" stroke="#d85656" stroke-width="2" d="M205.5,-396C205.5,-396 175.5,-396 175.5,-396 169.5,-396 163.5,-390 163.5,-384 163.5,-384 163.5,-372 163.5,-372 163.5,-366 169.5,-360 175.5,-360 175.5,-360 205.5,-360 205.5,-360 211.5,-360 217.5,-366 217.5,-372 217.5,-372 217.5,-384 217.5,-384 217.5,-390 211.5,-396 205.5,-396"/>
<text text-anchor="middle" x="190.5" y="-375.5" font-family="sans" font-size="10.00" fill="#000000">getFQP</text>
</g>
<!-- 8&#45;&gt;4 -->
<g id="edge8" class="edge">
<title>8&#45;&gt;4</title>
<path fill="none" stroke="#c0c0c0" stroke-width="2" d="M190.5,-359.8314C190.5,-352.131 190.5,-342.9743 190.5,-334.4166"/>
<polygon fill="#c0c0c0" stroke="#c0c0c0" stroke-width="2" points="194.0001,-334.4132 190.5,-324.4133 187.0001,-334.4133 194.0001,-334.4132"/>
</g>
<!-- 9 -->
<g id="node10" class="node">
<title>9</title>
<path fill="none" stroke="#c6d856" stroke-width="2" d="M337,-396C337,-396 264,-396 264,-396 258,-396 252,-390 252,-384 252,-384 252,-372 252,-372 252,-366 258,-360 264,-360 264,-360 337,-360 337,-360 343,-360 349,-366 349,-372 349,-372 349,-384 349,-384 349,-390 343,-396 337,-396"/>
<text text-anchor="middle" x="300.5" y="-375.5" font-family="sans" font-size="10.00" fill="#000000">downloadGencode</text>
</g>
<!-- 9&#45;&gt;5 -->
<g id="edge9" class="edge">
<title>9&#45;&gt;5</title>
<path fill="none" stroke="#c0c0c0" stroke-width="2" d="M300.5,-359.8314C300.5,-352.131 300.5,-342.9743 300.5,-334.4166"/>
<polygon fill="#c0c0c0" stroke="#c0c0c0" stroke-width="2" points="304.0001,-334.4132 300.5,-324.4133 297.0001,-334.4133 304.0001,-334.4132"/>
</g>
<!-- 10&#45;&gt;6 -->
<g id="edge10" class="edge">
<title>10&#45;&gt;6</title>
<path fill="none" stroke="#c0c0c0" stroke-width="2" d="M227.257,-215.8314C227.5779,-208.131 227.9594,-198.9743 228.316,-190.4166"/>
<polygon fill="#c0c0c0" stroke="#c0c0c0" stroke-width="2" points="231.8133,-190.5503 228.7328,-180.4133 224.8194,-190.2589 231.8133,-190.5503"/>
</g>
<!-- 11 -->
<g id="node12" class="node">
<title>11</title>
<path fill="none" stroke="#70d856" stroke-width="2" d="M87.5,-324C87.5,-324 41.5,-324 41.5,-324 35.5,-324 29.5,-318 29.5,-312 29.5,-312 29.5,-300 29.5,-300 29.5,-294 35.5,-288 41.5,-288 41.5,-288 87.5,-288 87.5,-288 93.5,-288 99.5,-294 99.5,-300 99.5,-300 99.5,-312 99.5,-312 99.5,-318 93.5,-324 87.5,-324"/>
<text text-anchor="middle" x="64.5" y="-303.5" font-family="sans" font-size="10.00" fill="#000000">run_stringtie</text>
</g>
<!-- 11&#45;&gt;7 -->
<g id="edge11" class="edge">
<title>11&#45;&gt;7</title>
<path fill="none" stroke="#c0c0c0" stroke-width="2" d="M64.5,-287.8314C64.5,-280.131 64.5,-270.9743 64.5,-262.4166"/>
<polygon fill="#c0c0c0" stroke="#c0c0c0" stroke-width="2" points="68.0001,-262.4132 64.5,-252.4133 61.0001,-262.4133 68.0001,-262.4132"/>
</g>
<!-- 12 -->
<g id="node13" class="node">
<title>12</title>
<path fill="none" stroke="#afd856" stroke-width="2" d="M117,-396C117,-396 12,-396 12,-396 6,-396 0,-390 0,-384 0,-384 0,-372 0,-372 0,-366 6,-360 12,-360 12,-360 117,-360 117,-360 123,-360 129,-366 129,-372 129,-372 129,-384 129,-384 129,-390 123,-396 117,-396"/>
<text text-anchor="middle" x="64.5" y="-375.5" font-family="sans" font-size="10.00" fill="#000000">merge_bams_for_stringtie</text>
</g>
<!-- 12&#45;&gt;11 -->
<g id="edge14" class="edge">
<title>12&#45;&gt;11</title>
<path fill="none" stroke="#c0c0c0" stroke-width="2" d="M64.5,-359.8314C64.5,-352.131 64.5,-342.9743 64.5,-334.4166"/>
<polygon fill="#c0c0c0" stroke="#c0c0c0" stroke-width="2" points="68.0001,-334.4132 64.5,-324.4133 61.0001,-334.4133 68.0001,-334.4132"/>
</g>
</g>
</svg>
