<?xml version="1.0" encoding="UTF-8" standalone="no"?>
<!DOCTYPE svg PUBLIC "-//W3C//DTD SVG 1.1//EN"
 "http://www.w3.org/Graphics/SVG/1.1/DTD/svg11.dtd">
<!-- Generated by graphviz version 2.40.1 (20161225.0304)
 -->
<!-- Title: snakemake_dag Pages: 1 -->
<svg width="333pt" height="908pt"
 viewBox="0.00 0.00 332.69 908.00" xmlns="http://www.w3.org/2000/svg" xmlns:xlink="http://www.w3.org/1999/xlink">
<g id="graph0" class="graph" transform="scale(1 1) rotate(0) translate(4 904)">
<title>snakemake_dag</title>
<polygon fill="#ffffff" stroke="transparent" points="-4,4 -4,-904 328.6938,-904 328.6938,4 -4,4"/>
<!-- 0 -->
<g id="node1" class="node">
<title>0</title>
<path fill="none" stroke="#d87556" stroke-width="2" d="M190,-36C190,-36 160,-36 160,-36 154,-36 148,-30 148,-24 148,-24 148,-12 148,-12 148,-6 154,0 160,0 160,0 190,0 190,0 196,0 202,-6 202,-12 202,-12 202,-24 202,-24 202,-30 196,-36 190,-36"/>
<text text-anchor="middle" x="175" y="-15.5" font-family="sans" font-size="10.00" fill="#000000">all</text>
</g>
<!-- 1 -->
<g id="node2" class="node">
<title>1</title>
<path fill="none" stroke="#56d873" stroke-width="2" d="M171,-108C171,-108 95,-108 95,-108 89,-108 83,-102 83,-96 83,-96 83,-84 83,-84 83,-78 89,-72 95,-72 95,-72 171,-72 171,-72 177,-72 183,-78 183,-84 183,-84 183,-96 183,-96 183,-102 177,-108 171,-108"/>
<text text-anchor="middle" x="133" y="-87.5" font-family="sans" font-size="10.00" fill="#000000">reQuantify_Salmon</text>
</g>
<!-- 1&#45;&gt;0 -->
<g id="edge1" class="edge">
<title>1&#45;&gt;0</title>
<path fill="none" stroke="#c0c0c0" stroke-width="2" d="M143.5984,-71.8314C148.2877,-63.7925 153.9028,-54.1666 159.0798,-45.2918"/>
<polygon fill="#c0c0c0" stroke="#c0c0c0" stroke-width="2" points="162.2434,-46.8146 164.2589,-36.4133 156.1969,-43.2875 162.2434,-46.8146"/>
</g>
<!-- 2 -->
<g id="node3" class="node">
<title>2</title>
<path fill="none" stroke="#afd856" stroke-width="2" d="M280.5,-612C280.5,-612 243.5,-612 243.5,-612 237.5,-612 231.5,-606 231.5,-600 231.5,-600 231.5,-588 231.5,-588 231.5,-582 237.5,-576 243.5,-576 243.5,-576 280.5,-576 280.5,-576 286.5,-576 292.5,-582 292.5,-588 292.5,-588 292.5,-600 292.5,-600 292.5,-606 286.5,-612 280.5,-612"/>
<text text-anchor="middle" x="262" y="-591.5" font-family="sans" font-size="10.00" fill="#000000">runrMATS</text>
</g>
<!-- 2&#45;&gt;0 -->
<g id="edge2" class="edge">
<title>2&#45;&gt;0</title>
<path fill="none" stroke="#c0c0c0" stroke-width="2" d="M259.0992,-575.8696C254.9985,-548.6233 248,-495.4634 248,-450 248,-450 248,-450 248,-162 248,-116.7858 219.0146,-71.3764 197.5728,-43.9705"/>
<polygon fill="#c0c0c0" stroke="#c0c0c0" stroke-width="2" points="200.2009,-41.6538 191.2011,-36.0633 194.7504,-46.046 200.2009,-41.6538"/>
</g>
<!-- 3 -->
<g id="node4" class="node">
<title>3</title>
<path fill="none" stroke="#70d856" stroke-width="2" d="M176,-180C176,-180 90,-180 90,-180 84,-180 78,-174 78,-168 78,-168 78,-156 78,-156 78,-150 84,-144 90,-144 90,-144 176,-144 176,-144 182,-144 188,-150 188,-156 188,-156 188,-168 188,-168 188,-174 182,-180 176,-180"/>
<text text-anchor="middle" x="133" y="-159.5" font-family="sans" font-size="10.00" fill="#000000">rebuild_salmon_index</text>
</g>
<!-- 3&#45;&gt;1 -->
<g id="edge3" class="edge">
<title>3&#45;&gt;1</title>
<path fill="none" stroke="#c0c0c0" stroke-width="2" d="M133,-143.8314C133,-136.131 133,-126.9743 133,-118.4166"/>
<polygon fill="#c0c0c0" stroke="#c0c0c0" stroke-width="2" points="136.5001,-118.4132 133,-108.4133 129.5001,-118.4133 136.5001,-118.4132"/>
</g>
<!-- 4 -->
<g id="node5" class="node">
<title>4</title>
<path fill="none" stroke="#c6d856" stroke-width="2" d="M64,-828C64,-828 12,-828 12,-828 6,-828 0,-822 0,-816 0,-816 0,-804 0,-804 0,-798 6,-792 12,-792 12,-792 64,-792 64,-792 70,-792 76,-798 76,-804 76,-804 76,-816 76,-816 76,-822 70,-828 64,-828"/>
<text text-anchor="middle" x="38" y="-807.5" font-family="sans" font-size="10.00" fill="#000000">aggFastqsPE</text>
</g>
<!-- 4&#45;&gt;1 -->
<g id="edge4" class="edge">
<title>4&#45;&gt;1</title>
<path fill="none" stroke="#c0c0c0" stroke-width="2" d="M29.9412,-791.7668C18.7866,-764.8248 0,-712.5405 0,-666 0,-666 0,-666 0,-234 0,-180.0557 50.9911,-137.7061 89.8273,-113.2745"/>
<polygon fill="#c0c0c0" stroke="#c0c0c0" stroke-width="2" points="91.69,-116.2381 98.403,-108.0414 88.0437,-110.2628 91.69,-116.2381"/>
</g>
<!-- 9 -->
<g id="node10" class="node">
<title>9</title>
<path fill="none" stroke="#56a9d8" stroke-width="2" d="M208,-756C208,-756 122,-756 122,-756 116,-756 110,-750 110,-744 110,-744 110,-732 110,-732 110,-726 116,-720 122,-720 122,-720 208,-720 208,-720 214,-720 220,-726 220,-732 220,-732 220,-744 220,-744 220,-750 214,-756 208,-756"/>
<text text-anchor="middle" x="165" y="-735.5" font-family="sans" font-size="10.00" fill="#000000">run_STAR_alignment</text>
</g>
<!-- 4&#45;&gt;9 -->
<g id="edge14" class="edge">
<title>4&#45;&gt;9</title>
<path fill="none" stroke="#c0c0c0" stroke-width="2" d="M70.0475,-791.8314C86.442,-782.5368 106.5786,-771.1208 124.0829,-761.1971"/>
<polygon fill="#c0c0c0" stroke="#c0c0c0" stroke-width="2" points="125.9897,-764.1395 132.9628,-756.1628 122.5374,-758.05 125.9897,-764.1395"/>
</g>
<!-- 14 -->
<g id="node15" class="node">
<title>14</title>
<path fill="none" stroke="#56d8a9" stroke-width="2" d="M138.5,-396C138.5,-396 95.5,-396 95.5,-396 89.5,-396 83.5,-390 83.5,-384 83.5,-384 83.5,-372 83.5,-372 83.5,-366 89.5,-360 95.5,-360 95.5,-360 138.5,-360 138.5,-360 144.5,-360 150.5,-366 150.5,-372 150.5,-372 150.5,-384 150.5,-384 150.5,-390 144.5,-396 138.5,-396"/>
<text text-anchor="middle" x="117" y="-375.5" font-family="sans" font-size="10.00" fill="#000000">run_salmon</text>
</g>
<!-- 4&#45;&gt;14 -->
<g id="edge19" class="edge">
<title>4&#45;&gt;14</title>
<path fill="none" stroke="#c0c0c0" stroke-width="2" d="M38,-791.8146C38,-764.4983 38,-711.25 38,-666 38,-666 38,-666 38,-522 38,-481.1184 36.5797,-467.4164 57,-432 63.3438,-420.9975 72.7153,-411.0176 82.1758,-402.7152"/>
<polygon fill="#c0c0c0" stroke="#c0c0c0" stroke-width="2" points="84.6233,-405.2322 90.0791,-396.15 80.1504,-399.8476 84.6233,-405.2322"/>
</g>
<!-- 5 -->
<g id="node6" class="node">
<title>5</title>
<path fill="none" stroke="#56d8c9" stroke-width="2" d="M298.5,-684C298.5,-684 225.5,-684 225.5,-684 219.5,-684 213.5,-678 213.5,-672 213.5,-672 213.5,-660 213.5,-660 213.5,-654 219.5,-648 225.5,-648 225.5,-648 298.5,-648 298.5,-648 304.5,-648 310.5,-654 310.5,-660 310.5,-660 310.5,-672 310.5,-672 310.5,-678 304.5,-684 298.5,-684"/>
<text text-anchor="middle" x="262" y="-663.5" font-family="sans" font-size="10.00" fill="#000000">preprMats_running</text>
</g>
<!-- 5&#45;&gt;2 -->
<g id="edge6" class="edge">
<title>5&#45;&gt;2</title>
<path fill="none" stroke="#c0c0c0" stroke-width="2" d="M262,-647.8314C262,-640.131 262,-630.9743 262,-622.4166"/>
<polygon fill="#c0c0c0" stroke="#c0c0c0" stroke-width="2" points="265.5001,-622.4132 262,-612.4133 258.5001,-622.4133 265.5001,-622.4132"/>
</g>
<!-- 6 -->
<g id="node7" class="node">
<title>6</title>
<path fill="none" stroke="#d8cb56" stroke-width="2" d="M232,-828C232,-828 164,-828 164,-828 158,-828 152,-822 152,-816 152,-816 152,-804 152,-804 152,-798 158,-792 164,-792 164,-792 232,-792 232,-792 238,-792 244,-798 244,-804 244,-804 244,-816 244,-816 244,-822 238,-828 232,-828"/>
<text text-anchor="middle" x="198" y="-807.5" font-family="sans" font-size="10.00" fill="#000000">build_STARindex</text>
</g>
<!-- 6&#45;&gt;2 -->
<g id="edge5" class="edge">
<title>6&#45;&gt;2</title>
<path fill="none" stroke="#c0c0c0" stroke-width="2" d="M225.0656,-791.9926C254.8162,-770.3926 300.9202,-731.1342 320,-684 326.0035,-669.169 326.3858,-662.6704 320,-648 315.1585,-636.8773 306.7717,-627.0106 297.8561,-618.8541"/>
<polygon fill="#c0c0c0" stroke="#c0c0c0" stroke-width="2" points="299.8456,-615.9515 289.9609,-612.138 295.31,-621.2833 299.8456,-615.9515"/>
</g>
<!-- 6&#45;&gt;9 -->
<g id="edge13" class="edge">
<title>6&#45;&gt;9</title>
<path fill="none" stroke="#c0c0c0" stroke-width="2" d="M189.6727,-791.8314C186.027,-783.8771 181.6691,-774.369 177.6373,-765.5723"/>
<polygon fill="#c0c0c0" stroke="#c0c0c0" stroke-width="2" points="180.7877,-764.0456 173.4394,-756.4133 174.4243,-766.9622 180.7877,-764.0456"/>
</g>
<!-- 7 -->
<g id="node8" class="node">
<title>7</title>
<path fill="none" stroke="#8fd856" stroke-width="2" d="M178,-252C178,-252 88,-252 88,-252 82,-252 76,-246 76,-240 76,-240 76,-228 76,-228 76,-222 82,-216 88,-216 88,-216 178,-216 178,-216 184,-216 190,-222 190,-228 190,-228 190,-240 190,-240 190,-246 184,-252 178,-252"/>
<text text-anchor="middle" x="133" y="-231.5" font-family="sans" font-size="10.00" fill="#000000">remove_tx_low_usage</text>
</g>
<!-- 7&#45;&gt;3 -->
<g id="edge7" class="edge">
<title>7&#45;&gt;3</title>
<path fill="none" stroke="#c0c0c0" stroke-width="2" d="M133,-215.8314C133,-208.131 133,-198.9743 133,-190.4166"/>
<polygon fill="#c0c0c0" stroke="#c0c0c0" stroke-width="2" points="136.5001,-190.4132 133,-180.4133 129.5001,-190.4133 136.5001,-190.4132"/>
</g>
<!-- 8 -->
<g id="node9" class="node">
<title>8</title>
<path fill="none" stroke="#56d892" stroke-width="2" d="M53,-900C53,-900 23,-900 23,-900 17,-900 11,-894 11,-888 11,-888 11,-876 11,-876 11,-870 17,-864 23,-864 23,-864 53,-864 53,-864 59,-864 65,-870 65,-876 65,-876 65,-888 65,-888 65,-894 59,-900 53,-900"/>
<text text-anchor="middle" x="38" y="-879.5" font-family="sans" font-size="10.00" fill="#000000">getFQP</text>
</g>
<!-- 8&#45;&gt;4 -->
<g id="edge8" class="edge">
<title>8&#45;&gt;4</title>
<path fill="none" stroke="#c0c0c0" stroke-width="2" d="M38,-863.8314C38,-856.131 38,-846.9743 38,-838.4166"/>
<polygon fill="#c0c0c0" stroke="#c0c0c0" stroke-width="2" points="41.5001,-838.4132 38,-828.4133 34.5001,-838.4133 41.5001,-838.4132"/>
</g>
<!-- 9&#45;&gt;5 -->
<g id="edge9" class="edge">
<title>9&#45;&gt;5</title>
<path fill="none" stroke="#c0c0c0" stroke-width="2" d="M189.4772,-719.8314C201.5395,-710.8779 216.254,-699.9558 229.2686,-690.2955"/>
<polygon fill="#c0c0c0" stroke="#c0c0c0" stroke-width="2" points="231.587,-692.9335 237.5306,-684.1628 227.4148,-687.3127 231.587,-692.9335"/>
</g>
<!-- 15 -->
<g id="node16" class="node">
<title>15</title>
<path fill="none" stroke="#d88d56" stroke-width="2" d="M183.5,-684C183.5,-684 78.5,-684 78.5,-684 72.5,-684 66.5,-678 66.5,-672 66.5,-672 66.5,-660 66.5,-660 66.5,-654 72.5,-648 78.5,-648 78.5,-648 183.5,-648 183.5,-648 189.5,-648 195.5,-654 195.5,-660 195.5,-660 195.5,-672 195.5,-672 195.5,-678 189.5,-684 183.5,-684"/>
<text text-anchor="middle" x="131" y="-663.5" font-family="sans" font-size="10.00" fill="#000000">merge_bams_for_stringtie</text>
</g>
<!-- 9&#45;&gt;15 -->
<g id="edge20" class="edge">
<title>9&#45;&gt;15</title>
<path fill="none" stroke="#c0c0c0" stroke-width="2" d="M156.4204,-719.8314C152.6642,-711.8771 148.1743,-702.369 144.0202,-693.5723"/>
<polygon fill="#c0c0c0" stroke="#c0c0c0" stroke-width="2" points="147.1301,-691.9612 139.6952,-684.4133 140.8004,-694.9503 147.1301,-691.9612"/>
</g>
<!-- 10 -->
<g id="node11" class="node">
<title>10</title>
<path fill="none" stroke="#5692d8" stroke-width="2" d="M234.5,-900C234.5,-900 161.5,-900 161.5,-900 155.5,-900 149.5,-894 149.5,-888 149.5,-888 149.5,-876 149.5,-876 149.5,-870 155.5,-864 161.5,-864 161.5,-864 234.5,-864 234.5,-864 240.5,-864 246.5,-870 246.5,-876 246.5,-876 246.5,-888 246.5,-888 246.5,-894 240.5,-900 234.5,-900"/>
<text text-anchor="middle" x="198" y="-879.5" font-family="sans" font-size="10.00" fill="#000000">downloadGencode</text>
</g>
<!-- 10&#45;&gt;6 -->
<g id="edge10" class="edge">
<title>10&#45;&gt;6</title>
<path fill="none" stroke="#c0c0c0" stroke-width="2" d="M198,-863.8314C198,-856.131 198,-846.9743 198,-838.4166"/>
<polygon fill="#c0c0c0" stroke="#c0c0c0" stroke-width="2" points="201.5001,-838.4132 198,-828.4133 194.5001,-838.4133 201.5001,-838.4132"/>
</g>
<!-- 11 -->
<g id="node12" class="node">
<title>11</title>
<path fill="none" stroke="#59d856" stroke-width="2" d="M153,-540C153,-540 109,-540 109,-540 103,-540 97,-534 97,-528 97,-528 97,-516 97,-516 97,-510 103,-504 109,-504 109,-504 153,-504 153,-504 159,-504 165,-510 165,-516 165,-516 165,-528 165,-528 165,-534 159,-540 153,-540"/>
<text text-anchor="middle" x="131" y="-519.5" font-family="sans" font-size="10.00" fill="#000000">gtf_to_fasta</text>
</g>
<!-- 11&#45;&gt;7 -->
<g id="edge11" class="edge">
<title>11&#45;&gt;7</title>
<path fill="none" stroke="#c0c0c0" stroke-width="2" d="M152.3127,-503.7308C161.8134,-494.1756 171.979,-481.6372 177,-468 188.0042,-438.1124 218.5735,-408.4641 176,-288 172.3686,-277.7247 165.8912,-267.9355 159.0479,-259.5837"/>
<polygon fill="#c0c0c0" stroke="#c0c0c0" stroke-width="2" points="161.6741,-257.2699 152.4557,-252.0477 156.4055,-261.8788 161.6741,-257.2699"/>
</g>
<!-- 16 -->
<g id="node17" class="node">
<title>16</title>
<path fill="none" stroke="#d85656" stroke-width="2" d="M156,-468C156,-468 78,-468 78,-468 72,-468 66,-462 66,-456 66,-456 66,-444 66,-444 66,-438 72,-432 78,-432 78,-432 156,-432 156,-432 162,-432 168,-438 168,-444 168,-444 168,-456 168,-456 168,-462 162,-468 156,-468"/>
<text text-anchor="middle" x="117" y="-447.5" font-family="sans" font-size="10.00" fill="#000000">build_salmon_index</text>
</g>
<!-- 11&#45;&gt;16 -->
<g id="edge21" class="edge">
<title>11&#45;&gt;16</title>
<path fill="none" stroke="#c0c0c0" stroke-width="2" d="M127.4672,-503.8314C125.9699,-496.131 124.1895,-486.9743 122.5255,-478.4166"/>
<polygon fill="#c0c0c0" stroke="#c0c0c0" stroke-width="2" points="125.9248,-477.5614 120.5804,-468.4133 119.0535,-478.8975 125.9248,-477.5614"/>
</g>
<!-- 12 -->
<g id="node13" class="node">
<title>12</title>
<path fill="none" stroke="#56c9d8" stroke-width="2" d="M155,-324C155,-324 81,-324 81,-324 75,-324 69,-318 69,-312 69,-312 69,-300 69,-300 69,-294 75,-288 81,-288 81,-288 155,-288 155,-288 161,-288 167,-294 167,-300 167,-300 167,-312 167,-312 167,-318 161,-324 155,-324"/>
<text text-anchor="middle" x="118" y="-303.5" font-family="sans" font-size="10.00" fill="#000000">find_tx_low_usage</text>
</g>
<!-- 12&#45;&gt;7 -->
<g id="edge12" class="edge">
<title>12&#45;&gt;7</title>
<path fill="none" stroke="#c0c0c0" stroke-width="2" d="M121.7851,-287.8314C123.3894,-280.131 125.297,-270.9743 127.0799,-262.4166"/>
<polygon fill="#c0c0c0" stroke="#c0c0c0" stroke-width="2" points="130.5507,-262.9169 129.1639,-252.4133 123.6979,-261.4892 130.5507,-262.9169"/>
</g>
<!-- 13 -->
<g id="node14" class="node">
<title>13</title>
<path fill="none" stroke="#d8ac56" stroke-width="2" d="M154,-612C154,-612 108,-612 108,-612 102,-612 96,-606 96,-600 96,-600 96,-588 96,-588 96,-582 102,-576 108,-576 108,-576 154,-576 154,-576 160,-576 166,-582 166,-588 166,-588 166,-600 166,-600 166,-606 160,-612 154,-612"/>
<text text-anchor="middle" x="131" y="-591.5" font-family="sans" font-size="10.00" fill="#000000">run_stringtie</text>
</g>
<!-- 13&#45;&gt;11 -->
<g id="edge15" class="edge">
<title>13&#45;&gt;11</title>
<path fill="none" stroke="#c0c0c0" stroke-width="2" d="M131,-575.8314C131,-568.131 131,-558.9743 131,-550.4166"/>
<polygon fill="#c0c0c0" stroke="#c0c0c0" stroke-width="2" points="134.5001,-550.4132 131,-540.4133 127.5001,-550.4133 134.5001,-550.4132"/>
</g>
<!-- 14&#45;&gt;12 -->
<g id="edge16" class="edge">
<title>14&#45;&gt;12</title>
<path fill="none" stroke="#c0c0c0" stroke-width="2" d="M117.2523,-359.8314C117.3593,-352.131 117.4865,-342.9743 117.6053,-334.4166"/>
<polygon fill="#c0c0c0" stroke="#c0c0c0" stroke-width="2" points="121.1049,-334.4609 117.7443,-324.4133 114.1056,-334.3637 121.1049,-334.4609"/>
</g>
<!-- 15&#45;&gt;13 -->
<g id="edge17" class="edge">
<title>15&#45;&gt;13</title>
<path fill="none" stroke="#c0c0c0" stroke-width="2" d="M131,-647.8314C131,-640.131 131,-630.9743 131,-622.4166"/>
<polygon fill="#c0c0c0" stroke="#c0c0c0" stroke-width="2" points="134.5001,-622.4132 131,-612.4133 127.5001,-622.4133 134.5001,-622.4132"/>
</g>
<!-- 16&#45;&gt;14 -->
<g id="edge18" class="edge">
<title>16&#45;&gt;14</title>
<path fill="none" stroke="#c0c0c0" stroke-width="2" d="M117,-431.8314C117,-424.131 117,-414.9743 117,-406.4166"/>
<polygon fill="#c0c0c0" stroke="#c0c0c0" stroke-width="2" points="120.5001,-406.4132 117,-396.4133 113.5001,-406.4133 120.5001,-406.4132"/>
</g>
</g>
</svg>
