<?xml version="1.0" encoding="UTF-8" standalone="no"?>
<!DOCTYPE svg PUBLIC "-//W3C//DTD SVG 1.1//EN"
 "http://www.w3.org/Graphics/SVG/1.1/DTD/svg11.dtd">
<!-- Generated by graphviz version 2.40.1 (20161225.0304)
 -->
<!-- Title: snakemake_dag Pages: 1 -->
<svg width="314pt" height="548pt"
 viewBox="0.00 0.00 314.00 548.00" xmlns="http://www.w3.org/2000/svg" xmlns:xlink="http://www.w3.org/1999/xlink">
<g id="graph0" class="graph" transform="scale(1 1) rotate(0) translate(4 544)">
<title>snakemake_dag</title>
<polygon fill="#ffffff" stroke="transparent" points="-4,4 -4,-544 310,-544 310,4 -4,4"/>
<!-- 0 -->
<g id="node1" class="node">
<title>0</title>
<path fill="none" stroke="#56d88a" stroke-width="2" d="M168,-36C168,-36 138,-36 138,-36 132,-36 126,-30 126,-24 126,-24 126,-12 126,-12 126,-6 132,0 138,0 138,0 168,0 168,0 174,0 180,-6 180,-12 180,-12 180,-24 180,-24 180,-30 174,-36 168,-36"/>
<text text-anchor="middle" x="153" y="-15.5" font-family="sans" font-size="10.00" fill="#000000">all</text>
</g>
<!-- 1 -->
<g id="node2" class="node">
<title>1</title>
<path fill="none" stroke="#56d8d0" stroke-width="2" d="M117.5,-252C117.5,-252 80.5,-252 80.5,-252 74.5,-252 68.5,-246 68.5,-240 68.5,-240 68.5,-228 68.5,-228 68.5,-222 74.5,-216 80.5,-216 80.5,-216 117.5,-216 117.5,-216 123.5,-216 129.5,-222 129.5,-228 129.5,-228 129.5,-240 129.5,-240 129.5,-246 123.5,-252 117.5,-252"/>
<text text-anchor="middle" x="99" y="-231.5" font-family="sans" font-size="10.00" fill="#000000">runrMATS</text>
</g>
<!-- 1&#45;&gt;0 -->
<g id="edge2" class="edge">
<title>1&#45;&gt;0</title>
<path fill="none" stroke="#c0c0c0" stroke-width="2" d="M103.5111,-215.9555C112.9214,-178.3144 134.7033,-91.1867 145.9689,-46.1246"/>
<polygon fill="#c0c0c0" stroke="#c0c0c0" stroke-width="2" points="149.4338,-46.6954 148.4637,-36.1451 142.6428,-44.9976 149.4338,-46.6954"/>
</g>
<!-- 2 -->
<g id="node3" class="node">
<title>2</title>
<path fill="none" stroke="#569ad8" stroke-width="2" d="M245,-108C245,-108 169,-108 169,-108 163,-108 157,-102 157,-96 157,-96 157,-84 157,-84 157,-78 163,-72 169,-72 169,-72 245,-72 245,-72 251,-72 257,-78 257,-84 257,-84 257,-96 257,-96 257,-102 251,-108 245,-108"/>
<text text-anchor="middle" x="207" y="-87.5" font-family="sans" font-size="10.00" fill="#000000">reQuantify_Salmon</text>
</g>
<!-- 2&#45;&gt;0 -->
<g id="edge1" class="edge">
<title>2&#45;&gt;0</title>
<path fill="none" stroke="#c0c0c0" stroke-width="2" d="M193.3735,-71.8314C187.154,-63.5386 179.6678,-53.557 172.84,-44.4533"/>
<polygon fill="#c0c0c0" stroke="#c0c0c0" stroke-width="2" points="175.61,-42.3133 166.81,-36.4133 170.01,-46.5133 175.61,-42.3133"/>
</g>
<!-- 3 -->
<g id="node4" class="node">
<title>3</title>
<path fill="none" stroke="#d85656" stroke-width="2" d="M80,-468C80,-468 12,-468 12,-468 6,-468 0,-462 0,-456 0,-456 0,-444 0,-444 0,-438 6,-432 12,-432 12,-432 80,-432 80,-432 86,-432 92,-438 92,-444 92,-444 92,-456 92,-456 92,-462 86,-468 80,-468"/>
<text text-anchor="middle" x="46" y="-447.5" font-family="sans" font-size="10.00" fill="#000000">build_STARindex</text>
</g>
<!-- 3&#45;&gt;1 -->
<g id="edge3" class="edge">
<title>3&#45;&gt;1</title>
<path fill="none" stroke="#c0c0c0" stroke-width="2" d="M40.5947,-431.8013C32.4134,-400.7919 19.943,-336.3753 41,-288 45.8415,-276.8773 54.2283,-267.0106 63.1439,-258.8541"/>
<polygon fill="#c0c0c0" stroke="#c0c0c0" stroke-width="2" points="65.69,-261.2833 71.0391,-252.138 61.1544,-255.9515 65.69,-261.2833"/>
</g>
<!-- 8 -->
<g id="node9" class="node">
<title>8</title>
<path fill="none" stroke="#88d856" stroke-width="2" d="M148,-396C148,-396 62,-396 62,-396 56,-396 50,-390 50,-384 50,-384 50,-372 50,-372 50,-366 56,-360 62,-360 62,-360 148,-360 148,-360 154,-360 160,-366 160,-372 160,-372 160,-384 160,-384 160,-390 154,-396 148,-396"/>
<text text-anchor="middle" x="105" y="-375.5" font-family="sans" font-size="10.00" fill="#000000">run_STAR_alignment</text>
</g>
<!-- 3&#45;&gt;8 -->
<g id="edge11" class="edge">
<title>3&#45;&gt;8</title>
<path fill="none" stroke="#c0c0c0" stroke-width="2" d="M60.8882,-431.8314C67.753,-423.454 76.0301,-413.3531 83.5511,-404.1749"/>
<polygon fill="#c0c0c0" stroke="#c0c0c0" stroke-width="2" points="86.2803,-406.3665 89.9114,-396.4133 80.8659,-401.9297 86.2803,-406.3665"/>
</g>
<!-- 4 -->
<g id="node5" class="node">
<title>4</title>
<path fill="none" stroke="#d87556" stroke-width="2" d="M135.5,-324C135.5,-324 62.5,-324 62.5,-324 56.5,-324 50.5,-318 50.5,-312 50.5,-312 50.5,-300 50.5,-300 50.5,-294 56.5,-288 62.5,-288 62.5,-288 135.5,-288 135.5,-288 141.5,-288 147.5,-294 147.5,-300 147.5,-300 147.5,-312 147.5,-312 147.5,-318 141.5,-324 135.5,-324"/>
<text text-anchor="middle" x="99" y="-303.5" font-family="sans" font-size="10.00" fill="#000000">preprMats_running</text>
</g>
<!-- 4&#45;&gt;1 -->
<g id="edge4" class="edge">
<title>4&#45;&gt;1</title>
<path fill="none" stroke="#c0c0c0" stroke-width="2" d="M99,-287.8314C99,-280.131 99,-270.9743 99,-262.4166"/>
<polygon fill="#c0c0c0" stroke="#c0c0c0" stroke-width="2" points="102.5001,-262.4132 99,-252.4133 95.5001,-262.4133 102.5001,-262.4132"/>
</g>
<!-- 5 -->
<g id="node6" class="node">
<title>5</title>
<path fill="none" stroke="#ced856" stroke-width="2" d="M294,-468C294,-468 242,-468 242,-468 236,-468 230,-462 230,-456 230,-456 230,-444 230,-444 230,-438 236,-432 242,-432 242,-432 294,-432 294,-432 300,-432 306,-438 306,-444 306,-444 306,-456 306,-456 306,-462 300,-468 294,-468"/>
<text text-anchor="middle" x="268" y="-447.5" font-family="sans" font-size="10.00" fill="#000000">aggFastqsPE</text>
</g>
<!-- 5&#45;&gt;2 -->
<g id="edge5" class="edge">
<title>5&#45;&gt;2</title>
<path fill="none" stroke="#c0c0c0" stroke-width="2" d="M272.9728,-431.9753C280.0026,-404.864 292,-351.8742 292,-306 292,-306 292,-306 292,-234 292,-192.9255 292.4546,-179.0258 271,-144 264.1094,-132.7507 254.0626,-122.6916 243.9627,-114.3923"/>
<polygon fill="#c0c0c0" stroke="#c0c0c0" stroke-width="2" points="245.9519,-111.5053 235.9108,-108.1246 241.6521,-117.029 245.9519,-111.5053"/>
</g>
<!-- 5&#45;&gt;8 -->
<g id="edge12" class="edge">
<title>5&#45;&gt;8</title>
<path fill="none" stroke="#c0c0c0" stroke-width="2" d="M229.7837,-433.1192C207.5209,-423.2853 179.1877,-410.77 155.1482,-400.1513"/>
<polygon fill="#c0c0c0" stroke="#c0c0c0" stroke-width="2" points="156.3877,-396.8727 145.8262,-396.0336 153.5593,-403.2758 156.3877,-396.8727"/>
</g>
<!-- 12 -->
<g id="node13" class="node">
<title>12</title>
<path fill="none" stroke="#afd856" stroke-width="2" d="M236.5,-396C236.5,-396 193.5,-396 193.5,-396 187.5,-396 181.5,-390 181.5,-384 181.5,-384 181.5,-372 181.5,-372 181.5,-366 187.5,-360 193.5,-360 193.5,-360 236.5,-360 236.5,-360 242.5,-360 248.5,-366 248.5,-372 248.5,-372 248.5,-384 248.5,-384 248.5,-390 242.5,-396 236.5,-396"/>
<text text-anchor="middle" x="215" y="-375.5" font-family="sans" font-size="10.00" fill="#000000">run_salmon</text>
</g>
<!-- 5&#45;&gt;12 -->
<g id="edge15" class="edge">
<title>5&#45;&gt;12</title>
<path fill="none" stroke="#c0c0c0" stroke-width="2" d="M254.6259,-431.8314C248.5838,-423.6232 241.3237,-413.7606 234.6779,-404.7323"/>
<polygon fill="#c0c0c0" stroke="#c0c0c0" stroke-width="2" points="237.3011,-402.3918 228.5542,-396.4133 231.6637,-406.5415 237.3011,-402.3918"/>
</g>
<!-- 6 -->
<g id="node7" class="node">
<title>6</title>
<path fill="none" stroke="#68d856" stroke-width="2" d="M250,-180C250,-180 164,-180 164,-180 158,-180 152,-174 152,-168 152,-168 152,-156 152,-156 152,-150 158,-144 164,-144 164,-144 250,-144 250,-144 256,-144 262,-150 262,-156 262,-156 262,-168 262,-168 262,-174 256,-180 250,-180"/>
<text text-anchor="middle" x="207" y="-159.5" font-family="sans" font-size="10.00" fill="#000000">rebuild_salmon_index</text>
</g>
<!-- 6&#45;&gt;2 -->
<g id="edge6" class="edge">
<title>6&#45;&gt;2</title>
<path fill="none" stroke="#c0c0c0" stroke-width="2" d="M207,-143.8314C207,-136.131 207,-126.9743 207,-118.4166"/>
<polygon fill="#c0c0c0" stroke="#c0c0c0" stroke-width="2" points="210.5001,-118.4132 207,-108.4133 203.5001,-118.4133 210.5001,-118.4132"/>
</g>
<!-- 7 -->
<g id="node8" class="node">
<title>7</title>
<path fill="none" stroke="#d8bc56" stroke-width="2" d="M140.5,-540C140.5,-540 67.5,-540 67.5,-540 61.5,-540 55.5,-534 55.5,-528 55.5,-528 55.5,-516 55.5,-516 55.5,-510 61.5,-504 67.5,-504 67.5,-504 140.5,-504 140.5,-504 146.5,-504 152.5,-510 152.5,-516 152.5,-516 152.5,-528 152.5,-528 152.5,-534 146.5,-540 140.5,-540"/>
<text text-anchor="middle" x="104" y="-519.5" font-family="sans" font-size="10.00" fill="#000000">downloadGencode</text>
</g>
<!-- 7&#45;&gt;3 -->
<g id="edge7" class="edge">
<title>7&#45;&gt;3</title>
<path fill="none" stroke="#c0c0c0" stroke-width="2" d="M89.3642,-503.8314C82.6839,-495.5386 74.6432,-485.557 67.3096,-476.4533"/>
<polygon fill="#c0c0c0" stroke="#c0c0c0" stroke-width="2" points="69.8319,-474.0052 60.8329,-468.4133 64.3806,-478.3965 69.8319,-474.0052"/>
</g>
<!-- 13 -->
<g id="node14" class="node">
<title>13</title>
<path fill="none" stroke="#56c1d8" stroke-width="2" d="M200,-468C200,-468 122,-468 122,-468 116,-468 110,-462 110,-456 110,-456 110,-444 110,-444 110,-438 116,-432 122,-432 122,-432 200,-432 200,-432 206,-432 212,-438 212,-444 212,-444 212,-456 212,-456 212,-462 206,-468 200,-468"/>
<text text-anchor="middle" x="161" y="-447.5" font-family="sans" font-size="10.00" fill="#000000">build_salmon_index</text>
</g>
<!-- 7&#45;&gt;13 -->
<g id="edge17" class="edge">
<title>7&#45;&gt;13</title>
<path fill="none" stroke="#c0c0c0" stroke-width="2" d="M118.3835,-503.8314C124.9486,-495.5386 132.8507,-485.557 140.0578,-476.4533"/>
<polygon fill="#c0c0c0" stroke="#c0c0c0" stroke-width="2" points="142.9599,-478.4262 146.4228,-468.4133 137.4716,-474.0813 142.9599,-478.4262"/>
</g>
<!-- 8&#45;&gt;4 -->
<g id="edge8" class="edge">
<title>8&#45;&gt;4</title>
<path fill="none" stroke="#c0c0c0" stroke-width="2" d="M103.4859,-359.8314C102.8442,-352.131 102.0812,-342.9743 101.3681,-334.4166"/>
<polygon fill="#c0c0c0" stroke="#c0c0c0" stroke-width="2" points="104.8529,-334.088 100.5344,-324.4133 97.8771,-334.6694 104.8529,-334.088"/>
</g>
<!-- 9 -->
<g id="node10" class="node">
<title>9</title>
<path fill="none" stroke="#56d86b" stroke-width="2" d="M283,-540C283,-540 253,-540 253,-540 247,-540 241,-534 241,-528 241,-528 241,-516 241,-516 241,-510 247,-504 253,-504 253,-504 283,-504 283,-504 289,-504 295,-510 295,-516 295,-516 295,-528 295,-528 295,-534 289,-540 283,-540"/>
<text text-anchor="middle" x="268" y="-519.5" font-family="sans" font-size="10.00" fill="#000000">getFQP</text>
</g>
<!-- 9&#45;&gt;5 -->
<g id="edge9" class="edge">
<title>9&#45;&gt;5</title>
<path fill="none" stroke="#c0c0c0" stroke-width="2" d="M268,-503.8314C268,-496.131 268,-486.9743 268,-478.4166"/>
<polygon fill="#c0c0c0" stroke="#c0c0c0" stroke-width="2" points="271.5001,-478.4132 268,-468.4133 264.5001,-478.4133 271.5001,-478.4132"/>
</g>
<!-- 10 -->
<g id="node11" class="node">
<title>10</title>
<path fill="none" stroke="#d89c56" stroke-width="2" d="M252,-252C252,-252 162,-252 162,-252 156,-252 150,-246 150,-240 150,-240 150,-228 150,-228 150,-222 156,-216 162,-216 162,-216 252,-216 252,-216 258,-216 264,-222 264,-228 264,-228 264,-240 264,-240 264,-246 258,-252 252,-252"/>
<text text-anchor="middle" x="207" y="-231.5" font-family="sans" font-size="10.00" fill="#000000">remove_tx_low_usage</text>
</g>
<!-- 10&#45;&gt;6 -->
<g id="edge10" class="edge">
<title>10&#45;&gt;6</title>
<path fill="none" stroke="#c0c0c0" stroke-width="2" d="M207,-215.8314C207,-208.131 207,-198.9743 207,-190.4166"/>
<polygon fill="#c0c0c0" stroke="#c0c0c0" stroke-width="2" points="210.5001,-190.4132 207,-180.4133 203.5001,-190.4133 210.5001,-190.4132"/>
</g>
<!-- 11 -->
<g id="node12" class="node">
<title>11</title>
<path fill="none" stroke="#56d8a9" stroke-width="2" d="M252,-324C252,-324 178,-324 178,-324 172,-324 166,-318 166,-312 166,-312 166,-300 166,-300 166,-294 172,-288 178,-288 178,-288 252,-288 252,-288 258,-288 264,-294 264,-300 264,-300 264,-312 264,-312 264,-318 258,-324 252,-324"/>
<text text-anchor="middle" x="215" y="-303.5" font-family="sans" font-size="10.00" fill="#000000">find_tx_low_usage</text>
</g>
<!-- 11&#45;&gt;10 -->
<g id="edge13" class="edge">
<title>11&#45;&gt;10</title>
<path fill="none" stroke="#c0c0c0" stroke-width="2" d="M212.9813,-287.8314C212.1257,-280.131 211.1083,-270.9743 210.1574,-262.4166"/>
<polygon fill="#c0c0c0" stroke="#c0c0c0" stroke-width="2" points="213.6289,-261.9656 209.0459,-252.4133 206.6717,-262.7386 213.6289,-261.9656"/>
</g>
<!-- 12&#45;&gt;11 -->
<g id="edge14" class="edge">
<title>12&#45;&gt;11</title>
<path fill="none" stroke="#c0c0c0" stroke-width="2" d="M215,-359.8314C215,-352.131 215,-342.9743 215,-334.4166"/>
<polygon fill="#c0c0c0" stroke="#c0c0c0" stroke-width="2" points="218.5001,-334.4132 215,-324.4133 211.5001,-334.4133 218.5001,-334.4132"/>
</g>
<!-- 13&#45;&gt;12 -->
<g id="edge16" class="edge">
<title>13&#45;&gt;12</title>
<path fill="none" stroke="#c0c0c0" stroke-width="2" d="M174.6265,-431.8314C180.846,-423.5386 188.3322,-413.557 195.16,-404.4533"/>
<polygon fill="#c0c0c0" stroke="#c0c0c0" stroke-width="2" points="197.99,-406.5133 201.19,-396.4133 192.39,-402.3133 197.99,-406.5133"/>
</g>
</g>
</svg>
