<?xml version="1.0" encoding="UTF-8" standalone="no"?>
<!DOCTYPE svg PUBLIC "-//W3C//DTD SVG 1.1//EN"
 "http://www.w3.org/Graphics/SVG/1.1/DTD/svg11.dtd">
<!-- Generated by graphviz version 2.40.1 (20161225.0304)
 -->
<!-- Title: snakemake_dag Pages: 1 -->
<svg width="451pt" height="908pt"
 viewBox="0.00 0.00 451.00 908.00" xmlns="http://www.w3.org/2000/svg" xmlns:xlink="http://www.w3.org/1999/xlink">
<g id="graph0" class="graph" transform="scale(1 1) rotate(0) translate(4 904)">
<title>snakemake_dag</title>
<polygon fill="#ffffff" stroke="transparent" points="-4,4 -4,-904 447,-904 447,4 -4,4"/>
<!-- 0 -->
<g id="node1" class="node">
<title>0</title>
<path fill="none" stroke="#56a2d8" stroke-width="2" d="M193,-36C193,-36 163,-36 163,-36 157,-36 151,-30 151,-24 151,-24 151,-12 151,-12 151,-6 157,0 163,0 163,0 193,0 193,0 199,0 205,-6 205,-12 205,-12 205,-24 205,-24 205,-30 199,-36 193,-36"/>
<text text-anchor="middle" x="178" y="-15.5" font-family="sans" font-size="10.00" fill="#000000">all</text>
</g>
<!-- 1 -->
<g id="node2" class="node">
<title>1</title>
<path fill="none" stroke="#88d856" stroke-width="2" d="M174,-108C174,-108 98,-108 98,-108 92,-108 86,-102 86,-96 86,-96 86,-84 86,-84 86,-78 92,-72 98,-72 98,-72 174,-72 174,-72 180,-72 186,-78 186,-84 186,-84 186,-96 186,-96 186,-102 180,-108 174,-108"/>
<text text-anchor="middle" x="136" y="-87.5" font-family="sans" font-size="10.00" fill="#000000">reQuantify_Salmon</text>
</g>
<!-- 1&#45;&gt;0 -->
<g id="edge1" class="edge">
<title>1&#45;&gt;0</title>
<path fill="none" stroke="#c0c0c0" stroke-width="2" d="M146.5984,-71.8314C151.2877,-63.7925 156.9028,-54.1666 162.0798,-45.2918"/>
<polygon fill="#c0c0c0" stroke="#c0c0c0" stroke-width="2" points="165.2434,-46.8146 167.2589,-36.4133 159.1969,-43.2875 165.2434,-46.8146"/>
</g>
<!-- 2 -->
<g id="node3" class="node">
<title>2</title>
<path fill="none" stroke="#59d856" stroke-width="2" d="M291.5,-324C291.5,-324 254.5,-324 254.5,-324 248.5,-324 242.5,-318 242.5,-312 242.5,-312 242.5,-300 242.5,-300 242.5,-294 248.5,-288 254.5,-288 254.5,-288 291.5,-288 291.5,-288 297.5,-288 303.5,-294 303.5,-300 303.5,-300 303.5,-312 303.5,-312 303.5,-318 297.5,-324 291.5,-324"/>
<text text-anchor="middle" x="273" y="-303.5" font-family="sans" font-size="10.00" fill="#000000">runrMATS</text>
</g>
<!-- 2&#45;&gt;0 -->
<g id="edge2" class="edge">
<title>2&#45;&gt;0</title>
<path fill="none" stroke="#c0c0c0" stroke-width="2" d="M267.0573,-287.9843C250.9629,-239.1929 206.4465,-104.2377 187.1347,-45.6927"/>
<polygon fill="#c0c0c0" stroke="#c0c0c0" stroke-width="2" points="190.3969,-44.4091 183.9404,-36.0089 183.7492,-46.602 190.3969,-44.4091"/>
</g>
<!-- 3 -->
<g id="node4" class="node">
<title>3</title>
<path fill="none" stroke="#d8bc56" stroke-width="2" d="M114,-828C114,-828 62,-828 62,-828 56,-828 50,-822 50,-816 50,-816 50,-804 50,-804 50,-798 56,-792 62,-792 62,-792 114,-792 114,-792 120,-792 126,-798 126,-804 126,-804 126,-816 126,-816 126,-822 120,-828 114,-828"/>
<text text-anchor="middle" x="88" y="-807.5" font-family="sans" font-size="10.00" fill="#000000">aggFastqsPE</text>
</g>
<!-- 3&#45;&gt;1 -->
<g id="edge3" class="edge">
<title>3&#45;&gt;1</title>
<path fill="none" stroke="#c0c0c0" stroke-width="2" d="M67.5898,-791.7087C41.5938,-766.291 0,-717.5656 0,-666 0,-666 0,-666 0,-234 0,-179.652 51.8359,-137.5246 91.5038,-113.2431"/>
<polygon fill="#c0c0c0" stroke="#c0c0c0" stroke-width="2" points="93.4539,-116.1558 100.2676,-108.0425 89.8816,-110.1359 93.4539,-116.1558"/>
</g>
<!-- 9 -->
<g id="node10" class="node">
<title>9</title>
<path fill="none" stroke="#d6d856" stroke-width="2" d="M294.5,-468C294.5,-468 241.5,-468 241.5,-468 235.5,-468 229.5,-462 229.5,-456 229.5,-456 229.5,-444 229.5,-444 229.5,-438 235.5,-432 241.5,-432 241.5,-432 294.5,-432 294.5,-432 300.5,-432 306.5,-438 306.5,-444 306.5,-444 306.5,-456 306.5,-456 306.5,-462 300.5,-468 294.5,-468"/>
<text text-anchor="middle" x="268" y="-447.5" font-family="sans" font-size="10.00" fill="#000000">realign_STAR</text>
</g>
<!-- 3&#45;&gt;9 -->
<g id="edge14" class="edge">
<title>3&#45;&gt;9</title>
<path fill="none" stroke="#c0c0c0" stroke-width="2" d="M92.4945,-791.8237C105.2994,-742.3783 145.4021,-602.5483 212,-504 219.0897,-493.5091 228.4969,-483.4599 237.5734,-474.936"/>
<polygon fill="#c0c0c0" stroke="#c0c0c0" stroke-width="2" points="239.9963,-477.4638 245.0618,-468.1584 235.299,-472.2739 239.9963,-477.4638"/>
</g>
<!-- 14 -->
<g id="node15" class="node">
<title>14</title>
<path fill="none" stroke="#5673d8" stroke-width="2" d="M138.5,-396C138.5,-396 95.5,-396 95.5,-396 89.5,-396 83.5,-390 83.5,-384 83.5,-384 83.5,-372 83.5,-372 83.5,-366 89.5,-360 95.5,-360 95.5,-360 138.5,-360 138.5,-360 144.5,-360 150.5,-366 150.5,-372 150.5,-372 150.5,-384 150.5,-384 150.5,-390 144.5,-396 138.5,-396"/>
<text text-anchor="middle" x="117" y="-375.5" font-family="sans" font-size="10.00" fill="#000000">run_salmon</text>
</g>
<!-- 3&#45;&gt;14 -->
<g id="edge20" class="edge">
<title>3&#45;&gt;14</title>
<path fill="none" stroke="#c0c0c0" stroke-width="2" d="M77.1507,-791.611C62.4453,-764.8991 38,-713.3709 38,-666 38,-666 38,-666 38,-522 38,-481.1184 36.5797,-467.4164 57,-432 63.3438,-420.9975 72.7153,-411.0176 82.1758,-402.7152"/>
<polygon fill="#c0c0c0" stroke="#c0c0c0" stroke-width="2" points="84.6233,-405.2322 90.0791,-396.15 80.1504,-399.8476 84.6233,-405.2322"/>
</g>
<!-- 18 -->
<g id="node19" class="node">
<title>18</title>
<path fill="none" stroke="#56d88a" stroke-width="2" d="M273,-756C273,-756 187,-756 187,-756 181,-756 175,-750 175,-744 175,-744 175,-732 175,-732 175,-726 181,-720 187,-720 187,-720 273,-720 273,-720 279,-720 285,-726 285,-732 285,-732 285,-744 285,-744 285,-750 279,-756 273,-756"/>
<text text-anchor="middle" x="230" y="-735.5" font-family="sans" font-size="10.00" fill="#000000">run_STAR_alignment</text>
</g>
<!-- 3&#45;&gt;18 -->
<g id="edge25" class="edge">
<title>3&#45;&gt;18</title>
<path fill="none" stroke="#c0c0c0" stroke-width="2" d="M123.8326,-791.8314C142.4157,-782.4089 165.2989,-770.8062 185.0565,-760.7883"/>
<polygon fill="#c0c0c0" stroke="#c0c0c0" stroke-width="2" points="186.8427,-763.8069 194.1789,-756.1628 183.677,-757.5635 186.8427,-763.8069"/>
</g>
<!-- 4 -->
<g id="node5" class="node">
<title>4</title>
<path fill="none" stroke="#bed856" stroke-width="2" d="M179,-180C179,-180 93,-180 93,-180 87,-180 81,-174 81,-168 81,-168 81,-156 81,-156 81,-150 87,-144 93,-144 93,-144 179,-144 179,-144 185,-144 191,-150 191,-156 191,-156 191,-168 191,-168 191,-174 185,-180 179,-180"/>
<text text-anchor="middle" x="136" y="-159.5" font-family="sans" font-size="10.00" fill="#000000">rebuild_salmon_index</text>
</g>
<!-- 4&#45;&gt;1 -->
<g id="edge4" class="edge">
<title>4&#45;&gt;1</title>
<path fill="none" stroke="#c0c0c0" stroke-width="2" d="M136,-143.8314C136,-136.131 136,-126.9743 136,-118.4166"/>
<polygon fill="#c0c0c0" stroke="#c0c0c0" stroke-width="2" points="139.5001,-118.4132 136,-108.4133 132.5001,-118.4133 139.5001,-118.4132"/>
</g>
<!-- 5 -->
<g id="node6" class="node">
<title>5</title>
<path fill="none" stroke="#56d8c1" stroke-width="2" d="M309.5,-396C309.5,-396 236.5,-396 236.5,-396 230.5,-396 224.5,-390 224.5,-384 224.5,-384 224.5,-372 224.5,-372 224.5,-366 230.5,-360 236.5,-360 236.5,-360 309.5,-360 309.5,-360 315.5,-360 321.5,-366 321.5,-372 321.5,-372 321.5,-384 321.5,-384 321.5,-390 315.5,-396 309.5,-396"/>
<text text-anchor="middle" x="273" y="-375.5" font-family="sans" font-size="10.00" fill="#000000">preprMats_running</text>
</g>
<!-- 5&#45;&gt;2 -->
<g id="edge5" class="edge">
<title>5&#45;&gt;2</title>
<path fill="none" stroke="#c0c0c0" stroke-width="2" d="M273,-359.8314C273,-352.131 273,-342.9743 273,-334.4166"/>
<polygon fill="#c0c0c0" stroke="#c0c0c0" stroke-width="2" points="276.5001,-334.4132 273,-324.4133 269.5001,-334.4133 276.5001,-334.4132"/>
</g>
<!-- 6 -->
<g id="node7" class="node">
<title>6</title>
<path fill="none" stroke="#d88d56" stroke-width="2" d="M431,-828C431,-828 363,-828 363,-828 357,-828 351,-822 351,-816 351,-816 351,-804 351,-804 351,-798 357,-792 363,-792 363,-792 431,-792 431,-792 437,-792 443,-798 443,-804 443,-804 443,-816 443,-816 443,-822 437,-828 431,-828"/>
<text text-anchor="middle" x="397" y="-807.5" font-family="sans" font-size="10.00" fill="#000000">build_STARindex</text>
</g>
<!-- 6&#45;&gt;2 -->
<g id="edge6" class="edge">
<title>6&#45;&gt;2</title>
<path fill="none" stroke="#c0c0c0" stroke-width="2" d="M393.2704,-791.9053C387.9981,-764.7046 379,-711.6021 379,-666 379,-666 379,-666 379,-450 379,-400.2737 337.4977,-356.3969 306.4311,-330.5185"/>
<polygon fill="#c0c0c0" stroke="#c0c0c0" stroke-width="2" points="308.3675,-327.5835 298.3896,-324.0208 303.968,-333.0282 308.3675,-327.5835"/>
</g>
<!-- 6&#45;&gt;18 -->
<g id="edge24" class="edge">
<title>6&#45;&gt;18</title>
<path fill="none" stroke="#c0c0c0" stroke-width="2" d="M354.8588,-791.8314C332.5236,-782.2018 304.9064,-770.295 281.329,-760.1299"/>
<polygon fill="#c0c0c0" stroke="#c0c0c0" stroke-width="2" points="282.4067,-756.7831 271.8381,-756.038 279.6353,-763.2112 282.4067,-756.7831"/>
</g>
<!-- 7 -->
<g id="node8" class="node">
<title>7</title>
<path fill="none" stroke="#568ad8" stroke-width="2" d="M103,-900C103,-900 73,-900 73,-900 67,-900 61,-894 61,-888 61,-888 61,-876 61,-876 61,-870 67,-864 73,-864 73,-864 103,-864 103,-864 109,-864 115,-870 115,-876 115,-876 115,-888 115,-888 115,-894 109,-900 103,-900"/>
<text text-anchor="middle" x="88" y="-879.5" font-family="sans" font-size="10.00" fill="#000000">getFQP</text>
</g>
<!-- 7&#45;&gt;3 -->
<g id="edge7" class="edge">
<title>7&#45;&gt;3</title>
<path fill="none" stroke="#c0c0c0" stroke-width="2" d="M88,-863.8314C88,-856.131 88,-846.9743 88,-838.4166"/>
<polygon fill="#c0c0c0" stroke="#c0c0c0" stroke-width="2" points="91.5001,-838.4132 88,-828.4133 84.5001,-838.4133 91.5001,-838.4132"/>
</g>
<!-- 8 -->
<g id="node9" class="node">
<title>8</title>
<path fill="none" stroke="#d86e56" stroke-width="2" d="M181,-252C181,-252 91,-252 91,-252 85,-252 79,-246 79,-240 79,-240 79,-228 79,-228 79,-222 85,-216 91,-216 91,-216 181,-216 181,-216 187,-216 193,-222 193,-228 193,-228 193,-240 193,-240 193,-246 187,-252 181,-252"/>
<text text-anchor="middle" x="136" y="-231.5" font-family="sans" font-size="10.00" fill="#000000">remove_tx_low_usage</text>
</g>
<!-- 8&#45;&gt;4 -->
<g id="edge8" class="edge">
<title>8&#45;&gt;4</title>
<path fill="none" stroke="#c0c0c0" stroke-width="2" d="M136,-215.8314C136,-208.131 136,-198.9743 136,-190.4166"/>
<polygon fill="#c0c0c0" stroke="#c0c0c0" stroke-width="2" points="139.5001,-190.4132 136,-180.4133 132.5001,-190.4133 139.5001,-190.4132"/>
</g>
<!-- 9&#45;&gt;5 -->
<g id="edge9" class="edge">
<title>9&#45;&gt;5</title>
<path fill="none" stroke="#c0c0c0" stroke-width="2" d="M269.2617,-431.8314C269.7965,-424.131 270.4323,-414.9743 271.0266,-406.4166"/>
<polygon fill="#c0c0c0" stroke="#c0c0c0" stroke-width="2" points="274.52,-406.6317 271.7213,-396.4133 267.5368,-406.1467 274.52,-406.6317"/>
</g>
<!-- 10 -->
<g id="node11" class="node">
<title>10</title>
<path fill="none" stroke="#d8a456" stroke-width="2" d="M396.5,-900C396.5,-900 323.5,-900 323.5,-900 317.5,-900 311.5,-894 311.5,-888 311.5,-888 311.5,-876 311.5,-876 311.5,-870 317.5,-864 323.5,-864 323.5,-864 396.5,-864 396.5,-864 402.5,-864 408.5,-870 408.5,-876 408.5,-876 408.5,-888 408.5,-888 408.5,-894 402.5,-900 396.5,-900"/>
<text text-anchor="middle" x="360" y="-879.5" font-family="sans" font-size="10.00" fill="#000000">downloadGencode</text>
</g>
<!-- 10&#45;&gt;6 -->
<g id="edge10" class="edge">
<title>10&#45;&gt;6</title>
<path fill="none" stroke="#c0c0c0" stroke-width="2" d="M369.3367,-863.8314C373.4243,-855.8771 378.3104,-846.369 382.8309,-837.5723"/>
<polygon fill="#c0c0c0" stroke="#c0c0c0" stroke-width="2" points="386.0799,-838.9074 387.5376,-828.4133 379.8539,-835.7078 386.0799,-838.9074"/>
</g>
<!-- 13 -->
<g id="node14" class="node">
<title>13</title>
<path fill="none" stroke="#56d8d8" stroke-width="2" d="M303.5,-540C303.5,-540 232.5,-540 232.5,-540 226.5,-540 220.5,-534 220.5,-528 220.5,-528 220.5,-516 220.5,-516 220.5,-510 226.5,-504 232.5,-504 232.5,-504 303.5,-504 303.5,-504 309.5,-504 315.5,-510 315.5,-516 315.5,-516 315.5,-528 315.5,-528 315.5,-534 309.5,-540 303.5,-540"/>
<text text-anchor="middle" x="268" y="-519.5" font-family="sans" font-size="10.00" fill="#000000">rebuild_star_index</text>
</g>
<!-- 10&#45;&gt;13 -->
<g id="edge17" class="edge">
<title>10&#45;&gt;13</title>
<path fill="none" stroke="#c0c0c0" stroke-width="2" d="M352.1533,-863.746C341.2922,-836.7781 323,-784.4617 323,-738 323,-738 323,-738 323,-666 323,-622.9621 301.2948,-577.1692 285.1549,-549.0671"/>
<polygon fill="#c0c0c0" stroke="#c0c0c0" stroke-width="2" points="288.039,-547.0682 279.9342,-540.2446 282.0148,-550.6331 288.039,-547.0682"/>
</g>
<!-- 11 -->
<g id="node12" class="node">
<title>11</title>
<path fill="none" stroke="#56c1d8" stroke-width="2" d="M155,-324C155,-324 81,-324 81,-324 75,-324 69,-318 69,-312 69,-312 69,-300 69,-300 69,-294 75,-288 81,-288 81,-288 155,-288 155,-288 161,-288 167,-294 167,-300 167,-300 167,-312 167,-312 167,-318 161,-324 155,-324"/>
<text text-anchor="middle" x="118" y="-303.5" font-family="sans" font-size="10.00" fill="#000000">find_tx_low_usage</text>
</g>
<!-- 11&#45;&gt;8 -->
<g id="edge12" class="edge">
<title>11&#45;&gt;8</title>
<path fill="none" stroke="#c0c0c0" stroke-width="2" d="M122.5422,-287.8314C124.4884,-280.0463 126.8068,-270.7729 128.9663,-262.1347"/>
<polygon fill="#c0c0c0" stroke="#c0c0c0" stroke-width="2" points="132.3668,-262.9636 131.3967,-252.4133 125.5758,-261.2658 132.3668,-262.9636"/>
</g>
<!-- 12 -->
<g id="node13" class="node">
<title>12</title>
<path fill="none" stroke="#a7d856" stroke-width="2" d="M131,-540C131,-540 87,-540 87,-540 81,-540 75,-534 75,-528 75,-528 75,-516 75,-516 75,-510 81,-504 87,-504 87,-504 131,-504 131,-504 137,-504 143,-510 143,-516 143,-516 143,-528 143,-528 143,-534 137,-540 131,-540"/>
<text text-anchor="middle" x="109" y="-519.5" font-family="sans" font-size="10.00" fill="#000000">gtf_to_fasta</text>
</g>
<!-- 12&#45;&gt;8 -->
<g id="edge11" class="edge">
<title>12&#45;&gt;8</title>
<path fill="none" stroke="#c0c0c0" stroke-width="2" d="M143.089,-503.9135C156.2208,-495.0032 169.7897,-482.9331 177,-468 189.0574,-443.0282 222.7864,-428.1276 176,-288 172.6746,-278.0403 166.7435,-268.4093 160.4499,-260.1069"/>
<polygon fill="#c0c0c0" stroke="#c0c0c0" stroke-width="2" points="163.1304,-257.8554 154.1185,-252.2844 157.6893,-262.2594 163.1304,-257.8554"/>
</g>
<!-- 16 -->
<g id="node17" class="node">
<title>16</title>
<path fill="none" stroke="#70d856" stroke-width="2" d="M156,-468C156,-468 78,-468 78,-468 72,-468 66,-462 66,-456 66,-456 66,-444 66,-444 66,-438 72,-432 78,-432 78,-432 156,-432 156,-432 162,-432 168,-438 168,-444 168,-444 168,-456 168,-456 168,-462 162,-468 156,-468"/>
<text text-anchor="middle" x="117" y="-447.5" font-family="sans" font-size="10.00" fill="#000000">build_salmon_index</text>
</g>
<!-- 12&#45;&gt;16 -->
<g id="edge22" class="edge">
<title>12&#45;&gt;16</title>
<path fill="none" stroke="#c0c0c0" stroke-width="2" d="M111.0187,-503.8314C111.8743,-496.131 112.8917,-486.9743 113.8426,-478.4166"/>
<polygon fill="#c0c0c0" stroke="#c0c0c0" stroke-width="2" points="117.3283,-478.7386 114.9541,-468.4133 110.3711,-477.9656 117.3283,-478.7386"/>
</g>
<!-- 13&#45;&gt;9 -->
<g id="edge13" class="edge">
<title>13&#45;&gt;9</title>
<path fill="none" stroke="#c0c0c0" stroke-width="2" d="M268,-503.8314C268,-496.131 268,-486.9743 268,-478.4166"/>
<polygon fill="#c0c0c0" stroke="#c0c0c0" stroke-width="2" points="271.5001,-478.4132 268,-468.4133 264.5001,-478.4133 271.5001,-478.4132"/>
</g>
<!-- 14&#45;&gt;11 -->
<g id="edge15" class="edge">
<title>14&#45;&gt;11</title>
<path fill="none" stroke="#c0c0c0" stroke-width="2" d="M117.2523,-359.8314C117.3593,-352.131 117.4865,-342.9743 117.6053,-334.4166"/>
<polygon fill="#c0c0c0" stroke="#c0c0c0" stroke-width="2" points="121.1049,-334.4609 117.7443,-324.4133 114.1056,-334.3637 121.1049,-334.4609"/>
</g>
<!-- 15 -->
<g id="node16" class="node">
<title>15</title>
<path fill="none" stroke="#56d8a2" stroke-width="2" d="M253,-612C253,-612 207,-612 207,-612 201,-612 195,-606 195,-600 195,-600 195,-588 195,-588 195,-582 201,-576 207,-576 207,-576 253,-576 253,-576 259,-576 265,-582 265,-588 265,-588 265,-600 265,-600 265,-606 259,-612 253,-612"/>
<text text-anchor="middle" x="230" y="-591.5" font-family="sans" font-size="10.00" fill="#000000">run_stringtie</text>
</g>
<!-- 15&#45;&gt;12 -->
<g id="edge16" class="edge">
<title>15&#45;&gt;12</title>
<path fill="none" stroke="#c0c0c0" stroke-width="2" d="M199.4666,-575.8314C183.9899,-566.6221 165.0131,-555.3301 148.4437,-545.4706"/>
<polygon fill="#c0c0c0" stroke="#c0c0c0" stroke-width="2" points="149.9071,-542.2687 139.5236,-540.1628 146.3276,-548.2843 149.9071,-542.2687"/>
</g>
<!-- 15&#45;&gt;13 -->
<g id="edge18" class="edge">
<title>15&#45;&gt;13</title>
<path fill="none" stroke="#c0c0c0" stroke-width="2" d="M239.589,-575.8314C243.8317,-567.7925 248.9121,-558.1666 253.596,-549.2918"/>
<polygon fill="#c0c0c0" stroke="#c0c0c0" stroke-width="2" points="256.7096,-550.8908 258.2819,-540.4133 250.5189,-547.6235 256.7096,-550.8908"/>
</g>
<!-- 16&#45;&gt;14 -->
<g id="edge19" class="edge">
<title>16&#45;&gt;14</title>
<path fill="none" stroke="#c0c0c0" stroke-width="2" d="M117,-431.8314C117,-424.131 117,-414.9743 117,-406.4166"/>
<polygon fill="#c0c0c0" stroke="#c0c0c0" stroke-width="2" points="120.5001,-406.4132 117,-396.4133 113.5001,-406.4133 120.5001,-406.4132"/>
</g>
<!-- 17 -->
<g id="node18" class="node">
<title>17</title>
<path fill="none" stroke="#d85656" stroke-width="2" d="M282.5,-684C282.5,-684 177.5,-684 177.5,-684 171.5,-684 165.5,-678 165.5,-672 165.5,-672 165.5,-660 165.5,-660 165.5,-654 171.5,-648 177.5,-648 177.5,-648 282.5,-648 282.5,-648 288.5,-648 294.5,-654 294.5,-660 294.5,-660 294.5,-672 294.5,-672 294.5,-678 288.5,-684 282.5,-684"/>
<text text-anchor="middle" x="230" y="-663.5" font-family="sans" font-size="10.00" fill="#000000">merge_bams_for_stringtie</text>
</g>
<!-- 17&#45;&gt;15 -->
<g id="edge21" class="edge">
<title>17&#45;&gt;15</title>
<path fill="none" stroke="#c0c0c0" stroke-width="2" d="M230,-647.8314C230,-640.131 230,-630.9743 230,-622.4166"/>
<polygon fill="#c0c0c0" stroke="#c0c0c0" stroke-width="2" points="233.5001,-622.4132 230,-612.4133 226.5001,-622.4133 233.5001,-622.4132"/>
</g>
<!-- 18&#45;&gt;17 -->
<g id="edge23" class="edge">
<title>18&#45;&gt;17</title>
<path fill="none" stroke="#c0c0c0" stroke-width="2" d="M230,-719.8314C230,-712.131 230,-702.9743 230,-694.4166"/>
<polygon fill="#c0c0c0" stroke="#c0c0c0" stroke-width="2" points="233.5001,-694.4132 230,-684.4133 226.5001,-694.4133 233.5001,-694.4132"/>
</g>
</g>
</svg>
