<?xml version="1.0" encoding="UTF-8" standalone="no"?>
<!DOCTYPE svg PUBLIC "-//W3C//DTD SVG 1.1//EN"
 "http://www.w3.org/Graphics/SVG/1.1/DTD/svg11.dtd">
<!-- Generated by graphviz version 2.40.1 (20161225.0304)
 -->
<!-- Title: snakemake_dag Pages: 1 -->
<svg width="329pt" height="548pt"
 viewBox="0.00 0.00 329.28 548.00" xmlns="http://www.w3.org/2000/svg" xmlns:xlink="http://www.w3.org/1999/xlink">
<g id="graph0" class="graph" transform="scale(1 1) rotate(0) translate(4 544)">
<title>snakemake_dag</title>
<polygon fill="#ffffff" stroke="transparent" points="-4,4 -4,-544 325.2801,-544 325.2801,4 -4,4"/>
<!-- 0 -->
<g id="node1" class="node">
<title>0</title>
<path fill="none" stroke="#56c1d8" stroke-width="2" d="M172.2801,-36C172.2801,-36 142.2801,-36 142.2801,-36 136.2801,-36 130.2801,-30 130.2801,-24 130.2801,-24 130.2801,-12 130.2801,-12 130.2801,-6 136.2801,0 142.2801,0 142.2801,0 172.2801,0 172.2801,0 178.2801,0 184.2801,-6 184.2801,-12 184.2801,-12 184.2801,-24 184.2801,-24 184.2801,-30 178.2801,-36 172.2801,-36"/>
<text text-anchor="middle" x="157.2801" y="-15.5" font-family="sans" font-size="10.00" fill="#000000">all</text>
</g>
<!-- 1 -->
<g id="node2" class="node">
<title>1</title>
<path fill="none" stroke="#56d8d0" stroke-width="2" d="M154.2801,-108C154.2801,-108 78.2801,-108 78.2801,-108 72.2801,-108 66.2801,-102 66.2801,-96 66.2801,-96 66.2801,-84 66.2801,-84 66.2801,-78 72.2801,-72 78.2801,-72 78.2801,-72 154.2801,-72 154.2801,-72 160.2801,-72 166.2801,-78 166.2801,-84 166.2801,-84 166.2801,-96 166.2801,-96 166.2801,-102 160.2801,-108 154.2801,-108"/>
<text text-anchor="middle" x="116.2801" y="-87.5" font-family="sans" font-size="10.00" fill="#000000">reQuantify_Salmon</text>
</g>
<!-- 1&#45;&gt;0 -->
<g id="edge2" class="edge">
<title>1&#45;&gt;0</title>
<path fill="none" stroke="#c0c0c0" stroke-width="2" d="M126.6262,-71.8314C131.2039,-63.7925 136.6853,-54.1666 141.739,-45.2918"/>
<polygon fill="#c0c0c0" stroke="#c0c0c0" stroke-width="2" points="144.8878,-46.8351 146.7948,-36.4133 138.8049,-43.3712 144.8878,-46.8351"/>
</g>
<!-- 2 -->
<g id="node3" class="node">
<title>2</title>
<path fill="none" stroke="#567bd8" stroke-width="2" d="M240.7801,-252C240.7801,-252 203.7801,-252 203.7801,-252 197.7801,-252 191.7801,-246 191.7801,-240 191.7801,-240 191.7801,-228 191.7801,-228 191.7801,-222 197.7801,-216 203.7801,-216 203.7801,-216 240.7801,-216 240.7801,-216 246.7801,-216 252.7801,-222 252.7801,-228 252.7801,-228 252.7801,-240 252.7801,-240 252.7801,-246 246.7801,-252 240.7801,-252"/>
<text text-anchor="middle" x="222.2801" y="-231.5" font-family="sans" font-size="10.00" fill="#000000">runrMATS</text>
</g>
<!-- 2&#45;&gt;0 -->
<g id="edge1" class="edge">
<title>2&#45;&gt;0</title>
<path fill="none" stroke="#c0c0c0" stroke-width="2" d="M217.2943,-215.9513C208.9527,-185.9581 191.4842,-124.0035 175.2801,-72 172.6467,-63.5486 169.6523,-54.3999 166.872,-46.0768"/>
<polygon fill="#c0c0c0" stroke="#c0c0c0" stroke-width="2" points="170.1339,-44.7962 163.6254,-36.4362 163.5,-47.0303 170.1339,-44.7962"/>
</g>
<!-- 3 -->
<g id="node4" class="node">
<title>3</title>
<path fill="none" stroke="#d8bc56" stroke-width="2" d="M103.2801,-468C103.2801,-468 51.2801,-468 51.2801,-468 45.2801,-468 39.2801,-462 39.2801,-456 39.2801,-456 39.2801,-444 39.2801,-444 39.2801,-438 45.2801,-432 51.2801,-432 51.2801,-432 103.2801,-432 103.2801,-432 109.2801,-432 115.2801,-438 115.2801,-444 115.2801,-444 115.2801,-456 115.2801,-456 115.2801,-462 109.2801,-468 103.2801,-468"/>
<text text-anchor="middle" x="77.2801" y="-447.5" font-family="sans" font-size="10.00" fill="#000000">aggFastqsPE</text>
</g>
<!-- 3&#45;&gt;1 -->
<g id="edge3" class="edge">
<title>3&#45;&gt;1</title>
<path fill="none" stroke="#c0c0c0" stroke-width="2" d="M51.558,-431.9213C39.9982,-422.496 27.2025,-410.0124 19.2801,-396 -.8404,-360.4125 .2801,-346.8816 .2801,-306 .2801,-306 .2801,-306 .2801,-234 .2801,-182.8014 45.3011,-139.5068 79.2481,-114.1388"/>
<polygon fill="#c0c0c0" stroke="#c0c0c0" stroke-width="2" points="81.5627,-116.7839 87.606,-108.0816 77.4549,-111.1158 81.5627,-116.7839"/>
</g>
<!-- 9 -->
<g id="node10" class="node">
<title>9</title>
<path fill="none" stroke="#afd856" stroke-width="2" d="M113.7801,-396C113.7801,-396 40.7801,-396 40.7801,-396 34.7801,-396 28.7801,-390 28.7801,-384 28.7801,-384 28.7801,-372 28.7801,-372 28.7801,-366 34.7801,-360 40.7801,-360 40.7801,-360 113.7801,-360 113.7801,-360 119.7801,-360 125.7801,-366 125.7801,-372 125.7801,-372 125.7801,-384 125.7801,-384 125.7801,-390 119.7801,-396 113.7801,-396"/>
<text text-anchor="middle" x="77.2801" y="-375.5" font-family="sans" font-size="10.00" fill="#000000">preprMats_running</text>
</g>
<!-- 3&#45;&gt;9 -->
<g id="edge12" class="edge">
<title>3&#45;&gt;9</title>
<path fill="none" stroke="#c0c0c0" stroke-width="2" d="M77.2801,-431.8314C77.2801,-424.131 77.2801,-414.9743 77.2801,-406.4166"/>
<polygon fill="#c0c0c0" stroke="#c0c0c0" stroke-width="2" points="80.7802,-406.4132 77.2801,-396.4133 73.7802,-406.4133 80.7802,-406.4132"/>
</g>
<!-- 12 -->
<g id="node13" class="node">
<title>12</title>
<path fill="none" stroke="#56d8a9" stroke-width="2" d="M198.7801,-396C198.7801,-396 155.7801,-396 155.7801,-396 149.7801,-396 143.7801,-390 143.7801,-384 143.7801,-384 143.7801,-372 143.7801,-372 143.7801,-366 149.7801,-360 155.7801,-360 155.7801,-360 198.7801,-360 198.7801,-360 204.7801,-360 210.7801,-366 210.7801,-372 210.7801,-372 210.7801,-384 210.7801,-384 210.7801,-390 204.7801,-396 198.7801,-396"/>
<text text-anchor="middle" x="177.2801" y="-375.5" font-family="sans" font-size="10.00" fill="#000000">run_salmon</text>
</g>
<!-- 3&#45;&gt;12 -->
<g id="edge14" class="edge">
<title>3&#45;&gt;12</title>
<path fill="none" stroke="#c0c0c0" stroke-width="2" d="M102.5144,-431.8314C115.0681,-422.7927 130.4085,-411.7476 143.9193,-402.0198"/>
<polygon fill="#c0c0c0" stroke="#c0c0c0" stroke-width="2" points="145.9837,-404.8463 152.054,-396.1628 141.8936,-399.1655 145.9837,-404.8463"/>
</g>
<!-- 4 -->
<g id="node5" class="node">
<title>4</title>
<path fill="none" stroke="#d87556" stroke-width="2" d="M159.2801,-180C159.2801,-180 73.2801,-180 73.2801,-180 67.2801,-180 61.2801,-174 61.2801,-168 61.2801,-168 61.2801,-156 61.2801,-156 61.2801,-150 67.2801,-144 73.2801,-144 73.2801,-144 159.2801,-144 159.2801,-144 165.2801,-144 171.2801,-150 171.2801,-156 171.2801,-156 171.2801,-168 171.2801,-168 171.2801,-174 165.2801,-180 159.2801,-180"/>
<text text-anchor="middle" x="116.2801" y="-159.5" font-family="sans" font-size="10.00" fill="#000000">rebuild_salmon_index</text>
</g>
<!-- 4&#45;&gt;1 -->
<g id="edge4" class="edge">
<title>4&#45;&gt;1</title>
<path fill="none" stroke="#c0c0c0" stroke-width="2" d="M116.2801,-143.8314C116.2801,-136.131 116.2801,-126.9743 116.2801,-118.4166"/>
<polygon fill="#c0c0c0" stroke="#c0c0c0" stroke-width="2" points="119.7802,-118.4132 116.2801,-108.4133 112.7802,-118.4133 119.7802,-118.4132"/>
</g>
<!-- 5 -->
<g id="node6" class="node">
<title>5</title>
<path fill="none" stroke="#68d856" stroke-width="2" d="M99.2801,-324C99.2801,-324 51.2801,-324 51.2801,-324 45.2801,-324 39.2801,-318 39.2801,-312 39.2801,-312 39.2801,-300 39.2801,-300 39.2801,-294 45.2801,-288 51.2801,-288 51.2801,-288 99.2801,-288 99.2801,-288 105.2801,-288 111.2801,-294 111.2801,-300 111.2801,-300 111.2801,-312 111.2801,-312 111.2801,-318 105.2801,-324 99.2801,-324"/>
<text text-anchor="middle" x="75.2801" y="-303.5" font-family="sans" font-size="10.00" fill="#000000">unzip_fastqs</text>
</g>
<!-- 5&#45;&gt;2 -->
<g id="edge6" class="edge">
<title>5&#45;&gt;2</title>
<path fill="none" stroke="#c0c0c0" stroke-width="2" d="M111.6172,-288.2022C133.0426,-277.7082 160.1853,-264.4138 182.2271,-253.6178"/>
<polygon fill="#c0c0c0" stroke="#c0c0c0" stroke-width="2" points="183.8886,-256.7014 191.3297,-249.1594 180.8095,-250.4149 183.8886,-256.7014"/>
</g>
<!-- 6 -->
<g id="node7" class="node">
<title>6</title>
<path fill="none" stroke="#d85656" stroke-width="2" d="M309.2801,-396C309.2801,-396 241.2801,-396 241.2801,-396 235.2801,-396 229.2801,-390 229.2801,-384 229.2801,-384 229.2801,-372 229.2801,-372 229.2801,-366 235.2801,-360 241.2801,-360 241.2801,-360 309.2801,-360 309.2801,-360 315.2801,-360 321.2801,-366 321.2801,-372 321.2801,-372 321.2801,-384 321.2801,-384 321.2801,-390 315.2801,-396 309.2801,-396"/>
<text text-anchor="middle" x="275.2801" y="-375.5" font-family="sans" font-size="10.00" fill="#000000">build_STARindex</text>
</g>
<!-- 6&#45;&gt;2 -->
<g id="edge5" class="edge">
<title>6&#45;&gt;2</title>
<path fill="none" stroke="#c0c0c0" stroke-width="2" d="M268.5677,-359.7623C259.4481,-334.9846 243.0647,-290.4714 232.4362,-261.5939"/>
<polygon fill="#c0c0c0" stroke="#c0c0c0" stroke-width="2" points="235.6768,-260.2652 228.9381,-252.0896 229.1076,-262.6831 235.6768,-260.2652"/>
</g>
<!-- 7 -->
<g id="node8" class="node">
<title>7</title>
<path fill="none" stroke="#d89c56" stroke-width="2" d="M92.2801,-540C92.2801,-540 62.2801,-540 62.2801,-540 56.2801,-540 50.2801,-534 50.2801,-528 50.2801,-528 50.2801,-516 50.2801,-516 50.2801,-510 56.2801,-504 62.2801,-504 62.2801,-504 92.2801,-504 92.2801,-504 98.2801,-504 104.2801,-510 104.2801,-516 104.2801,-516 104.2801,-528 104.2801,-528 104.2801,-534 98.2801,-540 92.2801,-540"/>
<text text-anchor="middle" x="77.2801" y="-519.5" font-family="sans" font-size="10.00" fill="#000000">getFQP</text>
</g>
<!-- 7&#45;&gt;3 -->
<g id="edge7" class="edge">
<title>7&#45;&gt;3</title>
<path fill="none" stroke="#c0c0c0" stroke-width="2" d="M77.2801,-503.8314C77.2801,-496.131 77.2801,-486.9743 77.2801,-478.4166"/>
<polygon fill="#c0c0c0" stroke="#c0c0c0" stroke-width="2" points="80.7802,-478.4132 77.2801,-468.4133 73.7802,-478.4133 80.7802,-478.4132"/>
</g>
<!-- 8 -->
<g id="node9" class="node">
<title>8</title>
<path fill="none" stroke="#88d856" stroke-width="2" d="M161.2801,-252C161.2801,-252 71.2801,-252 71.2801,-252 65.2801,-252 59.2801,-246 59.2801,-240 59.2801,-240 59.2801,-228 59.2801,-228 59.2801,-222 65.2801,-216 71.2801,-216 71.2801,-216 161.2801,-216 161.2801,-216 167.2801,-216 173.2801,-222 173.2801,-228 173.2801,-228 173.2801,-240 173.2801,-240 173.2801,-246 167.2801,-252 161.2801,-252"/>
<text text-anchor="middle" x="116.2801" y="-231.5" font-family="sans" font-size="10.00" fill="#000000">remove_tx_low_usage</text>
</g>
<!-- 8&#45;&gt;4 -->
<g id="edge8" class="edge">
<title>8&#45;&gt;4</title>
<path fill="none" stroke="#c0c0c0" stroke-width="2" d="M116.2801,-215.8314C116.2801,-208.131 116.2801,-198.9743 116.2801,-190.4166"/>
<polygon fill="#c0c0c0" stroke="#c0c0c0" stroke-width="2" points="119.7802,-190.4132 116.2801,-180.4133 112.7802,-190.4133 119.7802,-190.4132"/>
</g>
<!-- 9&#45;&gt;5 -->
<g id="edge9" class="edge">
<title>9&#45;&gt;5</title>
<path fill="none" stroke="#c0c0c0" stroke-width="2" d="M76.7755,-359.8314C76.5616,-352.131 76.3072,-342.9743 76.0695,-334.4166"/>
<polygon fill="#c0c0c0" stroke="#c0c0c0" stroke-width="2" points="79.568,-334.3122 75.7916,-324.4133 72.5707,-334.5066 79.568,-334.3122"/>
</g>
<!-- 10 -->
<g id="node11" class="node">
<title>10</title>
<path fill="none" stroke="#ced856" stroke-width="2" d="M267.7801,-540C267.7801,-540 194.7801,-540 194.7801,-540 188.7801,-540 182.7801,-534 182.7801,-528 182.7801,-528 182.7801,-516 182.7801,-516 182.7801,-510 188.7801,-504 194.7801,-504 194.7801,-504 267.7801,-504 267.7801,-504 273.7801,-504 279.7801,-510 279.7801,-516 279.7801,-516 279.7801,-528 279.7801,-528 279.7801,-534 273.7801,-540 267.7801,-540"/>
<text text-anchor="middle" x="231.2801" y="-519.5" font-family="sans" font-size="10.00" fill="#000000">downloadGencode</text>
</g>
<!-- 10&#45;&gt;6 -->
<g id="edge10" class="edge">
<title>10&#45;&gt;6</title>
<path fill="none" stroke="#c0c0c0" stroke-width="2" d="M238.097,-503.6087C241.8627,-493.2139 246.5241,-479.9458 250.2801,-468 256.7859,-447.3089 263.3178,-423.6715 268.0726,-405.8144"/>
<polygon fill="#c0c0c0" stroke="#c0c0c0" stroke-width="2" points="271.486,-406.5964 270.6533,-396.0343 264.7177,-404.8104 271.486,-406.5964"/>
</g>
<!-- 13 -->
<g id="node14" class="node">
<title>13</title>
<path fill="none" stroke="#56d88a" stroke-width="2" d="M229.2801,-468C229.2801,-468 151.2801,-468 151.2801,-468 145.2801,-468 139.2801,-462 139.2801,-456 139.2801,-456 139.2801,-444 139.2801,-444 139.2801,-438 145.2801,-432 151.2801,-432 151.2801,-432 229.2801,-432 229.2801,-432 235.2801,-432 241.2801,-438 241.2801,-444 241.2801,-444 241.2801,-456 241.2801,-456 241.2801,-462 235.2801,-468 229.2801,-468"/>
<text text-anchor="middle" x="190.2801" y="-447.5" font-family="sans" font-size="10.00" fill="#000000">build_salmon_index</text>
</g>
<!-- 10&#45;&gt;13 -->
<g id="edge16" class="edge">
<title>10&#45;&gt;13</title>
<path fill="none" stroke="#c0c0c0" stroke-width="2" d="M220.9341,-503.8314C216.3564,-495.7925 210.875,-486.1666 205.8213,-477.2918"/>
<polygon fill="#c0c0c0" stroke="#c0c0c0" stroke-width="2" points="208.7554,-475.3712 200.7655,-468.4133 202.6725,-478.8351 208.7554,-475.3712"/>
</g>
<!-- 11 -->
<g id="node12" class="node">
<title>11</title>
<path fill="none" stroke="#56d86b" stroke-width="2" d="M215.2801,-324C215.2801,-324 141.2801,-324 141.2801,-324 135.2801,-324 129.2801,-318 129.2801,-312 129.2801,-312 129.2801,-300 129.2801,-300 129.2801,-294 135.2801,-288 141.2801,-288 141.2801,-288 215.2801,-288 215.2801,-288 221.2801,-288 227.2801,-294 227.2801,-300 227.2801,-300 227.2801,-312 227.2801,-312 227.2801,-318 221.2801,-324 215.2801,-324"/>
<text text-anchor="middle" x="178.2801" y="-303.5" font-family="sans" font-size="10.00" fill="#000000">find_tx_low_usage</text>
</g>
<!-- 11&#45;&gt;8 -->
<g id="edge11" class="edge">
<title>11&#45;&gt;8</title>
<path fill="none" stroke="#c0c0c0" stroke-width="2" d="M162.6349,-287.8314C155.4211,-279.454 146.7231,-269.3531 138.8197,-260.1749"/>
<polygon fill="#c0c0c0" stroke="#c0c0c0" stroke-width="2" points="141.3135,-257.7071 132.136,-252.4133 136.0091,-262.2748 141.3135,-257.7071"/>
</g>
<!-- 12&#45;&gt;11 -->
<g id="edge13" class="edge">
<title>12&#45;&gt;11</title>
<path fill="none" stroke="#c0c0c0" stroke-width="2" d="M177.5325,-359.8314C177.6394,-352.131 177.7666,-342.9743 177.8855,-334.4166"/>
<polygon fill="#c0c0c0" stroke="#c0c0c0" stroke-width="2" points="181.3851,-334.4609 178.0244,-324.4133 174.3858,-334.3637 181.3851,-334.4609"/>
</g>
<!-- 13&#45;&gt;12 -->
<g id="edge15" class="edge">
<title>13&#45;&gt;12</title>
<path fill="none" stroke="#c0c0c0" stroke-width="2" d="M186.9997,-431.8314C185.6093,-424.131 183.9561,-414.9743 182.4109,-406.4166"/>
<polygon fill="#c0c0c0" stroke="#c0c0c0" stroke-width="2" points="185.826,-405.6322 180.6048,-396.4133 178.9374,-406.8761 185.826,-405.6322"/>
</g>
</g>
</svg>
