<?xml version="1.0" encoding="UTF-8" standalone="no"?>
<!DOCTYPE svg PUBLIC "-//W3C//DTD SVG 1.1//EN"
 "http://www.w3.org/Graphics/SVG/1.1/DTD/svg11.dtd">
<!-- Generated by graphviz version 2.40.1 (20161225.0304)
 -->
<!-- Title: snakemake_dag Pages: 1 -->
<svg width="352pt" height="548pt"
 viewBox="0.00 0.00 352.11 548.00" xmlns="http://www.w3.org/2000/svg" xmlns:xlink="http://www.w3.org/1999/xlink">
<g id="graph0" class="graph" transform="scale(1 1) rotate(0) translate(4 544)">
<title>snakemake_dag</title>
<polygon fill="#ffffff" stroke="transparent" points="-4,4 -4,-544 348.1137,-544 348.1137,4 -4,4"/>
<!-- 0 -->
<g id="node1" class="node">
<title>0</title>
<path fill="none" stroke="#56c1d8" stroke-width="2" d="M185.1137,-36C185.1137,-36 155.1137,-36 155.1137,-36 149.1137,-36 143.1137,-30 143.1137,-24 143.1137,-24 143.1137,-12 143.1137,-12 143.1137,-6 149.1137,0 155.1137,0 155.1137,0 185.1137,0 185.1137,0 191.1137,0 197.1137,-6 197.1137,-12 197.1137,-12 197.1137,-24 197.1137,-24 197.1137,-30 191.1137,-36 185.1137,-36"/>
<text text-anchor="middle" x="170.1137" y="-15.5" font-family="sans" font-size="10.00" fill="#000000">all</text>
</g>
<!-- 1 -->
<g id="node2" class="node">
<title>1</title>
<path fill="none" stroke="#56d8a9" stroke-width="2" d="M123.1137,-108C123.1137,-108 47.1137,-108 47.1137,-108 41.1137,-108 35.1137,-102 35.1137,-96 35.1137,-96 35.1137,-84 35.1137,-84 35.1137,-78 41.1137,-72 47.1137,-72 47.1137,-72 123.1137,-72 123.1137,-72 129.1137,-72 135.1137,-78 135.1137,-84 135.1137,-84 135.1137,-96 135.1137,-96 135.1137,-102 129.1137,-108 123.1137,-108"/>
<text text-anchor="middle" x="85.1137" y="-87.5" font-family="sans" font-size="10.00" fill="#000000">reQuantify_Salmon</text>
</g>
<!-- 1&#45;&gt;0 -->
<g id="edge3" class="edge">
<title>1&#45;&gt;0</title>
<path fill="none" stroke="#c0c0c0" stroke-width="2" d="M106.5627,-71.8314C116.9314,-63.0485 129.5366,-52.3712 140.7782,-42.8489"/>
<polygon fill="#c0c0c0" stroke="#c0c0c0" stroke-width="2" points="143.3032,-45.297 148.6714,-36.1628 138.7787,-39.9556 143.3032,-45.297"/>
</g>
<!-- 2 -->
<g id="node3" class="node">
<title>2</title>
<path fill="none" stroke="#56d86b" stroke-width="2" d="M221.6137,-396C221.6137,-396 148.6137,-396 148.6137,-396 142.6137,-396 136.6137,-390 136.6137,-384 136.6137,-384 136.6137,-372 136.6137,-372 136.6137,-366 142.6137,-360 148.6137,-360 148.6137,-360 221.6137,-360 221.6137,-360 227.6137,-360 233.6137,-366 233.6137,-372 233.6137,-372 233.6137,-384 233.6137,-384 233.6137,-390 227.6137,-396 221.6137,-396"/>
<text text-anchor="middle" x="185.1137" y="-375.5" font-family="sans" font-size="10.00" fill="#000000">preprMats_running</text>
</g>
<!-- 2&#45;&gt;0 -->
<g id="edge1" class="edge">
<title>2&#45;&gt;0</title>
<path fill="none" stroke="#c0c0c0" stroke-width="2" d="M182.0056,-359.8777C177.6121,-332.6417 170.1137,-279.4948 170.1137,-234 170.1137,-234 170.1137,-234 170.1137,-162 170.1137,-121.876 170.1137,-75.4631 170.1137,-46.4177"/>
<polygon fill="#c0c0c0" stroke="#c0c0c0" stroke-width="2" points="173.6138,-46.1853 170.1137,-36.1854 166.6138,-46.1854 173.6138,-46.1853"/>
</g>
<!-- 6 -->
<g id="node7" class="node">
<title>6</title>
<path fill="none" stroke="#567bd8" stroke-width="2" d="M258.1137,-324C258.1137,-324 210.1137,-324 210.1137,-324 204.1137,-324 198.1137,-318 198.1137,-312 198.1137,-312 198.1137,-300 198.1137,-300 198.1137,-294 204.1137,-288 210.1137,-288 210.1137,-288 258.1137,-288 258.1137,-288 264.1137,-288 270.1137,-294 270.1137,-300 270.1137,-300 270.1137,-312 270.1137,-312 270.1137,-318 264.1137,-324 258.1137,-324"/>
<text text-anchor="middle" x="234.1137" y="-303.5" font-family="sans" font-size="10.00" fill="#000000">unzip_fastqs</text>
</g>
<!-- 2&#45;&gt;6 -->
<g id="edge11" class="edge">
<title>2&#45;&gt;6</title>
<path fill="none" stroke="#c0c0c0" stroke-width="2" d="M197.4784,-359.8314C203.0645,-351.6232 209.7766,-341.7606 215.9208,-332.7323"/>
<polygon fill="#c0c0c0" stroke="#c0c0c0" stroke-width="2" points="218.8496,-334.6496 221.5824,-324.4133 213.0626,-330.7112 218.8496,-334.6496"/>
</g>
<!-- 3 -->
<g id="node4" class="node">
<title>3</title>
<path fill="none" stroke="#afd856" stroke-width="2" d="M252.6137,-252C252.6137,-252 215.6137,-252 215.6137,-252 209.6137,-252 203.6137,-246 203.6137,-240 203.6137,-240 203.6137,-228 203.6137,-228 203.6137,-222 209.6137,-216 215.6137,-216 215.6137,-216 252.6137,-216 252.6137,-216 258.6137,-216 264.6137,-222 264.6137,-228 264.6137,-228 264.6137,-240 264.6137,-240 264.6137,-246 258.6137,-252 252.6137,-252"/>
<text text-anchor="middle" x="234.1137" y="-231.5" font-family="sans" font-size="10.00" fill="#000000">runrMATS</text>
</g>
<!-- 3&#45;&gt;0 -->
<g id="edge2" class="edge">
<title>3&#45;&gt;0</title>
<path fill="none" stroke="#c0c0c0" stroke-width="2" d="M228.7671,-215.9555C217.5907,-178.235 191.6896,-90.8188 178.3625,-45.8399"/>
<polygon fill="#c0c0c0" stroke="#c0c0c0" stroke-width="2" points="181.6867,-44.7387 175.49,-36.1451 174.9751,-46.7274 181.6867,-44.7387"/>
</g>
<!-- 4 -->
<g id="node5" class="node">
<title>4</title>
<path fill="none" stroke="#88d856" stroke-width="2" d="M111.1137,-468C111.1137,-468 59.1137,-468 59.1137,-468 53.1137,-468 47.1137,-462 47.1137,-456 47.1137,-456 47.1137,-444 47.1137,-444 47.1137,-438 53.1137,-432 59.1137,-432 59.1137,-432 111.1137,-432 111.1137,-432 117.1137,-432 123.1137,-438 123.1137,-444 123.1137,-444 123.1137,-456 123.1137,-456 123.1137,-462 117.1137,-468 111.1137,-468"/>
<text text-anchor="middle" x="85.1137" y="-447.5" font-family="sans" font-size="10.00" fill="#000000">aggFastqsPE</text>
</g>
<!-- 4&#45;&gt;1 -->
<g id="edge4" class="edge">
<title>4&#45;&gt;1</title>
<path fill="none" stroke="#c0c0c0" stroke-width="2" d="M65.3993,-431.5704C40.2894,-405.996 .1137,-357.0936 .1137,-306 .1137,-306 .1137,-306 .1137,-234 .1137,-192.9255 -.341,-179.0258 21.1137,-144 28.0043,-132.7507 38.0511,-122.6916 48.1509,-114.3923"/>
<polygon fill="#c0c0c0" stroke="#c0c0c0" stroke-width="2" points="50.4616,-117.029 56.2028,-108.1246 46.1618,-111.5053 50.4616,-117.029"/>
</g>
<!-- 4&#45;&gt;2 -->
<g id="edge6" class="edge">
<title>4&#45;&gt;2</title>
<path fill="none" stroke="#c0c0c0" stroke-width="2" d="M110.3479,-431.8314C122.9016,-422.7927 138.242,-411.7476 151.7528,-402.0198"/>
<polygon fill="#c0c0c0" stroke="#c0c0c0" stroke-width="2" points="153.8172,-404.8463 159.8875,-396.1628 149.7271,-399.1655 153.8172,-404.8463"/>
</g>
<!-- 12 -->
<g id="node13" class="node">
<title>12</title>
<path fill="none" stroke="#56d88a" stroke-width="2" d="M106.6137,-396C106.6137,-396 63.6137,-396 63.6137,-396 57.6137,-396 51.6137,-390 51.6137,-384 51.6137,-384 51.6137,-372 51.6137,-372 51.6137,-366 57.6137,-360 63.6137,-360 63.6137,-360 106.6137,-360 106.6137,-360 112.6137,-360 118.6137,-366 118.6137,-372 118.6137,-372 118.6137,-384 118.6137,-384 118.6137,-390 112.6137,-396 106.6137,-396"/>
<text text-anchor="middle" x="85.1137" y="-375.5" font-family="sans" font-size="10.00" fill="#000000">run_salmon</text>
</g>
<!-- 4&#45;&gt;12 -->
<g id="edge16" class="edge">
<title>4&#45;&gt;12</title>
<path fill="none" stroke="#c0c0c0" stroke-width="2" d="M85.1137,-431.8314C85.1137,-424.131 85.1137,-414.9743 85.1137,-406.4166"/>
<polygon fill="#c0c0c0" stroke="#c0c0c0" stroke-width="2" points="88.6138,-406.4132 85.1137,-396.4133 81.6138,-406.4133 88.6138,-406.4132"/>
</g>
<!-- 5 -->
<g id="node6" class="node">
<title>5</title>
<path fill="none" stroke="#d89c56" stroke-width="2" d="M128.1137,-180C128.1137,-180 42.1137,-180 42.1137,-180 36.1137,-180 30.1137,-174 30.1137,-168 30.1137,-168 30.1137,-156 30.1137,-156 30.1137,-150 36.1137,-144 42.1137,-144 42.1137,-144 128.1137,-144 128.1137,-144 134.1137,-144 140.1137,-150 140.1137,-156 140.1137,-156 140.1137,-168 140.1137,-168 140.1137,-174 134.1137,-180 128.1137,-180"/>
<text text-anchor="middle" x="85.1137" y="-159.5" font-family="sans" font-size="10.00" fill="#000000">rebuild_salmon_index</text>
</g>
<!-- 5&#45;&gt;1 -->
<g id="edge5" class="edge">
<title>5&#45;&gt;1</title>
<path fill="none" stroke="#c0c0c0" stroke-width="2" d="M85.1137,-143.8314C85.1137,-136.131 85.1137,-126.9743 85.1137,-118.4166"/>
<polygon fill="#c0c0c0" stroke="#c0c0c0" stroke-width="2" points="88.6138,-118.4132 85.1137,-108.4133 81.6138,-118.4133 88.6138,-118.4132"/>
</g>
<!-- 6&#45;&gt;3 -->
<g id="edge8" class="edge">
<title>6&#45;&gt;3</title>
<path fill="none" stroke="#c0c0c0" stroke-width="2" d="M234.1137,-287.8314C234.1137,-280.131 234.1137,-270.9743 234.1137,-262.4166"/>
<polygon fill="#c0c0c0" stroke="#c0c0c0" stroke-width="2" points="237.6138,-262.4132 234.1137,-252.4133 230.6138,-262.4133 237.6138,-262.4132"/>
</g>
<!-- 7 -->
<g id="node8" class="node">
<title>7</title>
<path fill="none" stroke="#68d856" stroke-width="2" d="M332.1137,-396C332.1137,-396 264.1137,-396 264.1137,-396 258.1137,-396 252.1137,-390 252.1137,-384 252.1137,-384 252.1137,-372 252.1137,-372 252.1137,-366 258.1137,-360 264.1137,-360 264.1137,-360 332.1137,-360 332.1137,-360 338.1137,-360 344.1137,-366 344.1137,-372 344.1137,-372 344.1137,-384 344.1137,-384 344.1137,-390 338.1137,-396 332.1137,-396"/>
<text text-anchor="middle" x="298.1137" y="-375.5" font-family="sans" font-size="10.00" fill="#000000">build_STARindex</text>
</g>
<!-- 7&#45;&gt;3 -->
<g id="edge7" class="edge">
<title>7&#45;&gt;3</title>
<path fill="none" stroke="#c0c0c0" stroke-width="2" d="M296.8745,-359.924C295.0099,-341.1363 290.3989,-311.2792 279.1137,-288 274.2726,-278.014 267.1926,-268.3086 260.0751,-259.9445"/>
<polygon fill="#c0c0c0" stroke="#c0c0c0" stroke-width="2" points="262.5831,-257.4982 253.3116,-252.3709 257.362,-262.1609 262.5831,-257.4982"/>
</g>
<!-- 8 -->
<g id="node9" class="node">
<title>8</title>
<path fill="none" stroke="#d87556" stroke-width="2" d="M100.1137,-540C100.1137,-540 70.1137,-540 70.1137,-540 64.1137,-540 58.1137,-534 58.1137,-528 58.1137,-528 58.1137,-516 58.1137,-516 58.1137,-510 64.1137,-504 70.1137,-504 70.1137,-504 100.1137,-504 100.1137,-504 106.1137,-504 112.1137,-510 112.1137,-516 112.1137,-516 112.1137,-528 112.1137,-528 112.1137,-534 106.1137,-540 100.1137,-540"/>
<text text-anchor="middle" x="85.1137" y="-519.5" font-family="sans" font-size="10.00" fill="#000000">getFQP</text>
</g>
<!-- 8&#45;&gt;4 -->
<g id="edge9" class="edge">
<title>8&#45;&gt;4</title>
<path fill="none" stroke="#c0c0c0" stroke-width="2" d="M85.1137,-503.8314C85.1137,-496.131 85.1137,-486.9743 85.1137,-478.4166"/>
<polygon fill="#c0c0c0" stroke="#c0c0c0" stroke-width="2" points="88.6138,-478.4132 85.1137,-468.4133 81.6138,-478.4133 88.6138,-478.4132"/>
</g>
<!-- 9 -->
<g id="node10" class="node">
<title>9</title>
<path fill="none" stroke="#d85656" stroke-width="2" d="M130.1137,-252C130.1137,-252 40.1137,-252 40.1137,-252 34.1137,-252 28.1137,-246 28.1137,-240 28.1137,-240 28.1137,-228 28.1137,-228 28.1137,-222 34.1137,-216 40.1137,-216 40.1137,-216 130.1137,-216 130.1137,-216 136.1137,-216 142.1137,-222 142.1137,-228 142.1137,-228 142.1137,-240 142.1137,-240 142.1137,-246 136.1137,-252 130.1137,-252"/>
<text text-anchor="middle" x="85.1137" y="-231.5" font-family="sans" font-size="10.00" fill="#000000">remove_tx_low_usage</text>
</g>
<!-- 9&#45;&gt;5 -->
<g id="edge10" class="edge">
<title>9&#45;&gt;5</title>
<path fill="none" stroke="#c0c0c0" stroke-width="2" d="M85.1137,-215.8314C85.1137,-208.131 85.1137,-198.9743 85.1137,-190.4166"/>
<polygon fill="#c0c0c0" stroke="#c0c0c0" stroke-width="2" points="88.6138,-190.4132 85.1137,-180.4133 81.6138,-190.4133 88.6138,-190.4132"/>
</g>
<!-- 10 -->
<g id="node11" class="node">
<title>10</title>
<path fill="none" stroke="#569ad8" stroke-width="2" d="M284.6137,-540C284.6137,-540 211.6137,-540 211.6137,-540 205.6137,-540 199.6137,-534 199.6137,-528 199.6137,-528 199.6137,-516 199.6137,-516 199.6137,-510 205.6137,-504 211.6137,-504 211.6137,-504 284.6137,-504 284.6137,-504 290.6137,-504 296.6137,-510 296.6137,-516 296.6137,-516 296.6137,-528 296.6137,-528 296.6137,-534 290.6137,-540 284.6137,-540"/>
<text text-anchor="middle" x="248.1137" y="-519.5" font-family="sans" font-size="10.00" fill="#000000">downloadGencode</text>
</g>
<!-- 10&#45;&gt;7 -->
<g id="edge12" class="edge">
<title>10&#45;&gt;7</title>
<path fill="none" stroke="#c0c0c0" stroke-width="2" d="M254.4462,-503.7623C263.0495,-478.9846 278.5055,-434.4714 288.5324,-405.5939"/>
<polygon fill="#c0c0c0" stroke="#c0c0c0" stroke-width="2" points="291.8587,-406.6844 291.8325,-396.0896 285.246,-404.3883 291.8587,-406.6844"/>
</g>
<!-- 13 -->
<g id="node14" class="node">
<title>13</title>
<path fill="none" stroke="#56d8d0" stroke-width="2" d="M244.1137,-468C244.1137,-468 166.1137,-468 166.1137,-468 160.1137,-468 154.1137,-462 154.1137,-456 154.1137,-456 154.1137,-444 154.1137,-444 154.1137,-438 160.1137,-432 166.1137,-432 166.1137,-432 244.1137,-432 244.1137,-432 250.1137,-432 256.1137,-438 256.1137,-444 256.1137,-444 256.1137,-456 256.1137,-456 256.1137,-462 250.1137,-468 244.1137,-468"/>
<text text-anchor="middle" x="205.1137" y="-447.5" font-family="sans" font-size="10.00" fill="#000000">build_salmon_index</text>
</g>
<!-- 10&#45;&gt;13 -->
<g id="edge17" class="edge">
<title>10&#45;&gt;13</title>
<path fill="none" stroke="#c0c0c0" stroke-width="2" d="M237.2629,-503.8314C232.4114,-495.7079 226.592,-485.9637 221.2457,-477.0118"/>
<polygon fill="#c0c0c0" stroke="#c0c0c0" stroke-width="2" points="224.2428,-475.2041 216.1105,-468.4133 218.233,-478.7933 224.2428,-475.2041"/>
</g>
<!-- 11 -->
<g id="node12" class="node">
<title>11</title>
<path fill="none" stroke="#ced856" stroke-width="2" d="M122.1137,-324C122.1137,-324 48.1137,-324 48.1137,-324 42.1137,-324 36.1137,-318 36.1137,-312 36.1137,-312 36.1137,-300 36.1137,-300 36.1137,-294 42.1137,-288 48.1137,-288 48.1137,-288 122.1137,-288 122.1137,-288 128.1137,-288 134.1137,-294 134.1137,-300 134.1137,-300 134.1137,-312 134.1137,-312 134.1137,-318 128.1137,-324 122.1137,-324"/>
<text text-anchor="middle" x="85.1137" y="-303.5" font-family="sans" font-size="10.00" fill="#000000">find_tx_low_usage</text>
</g>
<!-- 11&#45;&gt;9 -->
<g id="edge13" class="edge">
<title>11&#45;&gt;9</title>
<path fill="none" stroke="#c0c0c0" stroke-width="2" d="M85.1137,-287.8314C85.1137,-280.131 85.1137,-270.9743 85.1137,-262.4166"/>
<polygon fill="#c0c0c0" stroke="#c0c0c0" stroke-width="2" points="88.6138,-262.4132 85.1137,-252.4133 81.6138,-262.4133 88.6138,-262.4132"/>
</g>
<!-- 12&#45;&gt;11 -->
<g id="edge14" class="edge">
<title>12&#45;&gt;11</title>
<path fill="none" stroke="#c0c0c0" stroke-width="2" d="M85.1137,-359.8314C85.1137,-352.131 85.1137,-342.9743 85.1137,-334.4166"/>
<polygon fill="#c0c0c0" stroke="#c0c0c0" stroke-width="2" points="88.6138,-334.4132 85.1137,-324.4133 81.6138,-334.4133 88.6138,-334.4132"/>
</g>
<!-- 13&#45;&gt;12 -->
<g id="edge15" class="edge">
<title>13&#45;&gt;12</title>
<path fill="none" stroke="#c0c0c0" stroke-width="2" d="M174.8326,-431.8314C159.4839,-422.6221 140.6638,-411.3301 124.2313,-401.4706"/>
<polygon fill="#c0c0c0" stroke="#c0c0c0" stroke-width="2" points="125.7607,-398.3066 115.385,-396.1628 122.1592,-404.3091 125.7607,-398.3066"/>
</g>
</g>
</svg>
