<?xml version="1.0" encoding="UTF-8" standalone="no"?>
<!DOCTYPE svg PUBLIC "-//W3C//DTD SVG 1.1//EN"
 "http://www.w3.org/Graphics/SVG/1.1/DTD/svg11.dtd">
<!-- Generated by graphviz version 2.40.1 (20161225.0304)
 -->
<!-- Title: snakemake_dag Pages: 1 -->
<svg width="377pt" height="548pt"
 viewBox="0.00 0.00 376.50 548.00" xmlns="http://www.w3.org/2000/svg" xmlns:xlink="http://www.w3.org/1999/xlink">
<g id="graph0" class="graph" transform="scale(1 1) rotate(0) translate(4 544)">
<title>snakemake_dag</title>
<polygon fill="#ffffff" stroke="transparent" points="-4,4 -4,-544 372.5,-544 372.5,4 -4,4"/>
<!-- 0 -->
<g id="node1" class="node">
<title>0</title>
<path fill="none" stroke="#56d86b" stroke-width="2" d="M192.5,-36C192.5,-36 162.5,-36 162.5,-36 156.5,-36 150.5,-30 150.5,-24 150.5,-24 150.5,-12 150.5,-12 150.5,-6 156.5,0 162.5,0 162.5,0 192.5,0 192.5,0 198.5,0 204.5,-6 204.5,-12 204.5,-12 204.5,-24 204.5,-24 204.5,-30 198.5,-36 192.5,-36"/>
<text text-anchor="middle" x="177.5" y="-15.5" font-family="sans" font-size="10.00" fill="#000000">all</text>
</g>
<!-- 1 -->
<g id="node2" class="node">
<title>1</title>
<path fill="none" stroke="#d89c56" stroke-width="2" d="M215.5,-108C215.5,-108 139.5,-108 139.5,-108 133.5,-108 127.5,-102 127.5,-96 127.5,-96 127.5,-84 127.5,-84 127.5,-78 133.5,-72 139.5,-72 139.5,-72 215.5,-72 215.5,-72 221.5,-72 227.5,-78 227.5,-84 227.5,-84 227.5,-96 227.5,-96 227.5,-102 221.5,-108 215.5,-108"/>
<text text-anchor="middle" x="177.5" y="-87.5" font-family="sans" font-size="10.00" fill="#000000">reQuantify_Salmon</text>
</g>
<!-- 1&#45;&gt;0 -->
<g id="edge1" class="edge">
<title>1&#45;&gt;0</title>
<path fill="none" stroke="#c0c0c0" stroke-width="2" d="M177.5,-71.8314C177.5,-64.131 177.5,-54.9743 177.5,-46.4166"/>
<polygon fill="#c0c0c0" stroke="#c0c0c0" stroke-width="2" points="181.0001,-46.4132 177.5,-36.4133 174.0001,-46.4133 181.0001,-46.4132"/>
</g>
<!-- 2 -->
<g id="node3" class="node">
<title>2</title>
<path fill="none" stroke="#56d8d0" stroke-width="2" d="M336,-252C336,-252 299,-252 299,-252 293,-252 287,-246 287,-240 287,-240 287,-228 287,-228 287,-222 293,-216 299,-216 299,-216 336,-216 336,-216 342,-216 348,-222 348,-228 348,-228 348,-240 348,-240 348,-246 342,-252 336,-252"/>
<text text-anchor="middle" x="317.5" y="-231.5" font-family="sans" font-size="10.00" fill="#000000">runrMATS</text>
</g>
<!-- 2&#45;&gt;0 -->
<g id="edge3" class="edge">
<title>2&#45;&gt;0</title>
<path fill="none" stroke="#c0c0c0" stroke-width="2" d="M310.9851,-215.7269C299.2438,-184.328 272.3777,-118.984 236.5,-72 228.454,-61.4632 218.2029,-51.2748 208.5108,-42.6405"/>
<polygon fill="#c0c0c0" stroke="#c0c0c0" stroke-width="2" points="210.7651,-39.9628 200.9105,-36.0721 206.188,-45.259 210.7651,-39.9628"/>
</g>
<!-- 3 -->
<g id="node4" class="node">
<title>3</title>
<path fill="none" stroke="#567bd8" stroke-width="2" d="M85,-324C85,-324 12,-324 12,-324 6,-324 0,-318 0,-312 0,-312 0,-300 0,-300 0,-294 6,-288 12,-288 12,-288 85,-288 85,-288 91,-288 97,-294 97,-300 97,-300 97,-312 97,-312 97,-318 91,-324 85,-324"/>
<text text-anchor="middle" x="48.5" y="-303.5" font-family="sans" font-size="10.00" fill="#000000">preprMats_running</text>
</g>
<!-- 3&#45;&gt;0 -->
<g id="edge2" class="edge">
<title>3&#45;&gt;0</title>
<path fill="none" stroke="#c0c0c0" stroke-width="2" d="M50.5743,-287.9301C55.9754,-246.7676 73.3283,-144.0267 118.5,-72 125.3012,-61.1554 134.855,-51.1187 144.297,-42.7143"/>
<polygon fill="#c0c0c0" stroke="#c0c0c0" stroke-width="2" points="146.781,-45.1967 152.1392,-36.0566 142.2507,-39.8604 146.781,-45.1967"/>
</g>
<!-- 4 -->
<g id="node5" class="node">
<title>4</title>
<path fill="none" stroke="#56d88a" stroke-width="2" d="M252.5,-180C252.5,-180 166.5,-180 166.5,-180 160.5,-180 154.5,-174 154.5,-168 154.5,-168 154.5,-156 154.5,-156 154.5,-150 160.5,-144 166.5,-144 166.5,-144 252.5,-144 252.5,-144 258.5,-144 264.5,-150 264.5,-156 264.5,-156 264.5,-168 264.5,-168 264.5,-174 258.5,-180 252.5,-180"/>
<text text-anchor="middle" x="209.5" y="-159.5" font-family="sans" font-size="10.00" fill="#000000">rebuild_salmon_index</text>
</g>
<!-- 4&#45;&gt;1 -->
<g id="edge5" class="edge">
<title>4&#45;&gt;1</title>
<path fill="none" stroke="#c0c0c0" stroke-width="2" d="M201.425,-143.8314C197.8898,-135.8771 193.664,-126.369 189.7544,-117.5723"/>
<polygon fill="#c0c0c0" stroke="#c0c0c0" stroke-width="2" points="192.9435,-116.1299 185.6837,-108.4133 186.5468,-118.9729 192.9435,-116.1299"/>
</g>
<!-- 5 -->
<g id="node6" class="node">
<title>5</title>
<path fill="none" stroke="#56d8a9" stroke-width="2" d="M126.5,-468C126.5,-468 74.5,-468 74.5,-468 68.5,-468 62.5,-462 62.5,-456 62.5,-456 62.5,-444 62.5,-444 62.5,-438 68.5,-432 74.5,-432 74.5,-432 126.5,-432 126.5,-432 132.5,-432 138.5,-438 138.5,-444 138.5,-444 138.5,-456 138.5,-456 138.5,-462 132.5,-468 126.5,-468"/>
<text text-anchor="middle" x="100.5" y="-447.5" font-family="sans" font-size="10.00" fill="#000000">aggFastqsPE</text>
</g>
<!-- 5&#45;&gt;1 -->
<g id="edge4" class="edge">
<title>5&#45;&gt;1</title>
<path fill="none" stroke="#c0c0c0" stroke-width="2" d="M105.68,-431.9889C113.0027,-404.8949 125.5,-351.9269 125.5,-306 125.5,-306 125.5,-306 125.5,-234 125.5,-193.0242 130.4226,-182.101 145.5,-144 149.1514,-134.7727 154.2542,-125.2772 159.3137,-116.8719"/>
<polygon fill="#c0c0c0" stroke="#c0c0c0" stroke-width="2" points="162.3758,-118.5766 164.7161,-108.2434 156.4428,-114.8618 162.3758,-118.5766"/>
</g>
<!-- 5&#45;&gt;3 -->
<g id="edge7" class="edge">
<title>5&#45;&gt;3</title>
<path fill="none" stroke="#c0c0c0" stroke-width="2" d="M93.9142,-431.7623C84.9667,-406.9846 68.8924,-362.4714 58.4645,-333.5939"/>
<polygon fill="#c0c0c0" stroke="#c0c0c0" stroke-width="2" points="61.7208,-332.3064 55.0324,-324.0896 55.1369,-334.6839 61.7208,-332.3064"/>
</g>
<!-- 11 -->
<g id="node12" class="node">
<title>11</title>
<path fill="none" stroke="#88d856" stroke-width="2" d="M229,-396C229,-396 186,-396 186,-396 180,-396 174,-390 174,-384 174,-384 174,-372 174,-372 174,-366 180,-360 186,-360 186,-360 229,-360 229,-360 235,-360 241,-366 241,-372 241,-372 241,-384 241,-384 241,-390 235,-396 229,-396"/>
<text text-anchor="middle" x="207.5" y="-375.5" font-family="sans" font-size="10.00" fill="#000000">run_salmon</text>
</g>
<!-- 5&#45;&gt;11 -->
<g id="edge14" class="edge">
<title>5&#45;&gt;11</title>
<path fill="none" stroke="#c0c0c0" stroke-width="2" d="M127.5006,-431.8314C140.9331,-422.7927 157.3473,-411.7476 171.8039,-402.0198"/>
<polygon fill="#c0c0c0" stroke="#c0c0c0" stroke-width="2" points="174.1654,-404.6494 180.508,-396.1628 170.2575,-398.8418 174.1654,-404.6494"/>
</g>
<!-- 6 -->
<g id="node7" class="node">
<title>6</title>
<path fill="none" stroke="#ced856" stroke-width="2" d="M356.5,-468C356.5,-468 288.5,-468 288.5,-468 282.5,-468 276.5,-462 276.5,-456 276.5,-456 276.5,-444 276.5,-444 276.5,-438 282.5,-432 288.5,-432 288.5,-432 356.5,-432 356.5,-432 362.5,-432 368.5,-438 368.5,-444 368.5,-444 368.5,-456 368.5,-456 368.5,-462 362.5,-468 356.5,-468"/>
<text text-anchor="middle" x="322.5" y="-447.5" font-family="sans" font-size="10.00" fill="#000000">build_STARindex</text>
</g>
<!-- 6&#45;&gt;2 -->
<g id="edge6" class="edge">
<title>6&#45;&gt;2</title>
<path fill="none" stroke="#c0c0c0" stroke-width="2" d="M322.0823,-431.9555C321.2128,-394.3938 319.2026,-307.5541 318.1576,-262.4103"/>
<polygon fill="#c0c0c0" stroke="#c0c0c0" stroke-width="2" points="321.6506,-262.0614 317.92,-252.1451 314.6525,-262.2234 321.6506,-262.0614"/>
</g>
<!-- 7 -->
<g id="node8" class="node">
<title>7</title>
<path fill="none" stroke="#afd856" stroke-width="2" d="M255.5,-252C255.5,-252 165.5,-252 165.5,-252 159.5,-252 153.5,-246 153.5,-240 153.5,-240 153.5,-228 153.5,-228 153.5,-222 159.5,-216 165.5,-216 165.5,-216 255.5,-216 255.5,-216 261.5,-216 267.5,-222 267.5,-228 267.5,-228 267.5,-240 267.5,-240 267.5,-246 261.5,-252 255.5,-252"/>
<text text-anchor="middle" x="210.5" y="-231.5" font-family="sans" font-size="10.00" fill="#000000">remove_tx_low_usage</text>
</g>
<!-- 7&#45;&gt;4 -->
<g id="edge8" class="edge">
<title>7&#45;&gt;4</title>
<path fill="none" stroke="#c0c0c0" stroke-width="2" d="M210.2477,-215.8314C210.1407,-208.131 210.0135,-198.9743 209.8947,-190.4166"/>
<polygon fill="#c0c0c0" stroke="#c0c0c0" stroke-width="2" points="213.3944,-190.3637 209.7557,-180.4133 206.3951,-190.4609 213.3944,-190.3637"/>
</g>
<!-- 8 -->
<g id="node9" class="node">
<title>8</title>
<path fill="none" stroke="#569ad8" stroke-width="2" d="M115.5,-540C115.5,-540 85.5,-540 85.5,-540 79.5,-540 73.5,-534 73.5,-528 73.5,-528 73.5,-516 73.5,-516 73.5,-510 79.5,-504 85.5,-504 85.5,-504 115.5,-504 115.5,-504 121.5,-504 127.5,-510 127.5,-516 127.5,-516 127.5,-528 127.5,-528 127.5,-534 121.5,-540 115.5,-540"/>
<text text-anchor="middle" x="100.5" y="-519.5" font-family="sans" font-size="10.00" fill="#000000">getFQP</text>
</g>
<!-- 8&#45;&gt;5 -->
<g id="edge9" class="edge">
<title>8&#45;&gt;5</title>
<path fill="none" stroke="#c0c0c0" stroke-width="2" d="M100.5,-503.8314C100.5,-496.131 100.5,-486.9743 100.5,-478.4166"/>
<polygon fill="#c0c0c0" stroke="#c0c0c0" stroke-width="2" points="104.0001,-478.4132 100.5,-468.4133 97.0001,-478.4133 104.0001,-478.4132"/>
</g>
<!-- 9 -->
<g id="node10" class="node">
<title>9</title>
<path fill="none" stroke="#d85656" stroke-width="2" d="M301,-540C301,-540 228,-540 228,-540 222,-540 216,-534 216,-528 216,-528 216,-516 216,-516 216,-510 222,-504 228,-504 228,-504 301,-504 301,-504 307,-504 313,-510 313,-516 313,-516 313,-528 313,-528 313,-534 307,-540 301,-540"/>
<text text-anchor="middle" x="264.5" y="-519.5" font-family="sans" font-size="10.00" fill="#000000">downloadGencode</text>
</g>
<!-- 9&#45;&gt;6 -->
<g id="edge10" class="edge">
<title>9&#45;&gt;6</title>
<path fill="none" stroke="#c0c0c0" stroke-width="2" d="M279.1358,-503.8314C285.8161,-495.5386 293.8568,-485.557 301.1904,-476.4533"/>
<polygon fill="#c0c0c0" stroke="#c0c0c0" stroke-width="2" points="304.1194,-478.3965 307.6671,-468.4133 298.6681,-474.0052 304.1194,-478.3965"/>
</g>
<!-- 12 -->
<g id="node13" class="node">
<title>12</title>
<path fill="none" stroke="#68d856" stroke-width="2" d="M246.5,-468C246.5,-468 168.5,-468 168.5,-468 162.5,-468 156.5,-462 156.5,-456 156.5,-456 156.5,-444 156.5,-444 156.5,-438 162.5,-432 168.5,-432 168.5,-432 246.5,-432 246.5,-432 252.5,-432 258.5,-438 258.5,-444 258.5,-444 258.5,-456 258.5,-456 258.5,-462 252.5,-468 246.5,-468"/>
<text text-anchor="middle" x="207.5" y="-447.5" font-family="sans" font-size="10.00" fill="#000000">build_salmon_index</text>
</g>
<!-- 9&#45;&gt;12 -->
<g id="edge15" class="edge">
<title>9&#45;&gt;12</title>
<path fill="none" stroke="#c0c0c0" stroke-width="2" d="M250.1165,-503.8314C243.5514,-495.5386 235.6493,-485.557 228.4422,-476.4533"/>
<polygon fill="#c0c0c0" stroke="#c0c0c0" stroke-width="2" points="231.0284,-474.0813 222.0772,-468.4133 225.5401,-478.4262 231.0284,-474.0813"/>
</g>
<!-- 10 -->
<g id="node11" class="node">
<title>10</title>
<path fill="none" stroke="#d8bc56" stroke-width="2" d="M246.5,-324C246.5,-324 172.5,-324 172.5,-324 166.5,-324 160.5,-318 160.5,-312 160.5,-312 160.5,-300 160.5,-300 160.5,-294 166.5,-288 172.5,-288 172.5,-288 246.5,-288 246.5,-288 252.5,-288 258.5,-294 258.5,-300 258.5,-300 258.5,-312 258.5,-312 258.5,-318 252.5,-324 246.5,-324"/>
<text text-anchor="middle" x="209.5" y="-303.5" font-family="sans" font-size="10.00" fill="#000000">find_tx_low_usage</text>
</g>
<!-- 10&#45;&gt;7 -->
<g id="edge11" class="edge">
<title>10&#45;&gt;7</title>
<path fill="none" stroke="#c0c0c0" stroke-width="2" d="M209.7523,-287.8314C209.8593,-280.131 209.9865,-270.9743 210.1053,-262.4166"/>
<polygon fill="#c0c0c0" stroke="#c0c0c0" stroke-width="2" points="213.6049,-262.4609 210.2443,-252.4133 206.6056,-262.3637 213.6049,-262.4609"/>
</g>
<!-- 11&#45;&gt;10 -->
<g id="edge12" class="edge">
<title>11&#45;&gt;10</title>
<path fill="none" stroke="#c0c0c0" stroke-width="2" d="M208.0047,-359.8314C208.2186,-352.131 208.4729,-342.9743 208.7106,-334.4166"/>
<polygon fill="#c0c0c0" stroke="#c0c0c0" stroke-width="2" points="212.2094,-334.5066 208.9885,-324.4133 205.2121,-334.3122 212.2094,-334.5066"/>
</g>
<!-- 12&#45;&gt;11 -->
<g id="edge13" class="edge">
<title>12&#45;&gt;11</title>
<path fill="none" stroke="#c0c0c0" stroke-width="2" d="M207.5,-431.8314C207.5,-424.131 207.5,-414.9743 207.5,-406.4166"/>
<polygon fill="#c0c0c0" stroke="#c0c0c0" stroke-width="2" points="211.0001,-406.4132 207.5,-396.4133 204.0001,-406.4133 211.0001,-406.4132"/>
</g>
</g>
</svg>
