<?xml version="1.0" encoding="UTF-8" standalone="no"?>
<!DOCTYPE svg PUBLIC "-//W3C//DTD SVG 1.1//EN"
 "http://www.w3.org/Graphics/SVG/1.1/DTD/svg11.dtd">
<!-- Generated by graphviz version 2.40.1 (20161225.0304)
 -->
<!-- Title: snakemake_dag Pages: 1 -->
<svg width="281pt" height="620pt"
 viewBox="0.00 0.00 280.50 620.00" xmlns="http://www.w3.org/2000/svg" xmlns:xlink="http://www.w3.org/1999/xlink">
<g id="graph0" class="graph" transform="scale(1 1) rotate(0) translate(4 616)">
<title>snakemake_dag</title>
<polygon fill="#ffffff" stroke="transparent" points="-4,4 -4,-616 276.5,-616 276.5,4 -4,4"/>
<!-- 0 -->
<g id="node1" class="node">
<title>0</title>
<path fill="none" stroke="#d89c56" stroke-width="2" d="M171,-36C171,-36 141,-36 141,-36 135,-36 129,-30 129,-24 129,-24 129,-12 129,-12 129,-6 135,0 141,0 141,0 171,0 171,0 177,0 183,-6 183,-12 183,-12 183,-24 183,-24 183,-30 177,-36 171,-36"/>
<text text-anchor="middle" x="156" y="-15.5" font-family="sans" font-size="10.00" fill="#000000">all</text>
</g>
<!-- 1 -->
<g id="node2" class="node">
<title>1</title>
<path fill="none" stroke="#569ad8" stroke-width="2" d="M155,-180C155,-180 79,-180 79,-180 73,-180 67,-174 67,-168 67,-168 67,-156 67,-156 67,-150 73,-144 79,-144 79,-144 155,-144 155,-144 161,-144 167,-150 167,-156 167,-156 167,-168 167,-168 167,-174 161,-180 155,-180"/>
<text text-anchor="middle" x="117" y="-159.5" font-family="sans" font-size="10.00" fill="#000000">reQuantify_Salmon</text>
</g>
<!-- 1&#45;&gt;0 -->
<g id="edge3" class="edge">
<title>1&#45;&gt;0</title>
<path fill="none" stroke="#c0c0c0" stroke-width="2" d="M110.1246,-143.7718C104.1893,-125.1219 97.8838,-95.6124 107,-72 111.1192,-61.3306 118.4336,-51.4665 126.1749,-43.1681"/>
<polygon fill="#c0c0c0" stroke="#c0c0c0" stroke-width="2" points="128.7348,-45.558 133.325,-36.0091 123.7819,-40.6113 128.7348,-45.558"/>
</g>
<!-- 3 -->
<g id="node4" class="node">
<title>3</title>
<path fill="none" stroke="#d85656" stroke-width="2" d="M184,-108C184,-108 128,-108 128,-108 122,-108 116,-102 116,-96 116,-96 116,-84 116,-84 116,-78 122,-72 128,-72 128,-72 184,-72 184,-72 190,-72 196,-78 196,-84 196,-84 196,-96 196,-96 196,-102 190,-108 184,-108"/>
<text text-anchor="middle" x="156" y="-87.5" font-family="sans" font-size="10.00" fill="#000000">quality_control</text>
</g>
<!-- 1&#45;&gt;3 -->
<g id="edge7" class="edge">
<title>1&#45;&gt;3</title>
<path fill="none" stroke="#c0c0c0" stroke-width="2" d="M126.8413,-143.8314C131.1957,-135.7925 136.4098,-126.1666 141.2169,-117.2918"/>
<polygon fill="#c0c0c0" stroke="#c0c0c0" stroke-width="2" points="144.3408,-118.8732 146.0261,-108.4133 138.1857,-115.5392 144.3408,-118.8732"/>
</g>
<!-- 2 -->
<g id="node3" class="node">
<title>2</title>
<path fill="none" stroke="#56c1d8" stroke-width="2" d="M242.5,-252C242.5,-252 205.5,-252 205.5,-252 199.5,-252 193.5,-246 193.5,-240 193.5,-240 193.5,-228 193.5,-228 193.5,-222 199.5,-216 205.5,-216 205.5,-216 242.5,-216 242.5,-216 248.5,-216 254.5,-222 254.5,-228 254.5,-228 254.5,-240 254.5,-240 254.5,-246 248.5,-252 242.5,-252"/>
<text text-anchor="middle" x="224" y="-231.5" font-family="sans" font-size="10.00" fill="#000000">runrMATS</text>
</g>
<!-- 2&#45;&gt;0 -->
<g id="edge2" class="edge">
<title>2&#45;&gt;0</title>
<path fill="none" stroke="#c0c0c0" stroke-width="2" d="M225.3682,-215.7921C226.9554,-184.769 226.9806,-120.3324 205,-72 200.2252,-61.5009 192.6427,-51.6352 184.8557,-43.282"/>
<polygon fill="#c0c0c0" stroke="#c0c0c0" stroke-width="2" points="187.2395,-40.7149 177.7215,-36.061 182.2599,-45.6346 187.2395,-40.7149"/>
</g>
<!-- 3&#45;&gt;0 -->
<g id="edge1" class="edge">
<title>3&#45;&gt;0</title>
<path fill="none" stroke="#c0c0c0" stroke-width="2" d="M156,-71.8314C156,-64.131 156,-54.9743 156,-46.4166"/>
<polygon fill="#c0c0c0" stroke="#c0c0c0" stroke-width="2" points="159.5001,-46.4132 156,-36.4133 152.5001,-46.4133 159.5001,-46.4132"/>
</g>
<!-- 4 -->
<g id="node5" class="node">
<title>4</title>
<path fill="none" stroke="#d87556" stroke-width="2" d="M184,-540C184,-540 132,-540 132,-540 126,-540 120,-534 120,-528 120,-528 120,-516 120,-516 120,-510 126,-504 132,-504 132,-504 184,-504 184,-504 190,-504 196,-510 196,-516 196,-516 196,-528 196,-528 196,-534 190,-540 184,-540"/>
<text text-anchor="middle" x="158" y="-519.5" font-family="sans" font-size="10.00" fill="#000000">aggFastqsPE</text>
</g>
<!-- 4&#45;&gt;1 -->
<g id="edge4" class="edge">
<title>4&#45;&gt;1</title>
<path fill="none" stroke="#c0c0c0" stroke-width="2" d="M155.7208,-503.8486C152.4988,-476.5755 147,-423.3818 147,-378 147,-378 147,-378 147,-306 147,-265.0614 135.2354,-218.926 126.4407,-190.1567"/>
<polygon fill="#c0c0c0" stroke="#c0c0c0" stroke-width="2" points="129.7054,-188.8712 123.3622,-180.385 123.0289,-190.9746 129.7054,-188.8712"/>
</g>
<!-- 9 -->
<g id="node10" class="node">
<title>9</title>
<path fill="none" stroke="#ced856" stroke-width="2" d="M260.5,-468C260.5,-468 187.5,-468 187.5,-468 181.5,-468 175.5,-462 175.5,-456 175.5,-456 175.5,-444 175.5,-444 175.5,-438 181.5,-432 187.5,-432 187.5,-432 260.5,-432 260.5,-432 266.5,-432 272.5,-438 272.5,-444 272.5,-444 272.5,-456 272.5,-456 272.5,-462 266.5,-468 260.5,-468"/>
<text text-anchor="middle" x="224" y="-447.5" font-family="sans" font-size="10.00" fill="#000000">preprMats_running</text>
</g>
<!-- 4&#45;&gt;9 -->
<g id="edge12" class="edge">
<title>4&#45;&gt;9</title>
<path fill="none" stroke="#c0c0c0" stroke-width="2" d="M174.6546,-503.8314C182.4114,-495.3694 191.7802,-485.1489 200.261,-475.8971"/>
<polygon fill="#c0c0c0" stroke="#c0c0c0" stroke-width="2" points="202.9439,-478.1499 207.1212,-468.4133 197.7838,-473.4198 202.9439,-478.1499"/>
</g>
<!-- 11 -->
<g id="node12" class="node">
<title>11</title>
<path fill="none" stroke="#56d8a9" stroke-width="2" d="M83.5,-468C83.5,-468 40.5,-468 40.5,-468 34.5,-468 28.5,-462 28.5,-456 28.5,-456 28.5,-444 28.5,-444 28.5,-438 34.5,-432 40.5,-432 40.5,-432 83.5,-432 83.5,-432 89.5,-432 95.5,-438 95.5,-444 95.5,-444 95.5,-456 95.5,-456 95.5,-462 89.5,-468 83.5,-468"/>
<text text-anchor="middle" x="62" y="-447.5" font-family="sans" font-size="10.00" fill="#000000">run_salmon</text>
</g>
<!-- 4&#45;&gt;11 -->
<g id="edge15" class="edge">
<title>4&#45;&gt;11</title>
<path fill="none" stroke="#c0c0c0" stroke-width="2" d="M133.7751,-503.8314C121.8372,-494.8779 107.2744,-483.9558 94.394,-474.2955"/>
<polygon fill="#c0c0c0" stroke="#c0c0c0" stroke-width="2" points="96.3171,-471.3629 86.2171,-468.1628 92.1171,-476.9629 96.3171,-471.3629"/>
</g>
<!-- 5 -->
<g id="node6" class="node">
<title>5</title>
<path fill="none" stroke="#68d856" stroke-width="2" d="M106,-252C106,-252 20,-252 20,-252 14,-252 8,-246 8,-240 8,-240 8,-228 8,-228 8,-222 14,-216 20,-216 20,-216 106,-216 106,-216 112,-216 118,-222 118,-228 118,-228 118,-240 118,-240 118,-246 112,-252 106,-252"/>
<text text-anchor="middle" x="63" y="-231.5" font-family="sans" font-size="10.00" fill="#000000">rebuild_salmon_index</text>
</g>
<!-- 5&#45;&gt;1 -->
<g id="edge5" class="edge">
<title>5&#45;&gt;1</title>
<path fill="none" stroke="#c0c0c0" stroke-width="2" d="M76.6265,-215.8314C82.846,-207.5386 90.3322,-197.557 97.16,-188.4533"/>
<polygon fill="#c0c0c0" stroke="#c0c0c0" stroke-width="2" points="99.99,-190.5133 103.19,-180.4133 94.39,-186.3133 99.99,-190.5133"/>
</g>
<!-- 6 -->
<g id="node7" class="node">
<title>6</title>
<path fill="none" stroke="#56d88a" stroke-width="2" d="M248,-396C248,-396 200,-396 200,-396 194,-396 188,-390 188,-384 188,-384 188,-372 188,-372 188,-366 194,-360 200,-360 200,-360 248,-360 248,-360 254,-360 260,-366 260,-372 260,-372 260,-384 260,-384 260,-390 254,-396 248,-396"/>
<text text-anchor="middle" x="224" y="-375.5" font-family="sans" font-size="10.00" fill="#000000">unzip_fastqs</text>
</g>
<!-- 6&#45;&gt;2 -->
<g id="edge6" class="edge">
<title>6&#45;&gt;2</title>
<path fill="none" stroke="#c0c0c0" stroke-width="2" d="M224,-359.7623C224,-335.201 224,-291.2474 224,-262.3541"/>
<polygon fill="#c0c0c0" stroke="#c0c0c0" stroke-width="2" points="227.5001,-262.0896 224,-252.0896 220.5001,-262.0897 227.5001,-262.0896"/>
</g>
<!-- 7 -->
<g id="node8" class="node">
<title>7</title>
<path fill="none" stroke="#56d86b" stroke-width="2" d="M173,-612C173,-612 143,-612 143,-612 137,-612 131,-606 131,-600 131,-600 131,-588 131,-588 131,-582 137,-576 143,-576 143,-576 173,-576 173,-576 179,-576 185,-582 185,-588 185,-588 185,-600 185,-600 185,-606 179,-612 173,-612"/>
<text text-anchor="middle" x="158" y="-591.5" font-family="sans" font-size="10.00" fill="#000000">getFQP</text>
</g>
<!-- 7&#45;&gt;4 -->
<g id="edge8" class="edge">
<title>7&#45;&gt;4</title>
<path fill="none" stroke="#c0c0c0" stroke-width="2" d="M158,-575.8314C158,-568.131 158,-558.9743 158,-550.4166"/>
<polygon fill="#c0c0c0" stroke="#c0c0c0" stroke-width="2" points="161.5001,-550.4132 158,-540.4133 154.5001,-550.4133 161.5001,-550.4132"/>
</g>
<!-- 8 -->
<g id="node9" class="node">
<title>8</title>
<path fill="none" stroke="#88d856" stroke-width="2" d="M107,-324C107,-324 17,-324 17,-324 11,-324 5,-318 5,-312 5,-312 5,-300 5,-300 5,-294 11,-288 17,-288 17,-288 107,-288 107,-288 113,-288 119,-294 119,-300 119,-300 119,-312 119,-312 119,-318 113,-324 107,-324"/>
<text text-anchor="middle" x="62" y="-303.5" font-family="sans" font-size="10.00" fill="#000000">remove_tx_low_usage</text>
</g>
<!-- 8&#45;&gt;5 -->
<g id="edge9" class="edge">
<title>8&#45;&gt;5</title>
<path fill="none" stroke="#c0c0c0" stroke-width="2" d="M62.2523,-287.8314C62.3593,-280.131 62.4865,-270.9743 62.6053,-262.4166"/>
<polygon fill="#c0c0c0" stroke="#c0c0c0" stroke-width="2" points="66.1049,-262.4609 62.7443,-252.4133 59.1056,-262.3637 66.1049,-262.4609"/>
</g>
<!-- 9&#45;&gt;6 -->
<g id="edge10" class="edge">
<title>9&#45;&gt;6</title>
<path fill="none" stroke="#c0c0c0" stroke-width="2" d="M224,-431.8314C224,-424.131 224,-414.9743 224,-406.4166"/>
<polygon fill="#c0c0c0" stroke="#c0c0c0" stroke-width="2" points="227.5001,-406.4132 224,-396.4133 220.5001,-406.4133 227.5001,-406.4132"/>
</g>
<!-- 10 -->
<g id="node11" class="node">
<title>10</title>
<path fill="none" stroke="#567bd8" stroke-width="2" d="M99,-396C99,-396 25,-396 25,-396 19,-396 13,-390 13,-384 13,-384 13,-372 13,-372 13,-366 19,-360 25,-360 25,-360 99,-360 99,-360 105,-360 111,-366 111,-372 111,-372 111,-384 111,-384 111,-390 105,-396 99,-396"/>
<text text-anchor="middle" x="62" y="-375.5" font-family="sans" font-size="10.00" fill="#000000">find_tx_low_usage</text>
</g>
<!-- 10&#45;&gt;8 -->
<g id="edge11" class="edge">
<title>10&#45;&gt;8</title>
<path fill="none" stroke="#c0c0c0" stroke-width="2" d="M62,-359.8314C62,-352.131 62,-342.9743 62,-334.4166"/>
<polygon fill="#c0c0c0" stroke="#c0c0c0" stroke-width="2" points="65.5001,-334.4132 62,-324.4133 58.5001,-334.4133 65.5001,-334.4132"/>
</g>
<!-- 11&#45;&gt;10 -->
<g id="edge13" class="edge">
<title>11&#45;&gt;10</title>
<path fill="none" stroke="#c0c0c0" stroke-width="2" d="M62,-431.8314C62,-424.131 62,-414.9743 62,-406.4166"/>
<polygon fill="#c0c0c0" stroke="#c0c0c0" stroke-width="2" points="65.5001,-406.4132 62,-396.4133 58.5001,-406.4133 65.5001,-406.4132"/>
</g>
<!-- 12 -->
<g id="node13" class="node">
<title>12</title>
<path fill="none" stroke="#afd856" stroke-width="2" d="M90,-540C90,-540 12,-540 12,-540 6,-540 0,-534 0,-528 0,-528 0,-516 0,-516 0,-510 6,-504 12,-504 12,-504 90,-504 90,-504 96,-504 102,-510 102,-516 102,-516 102,-528 102,-528 102,-534 96,-540 90,-540"/>
<text text-anchor="middle" x="51" y="-519.5" font-family="sans" font-size="10.00" fill="#000000">build_salmon_index</text>
</g>
<!-- 12&#45;&gt;11 -->
<g id="edge14" class="edge">
<title>12&#45;&gt;11</title>
<path fill="none" stroke="#c0c0c0" stroke-width="2" d="M53.7758,-503.8314C54.9522,-496.131 56.3511,-486.9743 57.6586,-478.4166"/>
<polygon fill="#c0c0c0" stroke="#c0c0c0" stroke-width="2" points="61.1364,-478.8272 59.1869,-468.4133 54.2167,-477.7699 61.1364,-478.8272"/>
</g>
<!-- 13 -->
<g id="node14" class="node">
<title>13</title>
<path fill="none" stroke="#56d8d0" stroke-width="2" d="M87.5,-612C87.5,-612 14.5,-612 14.5,-612 8.5,-612 2.5,-606 2.5,-600 2.5,-600 2.5,-588 2.5,-588 2.5,-582 8.5,-576 14.5,-576 14.5,-576 87.5,-576 87.5,-576 93.5,-576 99.5,-582 99.5,-588 99.5,-588 99.5,-600 99.5,-600 99.5,-606 93.5,-612 87.5,-612"/>
<text text-anchor="middle" x="51" y="-591.5" font-family="sans" font-size="10.00" fill="#000000">downloadGencode</text>
</g>
<!-- 13&#45;&gt;12 -->
<g id="edge16" class="edge">
<title>13&#45;&gt;12</title>
<path fill="none" stroke="#c0c0c0" stroke-width="2" d="M51,-575.8314C51,-568.131 51,-558.9743 51,-550.4166"/>
<polygon fill="#c0c0c0" stroke="#c0c0c0" stroke-width="2" points="54.5001,-550.4132 51,-540.4133 47.5001,-550.4133 54.5001,-550.4132"/>
</g>
</g>
</svg>
